<svg width="25" height="24" viewBox="0 0 25 24" fill="none" xmlns="http://www.w3.org/2000/svg">
<g clip-path="url(#clip0_944_953)">
<path d="M25 11.5999V11.2999V5.89991C25 5.29991 24.5 4.79991 23.9 4.79991H1.1C0.5 4.69991 0 5.19991 0 5.79991V11.1999V11.8999V17.2999C0 17.8999 0.5 18.3999 1.1 18.3999H23.9C24.5 18.3999 25 17.8999 25 17.2999V11.8999V11.5999ZM23 13.7999C21.5 13.7999 20.3 14.9999 20.3 16.4999H4.7C4.7 14.9999 3.5 13.7999 2 13.7999V11.8999V11.1999V9.39991C3.5 9.39991 4.7 8.19991 4.7 6.69991H20.3C20.3 8.19991 21.5 9.39991 23 9.39991V11.2999V11.9999V13.7999Z" fill="white"/>
<path d="M23.153 2.04048L20.8125 0.0078125L1.73163 21.9783L4.07213 24.011L23.153 2.04048Z" fill="white"/>
</g>
<defs>
<clipPath id="clip0_944_953">
<rect width="25" height="24" fill="white"/>
</clipPath>
</defs>
</svg>
