<svg width="17" height="22" viewBox="0 0 17 22" fill="none" xmlns="http://www.w3.org/2000/svg">
<g clip-path="url(#clip0_945_957)">
<path d="M14.5 7.3H13.5V5.2C13.5 2.3 11.2 0 8.3 0C5.4 0 3.1 2.3 3.1 5.2V7.3H2.1C0.9 7.3 0 8.2 0 9.3V19.7C0 20.8 0.9 21.8 2.1 21.8H14.5C15.6 21.8 16.6 20.9 16.6 19.7V9.3C16.6 8.2 15.7 7.3 14.5 7.3ZM5.1 5.2C5.1 3.4 6.5 2 8.3 2C10.1 2 11.5 3.4 11.5 5.2V7.3H5.1V5.2ZM12.4 15.5H9.3V18.6H7.3V15.5H4.1V13.4H7.2V10.3H9.3V13.4H12.4V15.5Z" fill="white"/>
</g>
<defs>
<clipPath id="clip0_945_957">
<rect width="16.6" height="21.8" fill="white"/>
</clipPath>
</defs>
</svg>
