<svg width="26" height="19" viewBox="0 0 26 19" fill="none" xmlns="http://www.w3.org/2000/svg">
<g clip-path="url(#clip0_945_959)">
<path d="M25.5 5.3L23.2 7.6C20.5 4.9 16.8 3.2 12.7 3.2C8.6 3.2 4.9 4.9 2.3 7.6L0 5.3C3.3 2 7.8 0 12.8 0C17.8 0 22.2 2 25.5 5.3Z" fill="white"/>
<path d="M12.8 6.3999C16 6.3999 18.9 7.6999 21 9.7999L18.7 11.9999C17.2 10.4999 15 9.4999 12.7 9.4999C10.4 9.4999 8.2 10.4999 6.7 11.9999L4.5 9.7999C6.6 7.6999 9.5 6.3999 12.8 6.3999Z" fill="white"/>
<path d="M16.5 14.3002L12.7 18.1002L9 14.3002C10 13.3002 11.3 12.7002 12.8 12.7002C14.3 12.7002 15.5 13.3002 16.5 14.3002Z" fill="white"/>
</g>
<defs>
<clipPath id="clip0_945_959">
<rect width="25.5" height="18.1" fill="white"/>
</clipPath>
</defs>
</svg>
