<svg width="100" height="100" viewBox="0 0 100 100" fill="none" xmlns="http://www.w3.org/2000/svg">
<path d="M77.3 72.1429H11V81H89V72.1429H77.3ZM85.1 67.7143C83.93 49.5571 72.23 34.9429 57.02 31.4C57.41 30.5143 57.8 29.1857 57.8 27.8571C57.8 22.9857 54.29 20 50 20C45.71 20 42.2 22.9857 42.2 27.8571C42.2 29.1857 42.59 30.5143 42.98 31.4C27.77 34.9429 16.07 49.5571 14.9 67.7143H85.1ZM50 39.3714C61.31 39.3714 71.45 47.3429 75.35 58.8571H24.65C28.55 47.3429 38.69 39.3714 50 39.3714Z" fill="#797979"/>
</svg>
