<svg width="100" height="100" viewBox="0 0 100 100" fill="none" xmlns="http://www.w3.org/2000/svg">
<g clip-path="url(#clip0_283_429)">
<path d="M35.416 60.417L16.666 79.167L22.916 85.417L37.4993 70.8337H45.8327L35.416 60.417ZM62.4993 4.16699C60.2892 4.16699 58.1696 5.04497 56.6068 6.60777C55.044 8.17057 54.166 10.2902 54.166 12.5003C54.166 14.7105 55.044 16.8301 56.6068 18.3929C58.1696 19.9557 60.2892 20.8337 62.4993 20.8337C64.7095 20.8337 66.8291 19.9557 68.3919 18.3929C69.9547 16.8301 70.8327 14.7105 70.8327 12.5003C70.8327 10.2902 69.9547 8.17057 68.3919 6.60777C66.8291 5.04497 64.7095 4.16699 62.4993 4.16699ZM87.4993 87.5003L74.9993 100L62.4993 87.5003V81.2503L32.9577 51.7087C31.666 51.917 30.416 52.0837 29.166 52.0837V43.0003C36.0827 43.1253 44.2077 39.3753 48.6243 34.5003L54.4577 28.042C55.2493 27.0837 56.2493 26.4587 57.3327 25.9587C58.541 25.3753 59.916 25.0003 61.3327 25.0003H61.4577C66.666 25.0003 70.8327 29.167 70.8327 34.417V58.3337C70.8327 61.8753 69.3743 65.0837 66.9993 67.3753L52.0827 52.4587V43.0003C49.4577 45.167 46.1243 47.2503 42.541 48.792L68.7493 75.0003H74.9993L87.4993 87.5003Z" fill="black"/>
</g>
<defs>
<clipPath id="clip0_283_429">
<rect width="100" height="100" fill="white"/>
</clipPath>
</defs>
</svg>
