<svg width="100" height="100" viewBox="0 0 100 100" fill="none" xmlns="http://www.w3.org/2000/svg">
<path d="M69.2941 37.0909L82 49.7143L69.2941 62.3377L64.8471 57.9195L69.9294 52.8701H53.4118V46.5584H69.9294L64.8471 41.5091L69.2941 37.0909ZM34.3529 15H66.1176C69.6118 15 72.4706 17.8403 72.4706 21.3117V33.9351H66.1176V30.7792H34.3529V68.6493H66.1176V65.4935H72.4706V78.1169C72.4706 81.5883 69.6118 84.4286 66.1176 84.4286H34.3529C30.8588 84.4286 28 81.5883 28 78.1169V21.3117C28 17.8403 30.8588 15 34.3529 15ZM34.3529 78.1169H66.1176V74.961H34.3529V78.1169ZM34.3529 24.4675H66.1176V21.3117H34.3529V24.4675Z" fill="#797979"/>
</svg>
