<svg width="100" height="100" viewBox="0 0 100 100" fill="none" xmlns="http://www.w3.org/2000/svg">
<path d="M74.1111 22.6H70.6667V15.625H63.7778V22.6H36.2222V15.625H29.3333V22.6H25.8889C22.1 22.6 19 25.7387 19 29.575V78.4C19 82.2363 22.1 85.375 25.8889 85.375H74.1111C77.9 85.375 81 82.2363 81 78.4V29.575C81 25.7387 77.9 22.6 74.1111 22.6ZM74.1111 78.4H25.8889V43.525H74.1111V78.4ZM74.1111 36.55H25.8889V29.575H74.1111V36.55ZM39.6667 57.475H32.7778V50.5H39.6667V57.475ZM53.4444 57.475H46.5556V50.5H53.4444V57.475ZM67.2222 57.475H60.3333V50.5H67.2222V57.475ZM39.6667 71.425H32.7778V64.45H39.6667V71.425ZM53.4444 71.425H46.5556V64.45H53.4444V71.425ZM67.2222 71.425H60.3333V64.45H67.2222V71.425Z" fill="#797979"/>
</svg>
