<svg width="100" height="100" viewBox="0 0 100 100" fill="none" xmlns="http://www.w3.org/2000/svg">
<path d="M79.1667 16.6663H75V8.33301H66.6667V16.6663H33.3333V8.33301H25V16.6663H20.8333C16.2083 16.6663 12.5 20.4163 12.5 24.9997V83.333C12.5 85.5432 13.378 87.6628 14.9408 89.2256C16.5036 90.7884 18.6232 91.6664 20.8333 91.6664H79.1667C81.3768 91.6664 83.4964 90.7884 85.0592 89.2256C86.622 87.6628 87.5 85.5432 87.5 83.333V24.9997C87.5 22.7895 86.622 20.6699 85.0592 19.1071C83.4964 17.5443 81.3768 16.6663 79.1667 16.6663ZM79.1667 83.333H20.8333V41.6663H79.1667V83.333ZM79.1667 33.333H20.8333V24.9997H79.1667V33.333ZM50 54.1663H70.8333V74.9997H50V54.1663Z" fill="black"/>
</svg>