<svg width="100" height="100" viewBox="0 0 100 100" fill="none" xmlns="http://www.w3.org/2000/svg">
<g clip-path="url(#clip0_310_540)">
<path d="M79.1229 67.4198L72.2855 58.5714C70.9449 56.8286 69.202 55.7561 67.3251 55.4879C65.3141 55.2198 63.3031 55.7561 61.5603 57.2308L59.4152 58.8396L56.868 60.8506C56.5998 60.7165 56.4658 60.5824 56.1976 60.4484C55.7954 60.1802 55.2592 59.9121 54.991 59.644C51.1031 56.2923 47.6174 52.2703 44.668 47.578C43.5954 45.7011 42.5229 43.8242 41.7185 41.5451C42.5229 40.8747 43.4614 40.3385 44.2658 39.6681L46.5449 37.9253C48.4218 36.4506 49.4943 34.7077 49.7625 32.6967C50.0306 30.6857 49.3603 28.6747 48.0196 26.9319L44.668 22.5077C44.2658 21.9714 43.8636 21.5692 43.5954 21.033C42.791 19.9604 41.9866 18.8879 41.1822 18.0835C38.5009 14.5978 34.0768 14.0615 30.457 16.7429L27.7757 18.6198L24.6921 21.033C22.5471 22.7758 21.0724 24.9209 20.5361 27.7363C19.7317 31.7582 20.268 35.6462 21.0724 38.8637C22.6812 45.433 25.3625 51.8681 29.7866 58.8396C35.1493 67.1517 41.9866 74.1231 50.2987 79.4857C53.5163 81.4967 57.8064 83.9099 62.7669 84.8484C63.7053 84.9824 64.5097 85.1165 65.4482 85.1165C67.7273 85.1165 70.0064 84.7143 73.0899 82.3011C73.0899 82.3011 74.9669 80.8264 76.0394 80.022C76.0394 80.022 80.7317 76.1341 81.1339 73.1846C81.1339 71.0396 80.5976 69.1626 79.1229 67.4198ZM66.5207 60.7165C67.191 60.8506 67.5932 61.2528 67.9954 61.789L74.9669 70.7714C75.5031 71.3077 75.6372 71.978 75.6372 72.3802C75.5031 73.0506 75.1009 73.5868 74.6987 73.989L64.9119 61.3868C65.18 61.1187 65.8504 60.7165 66.5207 60.7165ZM36.7581 21.4352C37.5625 22.3736 38.2328 23.3121 39.0372 24.3846C39.4394 24.9209 39.8416 25.4571 40.2438 25.8593L43.5954 30.2835C43.9976 30.8198 44.3998 31.4901 44.2658 32.1604C44.1317 32.8308 43.5954 33.367 43.0592 33.7692L33.1383 21.167L33.4064 21.033C34.7471 20.0945 35.8196 20.0945 36.7581 21.4352ZM69.3361 78.1451C67.7273 79.4857 65.8504 79.8879 63.7053 79.4857C60.4877 78.8154 57.2702 77.4747 53.1141 74.7934C45.4724 69.967 39.0372 63.5319 34.2108 55.8901C30.0548 49.4549 27.5075 43.6901 26.1669 37.6571C25.6306 34.9758 25.0943 31.7582 25.6306 28.8088C26.0328 27.3341 26.7031 26.2615 27.9097 25.3231L28.9823 24.3846L38.9031 36.9868C38.5009 37.2549 38.0987 37.5231 37.6965 37.7912C36.7581 38.4615 35.8196 39.8022 36.3559 41.8132C37.1603 45.0308 38.635 47.7121 40.1097 50.2593C43.3273 55.4879 47.0812 59.9121 51.5053 63.6659C52.1757 64.2022 52.7119 64.6044 53.2482 64.8725C53.6504 65.1407 54.1866 65.4088 54.4548 65.6769C54.5888 65.6769 54.5888 65.811 54.7229 65.811C56.1976 66.8835 57.9405 66.7495 59.2812 65.5429L60.4877 64.6044L70.2746 77.2066C70.0064 77.6088 69.6042 77.8769 69.3361 78.1451Z" fill="#797979"/>
</g>
<defs>
<clipPath id="clip0_310_540">
<rect width="61" height="70.1165" fill="white" transform="translate(20 15)"/>
</clipPath>
</defs>
</svg>
