<svg width="100" height="100" viewBox="0 0 100 100" fill="none" xmlns="http://www.w3.org/2000/svg">
<path d="M83.3333 64.5833C78.3333 64.5833 72.9167 63.75 68.3333 62.0833C67.9167 62.0833 67.5 62.0833 67.0833 62.0833C65.8333 62.0833 65 62.5 64.1667 63.3333L55 72.5C43.3333 66.25 33.3333 56.6667 27.5 45L36.6667 35.8333C37.9167 34.5833 38.3333 32.9167 37.5 31.6667C36.25 27.0833 35.4167 21.6667 35.4167 16.6667C35.4167 14.5833 33.3333 12.5 31.25 12.5H16.6667C14.5833 12.5 12.5 14.5833 12.5 16.6667C12.5 55.8333 44.1667 87.5 83.3333 87.5C85.4167 87.5 87.5 85.4167 87.5 83.3333V68.75C87.5 66.6667 85.4167 64.5833 83.3333 64.5833ZM20.8333 20.8333H27.0833C27.5 24.5833 28.3333 28.3333 29.1667 31.6667L24.1667 36.6667C22.5 31.6667 21.25 26.25 20.8333 20.8333ZM79.1667 79.1667C73.75 78.75 68.3333 77.5 63.3333 75.8333L68.3333 70.8333C71.6667 71.6667 75.4167 72.5 79.1667 72.5V79.1667Z" fill="black"/>
</svg>
