<svg width="100" height="100" viewBox="0 0 100 100" fill="none" xmlns="http://www.w3.org/2000/svg">
<path d="M88.5423 43.7497C86.834 43.7497 85.4173 45.1663 85.4173 46.8747H79.0006C78.3756 41.1663 76.1256 35.9163 72.6673 31.6663L77.209 27.1247L77.2506 27.1663C78.459 28.3747 80.459 28.3747 81.6673 27.1663C82.8756 25.958 82.8756 23.958 81.6673 22.7497L77.2506 18.333C76.0423 17.1247 74.0423 17.1247 72.834 18.333C71.6256 19.5413 71.6256 21.4997 72.7923 22.708L68.2506 27.2497C64.0006 23.833 58.7923 21.583 53.084 20.958V14.583H53.1256C54.834 14.583 56.2506 13.1663 56.2506 11.458C56.2506 9.74967 54.834 8.33301 53.1256 8.33301H46.8756C45.1673 8.33301 43.7506 9.74967 43.7506 11.458C43.7506 13.1663 45.1256 14.5413 46.834 14.583V21.0413C41.1256 21.6247 35.9173 23.9163 31.6673 27.333L27.1257 22.7913L27.1673 22.7497C28.3757 21.5413 28.3757 19.5413 27.1673 18.333C25.959 17.1247 23.959 17.1247 22.7507 18.333L18.334 22.7497C17.1257 23.958 17.1257 25.958 18.334 27.1663C19.5423 28.3747 21.5006 28.3747 22.709 27.208L27.2507 31.7497C23.834 35.9997 21.584 41.1663 21.0007 46.8747H14.584C14.584 45.1663 13.1673 43.7497 11.459 43.7497C9.75065 43.7497 8.33398 45.1663 8.33398 46.8747V53.1247C8.33398 54.833 9.75065 56.2497 11.459 56.2497C13.1673 56.2497 14.584 54.833 14.584 53.1247H21.0007C21.6257 58.833 23.8757 63.9997 27.2507 68.2497L22.709 72.7913C21.5006 71.583 19.5423 71.6247 18.334 72.833C17.1257 74.0413 17.1257 76.0414 18.334 77.2497L22.7507 81.6664C23.959 82.8747 25.959 82.8747 27.1673 81.6664C28.3757 80.458 28.3757 78.458 27.1673 77.2497L27.1257 77.208L31.6673 72.6664C35.9173 76.083 41.084 78.333 46.7923 78.958V85.4163C45.084 85.458 43.709 86.833 43.709 88.5413C43.709 90.2497 45.1256 91.6664 46.834 91.6664H53.084C54.7923 91.6664 56.209 90.2497 56.209 88.5413C56.209 86.833 54.7923 85.4163 53.084 85.4163H53.0423V78.9997C58.7506 78.4163 63.959 76.1247 68.209 72.708L72.7506 77.2497C71.5423 78.458 71.584 80.4163 72.7923 81.6247C74.0006 82.833 76.0006 82.833 77.209 81.6247L81.6256 77.208C82.834 75.9997 82.834 73.9997 81.6256 72.7913C80.4173 71.583 78.4173 71.583 77.209 72.7913L77.1673 72.833L72.6256 68.2913C76.0423 64.0413 78.334 58.833 78.959 53.083H85.3756C85.3756 54.7913 86.7923 56.208 88.5006 56.208C90.209 56.208 91.6256 54.7913 91.6256 53.083V46.833C91.6673 45.1663 90.2506 43.7497 88.5423 43.7497ZM57.2923 33.333C59.584 33.333 61.459 35.208 61.459 37.4997C61.459 39.7913 59.584 41.6663 57.2923 41.6663C55.0006 41.6663 53.1256 39.7913 53.1256 37.4997C53.1256 35.208 55.0006 33.333 57.2923 33.333ZM50.0006 54.1663C47.709 54.1663 45.834 52.2913 45.834 49.9997C45.834 47.708 47.709 45.833 50.0006 45.833C52.2923 45.833 54.1673 47.708 54.1673 49.9997C54.1673 52.2913 52.2923 54.1663 50.0006 54.1663ZM42.709 33.333C45.0006 33.333 46.8756 35.208 46.8756 37.4997C46.8756 39.7913 45.0006 41.6663 42.709 41.6663C40.4173 41.6663 38.5423 39.7913 38.5423 37.4997C38.5423 35.208 40.4173 33.333 42.709 33.333ZM35.4173 54.1663C33.1257 54.1663 31.2507 52.2913 31.2507 49.9997C31.2507 47.708 33.1257 45.833 35.4173 45.833C37.709 45.833 39.584 47.708 39.584 49.9997C39.584 52.2913 37.709 54.1663 35.4173 54.1663ZM42.709 66.6663C40.4173 66.6663 38.5423 64.7913 38.5423 62.4997C38.5423 60.208 40.4173 58.333 42.709 58.333C45.0006 58.333 46.8756 60.208 46.8756 62.4997C46.8756 64.7913 45.0006 66.6663 42.709 66.6663ZM57.2923 66.6663C55.0006 66.6663 53.1256 64.7913 53.1256 62.4997C53.1256 60.208 55.0006 58.333 57.2923 58.333C59.584 58.333 61.459 60.208 61.459 62.4997C61.459 64.7913 59.584 66.6663 57.2923 66.6663ZM60.4173 49.9997C60.4173 47.708 62.2923 45.833 64.584 45.833C66.8756 45.833 68.7506 47.708 68.7506 49.9997C68.7506 52.2913 66.8756 54.1663 64.584 54.1663C62.2923 54.1663 60.4173 52.2913 60.4173 49.9997Z" fill="black"/>
</svg>
