<svg width="100" height="100" viewBox="0 0 100 100" fill="none" xmlns="http://www.w3.org/2000/svg">
<path d="M85 50.5C85 31.4356 69.5644 16 50.5 16C31.4356 16 16 31.4356 16 50.5C16 67.7244 28.6244 81.9844 45.1333 84.5911V60.4667H36.3422V50.5H45.1333V42.8844C45.1333 34.2467 50.2444 29.4933 58.1156 29.4933C61.8978 29.4933 65.8333 30.1578 65.8333 30.1578V38.6422H61.4889C57.1956 38.6422 55.8667 41.3 55.8667 44.0089V50.5H65.4244L63.8911 60.4667H55.8667V84.5911C72.3756 81.9844 85 67.7244 85 50.5Z" fill="#797979"/>
<path d="M63.9423 60.4667L65.4756 50.5H55.8667V44.0089C55.8667 41.3 57.1956 38.6422 61.4889 38.6422H65.8334V30.1578C65.8334 30.1578 61.8978 29.4933 58.1156 29.4933C50.2445 29.4933 45.1334 34.2467 45.1334 42.8845V50.5H36.3423V60.4667H45.1334V84.5911C46.8712 84.8467 48.7112 85 50.5001 85C52.3401 85 54.1289 84.8467 55.8667 84.5911V60.4667H63.9423Z" fill="white"/>
</svg>
