<svg width="23" height="23" viewBox="0 0 23 23" fill="none" xmlns="http://www.w3.org/2000/svg">
<path d="M19.8383 0H3.16173C1.42588 0 0 1.42588 0 3.16173V19.8383C0 21.5741 1.42588 23 3.16173 23H19.8383C21.5741 23 23 21.5741 23 19.8383V3.16173C23 1.42588 21.5741 0 19.8383 0ZM1.23989 19.8383V13.8248L4.52561 11.531C5.26954 11.035 6.26146 11.035 6.9434 11.655L18.5364 21.7601H3.16173C2.10782 21.7601 1.23989 20.8922 1.23989 19.8383ZM21.7601 19.8383C21.7601 20.7682 21.1402 21.5121 20.2722 21.6981L7.74933 10.7251C6.63342 9.73315 5.02156 9.67116 3.78167 10.5391L1.23989 12.2749V3.16173C1.23989 2.10782 2.10782 1.23989 3.16173 1.23989H19.8383C20.8922 1.23989 21.7601 2.10782 21.7601 3.16173V19.8383Z" fill="#706C6C"/>
<path d="M15.6227 2.10782C13.0189 2.10782 10.8491 4.21563 10.8491 6.8814C10.8491 9.54717 12.9569 11.655 15.6227 11.655C18.2885 11.655 20.3963 9.54717 20.3963 6.8814C20.3963 4.21563 18.2885 2.10782 15.6227 2.10782ZM15.6227 10.4151C13.7009 10.4151 12.089 8.86523 12.089 6.8814C12.089 4.95957 13.6389 3.34771 15.6227 3.34771C17.5445 3.34771 19.1564 4.89757 19.1564 6.8814C19.1564 8.80324 17.6065 10.4151 15.6227 10.4151Z" fill="#706C6C"/>
</svg>
