<svg width="100" height="100" viewBox="0 0 100 100" fill="none" xmlns="http://www.w3.org/2000/svg">
<path d="M49.5 85C68.5538 85 84 69.5538 84 50.5C84 31.4462 68.5538 16 49.5 16C30.4462 16 15 31.4462 15 50.5C15 69.5538 30.4462 85 49.5 85Z" fill="#797979"/>
<path d="M49.5001 32.7133C55.2756 32.7133 55.9912 32.7133 58.2912 32.8155C60.3867 32.9178 61.5623 33.2755 62.3289 33.5822C63.3512 33.9911 64.0667 34.4511 64.8334 35.2178C65.6001 35.9844 66.0601 36.7 66.4689 37.7222C66.7756 38.4889 67.1334 39.6133 67.2356 41.76C67.3378 44.06 67.3378 44.7244 67.3378 50.5511C67.3378 56.3778 67.3378 57.0422 67.2356 59.3422C67.1334 61.4378 66.7756 62.6133 66.4689 63.38C66.0601 64.4022 65.6001 65.1178 64.8334 65.8844C64.0667 66.6511 63.3512 67.1111 62.3289 67.52C61.5623 67.8267 60.4378 68.1844 58.2912 68.2867C55.9912 68.3889 55.3267 68.3889 49.5001 68.3889C43.7245 68.3889 43.0089 68.3889 40.7089 68.2867C38.6134 68.1844 37.4378 67.8267 36.6712 67.52C35.6489 67.1111 34.9334 66.6511 34.1667 65.8844C33.4001 65.1178 32.9401 64.4022 32.5312 63.38C32.2245 62.6133 31.8667 61.4889 31.7645 59.3422C31.6623 57.0422 31.6623 56.3778 31.6623 50.5511C31.6623 44.7244 31.6623 44.06 31.7645 41.76C31.8667 39.6644 32.2245 38.4889 32.5312 37.7222C32.9401 36.7 33.4001 35.9844 34.1667 35.2178C34.9334 34.4511 35.6489 33.9911 36.6712 33.5822C37.4378 33.2755 38.5623 32.9178 40.7089 32.8155C43.0089 32.7133 43.7245 32.7133 49.5001 32.7133ZM49.5001 28.7778C43.6223 28.7778 42.8556 28.7778 40.5556 28.9311C38.2556 29.0333 36.6712 29.3911 35.2912 29.9533C33.8601 30.5155 32.6334 31.2311 31.4578 32.4578C30.2312 33.6844 29.5156 34.86 28.9534 36.2911C28.3912 37.6711 28.0334 39.2555 27.9312 41.5555C27.7778 43.8555 27.7778 44.6222 27.7778 50.5C27.7778 56.3778 27.7778 57.1444 27.9312 59.4444C28.0334 61.7444 28.3912 63.3289 28.9534 64.7089C29.5156 66.14 30.2312 67.3667 31.4578 68.5422C32.6845 69.7689 33.8601 70.4844 35.2912 71.0467C36.6712 71.6089 38.2556 71.9667 40.5556 72.0689C42.8556 72.1711 43.6223 72.2222 49.5001 72.2222C55.3778 72.2222 56.1445 72.2222 58.4445 72.0689C60.7445 71.9667 62.3289 71.6089 63.7089 71.0467C65.1401 70.4844 66.3667 69.7689 67.5423 68.5422C68.7689 67.3155 69.4845 66.14 70.0467 64.7089C70.6089 63.3289 70.9667 61.7444 71.0689 59.4444C71.1712 57.1444 71.2223 56.3778 71.2223 50.5C71.2223 44.6222 71.2223 43.8555 71.0689 41.5555C70.9667 39.2555 70.6089 37.6711 70.0467 36.2911C69.4845 34.86 68.7689 33.6333 67.5423 32.4578C66.3156 31.2311 65.1401 30.5155 63.7089 29.9533C62.3289 29.3911 60.7445 29.0333 58.4445 28.9311C56.1445 28.7778 55.3778 28.7778 49.5001 28.7778Z" fill="white"/>
<path d="M49.5001 39.3578C43.3157 39.3578 38.3579 44.3666 38.3579 50.5C38.3579 56.6333 43.3668 61.6422 49.5001 61.6422C55.6846 61.6422 60.6424 56.6333 60.6424 50.5C60.6424 44.3666 55.6846 39.3578 49.5001 39.3578ZM49.5001 57.7578C45.5135 57.7578 42.2424 54.5378 42.2424 50.5C42.2424 46.4622 45.4624 43.2422 49.5001 43.2422C53.5379 43.2422 56.7579 46.4622 56.7579 50.5C56.7579 54.5378 53.4868 57.7578 49.5001 57.7578Z" fill="white"/>
<path d="M61.1023 41.5044C62.5419 41.5044 63.7089 40.3374 63.7089 38.8978C63.7089 37.4582 62.5419 36.2911 61.1023 36.2911C59.6626 36.2911 58.4956 37.4582 58.4956 38.8978C58.4956 40.3374 59.6626 41.5044 61.1023 41.5044Z" fill="white"/>
</svg>