<svg width="100" height="100" viewBox="0 0 100 100" fill="none" xmlns="http://www.w3.org/2000/svg">
<path d="M50.0007 27.083C52.7633 27.083 55.4128 28.1805 57.3663 30.134C59.3199 32.0875 60.4173 34.737 60.4173 37.4997C60.4173 38.8676 60.1479 40.2222 59.6244 41.486C59.1009 42.7498 58.3336 43.8981 57.3663 44.8654C56.3991 45.8326 55.2507 46.5999 53.9869 47.1234C52.7231 47.6469 51.3686 47.9163 50.0007 47.9163C47.238 47.9163 44.5885 46.8189 42.635 44.8654C40.6815 42.9119 39.584 40.2623 39.584 37.4997C39.584 34.737 40.6815 32.0875 42.635 30.134C44.5885 28.1805 47.238 27.083 50.0007 27.083ZM50.0007 8.33301C57.7361 8.33301 65.1548 11.4059 70.6246 16.8757C76.0944 22.3455 79.1673 29.7642 79.1673 37.4997C79.1673 59.3747 50.0007 91.6664 50.0007 91.6664C50.0007 91.6664 20.834 59.3747 20.834 37.4997C20.834 29.7642 23.9069 22.3455 29.3767 16.8757C34.8465 11.4059 42.2652 8.33301 50.0007 8.33301ZM50.0007 16.6663C44.4753 16.6663 39.1763 18.8613 35.2693 22.7683C31.3623 26.6753 29.1673 31.9743 29.1673 37.4997C29.1673 41.6663 29.1673 49.9997 50.0007 77.958C70.834 49.9997 70.834 41.6663 70.834 37.4997C70.834 31.9743 68.6391 26.6753 64.732 22.7683C60.825 18.8613 55.526 16.6663 50.0007 16.6663Z" fill="black"/>
</svg>
