<svg width="100" height="100" viewBox="0 0 100 100" fill="none" xmlns="http://www.w3.org/2000/svg">
<path d="M50.5 84.9C49.8 84.9 49.2 84.6 48.7 84.2C47.8 83.3 26 61.8 26 40.2C26 22.2 41.4 16.5 49.6 16C50.2 16 50.8 16 51.3 16C52.3 16.1 74.9 17.8 74.9 40.2C74.9 61.8 53.1 83.2 52.2 84.1C51.7 84.6 51.1 84.9 50.5 84.9ZM50.5 21C50.3 21 50.1 21 49.8 21C49.1 21.1 31 22.4 31 40.2C31 56.3 45.4 73.3 50.5 78.7C55.6 73.2 70 56.3 70 40.2C70 22.4 51.8 21 51 21C50.8 21 50.7 21 50.5 21Z" fill="#8A8A8A"/>
<path d="M50.4998 53.9C43.4998 53.9 37.7998 48.2 37.7998 41.2C37.7998 34.2 43.4998 28.5 50.4998 28.5C57.4998 28.5 63.1998 34.2 63.1998 41.2C63.1998 48.2 57.3998 53.9 50.4998 53.9ZM50.4998 33.6C46.2998 33.6 42.7998 37 42.7998 41.3C42.7998 45.6 46.1998 49 50.4998 49C54.7998 49 58.1998 45.6 58.1998 41.3C58.1998 37 54.6998 33.6 50.4998 33.6Z" fill="#8A8A8A"/>
</svg>
