<svg width="100" height="100" viewBox="0 0 100 100" fill="none" xmlns="http://www.w3.org/2000/svg">
<path d="M83.334 41.6663V29.1663C83.334 26.9562 82.456 24.8366 80.8932 23.2738C79.3304 21.711 77.2108 20.833 75.0007 20.833H25.0007C22.7905 20.833 20.6709 21.711 19.1081 23.2738C17.5453 24.8366 16.6673 26.9562 16.6673 29.1663V41.6663C14.4572 41.6663 12.3376 42.5443 10.7748 44.1071C9.21196 45.6699 8.33398 47.7895 8.33398 49.9997V70.833H13.8757L16.6673 79.1663H20.834L23.6257 70.833H76.3757L79.1673 79.1663H83.334L86.1257 70.833H91.6673V49.9997C91.6673 47.7895 90.7894 45.6699 89.2265 44.1071C87.6637 42.5443 85.5441 41.6663 83.334 41.6663ZM54.1673 29.1663H75.0007V41.6663H54.1673V29.1663ZM25.0007 29.1663H45.834V41.6663H25.0007V29.1663ZM83.334 62.4997H16.6673V49.9997H83.334V62.4997Z" fill="black"/>
</svg>
