<svg width="100" height="100" viewBox="0 0 100 100" fill="none" xmlns="http://www.w3.org/2000/svg">
<path d="M64.584 40.1247C59.209 42.9997 54.2923 46.6663 50.0007 51.083C45.709 46.6247 40.7923 42.958 35.4173 40.1247C36.4173 28.583 41.334 17.2497 50.2507 8.33301C59.084 17.1663 63.7923 28.4997 64.584 40.1247ZM50.0007 64.3747C58.959 50.708 74.2507 41.6663 91.6673 41.6663C91.6673 83.333 52.834 91.1663 50.0007 91.6664C47.1673 91.208 8.33398 83.333 8.33398 41.6663C25.7507 41.6663 41.0423 50.708 50.0007 64.3747ZM50.209 21.6247C47.459 25.958 45.5423 30.7497 44.5007 35.7497L50.0007 39.7913L55.6257 35.708C54.6673 30.708 52.834 25.9163 50.209 21.6247ZM50.0007 83.208C50.0007 83.208 75.0007 79.1663 82.2507 51.0413C58.334 58.333 50.0007 79.583 50.0007 79.583C50.0007 79.583 37.5007 54.1663 17.7507 51.083C25.0007 79.1663 50.0007 83.208 50.0007 83.208Z" fill="black"/>
</svg>
