<svg width="100" height="100" viewBox="0 0 100 100" fill="none" xmlns="http://www.w3.org/2000/svg">
<path d="M50.0007 20.833C52.2108 20.833 54.3304 21.711 55.8932 23.2738C57.456 24.8366 58.334 26.9562 58.334 29.1663C58.334 30.1663 58.1673 31.1247 57.834 32.0413C74.7923 35.4163 87.5007 49.6247 87.5007 66.6663H12.5007C12.5007 49.6247 25.209 35.4163 42.1673 32.0413C41.834 31.1247 41.6673 30.1663 41.6673 29.1663C41.6673 26.9562 42.5453 24.8366 44.1081 23.2738C45.6709 21.711 47.7905 20.833 50.0007 20.833ZM91.6673 79.1663H8.33398V70.833H91.6673V79.1663ZM50.0007 39.583C37.0423 39.583 26.0423 47.458 22.2507 58.333H77.7507C73.959 47.458 62.959 39.583 50.0007 39.583Z" fill="black"/>
</svg>
