<svg width="100" height="100" viewBox="0 0 100 100" fill="none" xmlns="http://www.w3.org/2000/svg">
<path d="M50.5 85C69.5538 85 85 69.5538 85 50.5C85 31.4462 69.5538 16 50.5 16C31.4462 16 16 31.4462 16 50.5C16 69.5538 31.4462 85 50.5 85Z" fill="#797979"/>
<path d="M43.5487 70.3822C60.4154 70.3822 69.6154 56.4289 69.6154 44.3155C69.6154 43.9067 69.6154 43.5489 69.5643 43.14C71.3532 41.8622 72.8865 40.2267 74.1132 38.3867C72.4776 39.1022 70.6887 39.6133 68.8487 39.8178C70.7398 38.6933 72.1709 36.9044 72.8865 34.7578C71.0976 35.8311 69.1554 36.5467 67.0598 37.0067C65.3732 35.2178 63.0221 34.0933 60.3643 34.0933C55.3043 34.0933 51.2154 38.1822 51.2154 43.2422C51.2154 43.9578 51.3176 44.6733 51.4709 45.3378C43.8554 44.98 37.1087 41.3 32.6109 35.78C31.8443 37.1089 31.3843 38.6933 31.3843 40.38C31.3843 43.5489 33.0198 46.36 35.4732 47.9955C33.9909 47.9444 32.5598 47.5355 31.3332 46.8711C31.3332 46.9222 31.3332 46.9222 31.3332 46.9733C31.3332 51.42 34.5021 55.1 38.6932 55.9689C37.9265 56.1733 37.1087 56.2755 36.2909 56.2755C35.6776 56.2755 35.1154 56.2244 34.5532 56.1222C35.7287 59.7511 39.1021 62.4089 43.0887 62.46C39.9709 64.9133 35.9843 66.3955 31.6909 66.3955C30.9754 66.3955 30.2087 66.3444 29.4932 66.2933C33.5309 68.8489 38.3354 70.3822 43.5487 70.3822Z" fill="white"/>
</svg>
