<svg width="25" height="15" viewBox="0 0 25 15" fill="none" xmlns="http://www.w3.org/2000/svg">
<path d="M21.9 0C20.3 0 18.9 1.3 18.8 2.9C16.4 2.3 15.2 0.6 12.5 0.6C9.8 0.6 8.6 2.2 6.2 2.9C6.1 1.3 4.8 0 3.1 0C1.4 0 0 1.4 0 3.1V3.7C0 11.2 4.5 13.5 8.2 13.7C9.5 14.5 11 15 12.5 15C14 15 15.6 14.5 16.8 13.7C20.5 13.5 25 11.2 25 3.7V3.1C25 1.4 23.6 0 21.9 0ZM1.9 3.8V3.1C1.9 2.4 2.5 1.8 3.2 1.8C3.9 1.8 4.5 2.4 4.5 3.1V6.9C4.5 8.5 5 10 5.8 11.2C3.7 10.3 1.9 8.3 1.9 3.8ZM23.1 3.8C23.1 8.4 21.2 10.4 19.3 11.3C20.1 10 20.6 8.5 20.6 7V3.1C20.6 2.4 21.2 1.8 21.9 1.8C22.6 1.8 23.2 2.4 23.2 3.1V3.8H23.1ZM10.9 5.6C10.4 5.9 9.7 6.3 8.8 6.6V5.3C9.3 5 9.8 4.8 10.2 4.5C10.9 4.1 11.5 3.7 12.5 3.7C13.5 3.7 14.1 4.1 14.8 4.5C15.2 4.8 15.7 5 16.3 5.2V6.5C15.4 6.2 14.7 5.9 14.2 5.5C13.6 5.2 13.2 4.9 12.6 4.9C12 4.9 11.4 5.3 10.9 5.6Z" fill="#7A7A7A"/>
</svg>