<svg width="23" height="24" viewBox="0 0 23 24" fill="none" xmlns="http://www.w3.org/2000/svg">
<g clip-path="url(#clip0_897_1411)">
<path d="M3.09961 9.70005C3.09961 9.90005 3.19961 10.1 3.29961 10.3C3.39961 10.5 3.59961 10.6 3.79961 10.7C4.69961 11 5.59961 11.4 6.39961 11.9C6.99961 12.3 7.49961 12.7 8.09961 13.1C9.79961 14.6 11.0996 16.5 11.8996 18.7001C11.9996 19 12.1996 19.2 12.4996 19.3C12.7996 19.4 13.0996 19.4 13.2996 19.3C13.5996 19.2 13.7996 19 13.8996 18.7001C14.5996 16.5 15.8996 14.6 17.6996 13.1C18.1996 12.6 18.7996 12.2 19.2996 11.9C20.0996 11.4 20.9996 11 21.8996 10.7C22.0996 10.6 22.2996 10.5 22.3996 10.3C22.4996 10.1 22.5996 9.90005 22.5996 9.70005C22.5996 9.50005 22.4996 9.30005 22.3996 9.10005C22.2996 8.90005 22.0996 8.80005 21.8996 8.70005C19.9996 8.10005 18.2996 7.00005 16.8996 5.60005C15.4996 4.20005 14.4996 2.50005 13.7996 0.600049C13.6996 0.300049 13.4996 0.100049 13.1996 4.88311e-05C12.8996 -0.0999512 12.5996 -0.0999512 12.3996 4.88311e-05C12.0996 0.100049 11.8996 0.300049 11.7996 0.600049C11.1996 2.50005 10.0996 4.20005 8.69961 5.60005C7.29961 7.00005 5.59961 8.00005 3.69961 8.70005C3.49961 8.80005 3.39961 8.90005 3.19961 9.10005C3.09961 9.30005 3.09961 9.50005 3.09961 9.70005ZM12.7996 3.60005C14.1996 6.20005 16.2996 8.30005 18.8996 9.70005C18.2996 10 17.7996 10.3 17.2996 10.7C16.6996 11.1 16.0996 11.6 15.5996 12.1C14.4996 13.2 13.4996 14.4 12.7996 15.8C12.0996 14.4 11.0996 13.2 9.99961 12.1C9.49961 11.6 8.89961 11.1 8.29961 10.7C7.79961 10.3 7.19961 10 6.69961 9.70005C9.19961 8.30005 11.3996 6.20005 12.7996 3.60005Z" fill="#7A7A7A"/>
<path d="M0 18.3001C0 18.4001 0 18.5001 0.1 18.6001C0.2 18.7001 0.3 18.8001 0.4 18.8001C0.9 19.0001 1.3 19.2001 1.7 19.4001C2 19.6001 2.2 19.8001 2.5 20.0001C3.4 20.8001 4 21.7001 4.4 22.8001C4.4 22.9001 4.5 23.0001 4.7 23.1001C4.8 23.2001 5 23.2001 5.1 23.1001C5.2 23.0001 5.3 22.9001 5.4 22.8001C5.8 21.7001 6.4 20.7001 7.3 20.0001C7.6 19.8001 7.8 19.6001 8.1 19.4001C8.5 19.1001 9 18.9001 9.4 18.8001C9.5 18.8001 9.6 18.7001 9.7 18.6001C9.8 18.5001 9.8 18.4001 9.8 18.3001C9.8 18.2001 9.8 18.1001 9.7 18.0001C9.6 17.9001 9.5 17.8001 9.4 17.8001C8.5 17.5001 7.6 17.0001 6.9 16.2001C6.2 15.5001 5.7 14.6001 5.4 13.7001C5.4 13.6001 5.3 13.5001 5.1 13.4001C5 13.3001 4.8 13.3001 4.7 13.4001C4.6 13.5001 4.5 13.6001 4.4 13.7001C4.1 14.6001 3.6 15.5001 2.8 16.2001C2.1 16.9001 1.2 17.4001 0.3 17.8001C0.2 17.8001 0.1 17.9001 0 18.0001C0 18.1001 0 18.2001 0 18.3001ZM4.9 15.2001C5.6 16.5001 6.7 17.6001 8 18.3001C7.7 18.4001 7.4 18.6001 7.2 18.8001C6.9 19.0001 6.6 19.3001 6.3 19.5001C5.7 20.0001 5.3 20.7001 4.9 21.3001C4.5 20.6001 4.1 20.0001 3.5 19.5001C3.2 19.2001 2.9 19.0001 2.6 18.8001C2.3 18.6001 2.1 18.4001 1.8 18.3001C3.1 17.6001 4.2 16.5001 4.9 15.2001Z" fill="#7A7A7A"/>
</g>
<defs>
<clipPath id="clip0_897_1411">
<rect width="22.5" height="23.2" fill="white"/>
</clipPath>
</defs>
</svg>
