<svg width="25" height="10" viewBox="0 0 25 10" fill="none" xmlns="http://www.w3.org/2000/svg">
<g clip-path="url(#clip0_897_1409)">
<path d="M24.9991 8.3L23.5991 1.8C23.4991 1.2 22.6991 0.9 22.1991 1.4L20.6991 3C15.9991 -1 9.09913 -1 4.29913 3L2.79913 1.5C2.29913 1 1.49913 1.2 1.39913 1.9L-0.000866313 8.3C-0.100866 8.9 0.399134 9.4 0.999134 9.3L7.49913 7.9C8.09913 7.8 8.29913 7 7.89913 6.6L6.39913 5.1C8.19913 3.7 10.2991 2.9 12.4991 2.9C14.6991 2.9 16.7991 3.6 18.5991 5.1L17.0991 6.6C16.6991 7 16.8991 7.8 17.4991 8L23.9991 9.4C24.5991 9.4 25.0991 8.9 24.9991 8.3Z" fill="#7A7A7A"/>
</g>
<defs>
<clipPath id="clip0_897_1409">
<rect width="25" height="9.3" fill="white"/>
</clipPath>
</defs>
</svg>
