<svg width="25" height="25" viewBox="0 0 25 25" fill="none" xmlns="http://www.w3.org/2000/svg">
<g clip-path="url(#clip0_897_1583)">
<path d="M22.3992 4.49995L20.4992 6.49995V14.8H4.49922V5.09995H12.8992L12.1992 3.19995H3.99922C3.29922 3.19995 2.69922 3.79995 2.69922 4.49995V16.5H22.3992V4.49995Z" fill="#7A7A7A"/>
<path d="M22.3999 17.5H2.6999L0.0999018 23C-0.300098 23.9 0.299902 24.9 1.2999 24.9H23.6999C24.6999 24.9 25.2999 23.9 24.8999 23L22.3999 17.5ZM15.2999 22.9H9.6999C9.4999 22.9 9.3999 22.7 9.3999 22.6L9.6999 21.4C9.6999 21.3 9.7999 21.2 9.9999 21.2H14.9999C15.0999 21.2 15.1999 21.3 15.2999 21.4L15.5999 22.6C15.6999 22.7 15.4999 22.9 15.2999 22.9Z" fill="#7A7A7A"/>
<path d="M15.3 0C14.6 0 14 0.3 13.5 0.8C12.5 1.8 12.5 3.5 13.5 4.5L17.1 8.3C17.2 8.4 17.3 8.4 17.4 8.4C17.5 8.4 17.6 8.3 17.7 8.3C19 7 20.2 5.7 21.4 4.5C22.4 3.5 22.4 1.8 21.4 0.8C20.4 -0.2 18.8 -0.2 17.8 0.8L17.5 1.1L17.2 0.8C16.6 0.3 16 0 15.3 0ZM15.3 0.9C15.7 0.9 16.1 1.1 16.4 1.4L17.1 2.1C17.2 2.2 17.3 2.2 17.4 2.2C17.5 2.2 17.6 2.1 17.7 2.1L18.4 1.4C19 0.7 20 0.7 20.6 1.4C21.2 2.1 21.2 3.2 20.6 3.8C19.5 4.9 18.4 6.1 17.4 7.2L14.2 3.8C13.6 3.1 13.6 2 14.2 1.4C14.5 1.1 14.9 0.9 15.3 0.9Z" fill="#7A7A7A"/>
</g>
<defs>
<clipPath id="clip0_897_1583">
<rect width="25" height="24.9" fill="white"/>
</clipPath>
</defs>
</svg>
