<svg width="26" height="22" viewBox="0 0 26 22" fill="none" xmlns="http://www.w3.org/2000/svg">
<g clip-path="url(#clip0_900_1588)">
<path d="M19.4991 8.29999L17.1991 6.09999C17.1991 6.09999 17.1991 6.09999 17.0991 5.99999C15.5991 1.59999 11.1991 -0.800012 6.6991 0.199988C4.3991 0.799988 2.4991 2.19999 1.2991 4.19999C0.0990961 6.19999 -0.300904 8.59999 0.299096 10.9C0.899096 13.6 2.7991 15.9 5.2991 17.3V20.7C5.2991 21 5.3991 21.2 5.5991 21.4C5.7991 21.6 6.0991 21.7 6.2991 21.7H14.6991C14.9991 21.7 15.1991 21.6 15.4991 21.4C15.6991 21.2 15.7991 20.9 15.7991 20.6V17.4L17.5991 17C18.1991 16.9 18.6991 16.5 19.0991 15.9C19.3991 15.4 19.4991 14.7 19.3991 14.1L18.8991 11.8C19.5991 11.6 20.1991 11 20.3991 10.3C20.3991 9.69999 20.0991 8.89999 19.4991 8.29999ZM13.5991 19.7H7.2991V16.7C7.2991 16.2 6.9991 15.9 6.6991 15.7C4.4991 14.7 2.7991 12.7 2.2991 10.5C1.8991 8.79999 2.1991 6.99999 3.0991 5.49999C3.9991 3.99999 5.4991 2.89999 7.1991 2.49999C10.5991 1.69999 13.9991 3.59999 15.0991 6.89999C15.1991 7.29999 15.3991 7.59999 15.6991 7.89999L17.9991 9.89999L17.2991 10.1C16.9991 10.2 16.6991 10.4 16.4991 10.7C16.2991 11 16.2991 11.4 16.2991 11.7L16.9991 14.7C16.9991 14.8 16.9991 14.8 16.9991 14.8C16.9991 14.9 16.8991 14.9 16.8991 14.9L14.2991 15.5C13.7991 15.6 13.3991 16.1 13.4991 16.6L13.5991 19.7Z" fill="#7A7A7A"/>
<path d="M8.79999 3.29993C8.39999 3.29993 7.89999 3.39993 7.49999 3.49993C6.09999 3.79993 4.89999 4.69993 4.09999 5.99993C3.29999 7.29993 3.09999 8.69993 3.39999 10.1999C3.49999 10.4999 3.69999 10.5999 3.99999 10.5999C4.09999 10.5999 4.09999 10.5999 4.09999 10.5999C4.39999 10.4999 4.59999 10.1999 4.49999 9.89993C4.29999 8.69993 4.49999 7.49993 5.09999 6.49993C5.69999 5.49993 6.69999 4.79993 7.79999 4.49993C8.09999 4.39993 8.49999 4.39993 8.79999 4.39993C9.09999 4.39993 9.39999 4.09993 9.39999 3.79993C9.39999 3.59993 9.09999 3.29993 8.79999 3.29993Z" fill="#7A7A7A"/>
<path d="M25.4988 20.6L22.3988 14.6C22.4988 14.1 22.5988 13.3 22.0988 12.4C21.6988 11.7 20.7988 11.5 20.1988 12C19.6988 12.4 19.5988 13.1 19.9988 13.6C20.3988 14.4 21.0988 14.8 21.5988 15L24.6988 21C24.7988 21.2 25.0988 21.3 25.2988 21.2L25.3988 21.1C25.4988 21.1 25.5988 20.8 25.4988 20.6Z" fill="#7A7A7A"/>
</g>
<defs>
<clipPath id="clip0_900_1588">
<rect width="25.5" height="21.8" fill="white"/>
</clipPath>
</defs>
</svg>
