<svg width="25" height="24" viewBox="0 0 25 24" fill="none" xmlns="http://www.w3.org/2000/svg">
<g clip-path="url(#clip0_897_1407)">
<path d="M19 3.6L19.8 5.2L21.4 6L19.8 6.8L19 8.3L18.3 6.7L16.7 6L18.3 5.2L19 3.6ZM11.9 4.9V2.4H14.3C15 2.4 15.6 2.6 16.1 2.9L17.8 1.2C16.8 0.5 15.6 0 14.3 0C12.5 0 7.8 0 7.8 0V2.4H9.6V4.9C7.5 5.3 5.8 6.9 5.1 8.9H9.8L16.7 11.5V10.8C16.7 7.9 14.6 5.5 11.9 4.9ZM0 23.8H4.8V10.7H0V23.8ZM22.6 17.9H14.3L11.8 17L12.2 15.9L14.3 16.7H17.7C18.5 16.7 19.1 16.1 19.1 15.3C19.1 14.7 18.7 14.2 18.2 14L9.6 10.8H7.1V21.5L15.4 23.9L24.9 20.3C25 18.9 23.9 17.9 22.6 17.9ZM22.6 14.3C23.9 14.3 25 13.2 25 11.9C25 10.6 22.6 7.1 22.6 7.1C22.6 7.1 20.2 10.6 20.2 11.9C20.2 13.2 21.3 14.3 22.6 14.3Z" fill="#7A7A7A"/>
</g>
<defs>
<clipPath id="clip0_897_1407">
<rect width="25" height="23.8" fill="white"/>
</clipPath>
</defs>
</svg>
