<svg width="15" height="15" viewBox="0 0 15 15" fill="none" xmlns="http://www.w3.org/2000/svg">
<path d="M13.6 0H1.4C1 0 0.7 0.1 0.4 0.4C0.1 0.7 0 1 0 1.4V14.5C0 14.6 0 14.7 0.1 14.8C0.2 14.9 0.3 15 0.5 15H14.6C14.7 15 14.8 15 14.9 14.9C15 14.8 15 14.7 15 14.6V1.4C15 1 14.9 0.7 14.6 0.4C14.3 0.1 14 0 13.6 0ZM14.1 14.1H0.9V3.8H14V14.1H14.1ZM14.1 2.8H0.9V1.4C0.9 1.3 0.9 1.2 1 1.1C1.1 1 1.2 1 1.3 1H13.5C13.6 1 13.7 1 13.8 1.1C13.9 1.2 13.9 1.3 13.9 1.4V2.8H14.1Z" fill="#7A7A7A"/>
<path d="M2.7998 13.1H12.1998C12.2998 13.1 12.3998 13.1 12.4998 13C12.5998 12.9 12.5998 12.8 12.5998 12.7V5.20005C12.5998 5.10005 12.5998 5.00005 12.4998 4.90005C12.3998 4.80005 12.2998 4.80005 12.1998 4.80005H2.7998C2.6998 4.80005 2.5998 4.80005 2.4998 4.90005C2.3998 4.90005 2.2998 5.00005 2.2998 5.20005V12.7C2.2998 12.8 2.2998 12.9 2.3998 13C2.5998 13.1 2.6998 13.1 2.7998 13.1ZM3.2998 5.60005H11.6998V12.2H3.2998V5.60005Z" fill="#7A7A7A"/>
<path d="M5.2002 1.40002H6.1002V2.30002H5.2002V1.40002Z" fill="#7A7A7A"/>
<path d="M7 1.40002H8V2.30002H7V1.40002Z" fill="#7A7A7A"/>
<path d="M8.90039 1.40002H9.80039V2.30002H8.90039V1.40002Z" fill="#7A7A7A"/>
<path d="M7.79961 7.99998C7.99961 7.99998 8.09961 7.79998 8.19961 7.59998C8.39961 7.49998 8.39961 7.19998 8.39961 6.99998C8.39961 6.89998 8.39961 6.79998 8.29961 6.69998C8.19961 6.59998 8.09961 6.59998 7.99961 6.59998H7.49961V6.99998C7.49961 7.09998 7.39961 7.09998 7.19961 7.19998C6.99961 7.39998 6.89961 7.49998 6.79961 7.69998C6.69961 7.89998 6.59961 8.09998 6.59961 8.29998C6.59961 8.49998 6.69961 8.69998 6.79961 8.89998C6.89961 9.09998 6.99961 9.19998 7.19961 9.29998C7.39961 9.39998 7.49961 9.49998 7.49961 9.49998C7.49961 9.49998 7.39961 9.59998 7.19961 9.79998C6.99961 9.89998 6.89961 9.99998 6.79961 10.2C6.69961 10.4 6.59961 10.6 6.59961 10.8C6.59961 10.9 6.59961 11 6.69961 11.1C6.79961 11.2 6.89961 11.2 6.99961 11.2H7.49961V10.7C7.49961 10.6 7.59961 10.6 7.79961 10.5C7.99961 10.4 8.19961 10.3 8.29961 10.1C8.39961 9.99998 8.39961 9.69998 8.39961 9.49998C8.39961 9.29998 8.29961 9.09998 8.19961 8.89998C8.09961 8.79998 7.99961 8.59998 7.79961 8.49998C7.59961 8.39998 7.49961 8.29998 7.49961 8.29998C7.49961 8.29998 7.59961 8.19998 7.79961 7.99998Z" fill="#7A7A7A"/>
<path d="M10.1004 7.99998C10.3004 7.89998 10.5004 7.79998 10.6004 7.59998C10.7004 7.39998 10.8004 7.19998 10.8004 6.99998C10.8004 6.89998 10.8004 6.79998 10.7004 6.69998C10.6004 6.59998 10.5004 6.59998 10.4004 6.59998H9.80039V6.99998C9.80039 7.09998 9.70039 7.09998 9.50039 7.19998C9.40039 7.39998 9.20039 7.49998 9.10039 7.69998C9.00039 7.89998 8.90039 8.09998 8.90039 8.29998C8.90039 8.49998 9.00039 8.69998 9.10039 8.89998C9.20039 9.09998 9.40039 9.19998 9.60039 9.29998C9.80039 9.39998 9.90039 9.49998 9.90039 9.49998C9.90039 9.49998 9.80039 9.59998 9.60039 9.79998C9.40039 9.89998 9.20039 9.99998 9.10039 10.2C9.00039 10.4 8.90039 10.6 8.90039 10.8C8.90039 10.9 8.90039 11 9.00039 11.1C9.10039 11.2 9.20039 11.2 9.30039 11.2H9.80039V10.7C9.80039 10.6 9.90039 10.6 10.1004 10.5C10.3004 10.4 10.5004 10.3 10.6004 10.1C10.7004 9.89998 10.8004 9.69998 10.8004 9.49998C10.8004 9.29998 10.7004 9.09998 10.6004 8.89998C10.5004 8.69998 10.3004 8.59998 10.1004 8.49998C9.90039 8.39998 9.80039 8.29998 9.80039 8.29998C9.80039 8.29998 9.90039 8.19998 10.1004 7.99998Z" fill="#7A7A7A"/>
<path d="M5.4002 7.99998C5.6002 7.99998 5.8002 7.79998 5.9002 7.59998C6.0002 7.49998 6.1002 7.19998 6.1002 6.99998C6.1002 6.89998 6.1002 6.79998 6.0002 6.69998C5.9002 6.59998 5.7002 6.59998 5.6002 6.59998H5.2002V6.99998C5.2002 7.09998 5.1002 7.09998 4.9002 7.19998C4.7002 7.39998 4.5002 7.49998 4.4002 7.69998C4.3002 7.89998 4.2002 8.09998 4.2002 8.29998C4.2002 8.49998 4.3002 8.69998 4.4002 8.89998C4.5002 9.09998 4.7002 9.19998 4.9002 9.29998C5.1002 9.39998 5.2002 9.49998 5.2002 9.49998C5.2002 9.49998 5.1002 9.59998 4.9002 9.79998C4.7002 9.89998 4.5002 9.99998 4.4002 10.2C4.3002 10.4 4.2002 10.6 4.2002 10.8C4.2002 10.9 4.2002 11 4.3002 11.1C4.4002 11.2 4.5002 11.2 4.6002 11.2H5.1002V10.7C5.1002 10.6 5.2002 10.6 5.4002 10.5C5.6002 10.4 5.8002 10.3 5.9002 10.1C6.0002 9.99998 6.1002 9.69998 6.1002 9.49998C6.1002 9.29998 6.0002 9.09998 5.9002 8.89998C5.8002 8.79998 5.6002 8.59998 5.4002 8.49998C5.2002 8.39998 5.2002 8.29998 5.2002 8.29998C5.2002 8.29998 5.2002 8.19998 5.4002 7.99998Z" fill="#7A7A7A"/>
</svg>
