<svg width="15" height="10" viewBox="0 0 15 10" fill="none" xmlns="http://www.w3.org/2000/svg">
<g clip-path="url(#clip0_849_1609)">
<path d="M3.60041 6.3L2.80041 9.6C1.90041 9.4 1.00041 9.2 0.100409 8.9L1.00041 5.5C-0.999591 3.5 0.300409 0 3.30041 0C4.90041 0 6.30041 1.1 7.00041 1.1H11.9004V5.2H7.00041C6.40041 5.2 4.80041 6.2 3.60041 6.3ZM1.40041 7.1L2.60041 6.8L3.00041 5.5C4.80041 5.5 6.00041 4.4 7.00041 4.4H11.0004V3.3H7.00041C5.70041 3.3 2.50041 5.9 0.900409 3.1C0.900409 4 1.20041 4.6 1.90041 5.2L1.40041 7.1ZM2.40041 7.7L1.20041 8L1.10041 8.4L2.20041 8.7L2.40041 7.7ZM12.1004 2C13.2004 2.6 13.5004 1.5 15.0004 1.9L14.8004 2.7C13.7004 2.4 13.3004 3.4 12.1004 2.9V2ZM12.1004 3.6C13.2004 4.2 13.5004 3.1 15.0004 3.5L14.8004 4.3C13.6004 4 13.3004 5 12.1004 4.5V3.6Z" fill="#7A7A7A"/>
</g>
<defs>
<clipPath id="clip0_849_1609">
<rect width="15" height="9.6" fill="white"/>
</clipPath>
</defs>
</svg>
