<svg width="15" height="19" viewBox="0 0 15 19" fill="none" xmlns="http://www.w3.org/2000/svg">
<g clip-path="url(#clip0_844_1553)">
<path d="M15 1.8C15 0.825 14.175 0 13.2 0H1.8C0.825 0 0 0.825 0 1.8V16.35C0 17.325 0.825 18.15 1.8 18.15H13.2C14.175 18.15 15 17.325 15 16.35V1.8ZM13.2 16.875H1.8C1.5 16.875 1.275 16.65 1.275 16.35V1.8C1.275 1.5 1.5 1.275 1.8 1.275H13.2C13.5 1.275 13.725 1.5 13.725 1.8V16.35C13.725 16.65 13.5 16.875 13.2 16.875Z" fill="#7A7A7A"/>
<path d="M6.1499 9.29998V8.69998C6.1499 7.94998 6.7499 7.34998 7.4999 7.34998C8.2499 7.34998 8.8499 7.94998 8.8499 8.69998V9.29998H6.1499Z" fill="#7A7A7A"/>
<path d="M7.5 6.44995C7.91421 6.44995 8.25 6.11416 8.25 5.69995C8.25 5.28574 7.91421 4.94995 7.5 4.94995C7.08579 4.94995 6.75 5.28574 6.75 5.69995C6.75 6.11416 7.08579 6.44995 7.5 6.44995Z" fill="#7A7A7A"/>
<path d="M12.825 2.625C12.825 2.4 12.675 2.25 12.45 2.25H2.625C2.4 2.25 2.25 2.4 2.25 2.625V9.675C2.25 9.9 2.4 10.05 2.625 10.05H12.45C12.675 10.05 12.825 9.9 12.825 9.675V2.625ZM9.675 9.3V8.7C9.675 7.95 9.3 7.2 8.625 6.825C8.925 6.525 9.075 6.15 9.075 5.7C9.075 4.8 8.4 4.125 7.5 4.125C6.6 4.125 5.925 4.875 5.925 5.7C5.925 6.15 6.075 6.525 6.375 6.825C5.775 7.2 5.325 7.875 5.325 8.7V9.3H3V3H12V9.3H9.675Z" fill="#7A7A7A"/>
<path d="M10.875 11.625V15.525C10.875 15.75 10.725 15.9 10.5 15.9C10.275 15.9 10.125 15.75 10.125 15.525V11.625C10.125 11.4 10.275 11.25 10.5 11.25C10.65 11.25 10.875 11.4 10.875 11.625Z" fill="#7A7A7A"/>
<path d="M12.825 12.825V14.4C12.825 14.625 12.675 14.775 12.45 14.775C12.225 14.775 12 14.625 12 14.4V12.825C12 12.6 12.15 12.45 12.375 12.45C12.6 12.45 12.825 12.6 12.825 12.825Z" fill="#7A7A7A"/>
<path d="M8.8501 12.825V14.4C8.8501 14.625 8.7001 14.775 8.4751 14.775C8.2501 14.775 8.1001 14.625 8.1001 14.4V12.825C8.1001 12.6 8.2501 12.45 8.4751 12.45C8.7001 12.45 8.8501 12.6 8.8501 12.825Z" fill="#7A7A7A"/>
<path d="M2.625 12C2.83211 12 3 11.8321 3 11.625C3 11.4179 2.83211 11.25 2.625 11.25C2.41789 11.25 2.25 11.4179 2.25 11.625C2.25 11.8321 2.41789 12 2.625 12Z" fill="#7A7A7A"/>
<path d="M2.625 13.95C2.83211 13.95 3 13.7821 3 13.575C3 13.3678 2.83211 13.2 2.625 13.2C2.41789 13.2 2.25 13.3678 2.25 13.575C2.25 13.7821 2.41789 13.95 2.625 13.95Z" fill="#7A7A7A"/>
<path d="M2.625 15.9C2.83211 15.9 3 15.7321 3 15.525C3 15.3179 2.83211 15.15 2.625 15.15C2.41789 15.15 2.25 15.3179 2.25 15.525C2.25 15.7321 2.41789 15.9 2.625 15.9Z" fill="#7A7A7A"/>
<path d="M4.5752 12C4.7823 12 4.9502 11.8321 4.9502 11.625C4.9502 11.4179 4.7823 11.25 4.5752 11.25C4.36809 11.25 4.2002 11.4179 4.2002 11.625C4.2002 11.8321 4.36809 12 4.5752 12Z" fill="#7A7A7A"/>
<path d="M4.5752 13.95C4.7823 13.95 4.9502 13.7821 4.9502 13.575C4.9502 13.3678 4.7823 13.2 4.5752 13.2C4.36809 13.2 4.2002 13.3678 4.2002 13.575C4.2002 13.7821 4.36809 13.95 4.5752 13.95Z" fill="#7A7A7A"/>
<path d="M4.5752 15.9C4.7823 15.9 4.9502 15.7321 4.9502 15.525C4.9502 15.3179 4.7823 15.15 4.5752 15.15C4.36809 15.15 4.2002 15.3179 4.2002 15.525C4.2002 15.7321 4.36809 15.9 4.5752 15.9Z" fill="#7A7A7A"/>
<path d="M6.5249 12C6.73201 12 6.8999 11.8321 6.8999 11.625C6.8999 11.4179 6.73201 11.25 6.5249 11.25C6.3178 11.25 6.1499 11.4179 6.1499 11.625C6.1499 11.8321 6.3178 12 6.5249 12Z" fill="#7A7A7A"/>
<path d="M6.5249 13.95C6.73201 13.95 6.8999 13.7821 6.8999 13.575C6.8999 13.3678 6.73201 13.2 6.5249 13.2C6.3178 13.2 6.1499 13.3678 6.1499 13.575C6.1499 13.7821 6.3178 13.95 6.5249 13.95Z" fill="#7A7A7A"/>
<path d="M6.5249 15.9C6.73201 15.9 6.8999 15.7321 6.8999 15.525C6.8999 15.3179 6.73201 15.15 6.5249 15.15C6.3178 15.15 6.1499 15.3179 6.1499 15.525C6.1499 15.7321 6.3178 15.9 6.5249 15.9Z" fill="#7A7A7A"/>
</g>
<defs>
<clipPath id="clip0_844_1553">
<rect width="15" height="18.15" fill="white"/>
</clipPath>
</defs>
</svg>
