<svg width="15" height="14" viewBox="0 0 15 14" fill="none" xmlns="http://www.w3.org/2000/svg">
<g clip-path="url(#clip0_844_1592)">
<path d="M2.8 13.1H12.2C12.7 13.1 13.1 12.9 13.4 12.6C13.7 12.3 14 11.9 14 11.4L15 4.00002C15.1 3.50002 14.9 3.00002 14.6 2.60002C14.3 2.20002 13.9 2.00002 13.4 1.90002C12.9 1.80002 12.4 1.90002 12 2.20002L10.4 3.30002L9.1 1.00002C8.9 0.600024 8.5 0.300024 8.1 0.100024C7.7 2.44156e-05 7.3 2.44156e-05 6.8 0.100024C6.4 0.300024 6.1 0.600024 5.9 1.00002L4.5 3.40002L3 2.20002C2.6 1.90002 2.1 1.80002 1.6 1.90002C1.1 2.00002 0.7 2.20002 0.4 2.60002C0.1 3.00002 0 3.50002 0 4.00002L1 11.5C1.1 12 1.3 12.4 1.6 12.7C1.9 13 2.4 13.1 2.8 13.1ZM5.2 6.10002L7.5 1.90002L9.8 6.10002L13.1 3.80002L12.2 11.3H2.8L1.9 3.80002L5.2 6.10002Z" fill="#7A7A7A"/>
</g>
<defs>
<clipPath id="clip0_844_1592">
<rect width="15" height="13.1" fill="white"/>
</clipPath>
</defs>
</svg>
