<svg width="15" height="11" viewBox="0 0 15 11" fill="none" xmlns="http://www.w3.org/2000/svg">
<g clip-path="url(#clip0_844_1589)">
<path d="M14.3 4.3V2.3C14.3 1 13.2 0 12 0H9C8.4 0 7.9 0.2 7.5 0.6C7.1 0.2 6.6 0 6 0H3C1.8 0 0.8 1 0.8 2.3V4.4C0.3 4.7 0 5.3 0 6V10.5H1.5V9H13.5V10.5H15V6C15 5.3 14.7 4.7 14.3 4.3ZM9 1.5H12C12.4 1.5 12.8 1.8 12.8 2.3V3.8H8.3V2.3C8.3 1.8 8.6 1.5 9 1.5ZM2.3 2.3C2.3 1.9 2.6 1.5 3.1 1.5H6.1C6.5 1.5 6.9 1.8 6.9 2.3V3.8H2.3V2.3ZM1.5 7.5V6C1.5 5.6 1.8 5.2 2.3 5.2H12.8C13.2 5.2 13.6 5.5 13.6 6V7.5H1.5Z" fill="#7A7A7A"/>
</g>
<defs>
<clipPath id="clip0_844_1589">
<rect width="15" height="10.5" fill="white"/>
</clipPath>
</defs>
</svg>
