<svg width="15" height="14" viewBox="0 0 15 14" fill="none" xmlns="http://www.w3.org/2000/svg">
<g clip-path="url(#clip0_844_1582)">
<path d="M14.7 3.4C14.9 3.4 15 3.5 15 3.7L12.6 13.1C12.6 13.3 12.4 13.4 12.2 13.4H2.8C2.6 13.4 2.4 13.3 2.4 13.1L0 3.7C0 3.5 0.1 3.4 0.3 3.4H0.9C1.1 3.4 1.3 3.5 1.3 3.7L3.4 11.9C3.4 12.1 3.6 12.2 3.8 12.2H11.2C11.4 12.2 11.6 12.1 11.6 11.9L13.7 3.7C13.7 3.5 13.9 3.4 14.1 3.4H14.7ZM4.7 9.9C4.1 9.9 3.7 10.3 3.7 10.9C3.7 11.5 4.1 11.9 4.7 11.9C5.3 11.9 5.7 11.5 5.7 10.9C5.7 10.3 5.2 9.9 4.7 9.9ZM6 7.7C5.4 7.7 5 8.1 5 8.7C5 9.3 5.4 9.7 6 9.7C6.6 9.7 7 9.3 7 8.7C7 8.2 6.6 7.7 6 7.7ZM9 7.7C8.4 7.7 8 8.1 8 8.7C8 9.3 8.4 9.7 9 9.7C9.6 9.7 10 9.3 10 8.7C10 8.2 9.6 7.7 9 7.7ZM7.5 9.9C6.9 9.9 6.5 10.3 6.5 10.9C6.5 11.5 6.9 11.9 7.5 11.9C8.1 11.9 8.5 11.5 8.5 10.9C8.5 10.3 8.1 9.9 7.5 9.9ZM10.3 9.9C9.7 9.9 9.3 10.3 9.3 10.9C9.3 11.5 9.7 11.9 10.3 11.9C10.9 11.9 11.3 11.5 11.3 10.9C11.3 10.3 10.9 9.9 10.3 9.9ZM7.9 0C7.9 0 8.4 1.4 7.3 3.2C6.2 5 6.1 6 6.8 7.2C6.8 7.2 6.7 6 7.9 4.5C9.1 3 9.2 1.6 7.9 0ZM11.2 0C11.2 0 11.5 0.9 10.8 2.2C10.1 3.4 10 4 10.4 4.9C10.4 4.9 10.3 4.1 11.1 3.1C12 2 12.1 1.1 11.2 0ZM5.2 0C5.2 0 5.5 0.9 4.8 2.2C4.1 3.4 4 4 4.5 4.9C4.5 4.9 4.4 4.1 5.2 3.1C6 2 6.1 1.1 5.2 0Z" fill="#7A7A7A"/>
</g>
<defs>
<clipPath id="clip0_844_1582">
<rect width="15" height="13.4" fill="white"/>
</clipPath>
</defs>
</svg>
