<svg width="15" height="13" viewBox="0 0 15 13" fill="none" xmlns="http://www.w3.org/2000/svg">
<g clip-path="url(#clip0_844_1572)">
<path d="M7.4 6.79995H7.1V7.79995H6.4V6.79995H5V6.19995L6.2 3.19995H7V6.19995H7.4V6.79995ZM6.4 6.09995V4.29995L5.7 6.09995H6.4Z" fill="#7A7A7A"/>
<path d="M9.6998 3.39998C9.8998 3.59998 9.9998 3.89998 9.9998 4.19998V6.69998C9.9998 6.99998 9.8998 7.29998 9.6998 7.49998C9.4998 7.69998 9.1998 7.79998 8.8998 7.79998C8.5998 7.79998 8.2998 7.69998 8.0998 7.49998C7.8998 7.29998 7.7998 7.09998 7.7998 6.69998V6.59998H8.4998V6.79998C8.4998 6.89998 8.4998 6.99998 8.5998 7.09998C8.6998 7.19998 8.7998 7.19998 8.8998 7.19998C8.9998 7.19998 9.0998 7.19998 9.1998 7.09998C9.2998 6.99998 9.2998 6.89998 9.2998 6.79998V5.69998C9.2998 5.79998 9.1998 5.89998 8.9998 5.89998C8.7998 5.89998 8.7998 5.99998 8.5998 5.99998C8.3998 5.99998 8.1998 5.89998 7.9998 5.79998C7.7998 5.59998 7.7998 5.39998 7.7998 5.09998V4.19998C7.7998 3.89998 7.8998 3.59998 8.0998 3.39998C8.2998 3.19998 8.5998 3.09998 8.8998 3.09998C9.1998 3.09998 9.4998 3.19998 9.6998 3.39998ZM8.5998 3.79998C8.4998 3.89998 8.4998 3.99998 8.4998 4.09998V4.99998C8.4998 5.09998 8.4998 5.19998 8.5998 5.29998C8.6998 5.39998 8.7998 5.39998 8.8998 5.39998C8.9998 5.39998 9.1998 5.39998 9.1998 5.29998C9.2998 5.19998 9.2998 5.09998 9.2998 4.99998V4.09998C9.2998 3.99998 9.2998 3.89998 9.1998 3.79998C9.0998 3.79998 8.9998 3.69998 8.8998 3.69998C8.7998 3.69998 8.6998 3.79998 8.5998 3.79998Z" fill="#7A7A7A"/>
<path d="M13.6 0H1.4C0.6 0 0 0.6 0 1.4V9.6C0 10.4 0.6 11 1.4 11H4.8V12.4H10.3V11H13.7C14.4 11 15.1 10.4 15.1 9.6V1.4C15 0.6 14.4 0 13.6 0ZM13.6 9.5H2.2L5 7.7L4.6 7.2L1.4 9.3V1.3H13.3L10.6 3.1L11 3.6L13.6 1.8V9.5Z" fill="#7A7A7A"/>
</g>
<defs>
<clipPath id="clip0_844_1572">
<rect width="15" height="12.3" fill="white"/>
</clipPath>
</defs>
</svg>
