<svg width="15" height="7" viewBox="0 0 15 7" fill="none" xmlns="http://www.w3.org/2000/svg">
<path d="M15 3.2C15 3 14.9 2.7 14.9 2.5C14.5 1.2 13.3 0.2 11.9 0C11.8 0 11.7 0 11.5 0H3.5C1.6 0 0 1.6 0 3.5C0 5.4 1.6 7 3.5 7H11.5C11.6 7 11.7 7 11.9 7C13.3 6.9 14.5 5.9 14.9 4.5C14.9 4.3 15 4.1 15 3.9C15 3.8 15 3.7 15 3.5C15 3.4 15 3.3 15 3.2ZM3.5 6.1C2.1 6.1 0.9 5 0.9 3.5C0.9 2 2 0.9 3.5 0.9H9.1C8.4 1.6 8 2.5 8 3.5C8 4.5 8.4 5.4 9.1 6.1H3.5ZM14.1 3.8C13.9 5 13 6 11.7 6.1C11.6 6.1 11.5 6.1 11.4 6.1C10 6.1 8.8 5 8.8 3.5C8.8 2.1 9.9 0.9 11.4 0.9C11.5 0.9 11.6 0.9 11.7 0.9C13 1.1 13.9 2 14.1 3.3C14.1 3.4 14.1 3.5 14.1 3.6C14.1 3.6 14.1 3.7 14.1 3.8Z" fill="#7A7A7A"/>
<path d="M3.9001 2C3.6001 2 3.5001 2 3.3001 2.2C3.2001 2.3 3.1001 2.5 3.1001 2.7V4.4C3.1001 4.6 3.2001 4.8 3.3001 4.9C3.4001 5 3.6001 5.1 3.8001 5.1C4.0001 5.1 4.2001 5 4.3001 4.9C4.4001 4.8 4.5001 4.6 4.5001 4.4V2.7C4.5001 2.5 4.4001 2.3 4.3001 2.2C4.3001 2 4.1001 2 3.9001 2ZM4.1001 4.4C4.1001 4.5 4.1001 4.6 4.0001 4.6C4.0001 4.7 4.0001 4.7 3.9001 4.7C3.8001 4.7 3.7001 4.7 3.7001 4.6C3.6001 4.6 3.6001 4.5 3.6001 4.4V2.7C3.6001 2.6 3.6001 2.5 3.7001 2.5C3.8001 2.4 3.8001 2.4 3.9001 2.4C4.0001 2.4 4.1001 2.4 4.1001 2.5C4.2001 2.6 4.2001 2.6 4.2001 2.7V4.4H4.1001Z" fill="#7A7A7A"/>
<path d="M6.2001 4.1L5.6001 2H5.1001V5.1H5.6001V3.1L6.2001 5.1H6.7001V2H6.2001V4.1Z" fill="#7A7A7A"/>
</svg>
