<svg width="15" height="15" viewBox="0 0 15 15" fill="none" xmlns="http://www.w3.org/2000/svg">
<g clip-path="url(#clip0_849_1654)">
<path d="M8.0002 12.8H8.3002C9.5002 12.8 10.4002 11.8 10.4002 10.7V8.3C10.4002 8.2 10.3002 8 10.1002 8C9.9002 8 9.9002 8.1 9.9002 8.2V10.6C9.9002 11.5 9.2002 12.2 8.3002 12.2H8.0002C7.9002 12.2 7.7002 12.3 7.7002 12.5C7.8002 12.7 7.9002 12.8 8.0002 12.8Z" fill="#7A7A7A"/>
<path d="M12.3 6.1V5.6C12.3 5.3 12 5 11.7 5H3.7C3.7 4.7 3.4 4.5 3.1 4.5C2.9 4.5 2.7 4.7 2.7 5H1.6C1.3 5 1.1 5.3 1.1 5.6V7.1L0.2 7.9C0.1 8.1 0 8.3 0 8.5V12.2C0 12.7 0.4 13 0.8 13H1.9C2.7 14 3.9 14.6 5.1 14.6H8.3C10 14.6 11.5 13.5 12.1 11.9C13.7 11.9 15 10.6 15 8.9C15 7.5 13.8 6.3 12.3 6.1ZM8.3 13.6H5.1C4.5 13.6 3.9 13.4 3.5 13.1H5.7C6.2 13.1 6.5 12.7 6.5 12.3V8.5C6.5 8.3 6.4 8.1 6.3 7.9L5.1 6.9C5 6.7 4.8 6.6 4.6 6.6H3.8V6.1H11.2V10.6C11.2 12.3 9.9 13.6 8.3 13.6ZM2.2 6.6V6.1H2.7V6.6H2.2ZM12.3 9.8V8.3C12.6 8.4 12.8 8.7 12.8 9C12.8 9.3 12.6 9.7 12.3 9.8Z" fill="#7A7A7A"/>
<path d="M10.3004 0C10.3004 0 10.6004 0.9 9.90035 2C9.30035 3.1 9.20035 3.7 9.60035 4.5C9.60035 4.5 9.50035 3.8 10.3004 2.8C11.0004 1.9 11.1004 1 10.3004 0Z" fill="#7A7A7A"/>
<path d="M7.70074 0C7.70074 0 8.00074 0.9 7.30074 2C6.60074 3.1 6.60074 3.7 7.00074 4.5C7.00074 4.5 6.90074 3.8 7.70074 2.8C8.40074 1.9 8.40074 1 7.70074 0Z" fill="#7A7A7A"/>
<path d="M4.80035 0C4.80035 0 5.10035 0.9 4.40035 2C3.80035 3.1 3.70035 3.7 4.10035 4.5C4.10035 4.5 4.00035 3.8 4.80035 2.8C5.50035 1.9 5.60035 1 4.80035 0Z" fill="#7A7A7A"/>
</g>
<defs>
<clipPath id="clip0_849_1654">
<rect width="15" height="14.7" fill="white"/>
</clipPath>
</defs>
</svg>
