<svg width="15" height="13" viewBox="0 0 15 13" fill="none" xmlns="http://www.w3.org/2000/svg">
<g clip-path="url(#clip0_844_1596)">
<path d="M15 4.3C15 4.1 14.9 4 14.7 3.9L9.9 0.6H9.8C8.3 -0.2 6.6 -0.2 5.2 0.6L5.1 0.7L0.3 3.8C0.2 3.9 0.1 4.1 0 4.3C0 4.5 0 4.7 0.1 4.8L1.8 7.2C1.9 7.4 2.1 7.5 2.3 7.5C2.5 7.5 2.6 7.5 2.8 7.4L3.4 6.9V12C3.4 12.4 3.7 12.7 4.1 12.7C4.5 12.7 4.8 12.4 4.8 12V5.5C4.8 5.2 4.7 5 4.4 4.9C4.2 4.8 3.9 4.8 3.7 5L2.5 5.8L1.6 4.6L5.1 2.2L7 6C7.7 7.4 8.1 8.5 8.1 10V10.9C8.1 11.3 8.4 11.6 8.8 11.6C9.2 11.6 9.5 11.3 9.5 10.9V10C9.5 8.2 9.1 7 8.3 5.3L6.4 1.6C7.1 1.3 7.9 1.4 8.7 1.6L7.8 3.4C7.7 3.6 7.7 3.8 7.8 3.9C7.9 4.1 8 4.2 8.1 4.3C8.4 4.5 8.9 4.3 9 4L9.8 2.3L13.3 4.6L12.4 5.9L11.3 5C11.1 4.8 10.8 4.8 10.6 4.9C10.4 5 10.2 5.2 10.2 5.5V12C10.2 12.4 10.5 12.7 10.9 12.7C11.3 12.7 11.6 12.4 11.6 12V6.9L12.2 7.3C12.3 7.4 12.6 7.5 12.7 7.4C12.9 7.4 13 7.3 13.1 7.1L14.8 4.7C15 4.6 15 4.4 15 4.3Z" fill="#7A7A7A"/>
</g>
<defs>
<clipPath id="clip0_844_1596">
<rect width="15" height="12.7" fill="white"/>
</clipPath>
</defs>
</svg>
