<svg width="15" height="15" viewBox="0 0 15 15" fill="none" xmlns="http://www.w3.org/2000/svg">
<path d="M0.5 4.57143C0.642857 4.64286 0.785714 4.71429 1 4.71429C1.14286 4.71429 1.35714 4.64286 1.5 4.57143C1.78571 4.42857 2 4.07143 2 3.71429V2.71429C1.92857 2.5 2 2.28571 2.14286 2.14286C2.28571 2 2.5 1.92857 2.71429 1.92857H3.71429C4.07143 1.92857 4.35714 1.71429 4.57143 1.42857C4.71429 1.14286 4.71429 0.785714 4.57143 0.5C4.35714 0.214286 4.07143 0 3.71429 0H2.71429C2 0 1.28571 0.285714 0.785714 0.785714C0.285714 1.28571 0 2 0 2.71429V3.71429C0 4.07143 0.214286 4.35714 0.5 4.57143Z" fill="#7A7A7A"/>
<path d="M3.71429 13.0714H2.71429C2.5 13.0714 2.28571 13 2.14286 12.8571C2 12.7143 1.92857 12.5 1.92857 12.2857V11.2857C1.92857 10.9286 1.71429 10.6428 1.42857 10.4286C1.14286 10.2857 0.785714 10.2857 0.5 10.4286C0.214286 10.6428 0 10.9286 0 11.2857V12.2857C0 13 0.285714 13.7143 0.785714 14.2143C1.28571 14.7143 2 15 2.71429 15H3.71429C4.07143 15 4.35714 14.7857 4.57143 14.5C4.78571 14.2143 4.71429 13.8571 4.57143 13.5714C4.42857 13.2857 4.07143 13.0714 3.71429 13.0714Z" fill="#7A7A7A"/>
<path d="M13.357 10.6429C13.2141 10.7857 13.0713 11.0714 13.0713 11.2857V12.2857C13.0713 12.5 12.9999 12.7143 12.857 12.8571C12.7141 13 12.4999 13.0714 12.2856 13.0714H11.2856C10.9284 13.0714 10.6427 13.2857 10.4284 13.5714C10.2856 13.8571 10.2856 14.2143 10.4284 14.5C10.5713 14.7857 10.9284 15 11.2856 15H12.2856C12.9999 15 13.7141 14.7143 14.2141 14.2143C14.7141 13.7143 14.9999 13 14.9999 12.2857V11.2857C14.9999 11 14.9284 10.7857 14.7141 10.6429C14.357 10.2857 13.7141 10.2857 13.357 10.6429Z" fill="#7A7A7A"/>
<path d="M14.2141 0.785714C13.7141 0.285714 12.9999 0 12.2856 0H11.2856C10.9284 0 10.6427 0.214286 10.4284 0.5C10.2856 0.785714 10.2856 1.14286 10.4284 1.42857C10.5713 1.71429 10.9284 1.92857 11.2856 1.92857H12.2856C12.4999 1.92857 12.7141 2 12.857 2.14286C12.9999 2.28571 13.0713 2.5 13.0713 2.71429V3.71429C13.0713 4.07143 13.2856 4.35714 13.5713 4.57143C13.7141 4.64286 13.857 4.71429 14.0713 4.71429C14.2141 4.71429 14.4284 4.64286 14.5713 4.57143C14.7856 4.35714 14.9999 4.07143 14.9999 3.71429V2.71429C14.9999 2 14.7141 1.28571 14.2141 0.785714Z" fill="#7A7A7A"/>
<path d="M10.7144 10.9286C11.0001 11.0715 11.3573 11.0715 11.643 10.9286C11.9287 10.7858 12.0716 10.5001 12.0716 10.1429C12.0716 9.42862 11.9287 8.71434 11.5001 8.14291C11.143 7.64291 10.7144 7.28577 10.2144 7.00005C10.3573 6.64291 10.5001 6.21434 10.5001 5.78577V5.28577C10.5001 4.21434 9.92871 3.21434 9.00014 2.71434C8.07157 2.14291 6.92871 2.14291 6.00014 2.71434C5.07157 3.21434 4.50014 4.21434 4.50014 5.28577V5.78577C4.50014 6.21434 4.57157 6.64291 4.78585 7.00005C4.28585 7.28577 3.85728 7.64291 3.50014 8.14291C3.07157 8.71434 2.92871 9.42862 2.92871 10.1429C2.92871 10.4286 3.07157 10.7858 3.35728 10.9286C3.50014 11.0001 3.643 11.0715 3.78585 11.0715C3.92871 11.0715 4.07157 11.0001 4.21443 10.9286C4.50014 10.7858 4.643 10.5001 4.643 10.1429C4.643 9.71434 4.78585 9.28577 5.07157 9.00005C5.35728 8.71434 5.71443 8.50005 6.07157 8.50005C6.92871 8.92862 8.00014 8.92862 8.85728 8.50005C9.21442 8.57148 9.57157 8.71434 9.85728 9.00005C10.143 9.28577 10.2859 9.71434 10.2859 10.2143C10.2859 10.5001 10.4287 10.7858 10.7144 10.9286ZM8.71443 5.28577V5.78577C8.71443 6.07148 8.57157 6.42862 8.35728 6.64291C7.85728 7.07148 7.143 7.07148 6.643 6.64291C6.42871 6.42862 6.28585 6.14291 6.28585 5.78577V5.28577C6.28585 4.8572 6.50014 4.50005 6.85728 4.28577C7.07157 4.21434 7.21443 4.14291 7.42871 4.14291C7.643 4.14291 7.85728 4.21434 8.00014 4.28577C8.42871 4.50005 8.71443 4.8572 8.71443 5.28577Z" fill="#7A7A7A"/>
</svg>
