<svg width="15" height="8" viewBox="0 0 15 8" fill="none" xmlns="http://www.w3.org/2000/svg">
<path d="M2.7999 7.4C4.2999 7.4 5.8999 7.3 7.2999 7.3C8.6999 7.3 10.0999 7.3 11.4999 7.4C12.3999 7.4 13.2999 7 13.9999 6.4C14.6999 5.7 14.9999 4.8 14.9999 3.9V3.5C14.9999 2.6 14.5999 1.7 13.9999 1C13.2999 0.3 12.4999 0 11.4999 0C10.0999 0.1 8.6999 0.1 7.0999 0.1C5.4999 0.1 3.7999 0.1 1.9999 0H1.4999C1.3999 0 1.2999 0 1.1999 0.1C1.0999 0.2 0.999902 0.4 0.999902 0.5V2.5C0.599902 2.8 0.299902 3.3 0.0999023 3.8C-9.76548e-05 4.4 -9.76548e-05 4.9 0.0999023 5.5C0.299902 6.1 0.599902 6.5 1.0999 6.9C1.5999 7.2 2.1999 7.4 2.7999 7.4ZM0.999902 4.6C0.999902 4.2 1.0999 3.9 1.2999 3.6C1.4999 3.3 1.7999 3.1 2.0999 2.9C5.8999 3 8.8999 3 11.4999 2.9C11.7999 2.9 12.0999 3.2 12.0999 3.5V3.8C12.0999 4.1 11.7999 4.4 11.4999 4.4C8.8999 4.3 6.0999 4.3 2.7999 4.4V4.7C6.0999 4.6 8.8999 4.6 11.4999 4.7C11.6999 4.7 11.8999 4.6 12.0999 4.5C12.2999 4.3 12.2999 4.1 12.2999 3.9V3.5C12.2999 3.3 12.1999 3.1 12.0999 2.9C11.8999 2.7 11.6999 2.6 11.4999 2.6C8.8999 2.7 5.7999 2.7 1.9999 2.7V1C3.7999 1.1 5.3999 1.1 7.0999 1.1C8.5999 1.1 10.0999 1.1 11.4999 1C12.1999 1 12.7999 1.3 13.2999 1.7C13.6999 2.2 13.9999 2.9 13.9999 3.5V3.8C13.9999 4.5 13.6999 5.1 13.2999 5.6C12.7999 6.1 12.1999 6.3 11.4999 6.3C10.0999 6.3 8.6999 6.2 7.2999 6.2C5.7999 6.2 4.2999 6.2 2.7999 6.3C2.2999 6.3 1.8999 6.1 1.4999 5.8C1.1999 5.5 0.999902 5.1 0.999902 4.6Z" fill="#7A7A7A"/>
</svg>
