<svg width="15" height="18" viewBox="0 0 15 18" fill="none" xmlns="http://www.w3.org/2000/svg">
<g clip-path="url(#clip0_844_1598)">
<path d="M12.9 17.2H14.3C14.5 17.2 14.7 17.1 14.8 17C14.9 16.9 15 16.7 15 16.5V0.7C15 0.5 14.9 0.3 14.8 0.2C14.7 0.1 14.5 0 14.3 0H0.7C0.5 0 0.3 0.1 0.2 0.2C0.1 0.3 0 0.5 0 0.7V16.5C0 16.7 0.1 16.9 0.2 17C0.3 17.1 0.5 17.2 0.7 17.2H2.1H3.5H11.5H12.9ZM5.8 10.7H4.4V8H5.8V10.7ZM13.6 15.8H8.2V1.4H13.6V15.8Z" fill="#7A7A7A"/>
<path d="M10.5001 8H9.1001V10.7H10.5001V8Z" fill="#7A7A7A"/>
</g>
<defs>
<clipPath id="clip0_844_1598">
<rect width="15" height="17.2" fill="white"/>
</clipPath>
</defs>
</svg>
