<svg width="15" height="15" viewBox="0 0 15 15" fill="none" xmlns="http://www.w3.org/2000/svg">
<path d="M4.15385 7.65714L7.03846 10.5942V14.1187H5.53846C5.30769 14.1187 5.07692 14.3145 5.07692 14.5103C5.07692 14.7061 5.30769 14.9019 5.53846 14.9019H9.46154C9.69231 14.9019 9.92308 14.7061 9.92308 14.5103C9.92308 14.3145 9.69231 14.1187 9.46154 14.1187H7.96154V10.6921L10.7308 7.85294L14.8846 3.64315C15 3.54525 15 3.34944 14.8846 3.25154C14.7692 3.15364 14.6538 2.95784 14.5385 2.95784H13.0385L14.1923 1.68511C14.3077 1.48931 14.3077 1.2935 14.0769 1.0977C13.8462 0.901893 13.5 0.999795 13.3846 1.1956L11.7692 2.95784H0.461538C0.346154 2.95784 0.115385 3.05574 0 3.25154C0 3.34944 0 3.54525 0.115385 3.64315L4.15385 7.65714ZM7.5 9.81098L5.42308 7.75504C5.53846 7.75504 5.65385 7.75504 5.65385 7.75504C5.76923 7.75504 5.76923 7.75504 5.88462 7.75504C6 7.75504 6 7.75504 6.11538 7.75504H6.23077H6.34615H6.46154H6.57692C6.57692 7.75504 6.57692 7.75504 6.69231 7.75504C6.69231 7.75504 6.69231 7.75504 6.80769 7.75504C6.80769 7.75504 6.80769 7.75504 6.92308 7.75504C6.92308 7.75504 6.92308 7.75504 7.03846 7.75504C7.03846 7.75504 7.03846 7.75504 7.15385 7.75504C7.26923 7.75504 7.26923 7.75504 7.38462 7.75504H7.5H7.61538H7.73077C7.84615 7.75504 7.84615 7.75504 7.96154 7.75504C8.07692 7.75504 8.07692 7.75504 8.19231 7.75504C8.19231 7.75504 8.19231 7.75504 8.30769 7.75504H8.42308L7.5 9.81098ZM12.2308 3.83896H13.5L10.0385 7.26553H9.92308C9.80769 7.26553 9.80769 7.26553 9.69231 7.26553C9.57692 7.26553 9.57692 7.26553 9.46154 7.26553H9.34615C9.23077 7.26553 9.23077 7.26553 9.11538 7.26553H9H8.88462L12.2308 3.83896ZM10.9615 3.83896L7.73077 7.36343C7.73077 7.36343 7.73077 7.36343 7.61538 7.36343C7.61538 7.36343 7.61538 7.36343 7.5 7.26553C7.5 7.26553 7.5 7.26553 7.38462 7.26553C7.38462 7.26553 7.38462 7.26553 7.26923 7.26553C7.26923 7.26553 7.26923 7.26553 7.15385 7.26553C7.15385 7.26553 7.15385 7.26553 7.03846 7.26553C7.03846 7.26553 7.03846 7.26553 6.92308 7.26553C6.92308 7.26553 6.92308 7.26553 6.80769 7.26553C6.80769 7.26553 6.80769 7.26553 6.69231 7.26553C6.69231 7.26553 6.69231 7.26553 6.57692 7.26553C6.57692 7.26553 6.57692 7.26553 6.46154 7.26553H6.34615H6.23077H6.11538H6H5.88462H5.76923H5.65385H5.88462C5.88462 6.87392 5.76923 6.87392 5.76923 6.87392C5.76923 6.87392 5.76923 6.87392 5.65385 6.87392H5.53846H5.42308H5.30769H5.19231H5.07692H4.96154C4.84615 6.87392 4.84615 6.87392 4.73077 6.87392C4.73077 6.87392 4.73077 6.87392 4.61538 6.87392L1.5 3.83896H10.9615Z" fill="#7A7A7A"/>
</svg>
