<svg width="16" height="16" viewBox="0 0 16 16" fill="none" xmlns="http://www.w3.org/2000/svg">
<g clip-path="url(#clip0_849_1613)">
<path d="M15.2 5.70001H14.7C14.5 5.30001 14.1 5.10001 13.7 4.90001V2.20001C13.7 1.90001 13.5 1.70001 13.3 1.60001L9.7 1.19824e-05C9.4 -0.099988 9 0.100012 8.9 0.400012C8.9 0.500012 8.8 0.600012 8.9 0.700012C8.1 0.700012 7.5 1.20001 7.2 1.90001C7.1 2.20001 7.2 2.60001 7.5 2.70001L10 3.90001C10.3 4.00001 10.7 3.90001 10.8 3.60001C10.9 3.30001 11 3.00001 11 2.70001C11 2.40001 10.9 2.20001 10.8 1.90001L12.4 2.60001V5.00001C12 5.10001 11.7 5.40001 11.4 5.80001H0.6C0.3 5.70001 0 6.00001 0 6.40001C0 6.80001 0.3 7.00001 0.6 7.00001H0.8V14.5C0.8 14.9 1.1 15.1 1.4 15.1C1.8 15.1 2 14.8 2 14.5V8.50001H8.1V13.6C8.1 14 8.4 14.2 8.7 14.2H13.4V14.5C13.4 14.9 13.7 15.1 14 15.1C14.4 15.1 14.6 14.8 14.6 14.5V7.00001H14.8C15.2 7.00001 15.4 6.70001 15.4 6.40001C15.4 6.10001 15.5 5.70001 15.2 5.70001ZM8.8 1.90001C9.1 1.90001 9.5 2.00001 9.6 2.40001L8.8 1.90001ZM8.3 7.40001H2.2V7.10001H8.3V7.40001ZM13.6 12.9H9.6V10.6H13.7V12.9H13.6ZM13.6 9.30001H9.6V7.00001H13.7V9.30001H13.6ZM12.3 6.20001C12.5 5.90001 12.8 5.80001 13.1 5.80001C13.4 5.80001 13.7 6.00001 13.9 6.20001H12.3Z" fill="#7A7A7A"/>
</g>
<defs>
<clipPath id="clip0_849_1613">
<rect width="15.8" height="15.2" fill="white"/>
</clipPath>
</defs>
</svg>
