<svg width="15" height="19" viewBox="0 0 15 19" fill="none" xmlns="http://www.w3.org/2000/svg">
<g clip-path="url(#clip0_849_1639)">
<path d="M13.4998 5.3C13.3998 5.3 13.2998 5.3 13.1998 5.3V4.5H2.8998V5.3C2.8998 7 3.1998 8.6 3.7998 9.9C1.9998 10.5 0.699805 11.9 0.199805 13C-0.00019531 13.5 -0.00019531 14 0.199805 14.4C0.399805 14.8 0.699805 15 1.0998 15C1.3998 15.1 1.6998 15.1 1.9998 15.1C2.0998 15.1 2.2998 15.1 2.3998 15.1C3.2998 15.1 4.3998 15.2 5.4998 15.6C6.1998 15.8 7.1998 16.5 8.1998 17.2C8.5998 17.4 8.8998 17.7 9.1998 17.9C9.3998 18 9.6998 18.1 9.8998 18.1C10.5998 18.1 11.1998 17.6 11.1998 17C11.5998 15.2 11.3998 13.5 10.4998 12.2C10.9998 11.8 11.3998 11.3 11.6998 10.7C11.7998 10.7 11.7998 10.7 11.8998 10.8C11.9998 10.8 12.0998 10.8 12.2998 10.8C13.3998 10.8 14.4998 9.5 14.7998 8.2C15.2998 6.7 14.4998 5.6 13.4998 5.3ZM4.5998 10.8C5.3998 10.6 6.1998 10.6 6.9998 10.8C7.5998 11 9.1998 11.8 9.8998 13.5L7.4998 15.4C6.8998 15 6.3998 14.7 5.8998 14.6C5.3998 14.4 4.7998 14.3 4.0998 14.2L3.6998 11.2C3.9998 11 4.2998 10.9 4.5998 10.8ZM7.2998 9.7C6.7998 9.6 6.2998 9.5 5.7998 9.5C5.4998 9.5 5.2998 9.5 4.9998 9.6C4.4998 8.5 4.1998 7.2 4.0998 5.7H11.9998C11.8998 8.1 11.0998 10.2 9.7998 11.3C8.89981 10.3 7.7998 9.9 7.2998 9.7ZM13.1998 6.4C13.1998 6.5 13.1998 6.5 13.1998 6.4C13.3998 6.5 13.5998 6.6 13.6998 6.7C13.8998 7 13.8998 7.5 13.7998 8C13.4998 9 12.7998 9.7 12.4998 9.7C12.7998 8.7 13.0998 7.6 13.1998 6.4ZM2.8998 14C2.7998 14 2.6998 14 2.4998 14C2.3998 14 2.1998 14 2.0998 14C1.7998 14 1.5998 14 1.2998 13.9H1.1998C1.1998 13.8 1.1998 13.7 1.2998 13.5C1.4998 13 1.9998 12.4 2.5998 11.9L2.8998 14ZM10.0998 16.8C10.0998 17 9.89981 17 9.7998 17.1H9.6998C9.4998 17 9.1998 16.8 8.9998 16.6L8.6998 16.4C8.5998 16.3 8.4998 16.3 8.3998 16.2L10.0998 14.9C10.2998 15.4 10.2998 16.1 10.0998 16.8Z" fill="#7A7A7A"/>
<path d="M8.49958 0C8.49958 0 8.99958 1.3 7.89958 3.1C6.89958 4.9 6.79958 5.8 7.39958 7C7.39958 7 7.29958 5.8 8.49958 4.4C9.59958 2.9 9.79958 1.6 8.49958 0Z" fill="#7A7A7A"/>
<path d="M11.7 0C11.7 0 12 0.9 11.3 2.1C10.6 3.3 10.5 3.9 10.9 4.7C10.9 4.7 10.8 3.9 11.6 2.9C12.4 2 12.5 1.1 11.7 0Z" fill="#7A7A7A"/>
<path d="M5.89996 0C5.89996 0 6.19996 0.9 5.49996 2.1C4.79996 3.3 4.79996 3.9 5.19996 4.7C5.19996 4.7 5.09996 3.9 5.89996 2.9C6.59996 2 6.69996 1.1 5.89996 0Z" fill="#7A7A7A"/>
</g>
<defs>
<clipPath id="clip0_849_1639">
<rect width="15" height="18.3" fill="white"/>
</clipPath>
</defs>
</svg>
