<svg width="15" height="16" viewBox="0 0 15 16" fill="none" xmlns="http://www.w3.org/2000/svg">
<g clip-path="url(#clip0_844_1602)">
<path d="M3 10V13.9C3 14.1 3 14.2 2.9 14.3C2.8 14.4 2.7 14.4 2.5 14.4C2.3 14.4 2.2 14.4 2.1 14.3C2 14.2 2 14 2 13.9V10H0.5L2 4.90002H1.8C1.6 5.50002 1.5 6.00002 1.3 6.30002C1.2 6.70002 1.1 7.00002 1 7.40002C0.9 7.70002 0.9 7.90002 0.9 8.00002C0.8 8.20002 0.6 8.30002 0.4 8.30002H0.3C0.1 8.20002 0 8.00002 0 7.80002C0 7.70002 0 7.70002 0 7.70002C0 7.70002 0.1 7.50002 0.1 7.30002C0.2 7.10002 0.2 6.80002 0.3 6.50002C0.4 6.20002 0.5 5.80002 0.6 5.50002C0.8 5.10002 0.9 4.80002 1 4.40002C1.1 4.10002 1.2 3.90002 1.5 3.70002C1.7 3.50002 2 3.40002 2.2 3.40002H4C4.3 3.40002 4.5 3.50002 4.8 3.70002C5 3.90002 5.2 4.20002 5.3 4.40002C5.4 4.70002 5.5 5.10002 5.6 5.50002C5.7 5.90002 5.8 6.20002 5.9 6.50002C6 6.80002 6.1 7.10002 6.1 7.30002C6.2 7.50002 6.2 7.60002 6.2 7.70002V7.80002C6.2 8.00002 6.1 8.20002 5.9 8.20002H5.8C5.6 8.30002 5.5 8.20002 5.4 8.00002C5.4 7.90002 5.3 7.70002 5.2 7.40002C5.1 7.00002 5 6.70002 4.9 6.30002C4.8 6.00002 4.7 5.50002 4.5 4.90002H4.2L5.7 10H4.3V13.9C4.3 14.1 4.3 14.2 4.1 14.3C4 14.4 3.9 14.4 3.7 14.4C3.5 14.4 3.4 14.4 3.3 14.3C3.2 14.2 3.2 14.1 3.2 13.9V10H3Z" fill="#7A7A7A"/>
<path d="M3.2 3.10002C3.5 3.10002 3.8 3.00002 4 2.80002C4.1 2.60002 4.2 2.30002 4.2 2.00002C4.2 1.70002 4.1 1.40002 3.9 1.20002C3.7 1.00002 3.5 0.900024 3.2 0.900024C2.8 0.900024 2.6 1.00002 2.3 1.20002C2.1 1.40002 2 1.70002 2 2.00002C2 2.30002 2.1 2.60002 2.3 2.80002C2.6 3.00002 2.8 3.10002 3.2 3.10002Z" fill="#7A7A7A"/>
<path d="M11.1002 3.40002C10.7002 3.40002 10.4002 3.50002 10.1002 3.80002C9.8002 4.10002 9.7002 4.40002 9.7002 4.80002V8.30002C9.7002 8.40002 9.7002 8.50002 9.8002 8.60002C9.9002 8.70002 10.0002 8.70002 10.1002 8.70002C10.3002 8.70002 10.4002 8.70002 10.5002 8.60002C10.6002 8.50002 10.6002 8.40002 10.6002 8.30002V5.20002H10.9002V13.8C10.9002 14 11.0002 14.1 11.1002 14.2C11.2002 14.3 11.4002 14.4 11.6002 14.4C11.8002 14.4 11.9002 14.3 12.1002 14.2C12.2002 14.1 12.3002 13.9 12.3002 13.8V8.80002H12.6002V13.8C12.6002 14 12.7002 14.1 12.8002 14.2C12.9002 14.3 13.1002 14.4 13.3002 14.4C13.5002 14.4 13.6002 14.3 13.7002 14.2C13.8002 14.1 13.9002 13.9 13.9002 13.8V5.20002H14.0002V8.30002C14.0002 8.40002 14.0002 8.50002 14.1002 8.60002C14.2002 8.70002 14.3002 8.70002 14.5002 8.70002C14.7002 8.70002 14.8002 8.70002 14.9002 8.60002C14.9002 8.50002 15.0002 8.40002 15.0002 8.30002V4.80002C15.0002 4.40002 14.9002 4.10002 14.6002 3.80002C14.3002 3.50002 14.0002 3.40002 13.6002 3.40002H11.1002Z" fill="#7A7A7A"/>
<path d="M12.3002 3.10002C12.6002 3.10002 12.9002 3.00002 13.1002 2.80002C13.3002 2.60002 13.4002 2.30002 13.4002 2.00002C13.4002 1.70002 13.3002 1.40002 13.1002 1.20002C12.9002 1.00002 12.6002 0.900024 12.3002 0.900024C12.0002 0.900024 11.7002 1.00002 11.5002 1.20002C11.3002 1.40002 11.2002 1.70002 11.2002 2.00002C11.2002 2.30002 11.3002 2.60002 11.5002 2.80002C11.8002 3.00002 12.0002 3.10002 12.3002 3.10002Z" fill="#7A7A7A"/>
<path d="M7.40039 0H8.50039V15.9H7.40039V0Z" fill="#7A7A7A"/>
</g>
<defs>
<clipPath id="clip0_844_1602">
<rect width="15" height="15.9" fill="white"/>
</clipPath>
</defs>
</svg>
