<svg width="15" height="14" viewBox="0 0 15 14" fill="none" xmlns="http://www.w3.org/2000/svg">
<path d="M15 4.09434L13.7 5.81132C12.1 3.69811 9.9 2.37736 7.5 2.37736C5.1 2.37736 2.9 3.69811 1.3 5.81132L0 4.09434C1.9 1.58491 4.6 0 7.5 0C10.4 0 13.1 1.58491 15 4.09434Z" fill="#7A7A7A"/>
<path d="M7.5002 5.01886C9.4002 5.01886 11.1002 6.07546 12.4002 7.66037L11.0002 9.37735C10.1002 8.18867 8.9002 7.39622 7.5002 7.39622C6.1002 7.39622 4.9002 8.18867 4.0002 9.37735L2.7002 7.66037C3.9002 5.94339 5.6002 5.01886 7.5002 5.01886Z" fill="#7A7A7A"/>
<path d="M9.6998 11.0943L7.4998 14L5.2998 11.0943C5.8998 10.3019 6.5998 9.90564 7.4998 9.90564C8.3998 9.90564 9.0998 10.3019 9.6998 11.0943Z" fill="#7A7A7A"/>
</svg>
