<svg width="15" height="15" viewBox="0 0 15 15" fill="none" xmlns="http://www.w3.org/2000/svg">
<g clip-path="url(#clip0_849_1611)">
<path d="M2.7 12.4C2 13.1 1.6 14 1.6 15H3C3 14.4 3.2 13.8 3.7 13.3C4.1 12.9 4.7 12.6 5.4 12.6H8.7C9.3 12.6 9.9 12.8 10.4 13.3C10.8 13.7 11.1 14.3 11.1 15H12.5C12.5 14 12.1 13.1 11.4 12.4C12.2 12.1 12.9 11.6 13.4 10.9C13.9 10.2 14.1 9.4 14.1 8.5C14.1 8 13.9 7.5 13.6 7.1C13.3 6.7 12.9 6.4 12.4 6.3V3.5C12.4 2.6 12 1.7 11.4 1C10.7 0.3 9.8 0 8.9 0H5.2C4.2 0 3.3 0.4 2.7 1C2 1.7 1.7 2.6 1.7 3.5V6.2C1.2 6.4 0.7 6.6 0.5 7.1C0.2 7.5 0 7.9 0 8.4C0 9.3 0.3 10.1 0.7 10.8C1.2 11.5 1.9 12.1 2.7 12.4ZM5.2 1.4H9C9.6 1.4 10.1 1.6 10.5 2C10.8 2.4 11 3 11 3.5V6.2C10.6 6.3 10.2 6.6 10 6.9C9.7 7.2 9.5 7.6 9.4 8H4.6C4.6 7.6 4.4 7.2 4.1 6.9C3.8 6.6 3.4 6.3 3 6.2V3.5C3 3 3.3 2.4 3.7 2C4.1 1.6 4.6 1.4 5.2 1.4ZM2.3 7.5C2.5 7.5 2.8 7.6 3 7.8C3.2 8 3.3 8.2 3.3 8.4V9.3H10.8V8.4C10.8 8.1 11 7.8 11.3 7.6C11.6 7.4 11.9 7.4 12.2 7.6C12.5 7.8 12.7 8.1 12.7 8.4C12.7 9.1 12.4 9.9 11.9 10.4C11.4 10.9 10.7 11.2 9.9 11.2H4.2C3.5 11.2 2.7 10.9 2.2 10.4C1.7 9.9 1.4 9.2 1.4 8.4C1.4 8.2 1.5 7.9 1.7 7.7C1.9 7.6 2.1 7.5 2.3 7.5Z" fill="#7A7A7A"/>
</g>
<defs>
<clipPath id="clip0_849_1611">
<rect width="14.1" height="15" fill="white"/>
</clipPath>
</defs>
</svg>
