<svg width="15" height="21" viewBox="0 0 15 21" fill="none" xmlns="http://www.w3.org/2000/svg">
<g clip-path="url(#clip0_844_1538)">
<path d="M11.4001 2.77502L8.1751 4.05002C7.9501 3.90002 7.7251 3.75002 7.5001 3.75002C7.2001 3.75002 6.9751 3.82502 6.8251 4.05002L3.6001 2.77502V6.90002L6.9001 5.70002C7.0501 5.85002 7.2751 5.92502 7.5001 5.92502C7.7251 5.92502 7.9501 5.85002 8.1751 5.70002L11.4751 6.90002L11.4001 2.77502Z" fill="#7A7A7A"/>
<path d="M12.225 0H2.85C2.1 0 1.425 0.3 0.825 0.825C0.225 1.35 0 2.1 0 2.85V17.85C0 18.6 0.3 19.275 0.825 19.875C1.35 20.4 2.1 20.7 2.85 20.7H12.225C12.975 20.7 13.65 20.4 14.25 19.875C14.775 19.35 15.075 18.6 15.075 17.85V2.85C15.075 2.1 14.775 1.425 14.25 0.825C13.65 0.3 12.9 0 12.225 0ZM1.875 2.85C1.875 2.625 1.95 2.4 2.175 2.175C2.325 2.025 2.625 1.875 2.85 1.875H12.225C12.45 1.875 12.675 1.95 12.9 2.175C13.05 2.325 13.2 2.625 13.2 2.85V13.125H1.95L1.875 2.85ZM13.125 17.85C13.125 18.075 13.05 18.3 12.825 18.525C12.675 18.675 12.375 18.825 12.15 18.825H2.85C2.625 18.825 2.4 18.75 2.175 18.525C2.025 18.375 1.875 18.075 1.875 17.85V15H13.125V17.85Z" fill="#7A7A7A"/>
<path d="M8.4748 16.875C8.4748 17.4 8.02481 17.775 7.57481 17.775C7.04981 17.775 6.6748 17.325 6.6748 16.875C6.6748 16.35 7.12481 15.975 7.57481 15.975C8.02481 15.975 8.4748 16.35 8.4748 16.875Z" fill="#7A7A7A"/>
<path d="M8.25 7.72498C8.25 8.17498 7.875 8.47498 7.5 8.47498C7.05 8.47498 6.75 8.09998 6.75 7.72498C6.75 7.34998 7.125 6.97498 7.5 6.97498C7.95 6.97498 8.25 7.27498 8.25 7.72498Z" fill="#7A7A7A"/>
<path d="M8.25 10.575C8.25 11.025 7.875 11.325 7.5 11.325C7.05 11.325 6.75 10.95 6.75 10.575C6.75 10.2 7.125 9.82495 7.5 9.82495C7.95 9.82495 8.25 10.2 8.25 10.575Z" fill="#7A7A7A"/>
</g>
<defs>
<clipPath id="clip0_844_1538">
<rect width="15" height="20.625" fill="white"/>
</clipPath>
</defs>
</svg>
