<svg width="16" height="16" viewBox="0 0 16 16" fill="none" xmlns="http://www.w3.org/2000/svg">
<g clip-path="url(#clip0_849_1620)">
<path d="M9.7 9.1C9.3 9.1 8.8 8.9 8.6 8.5L7 9.1C7.5 10.1 8.5 10.8 9.6 10.8C9.8 10.8 9.9 10.8 10.1 10.7L9.7 9.1Z" fill="#7A7A7A"/>
<path d="M10.6996 7.10002L12.1996 6.60002C11.6996 5.60002 10.6996 4.90002 9.59961 4.90002C9.39961 4.90002 9.29961 4.90002 9.09961 5.00002L9.59961 6.50002C9.99961 6.50002 10.4996 6.70002 10.6996 7.10002Z" fill="#7A7A7A"/>
<path d="M8.9002 6.69995L8.4002 5.19995C7.4002 5.69995 6.7002 6.69995 6.7002 7.79995C6.7002 7.99995 6.7002 8.09995 6.8002 8.29995L8.3002 7.79995C8.3002 7.39995 8.5002 6.99995 8.9002 6.69995Z" fill="#7A7A7A"/>
<path d="M11.0004 7.80005C11.0004 8.20005 10.8004 8.70005 10.4004 8.90005L10.9004 10.4C11.9004 9.90005 12.6004 8.90005 12.6004 7.80005C12.6004 7.60005 12.6004 7.50005 12.5004 7.30005L11.0004 7.80005Z" fill="#7A7A7A"/>
<path d="M3.2998 2.09998C2.7998 2.09998 2.2998 2.49998 2.2998 3.09998V12.4C2.2998 12.9 2.6998 13.4 3.2998 13.4C3.8998 13.4 4.2998 13 4.2998 12.4V3.09998C4.2998 2.59998 3.7998 2.09998 3.2998 2.09998ZM3.6998 12.4C3.6998 12.6 3.4998 12.8 3.2998 12.8C3.0998 12.8 2.8998 12.6 2.8998 12.4V3.09998C2.8998 2.89998 3.0998 2.69998 3.2998 2.69998C3.4998 2.69998 3.6998 2.89998 3.6998 3.09998V12.4Z" fill="#7A7A7A"/>
<path d="M13.4 0H2.1C0.9 0 0 0.9 0 2.1V13.5C0 14.6 0.9 15.6 2.1 15.6H13.5C14.6 15.6 15.6 14.7 15.6 13.5V2.1C15.5 0.9 14.6 0 13.4 0ZM14.4 2.1V13.5C14.4 14 14 14.5 13.4 14.5H2.1C1.6 14.5 1.1 14.1 1.1 13.5V2.1C1.1 1.6 1.5 1.1 2.1 1.1H13.5C14 1.1 14.4 1.5 14.4 2.1Z" fill="#7A7A7A"/>
<path d="M9.59961 3.90002C9.19961 3.90002 8.79961 3.90002 8.39961 4.00002C6.69961 4.50002 5.59961 6.00002 5.59961 7.80002C5.59961 8.20002 5.69961 8.60002 5.79961 9.00002C6.29961 10.7 7.79961 11.8 9.59961 11.8C9.89961 11.8 10.1996 11.8 10.4996 11.7L10.7996 11.6L11.0996 11.5C12.5996 10.9 13.5996 9.50002 13.5996 7.80002C13.5996 7.40002 13.4996 7.00002 13.3996 6.60002C12.8996 5.00002 11.3996 3.90002 9.59961 3.90002ZM10.8996 10.9L10.2996 11V11.1C10.0996 11.2 9.79961 11.2 9.59961 11.2C8.09961 11.2 6.79961 10.3 6.39961 8.80002C6.29961 8.50002 6.19961 8.10002 6.19961 7.80002C6.19961 6.30002 7.09961 5.00002 8.59961 4.60002C8.89961 4.50002 9.29961 4.40002 9.59961 4.40002C11.0996 4.40002 12.3996 5.30002 12.7996 6.80002C12.9996 7.10002 12.9996 7.50002 12.9996 7.80002C12.9996 9.20002 12.1996 10.4 10.8996 10.9Z" fill="#7A7A7A"/>
</g>
<defs>
<clipPath id="clip0_849_1620">
<rect width="15.5" height="15.5" fill="white"/>
</clipPath>
</defs>
</svg>
