<svg width="15" height="15" viewBox="0 0 15 15" fill="none" xmlns="http://www.w3.org/2000/svg">
<g clip-path="url(#clip0_849_1646)">
<path d="M5.60039 6.79998L8.10039 9.79998V13.4H6.80039C6.60039 13.4 6.40039 13.6 6.40039 13.8C6.40039 14 6.60039 14.2 6.80039 14.2H10.2004C10.4004 14.2 10.6004 14 10.6004 13.8C10.6004 13.6 10.4004 13.4 10.2004 13.4H8.90039V9.89998L11.3004 6.99998L14.9004 2.69998C15.0004 2.59998 15.0004 2.39998 15.0004 2.29998C15.0004 2.19998 14.7004 1.99998 14.6004 1.99998H13.3004L14.3004 0.699984C14.4004 0.499984 14.4004 0.299984 14.2004 0.0999838C14.0004 -0.100016 13.8004 -1.62125e-05 13.6004 0.199984L12.2004 1.99998H2.40039C2.30039 1.99998 2.10039 2.09998 2.10039 2.29998C2.00039 2.39998 2.00039 2.59998 2.10039 2.69998L5.60039 6.79998ZM8.50039 8.99998L6.70039 6.89998C6.80039 6.89998 6.90039 6.89998 6.90039 6.89998C7.00039 6.89998 7.00039 6.89998 7.10039 6.89998C7.20039 6.89998 7.20039 6.89998 7.30039 6.89998H7.40039H7.50039H7.60039H7.70039C8.00039 6.99998 8.00039 6.99998 8.00039 6.99998C8.00039 6.99998 8.00039 6.99998 8.10039 6.99998C8.10039 6.99998 8.10039 6.99998 8.20039 6.99998C8.20039 6.99998 8.20039 6.99998 8.30039 6.99998C8.30039 6.99998 8.30039 6.99998 8.40039 6.99998C8.50039 6.99998 8.50039 6.99998 8.60039 6.99998H8.70039H8.80039H8.90039C9.00039 6.99998 9.00039 6.99998 9.10039 6.99998C9.20039 6.99998 9.20039 6.99998 9.30039 6.99998C9.30039 6.99998 9.30039 6.99998 9.40039 6.99998H9.50039L8.50039 8.99998ZM12.6004 2.89998H13.7004L10.8004 6.39998H10.7004C10.6004 6.39998 10.6004 6.39998 10.5004 6.39998C10.4004 6.39998 10.4004 6.39998 10.3004 6.39998H10.2004C10.1004 6.39998 10.1004 6.39998 10.0004 6.39998H9.90039H9.80039L12.6004 2.89998ZM11.5004 2.89998L8.70039 6.49998C8.70039 6.49998 8.70039 6.49998 8.60039 6.49998C8.60039 6.49998 8.60039 6.49998 8.50039 6.39998C8.50039 6.39998 8.50039 6.39998 8.40039 6.39998C8.40039 6.39998 8.40039 6.39998 8.30039 6.39998C8.30039 6.39998 8.30039 6.39998 8.20039 6.39998C8.20039 6.39998 8.20039 6.39998 8.10039 6.39998C8.10039 6.39998 8.10039 6.39998 8.00039 6.39998C8.00039 6.39998 8.00039 6.39998 7.90039 6.39998C7.90039 6.39998 7.90039 6.39998 7.80039 6.39998C7.80039 6.39998 7.80039 6.39998 7.70039 6.39998C7.70039 6.39998 7.70039 6.39998 7.60039 6.39998H7.50039H7.40039H7.30039H7.20039H7.10039H7.00039H6.90039H7.10039H7.00039C7.00039 5.99998 7.00039 5.99998 7.00039 5.99998H6.90039H6.80039H6.70039H6.60039H6.50039H6.40039C6.30039 5.99998 6.30039 5.99998 6.20039 5.99998C6.20039 5.99998 6.20039 5.99998 6.10039 5.99998L3.30039 2.89998H11.5004Z" fill="#7A7A7A"/>
<path d="M3.29985 8.79991C3.19985 8.69991 2.79985 8.59991 2.59985 9.09991C2.39985 9.59991 2.49985 10.0999 2.59985 10.1999C2.69985 10.2999 3.19985 9.99991 3.49985 9.49991C3.69985 9.09991 3.39985 8.79991 3.29985 8.79991Z" fill="#7A7A7A"/>
<path d="M4.90003 8.79991C4.70003 8.79991 4.50003 9.09991 4.70003 9.49991C4.90003 9.99991 5.40003 10.1999 5.60003 10.1999C5.70003 10.0999 5.90003 9.59991 5.60003 9.09991C5.40003 8.59991 5.00003 8.69991 4.90003 8.79991Z" fill="#7A7A7A"/>
<path d="M7.29996 9.89997C7.09996 10.5 6.29996 12.6 4.69996 12.3C4.49996 12.3 4.39996 12.2 4.19996 12.1C4.19996 12.1 4.09996 12.1 3.99996 12.1C3.89996 12.1 3.89996 12.1 3.79996 12.1C3.59996 12.2 3.49996 12.3 3.29996 12.3C1.79996 12.6 0.899961 10.5 0.699961 9.89997C0.499961 8.89997 0.599961 7.89997 0.999961 7.29997C1.29996 6.89997 1.79996 6.69997 2.49996 6.69997C2.99996 6.69997 3.49996 6.89997 3.89996 7.09997C3.99996 7.19997 4.09996 7.19997 4.19996 7.09997C4.59996 6.89997 5.09996 6.69997 5.59996 6.69997L5.19996 6.19997C4.89996 6.19997 4.59996 6.29997 4.29996 6.39997C4.39996 5.79997 4.19996 4.79997 3.29996 4.49997C2.89996 4.39997 2.69996 4.99997 2.99996 5.09997C3.59996 5.29997 3.79996 5.69997 3.89996 6.39997C3.49996 6.19997 2.99996 6.09997 2.59996 6.09997C1.69996 5.99997 0.999961 6.29997 0.499961 6.89997C-0.100039 7.69997 -0.200039 8.89997 0.199961 10.2C0.899961 12.3 2.09996 13.4 3.49996 13.1C3.69996 13.1 3.79996 13 3.99996 12.9C4.29996 12.9 4.39996 13 4.59996 13C4.69996 13 4.89996 13 4.99996 13C6.19996 13 7.29996 11.9 7.89996 10.1C7.99996 9.99997 7.99996 9.79997 8.09996 9.59997L7.49996 8.89997C7.49996 9.29997 7.39996 9.59997 7.29996 9.89997Z" fill="#7A7A7A"/>
</g>
<defs>
<clipPath id="clip0_849_1646">
<rect width="15" height="14.3" fill="white"/>
</clipPath>
</defs>
</svg>
