<svg width="15" height="14" viewBox="0 0 15 14" fill="none" xmlns="http://www.w3.org/2000/svg">
<g clip-path="url(#clip0_844_1578)">
<path d="M15 13.5C14.2 13.5 13.7 13.2 13.4 13C13.1 12.8 13 12.7 12.5 12.7C12.1 12.7 11.9 12.8 11.6 13C11.3 13.2 10.8 13.5 10 13.5C9.2 13.5 8.7 13.2 8.4 13C8.1 12.8 7.9 12.7 7.5 12.7C7.1 12.7 6.9 12.8 6.6 13C6.3 13.2 5.8 13.5 5 13.5C4.2 13.5 3.7 13.2 3.4 13C3.1 12.8 3 12.7 2.5 12.7C2 12.7 1.9 12.8 1.6 13C1.3 13.2 0.8 13.5 0 13.5V12C0.4 12 0.6 11.9 0.9 11.7C1.2 11.5 1.7 11.2 2.5 11.2C3.3 11.2 3.8 11.5 4.1 11.7C4.4 11.9 4.6 12 5 12C5.4 12 5.6 11.9 5.9 11.7C6.2 11.5 6.7 11.2 7.5 11.2C8.3 11.2 8.8 11.5 9.1 11.7C9.4 11.9 9.6 12 10 12C10.4 12 10.6 11.9 10.9 11.7C11.2 11.5 11.7 11.2 12.5 11.2C13.3 11.2 13.8 11.5 14.1 11.7C14.4 11.9 14.5 12 15 12V13.5ZM15 10.1C14.2 10.1 13.7 9.8 13.4 9.6C13.1 9.4 13 9.3 12.5 9.3C12.1 9.3 11.9 9.4 11.6 9.6C11.3 9.8 10.8 10.1 10 10.1C9.2 10.1 8.7 9.8 8.4 9.6C8.1 9.5 7.9 9.4 7.5 9.4C7.1 9.4 6.9 9.5 6.6 9.7C6.3 9.8 5.8 10.1 5 10.1C4.2 10.1 3.7 9.8 3.4 9.6C3.1 9.5 2.9 9.4 2.5 9.4C2.1 9.4 1.9 9.5 1.7 9.6C1.3 9.8 0.8 10.1 0 10.1V8.6C0.4 8.6 0.6 8.5 0.9 8.3C1.2 8.1 1.7 7.8 2.5 7.8C3.3 7.8 3.8 8.1 4.1 8.3C4.4 8.5 4.6 8.6 5 8.6C5.4 8.6 5.6 8.5 5.9 8.3C6.2 8.1 6.7 7.8 7.5 7.8C8.3 7.8 8.8 8.1 9.1 8.3C9.4 8.5 9.6 8.6 10 8.6C10.4 8.6 10.6 8.5 10.9 8.3C11.2 8.1 11.7 7.8 12.5 7.8C13.3 7.8 13.8 8.1 14.1 8.3C14.4 8.5 14.5 8.6 15 8.6V10.1ZM5 6.8C5.4 6.8 5.6 6.7 5.9 6.5C6.2 6.3 6.7 6 7.5 6C8.3 6 8.8 6.3 9.1 6.5C9.4 6.6 9.6 6.8 10 6.8C10.4 6.8 10.6 6.7 10.9 6.5C11 6.4 11.1 6.4 11.2 6.3L6.4 1.5C5.2 0.3 4.1 0 2.3 0V1.9C3.7 1.9 4.5 2.2 5.3 3L6 3.8L3.6 6.2C3.8 6.3 4 6.4 4.1 6.5C4.4 6.7 4.6 6.8 5 6.8Z" fill="#7A7A7A"/>
<path d="M10.9 3.8C11.9493 3.8 12.8 2.94934 12.8 1.9C12.8 0.850659 11.9493 0 10.9 0C9.85066 0 9 0.850659 9 1.9C9 2.94934 9.85066 3.8 10.9 3.8Z" fill="#7A7A7A"/>
</g>
<defs>
<clipPath id="clip0_844_1578">
<rect width="15" height="13.5" fill="white"/>
</clipPath>
</defs>
</svg>
