<svg width="187" height="45" viewBox="0 0 187 45" fill="none" xmlns="http://www.w3.org/2000/svg">
<path d="M41.8666 0.614746L5.27562 14.5578L0.268433 27.2684L37.8609 44.0618L54.6542 6.93151L41.8666 0.614746ZM42.4059 4.23533L50.1863 8.08702L39.0164 12.7861L42.4059 4.23533ZM25.6896 11.3995L32.4685 15.2512L22.6082 19.1028L25.6896 11.3995ZM22.069 11.3995L18.7565 20.5665L10.745 15.8674L22.069 11.3995ZM7.89477 17.5622L14.6737 21.722L4.65935 25.8818L7.89477 17.5622ZM8.43401 27.5765L18.4484 23.4167L31.5441 37.5909L8.43401 27.5765ZM34.5484 35.7421L21.5297 22.1072L34.5484 17.4081V35.7421ZM35.7039 13.0942L27.9235 9.24252L38.8623 5.0827L35.7039 13.0942ZM37.7068 35.2029V16.5607L48.3375 12.4009L37.7068 35.2029Z" fill="#797979"/>
<path d="M76.917 27.5766H70.2921L69.4447 30.5809H63.4361L70.4462 11.9387H76.84L83.85 30.5809H77.8414L76.917 27.5766ZM75.7615 23.5708L73.6045 16.9459L71.4476 23.5708H75.7615Z" fill="#797979"/>
<path d="M95.328 12.0925H101.106V26.1127H109.964V30.7347H95.328V12.0925Z" fill="#797979"/>
<path d="M119.748 12.0925H137.157V16.7146H131.226V30.7347H125.448V16.7146H119.44L119.748 12.0925Z" fill="#797979"/>
<path d="M155.414 12.0925H149.637V30.7347H155.414V12.0925Z" fill="#797979"/>
<path d="M169.126 12.0925H174.442L181.452 22.338V12.0925H186.998V30.7347H181.452L174.442 20.5662V30.7347H169.126V12.0925Z" fill="#797979"/>
<path d="M63.359 34.5095H64.5916C65.2849 34.5095 65.7471 34.5866 66.0552 34.6636C66.3634 34.8177 66.5945 34.9717 66.7485 35.2799C66.9026 35.588 66.9796 35.8961 66.9796 36.2813C66.9796 36.7435 66.9026 37.0516 66.6715 37.3598C66.4404 37.6679 66.1323 37.822 65.7471 37.976C65.516 38.0531 65.1308 38.0531 64.5145 38.0531V40.6722H63.359V34.5095ZM64.5916 36.8976H64.9767C65.2849 36.8976 65.439 36.8976 65.593 36.8205C65.6701 36.7435 65.8241 36.7435 65.9011 36.5894C65.9782 36.5124 65.9782 36.3583 65.9782 36.2043C65.9782 35.9732 65.9012 35.8191 65.6701 35.665C65.516 35.588 65.2849 35.511 64.8997 35.511H64.5916V36.8976Z" fill="#797979"/>
<path d="M81.0768 34.5095H82.2323L84.6204 40.5952H83.4649L83.0027 39.3626H80.5376L80.0754 40.5952H78.8428L81.0768 34.5095ZM81.6931 36.1272L80.8457 38.2071H82.4634L81.6931 36.1272Z" fill="#797979"/>
<path d="M96.1754 34.5095H97.3309L98.1783 38.4382L99.2568 34.5095H100.258L101.337 38.4382L102.261 34.5095H103.34L102.03 40.5952H100.874L99.719 36.6665L98.6405 40.5952H97.562L96.1754 34.5095Z" fill="#797979"/>
<path d="M115.357 34.5095H116.512L119.131 38.5153V34.5095H120.287V40.5952H119.131L116.512 36.5894V40.5952H115.357V34.5095Z" fill="#797979"/>
<path d="M135.925 35.357L135.077 36.1273C134.769 35.7422 134.461 35.5111 134.153 35.5111C133.999 35.5111 133.845 35.5881 133.768 35.6651C133.691 35.7422 133.614 35.8192 133.614 35.9733C133.614 36.1273 133.614 36.2044 133.691 36.2814C133.768 36.4355 134.076 36.6666 134.538 37.0517C135 37.4369 135.231 37.668 135.309 37.7451C135.54 37.9762 135.694 38.2073 135.848 38.4384C136.002 38.6695 136.002 38.9006 136.002 39.1317C136.002 39.6709 135.848 40.0561 135.463 40.3642C135.154 40.6723 134.692 40.8264 134.076 40.8264C133.614 40.8264 133.229 40.7494 132.92 40.5183C132.612 40.2872 132.304 39.979 132.073 39.5168L133.075 38.9006C133.383 39.4398 133.691 39.7479 134.076 39.7479C134.307 39.7479 134.461 39.6709 134.615 39.5939C134.769 39.4398 134.846 39.3628 134.846 39.2087C134.846 39.0546 134.769 38.9006 134.692 38.8235C134.615 38.6695 134.384 38.4384 133.999 38.2073C133.306 37.668 132.92 37.2829 132.689 36.9747C132.458 36.6666 132.381 36.3584 132.381 36.1273C132.381 35.6651 132.535 35.357 132.843 35.0489C133.152 34.7407 133.537 34.5867 134.076 34.5867C134.384 34.5867 134.692 34.6637 134.923 34.8178C135.309 34.7407 135.617 34.9718 135.925 35.357Z" fill="#797979"/>
<path d="M148.25 34.5095H149.406V36.8205H151.486V34.5095H152.641V40.5952H151.486V37.976H149.406V40.5952H148.25V34.5095Z" fill="#797979"/>
<path d="M167.971 34.3555C168.818 34.3555 169.589 34.6636 170.205 35.2799C170.821 35.8961 171.129 36.6665 171.129 37.5909C171.129 38.5153 170.821 39.2086 170.205 39.8249C169.589 40.4411 168.818 40.7493 167.971 40.7493C167.046 40.7493 166.276 40.4411 165.66 39.8249C165.044 39.2086 164.735 38.4383 164.735 37.5909C164.735 36.9746 164.889 36.4354 165.121 35.9732C165.429 35.511 165.814 35.1258 166.276 34.8177C166.892 34.5095 167.432 34.3555 167.971 34.3555ZM167.971 35.511C167.432 35.511 166.892 35.7421 166.507 36.1272C166.122 36.5124 165.968 37.0516 165.968 37.5909C165.968 38.2842 166.199 38.8234 166.661 39.2086C167.046 39.5167 167.509 39.6708 167.971 39.6708C168.51 39.6708 168.972 39.4397 169.357 39.0545C169.743 38.6694 169.974 38.1301 169.974 37.5909C169.974 36.9746 169.743 36.5124 169.357 36.1272C169.049 35.665 168.587 35.511 167.971 35.511Z" fill="#797979"/>
<path d="M183.378 34.5095H184.61C185.303 34.5095 185.766 34.5866 186.074 34.6636C186.382 34.8177 186.613 34.9717 186.767 35.2799C186.921 35.588 186.998 35.8961 186.998 36.2813C186.998 36.7435 186.921 37.0516 186.69 37.3598C186.459 37.6679 186.151 37.822 185.766 37.976C185.535 38.0531 185.149 38.0531 184.533 38.0531V40.6722H183.378V34.5095ZM184.533 36.8976H184.918C185.226 36.8976 185.381 36.8976 185.535 36.8205C185.612 36.7435 185.766 36.7435 185.843 36.5894C185.92 36.5124 185.92 36.3583 185.92 36.2043C185.92 35.9732 185.843 35.8191 185.612 35.665C185.458 35.588 185.226 35.511 184.841 35.511H184.533V36.8976Z" fill="#797979"/>
</svg>
