<svg width="150" height="45" viewBox="0 0 150 45" fill="none" xmlns="http://www.w3.org/2000/svg">
<path d="M37.8721 44.4054H6.60068C3.00447 44.4054 0.0336914 41.4346 0.0336914 37.8384V6.56699C0.0336914 2.97078 3.00447 0 6.60068 0H37.8721C41.4683 0 44.4391 2.97078 44.4391 6.56699V37.8384C44.4391 41.5128 41.5465 44.4054 37.8721 44.4054ZM6.60068 2.81443C4.56804 2.81443 2.84812 4.53435 2.84812 6.56699V37.8384C2.84812 39.871 4.56804 41.591 6.60068 41.591H37.8721C39.9047 41.591 41.6246 39.871 41.6246 37.8384V6.56699C41.6246 4.53435 39.9047 2.81443 37.8721 2.81443H6.60068Z" fill="#797979"/>
<path d="M35.9958 32.6787L34.9795 29.3952L34.9013 29.1607C34.6667 28.5353 33.9631 28.1444 33.3377 28.3007C32.7123 28.5353 32.3214 29.2389 32.4778 29.8643L32.0869 28.6135C31.8523 27.988 31.1487 27.5971 30.5233 27.7535C29.8979 27.988 29.507 28.6916 29.6633 29.3171L29.2724 28.1444C29.0379 27.519 28.3343 27.1281 27.7089 27.2844C27.0834 27.519 26.6925 28.2226 26.8489 28.848L25.9108 25.8772L25.598 25.0172C25.3635 24.3918 24.6599 24.0009 24.0345 24.1573C23.4091 24.3918 23.0182 25.0954 23.1745 25.7209L25.598 33.3042C25.598 33.3042 23.5654 30.4116 22.08 31.2715C22.0018 31.3497 21.8455 31.3497 21.8455 31.5061C21.3764 31.9751 21.2982 32.8351 21.7673 33.3042L22.0018 33.6951L25.2853 37.1349C25.2853 37.1349 25.5199 37.3694 25.7544 37.604C26.458 38.2294 28.1779 39.1676 29.8979 38.6985L33.1032 37.7603C35.4485 37.2131 36.6994 34.8677 35.9958 32.6787Z" fill="#797979"/>
<path d="M20.9855 31.5059H9.25874C8.71149 31.5059 8.3206 31.8968 8.3206 32.444V32.5222C8.3206 33.0694 8.71149 33.4603 9.25874 33.4603H20.5164C20.4383 33.304 20.4383 33.0694 20.4383 32.9131C20.5164 32.3658 20.6728 31.8968 20.9855 31.5059Z" fill="#797979"/>
<path d="M22.4709 16.1047C21.7673 16.1047 21.2201 16.8083 21.2201 17.5901H23.7218C23.7218 16.8083 23.1745 16.1047 22.4709 16.1047Z" fill="#797979"/>
<path d="M26.1453 18.2156C25.6762 18.0592 25.2853 17.981 24.8163 17.8247C24.8944 17.7465 24.8944 17.5901 24.8944 17.5901C24.8944 16.9647 24.7381 16.4175 24.4254 16.0266C24.3472 15.8702 24.269 15.792 24.1127 15.7139C24.0345 15.6357 23.8781 15.5575 23.7999 15.4793C23.6436 15.4011 23.5654 15.323 23.409 15.2448C23.2527 15.1666 23.1745 15.1666 23.0182 15.0884C22.8618 15.0884 22.7836 15.0884 22.6273 15.0103H22.5491C22.3927 15.0103 22.2364 15.0103 22.08 15.0884H22.0018C21.8455 15.0884 21.7673 15.1666 21.6891 15.1666C21.6109 15.1666 21.6109 15.2448 21.5328 15.2448C21.4546 15.323 21.3764 15.323 21.2982 15.4011C21.2201 15.4793 21.1419 15.4793 21.1419 15.5575C21.0637 15.6357 21.0637 15.6357 20.9855 15.7139C20.9073 15.792 20.8292 15.8702 20.751 16.0266C20.751 16.0266 20.751 16.1048 20.6728 16.1048C20.3601 16.5738 20.2037 17.0429 20.2037 17.6683C20.2037 17.6683 20.2037 17.8247 20.2819 17.9029C18.9529 18.1374 17.702 18.6065 16.6075 19.3101C12.9331 21.4209 10.3532 25.4862 10.3532 29.9423C10.3532 30.0987 10.3532 30.3332 10.3532 30.4896H23.4872L22.3927 26.4243C22.08 25.1735 22.7836 23.9226 24.0345 23.6099L24.269 23.5317C25.5199 23.219 26.7707 23.9226 27.0834 25.1735L27.4743 26.6588C27.7089 26.5807 27.9434 26.5025 28.2561 26.5025C28.8034 26.5025 29.3506 26.737 29.7415 27.1279C29.7415 27.1279 29.7415 27.1279 29.8197 27.1279C30.2106 26.8934 30.6015 26.737 31.0705 26.737C31.8523 26.737 32.4778 27.1279 32.7905 27.6752C33.025 27.5188 33.2595 27.4406 33.5723 27.4406C33.8068 27.4406 34.0413 27.5188 34.2759 27.597C33.5722 23.1408 30.2888 19.6228 26.1453 18.2156ZM16.2166 21.8118C14.8094 23.3754 13.6367 25.7207 13.4804 29.1606H11.6041C11.8386 25.0171 14.0276 22.359 16.1384 20.8736C18.4838 19.2319 20.6728 18.7628 20.6728 18.7628C20.6728 18.7628 18.2493 19.4664 16.2166 21.8118ZM21.2201 17.6683C21.2201 16.8084 21.7673 16.1829 22.4709 16.1829C23.1745 16.1829 23.7218 16.8865 23.7218 17.6683H21.2201Z" fill="#797979"/>
<path d="M26.3798 7.03603C26.3798 7.03603 26.0671 6.09789 24.8944 5.62882C24.8163 5.62882 24.5817 5.47246 24.4254 5.62882C24.269 5.78518 24.3472 6.01971 24.3472 6.09789C24.3472 6.17607 24.4254 6.25425 24.4254 6.33242C24.5817 6.8015 24.8163 7.5051 24.269 8.44324C23.5654 9.61592 22.5491 11.2577 23.8781 12.5085C23.9563 12.5867 24.5035 13.134 24.8944 13.134C24.9726 13.134 25.0508 13.134 25.0508 13.134L25.129 13.0558V12.9776C25.0508 12.8994 23.9563 11.7267 25.129 10.3977C25.9889 9.53774 26.8489 7.97417 26.3798 7.03603Z" fill="#797979"/>
<path d="M28.647 10.7887C28.647 10.7887 28.3343 9.85057 27.1616 9.3815C27.0834 9.3815 26.8489 9.22515 26.6925 9.3815C26.5362 9.53786 26.6144 9.7724 26.6144 9.85057C26.6144 9.92875 26.6925 10.0069 26.6925 10.0851C26.8489 10.5542 27.0834 11.2578 26.5362 12.1959C25.8326 13.3686 24.8163 15.0104 26.1453 16.2612C26.2235 16.3394 26.7707 16.8866 27.1616 16.8866C27.2398 16.8866 27.318 16.8866 27.318 16.8866L27.3961 16.8085V16.7303C27.318 16.6521 26.2235 15.4794 27.3961 14.1504C28.2561 13.2904 29.1161 11.7269 28.647 10.7887Z" fill="#797979"/>
<path d="M71.567 24.3135C71.7234 24.7825 71.7234 25.1734 71.567 25.5643C71.4106 25.9552 71.0979 26.2679 70.6289 26.4243L61.3256 30.1769C61.0911 30.255 60.9347 30.255 60.7002 30.255C59.9184 30.255 59.4493 29.9423 59.1366 29.2387C58.9803 28.8478 58.9803 28.3788 59.1366 27.9879C59.293 27.597 59.6057 27.2843 60.0748 27.1279L67.6581 24.0789C66.4854 22.6717 65.0782 22.0463 63.3583 22.0463C61.8729 22.0463 60.5438 22.5935 59.5275 23.6099C58.433 24.7044 57.9639 25.9552 57.9639 27.4406C57.9639 28.926 58.5112 30.255 59.5275 31.2714C60.622 32.3659 61.8729 32.8349 63.3583 32.8349C65.1564 32.8349 66.5636 32.1313 67.6581 30.7241C67.9708 30.3332 68.2835 30.1769 68.7526 30.0987C69.2216 30.0205 69.6125 30.1769 70.0034 30.4114C70.3943 30.7241 70.5507 31.0368 70.6289 31.5059C70.707 31.975 70.5507 32.3659 70.3161 32.7568C68.518 35.0239 66.2509 36.1184 63.4364 36.1184C61.0129 36.1184 58.9803 35.2585 57.2603 33.5385C55.5404 31.8186 54.6805 29.786 54.6805 27.3624C54.6805 24.9389 55.5404 22.9063 57.2603 21.1863C58.9803 19.4664 61.0129 18.6064 63.4364 18.6064C65.2345 18.6064 66.8763 19.1537 68.3617 20.17C69.8471 21.2645 70.8634 22.5935 71.567 24.3135Z" fill="#797979"/>
<path d="M95.4896 22.4372C95.9587 22.4372 96.3496 22.5936 96.6623 22.9063C96.975 23.219 97.1314 23.6099 97.1314 24.079C97.1314 27.4407 96.0369 30.3333 93.7697 32.6786C91.5025 35.024 88.7663 36.1966 85.4828 36.1966C82.1211 36.1966 79.3067 35.024 76.9613 32.6786C74.616 30.3333 73.4433 27.4407 73.4433 24.1572C73.4433 20.7955 74.616 17.9811 76.9613 15.6357C79.3067 13.2904 82.1211 12.1177 85.4828 12.1177C88.6099 12.1177 91.268 13.134 93.6133 15.2448C93.926 15.5575 94.1606 15.9484 94.1606 16.4175C94.1606 16.8866 94.0042 17.2775 93.7697 17.5902C93.457 17.9029 93.0661 18.1374 92.597 18.1374C92.1279 18.1374 91.7371 17.9811 91.4243 17.7465C89.7826 16.2611 87.7499 15.4793 85.561 15.4793C83.1374 15.4793 81.1048 16.3393 79.3849 18.0592C77.6649 19.7792 76.805 21.8118 76.805 24.2353C76.805 26.6589 77.6649 28.6915 79.3849 30.4114C81.1048 32.1314 83.1374 32.9913 85.561 32.9913C87.6718 32.9913 89.4699 32.2877 90.9553 30.9587C92.4407 29.6297 93.3788 27.9879 93.6915 25.8771H85.561C85.0919 25.8771 84.701 25.7207 84.3883 25.408C84.0756 25.0953 83.9192 24.7044 83.9192 24.2353C83.9192 23.7663 84.0756 23.3754 84.3883 23.0627C84.701 22.7499 85.0919 22.5936 85.561 22.5936H95.4896V22.4372Z" fill="#797979"/>
<path d="M109.171 18.841C109.64 18.9192 109.953 19.1537 110.265 19.5446C110.5 19.9355 110.656 20.3264 110.5 20.7954C110.422 21.2645 110.187 21.5772 109.796 21.8899C109.405 22.1245 109.014 22.2808 108.545 22.1245C108.311 22.0463 107.998 22.0463 107.764 22.0463C106.435 22.0463 105.262 22.5935 104.324 23.6099C103.386 24.7044 102.917 25.9552 102.917 27.4406V34.5549C102.917 35.0239 102.76 35.4148 102.447 35.7275C102.135 36.0402 101.744 36.1966 101.275 36.1966C100.806 36.1966 100.415 36.0402 100.102 35.7275C99.7894 35.4148 99.6331 35.0239 99.6331 34.5549V20.3264C99.6331 19.8573 99.7894 19.4664 100.102 19.1537C100.415 18.841 100.806 18.6846 101.275 18.6846C101.744 18.6846 102.135 18.841 102.447 19.1537C102.76 19.4664 102.917 19.8573 102.917 20.3264C104.324 19.2319 105.966 18.6064 107.764 18.6064C108.233 18.6846 108.702 18.7628 109.171 18.841Z" fill="#797979"/>
<path d="M128.715 34.5548C128.715 35.0239 128.559 35.4148 128.246 35.7275C127.934 36.0402 127.543 36.1966 127.074 36.1966C126.605 36.1966 126.214 36.0402 125.901 35.7275C125.588 35.4148 125.432 35.0239 125.432 34.5548C124.025 35.7275 122.383 36.2747 120.585 36.2747C118.318 36.2747 116.363 35.4148 114.8 33.6948C113.236 31.9749 112.376 29.9423 112.376 27.5187V20.3263C112.376 19.8572 112.533 19.4664 112.845 19.1536C113.158 18.8409 113.549 18.6846 114.018 18.6846C114.487 18.6846 114.878 18.8409 115.191 19.1536C115.503 19.4664 115.66 19.8572 115.66 20.3263V27.4406C115.66 28.926 116.129 30.255 117.067 31.2713C118.005 32.3658 119.178 32.8349 120.507 32.8349C121.836 32.8349 123.008 32.2876 123.947 31.2713C124.885 30.1768 125.354 28.926 125.354 27.4406V20.3263C125.354 19.8572 125.51 19.4664 125.823 19.1536C126.136 18.8409 126.526 18.6846 126.996 18.6846C127.465 18.6846 127.856 18.8409 128.168 19.1536C128.481 19.4664 128.637 19.8572 128.637 20.3263V34.5548H128.715Z" fill="#797979"/>
<path d="M140.755 18.6845C143.178 18.6845 145.211 19.5444 146.931 21.2644C148.651 22.9843 149.511 25.0169 149.511 27.4405C149.511 29.864 148.651 31.8966 146.931 33.6166C145.211 35.3365 143.178 36.1965 140.755 36.1965C138.331 36.1965 136.299 35.3365 134.579 33.6166C132.859 31.8966 131.999 29.864 131.999 27.4405V13.6811C131.999 13.212 132.155 12.8211 132.468 12.5084C132.781 12.1957 133.172 12.0393 133.641 12.0393C134.11 12.0393 134.501 12.1957 134.813 12.5084C135.126 12.8211 135.282 13.212 135.282 13.6811V27.4405C135.282 28.9259 135.83 30.2549 136.846 31.2712C137.941 32.3657 139.191 32.8348 140.677 32.8348C142.162 32.8348 143.413 32.2875 144.508 31.2712C145.602 30.1767 146.071 28.9259 146.071 27.4405C146.071 25.9551 145.524 24.7042 144.508 23.6097C143.413 22.5152 142.162 22.0462 140.677 22.0462C139.895 22.0462 139.191 22.2025 138.488 22.5152C138.097 22.6716 137.628 22.7498 137.237 22.5152C136.768 22.3589 136.533 22.0462 136.299 21.6553C136.142 21.2644 136.064 20.7953 136.299 20.4044C136.455 20.0135 136.768 19.7008 137.159 19.4663C138.331 18.919 139.504 18.6845 140.755 18.6845Z" fill="#797979"/>
</svg>
