<svg width="155" height="46" viewBox="0 0 155 46" fill="none" xmlns="http://www.w3.org/2000/svg">
<path d="M23.8967 9.5271H20.5865V26.9663H23.8967V9.5271Z" fill="#797979"/>
<path d="M27.2069 14.0482H30.4363V15.34C31.163 14.6941 31.8089 14.2904 32.4548 14.0482C33.0199 13.806 33.6658 13.6445 34.3117 13.6445C35.6035 13.6445 36.6531 14.129 37.5412 15.0171C38.2678 15.7437 38.6715 16.874 38.6715 18.408V26.9661H35.442V21.3146C35.442 19.7805 35.3613 18.731 35.1998 18.2465C35.0384 17.7621 34.7962 17.3584 34.4732 17.1162C34.1503 16.874 33.6658 16.7125 33.1814 16.7125C32.5355 16.7125 31.9704 16.9548 31.4859 17.3584C31.0015 17.7621 30.6786 18.408 30.5171 19.2154C30.4363 19.6191 30.3556 20.5072 30.3556 21.799V26.9661H27.1261V14.0482H27.2069Z" fill="#797979"/>
<path d="M42.2239 9.28467H45.4534V14.0482H47.3911V16.874H45.4534V26.9661H42.2239V16.874H40.5285V14.0482H42.2239V9.28467Z" fill="#797979"/>
<path d="M62.0853 21.4761H51.6702C51.8317 22.3642 52.2354 23.0908 52.8813 23.656C53.5271 24.2212 54.3345 24.4634 55.3841 24.4634C56.5952 24.4634 57.6447 24.0597 58.5328 23.1716L61.2779 24.4634C60.632 25.4322 59.7439 26.1588 58.8558 26.6433C57.8869 27.1277 56.7566 27.3699 55.4648 27.3699C53.4464 27.3699 51.7509 26.724 50.5399 25.4322C49.2481 24.1404 48.6022 22.5257 48.6022 20.6687C48.6022 18.731 49.2481 17.0356 50.5399 15.7438C51.6702 14.3712 53.2849 13.7253 55.2226 13.7253C57.2411 13.7253 58.9365 14.3712 60.1476 15.663C61.4394 16.9548 62.0853 18.6503 62.0853 20.8302V21.4761ZM58.7751 18.8925C58.5328 18.1659 58.1292 17.6007 57.4833 17.1163C56.8374 16.6319 56.1107 16.4704 55.3034 16.4704C54.4153 16.4704 53.6079 16.7126 52.962 17.197C52.5583 17.52 52.1546 18.0851 51.7509 18.8925H58.7751Z" fill="#797979"/>
<path d="M74.1958 14.0483H77.4253V25.1093C77.4253 27.2892 77.0216 28.9039 76.1335 29.9535C74.9225 31.326 73.1462 32.0527 70.8049 32.0527C69.5131 32.0527 68.4635 31.8912 67.5754 31.5682C66.6873 31.2453 65.9606 30.7609 65.3955 30.1957C64.8303 29.5498 64.3459 28.8232 64.1037 27.9351H67.6561C67.9791 28.3387 68.3828 28.581 68.8672 28.7424C69.3516 28.9039 69.9168 28.9846 70.6434 28.9846C71.5315 28.9846 72.1774 28.8232 72.7426 28.581C73.3077 28.3387 73.6307 27.9351 73.8729 27.5314C74.1151 27.1277 74.1958 26.4011 74.1958 25.3515C73.6307 25.9166 73.0655 26.3203 72.4196 26.5625C71.7737 26.8047 71.0471 26.9662 70.3204 26.9662C68.625 26.9662 67.091 26.3203 65.9606 25.1093C64.7496 23.8982 64.1844 22.2835 64.1844 20.3458C64.1844 18.3274 64.8303 16.6319 66.1221 15.4208C67.2524 14.2905 68.625 13.7253 70.2397 13.7253C70.9663 13.7253 71.693 13.8868 72.3389 14.129C72.9848 14.3712 73.6307 14.8557 74.3573 15.5016V14.0483H74.1958ZM70.8856 16.7933C69.836 16.7933 69.0287 17.1163 68.3828 17.8429C67.7369 18.4888 67.4139 19.3769 67.4139 20.4265C67.4139 21.4761 67.7369 22.3642 68.4635 23.0908C69.1094 23.8175 69.9975 24.1404 71.0471 24.1404C72.0159 24.1404 72.904 23.8175 73.5499 23.1716C74.1958 22.5257 74.5188 21.6376 74.5188 20.5073C74.5188 19.4577 74.1958 18.5696 73.5499 17.9237C72.7426 17.1163 71.9352 16.7933 70.8856 16.7933Z" fill="#797979"/>
<path d="M80.0089 14.0483H82.754V15.663C83.0769 15.0171 83.4806 14.5327 83.965 14.2098C84.4495 13.8868 85.0146 13.7253 85.5798 13.7253C85.9835 13.7253 86.4679 13.8061 86.8716 14.0483L85.9027 16.8741C85.499 16.7126 85.1761 16.5511 84.9339 16.5511C84.4494 16.5511 84.0458 16.8741 83.6421 17.4392C83.3191 18.0851 83.1577 19.2962 83.1577 21.0724V21.7183V26.9662H79.9282V14.0483H80.0089Z" fill="#797979"/>
<path d="M89.7781 8.71973C90.3432 8.71973 90.8277 8.96194 91.2313 9.36562C91.635 9.76931 91.8772 10.2537 91.8772 10.8996C91.8772 11.4648 91.635 11.9492 91.3121 12.3529C90.9084 12.7566 90.424 12.9988 89.8588 12.9988C89.2937 12.9988 88.8092 12.7566 88.4055 12.3529C88.0019 11.9492 87.7596 11.4648 87.7596 10.8189C87.7596 10.2537 87.9211 9.76931 88.3248 9.36562C88.7285 8.96194 89.2129 8.71973 89.7781 8.71973ZM88.1633 14.0484H91.3928V26.9663H88.1633V14.0484Z" fill="#797979"/>
<path d="M94.703 9.28467H97.9325V14.0482H99.8702V16.874H97.9325V26.9661H94.703V16.874H93.0883V14.0482H94.703V9.28467Z" fill="#797979"/>
<path d="M100.193 14.0481H103.503L106.894 22.2025L110.528 14.0481H113.918L105.764 31.7295H102.454L105.118 25.9972L100.193 14.0481Z" fill="#797979"/>
<path d="M116.098 9.5271H119.328L126.756 20.9918V9.5271H130.066V26.9663H126.917L119.409 15.5016V26.9663H116.098V9.5271Z" fill="#797979"/>
<path d="M146.698 21.4762H136.283C136.444 22.3643 136.848 23.0909 137.494 23.6561C138.14 24.2212 138.947 24.4634 139.997 24.4634C141.208 24.4634 142.257 24.0598 143.145 23.1716L145.89 24.4634C145.244 25.4323 144.356 26.1589 143.468 26.6433C142.499 27.1278 141.369 27.37 140.077 27.37C138.059 27.37 136.363 26.7241 135.152 25.4323C133.861 24.1405 133.215 22.5258 133.215 20.6688C133.215 18.7311 133.861 17.0356 135.152 15.7438C136.444 14.452 137.978 13.8062 139.916 13.8062C141.934 13.8062 143.63 14.452 144.841 15.7438C146.133 17.0356 146.778 18.7311 146.778 20.911L146.698 21.4762ZM143.387 18.8926C143.145 18.166 142.742 17.6008 142.096 17.1164C141.45 16.6319 140.723 16.4705 139.916 16.4705C139.028 16.4705 138.22 16.7127 137.574 17.1971C137.171 17.5201 136.767 18.0852 136.363 18.8926H143.387Z" fill="#797979"/>
<path d="M149.685 9.28467H152.914V14.0482H154.852V16.874H152.914V26.9661H149.685V16.874H147.99V14.0482H149.685V9.28467Z" fill="#797979"/>
<path d="M40.8514 40.2878L41.4973 39.8841C41.9818 40.7722 42.4662 41.1759 43.1121 41.1759C43.3543 41.1759 43.5965 41.0952 43.8387 41.0145C44.0809 40.853 44.2424 40.6915 44.3231 40.53C44.4039 40.2878 44.4846 40.1263 44.4846 39.8841C44.4846 39.6419 44.4039 39.3997 44.2424 39.0768C44.0002 38.7538 43.5158 38.3501 42.8699 37.8657C42.224 37.3813 41.8203 37.0583 41.6588 36.8161C41.4166 36.4124 41.2551 36.0895 41.2551 35.6051C41.2551 35.2821 41.3359 34.9592 41.4973 34.717C41.6588 34.4748 41.901 34.2325 42.1432 34.0711C42.4662 33.9096 42.7891 33.8289 43.1121 33.8289C43.5158 33.8289 43.8387 33.9096 44.1617 34.0711C44.4846 34.2325 44.8076 34.5555 45.2112 35.0399L44.5653 35.5243C44.2424 35.1206 44.0002 34.8784 43.8387 34.717C43.5965 34.5555 43.435 34.5555 43.1928 34.5555C42.8699 34.5555 42.6277 34.6362 42.3854 34.8784C42.1432 35.1206 42.0625 35.2821 42.0625 35.6051C42.0625 35.7665 42.0625 35.928 42.1432 36.0895C42.224 36.251 42.3047 36.4124 42.5469 36.5739C42.6277 36.6547 42.9506 36.8969 43.5158 37.3813C44.1617 37.8657 44.6461 38.3501 44.8883 38.6731C45.1305 39.0768 45.292 39.4804 45.292 39.8034C45.292 40.3686 45.0498 40.853 44.6461 41.2567C44.2424 41.6603 43.6772 41.9026 43.1121 41.9026C42.6277 41.9026 42.224 41.7411 41.8203 41.4989C41.4973 41.2567 41.1744 40.853 40.8514 40.2878Z" fill="#797979"/>
<path d="M49.6518 35.7666C50.5399 35.7666 51.2665 36.0896 51.8317 36.7354C52.3968 37.3006 52.6391 38.0272 52.6391 38.8346C52.6391 39.642 52.3968 40.3686 51.8317 40.9338C51.2665 41.4989 50.5399 41.8219 49.6518 41.8219C48.7637 41.8219 48.0371 41.4989 47.4719 40.9338C46.9067 40.3686 46.6645 39.642 46.6645 38.8346C46.6645 38.0272 46.9067 37.3813 47.4719 36.7354C48.0371 36.0896 48.7637 35.7666 49.6518 35.7666ZM49.6518 36.4932C49.0059 36.4932 48.5215 36.7354 48.0371 37.1391C47.6334 37.6236 47.3912 38.108 47.3912 38.7539C47.3912 39.1576 47.4719 39.5612 47.7141 39.8842C47.8756 40.2071 48.1985 40.5301 48.5215 40.6916C48.8444 40.853 49.2481 41.0145 49.6518 41.0145C50.0555 41.0145 50.4592 40.9338 50.7821 40.6916C51.1051 40.5301 51.428 40.2071 51.5895 39.8842C51.8317 39.5612 51.9124 39.1576 51.9124 38.7539C51.9124 38.108 51.6702 37.5428 51.2665 37.1391C50.7821 36.7354 50.217 36.4932 49.6518 36.4932Z" fill="#797979"/>
<path d="M54.6575 33.748H53.9308V41.741H54.6575V33.748Z" fill="#797979"/>
<path d="M56.1107 35.9281H56.8374V38.5925C56.8374 39.2384 56.8374 39.7228 56.9181 39.965C56.9988 40.2879 57.2411 40.6109 57.564 40.7724C57.887 41.0146 58.2099 41.0953 58.6136 41.0953C59.0173 41.0953 59.3402 41.0146 59.6632 40.7724C59.9861 40.6109 60.1476 40.2879 60.2283 39.965C60.3091 39.7228 60.3091 39.2384 60.3091 38.5117V35.8474H61.0357V38.7539C61.0357 39.5613 60.955 40.1265 60.7935 40.5302C60.632 40.9338 60.3091 41.2568 59.9861 41.499C59.5824 41.7412 59.1787 41.822 58.6136 41.822C58.0484 41.822 57.564 41.7412 57.2411 41.499C56.8374 41.2568 56.5952 40.9338 56.4337 40.5302C56.2722 40.1265 56.1915 39.4806 56.1915 38.6732V35.9281H56.1107Z" fill="#797979"/>
<path d="M63.4578 33.8289H64.1844V35.928H65.3148V36.5739H64.1844V41.7411H63.4578V36.5739H62.4082V35.928H63.4578V33.8289Z" fill="#797979"/>
<path d="M66.6873 33.5867C66.8488 33.5867 67.0102 33.6674 67.091 33.7481C67.1717 33.8289 67.2525 33.9904 67.2525 34.1518C67.2525 34.3133 67.1717 34.4748 67.091 34.5555C66.9295 34.6363 66.8488 34.717 66.6873 34.717C66.5258 34.717 66.3643 34.6363 66.2836 34.5555C66.2029 34.4748 66.1221 34.3133 66.1221 34.1518C66.1221 33.9904 66.2029 33.8289 66.2836 33.7481C66.3643 33.6674 66.5258 33.5867 66.6873 33.5867ZM66.3643 35.928H67.091V41.6604H66.3643V35.928Z" fill="#797979"/>
<path d="M71.3701 35.7666C72.2582 35.7666 72.9848 36.0896 73.55 36.7354C74.1151 37.3006 74.3573 38.0272 74.3573 38.8346C74.3573 39.642 74.1151 40.3686 73.55 40.9338C72.9848 41.4989 72.2582 41.8219 71.3701 41.8219C70.4819 41.8219 69.7553 41.4989 69.1902 40.9338C68.625 40.3686 68.3828 39.642 68.3828 38.8346C68.3828 38.0272 68.625 37.3813 69.1902 36.7354C69.7553 36.0896 70.4819 35.7666 71.3701 35.7666ZM71.3701 36.4932C70.7242 36.4932 70.2397 36.7354 69.7553 37.1391C69.3516 37.6236 69.1094 38.108 69.1094 38.7539C69.1094 39.1576 69.1902 39.5612 69.4324 39.8842C69.6746 40.2071 69.9168 40.5301 70.2397 40.6916C70.5627 40.853 70.9664 41.0145 71.3701 41.0145C71.7737 41.0145 72.1774 40.9338 72.5004 40.6916C72.8233 40.5301 73.1463 40.2071 73.3077 39.8842C73.55 39.5612 73.6307 39.1576 73.6307 38.7539C73.6307 38.108 73.3885 37.5428 72.9848 37.1391C72.5004 36.7354 71.9352 36.4932 71.3701 36.4932Z" fill="#797979"/>
<path d="M75.7299 35.9281H76.4565V36.9777C76.7794 36.574 77.1024 36.251 77.4253 36.0896C77.7483 35.9281 78.152 35.7666 78.6364 35.7666C79.0401 35.7666 79.4438 35.8473 79.7667 36.0896C80.0897 36.3318 80.3319 36.574 80.4933 36.9777C80.6548 37.3813 80.7356 37.9465 80.7356 38.6731V41.6604H80.0089V38.9153C80.0089 38.2695 80.0089 37.785 79.9282 37.6236C79.8474 37.2199 79.686 36.9777 79.4438 36.7354C79.2016 36.574 78.8786 36.4125 78.4749 36.4125C77.9905 36.4125 77.5868 36.574 77.2639 36.8162C76.9409 37.1391 76.6987 37.4621 76.5372 37.9465C76.4565 38.2695 76.4565 38.7539 76.4565 39.4805V41.5797H75.7299V35.9281Z" fill="#797979"/>
<path d="M85.2568 36.574L84.7724 37.0584C84.3687 36.6547 83.965 36.4932 83.6421 36.4932C83.3999 36.4932 83.1577 36.574 82.9962 36.7354C82.8347 36.8969 82.754 37.0584 82.754 37.3006C82.754 37.4621 82.8347 37.7043 82.9962 37.8658C83.1577 38.0272 83.3999 38.2695 83.8843 38.5117C84.4494 38.8346 84.7724 39.0768 85.0146 39.319C85.1761 39.5612 85.3375 39.8842 85.3375 40.2071C85.3375 40.6916 85.1761 41.0952 84.8531 41.4182C84.5302 41.7411 84.1265 41.9026 83.6421 41.9026C83.3191 41.9026 82.9962 41.8219 82.6732 41.6604C82.3503 41.4989 82.1081 41.3375 81.9466 41.0952L82.431 40.5301C82.8347 40.9338 83.2384 41.176 83.6421 41.176C83.965 41.176 84.2072 41.0952 84.3687 40.853C84.6109 40.6916 84.6917 40.4494 84.6917 40.2071C84.6917 39.9649 84.6109 39.8035 84.4494 39.642C84.288 39.4805 83.965 39.2383 83.4806 38.9961C82.9962 38.7539 82.5925 38.4309 82.431 38.1887C82.2695 37.9465 82.1888 37.6236 82.1888 37.3006C82.1888 36.8969 82.3503 36.4932 82.6732 36.1703C82.9962 35.8473 83.3191 35.7666 83.8035 35.7666C84.1265 35.7666 84.6917 36.0895 85.2568 36.574Z" fill="#797979"/>
<path d="M95.2682 35.9281V41.6605H94.5416V40.6916C94.2186 41.0953 93.8957 41.3375 93.492 41.5797C93.0883 41.7412 92.6846 41.9027 92.2002 41.9027C91.3928 41.9027 90.6662 41.5797 90.101 41.0146C89.5359 40.4494 89.2129 39.7228 89.2129 38.8347C89.2129 38.0273 89.5359 37.3007 90.101 36.7355C90.6662 36.1704 91.3928 35.8474 92.2002 35.8474C92.6846 35.8474 93.0883 35.9281 93.492 36.1704C93.8957 36.3318 94.2186 36.6548 94.4608 37.0585V36.0089H95.2682V35.9281ZM92.2809 36.4933C91.8772 36.4933 91.4736 36.574 91.1506 36.8163C90.8277 37.0585 90.5047 37.3007 90.3432 37.7044C90.101 38.108 90.0203 38.431 90.0203 38.8347C90.0203 39.2384 90.101 39.6421 90.3432 39.965C90.5855 40.3687 90.8277 40.6109 91.1506 40.8531C91.4736 41.0953 91.8772 41.1761 92.2809 41.1761C92.6846 41.1761 93.0883 41.0953 93.4112 40.8531C93.8149 40.6109 94.0571 40.3687 94.2186 40.0457C94.3801 39.7228 94.5416 39.3191 94.5416 38.8347C94.5416 38.1888 94.2994 37.6236 93.8957 37.1392C93.492 36.7355 92.9268 36.4933 92.2809 36.4933Z" fill="#797979"/>
<path d="M96.9637 35.9281H97.6903V36.9777C98.0133 36.574 98.3362 36.251 98.6592 36.0896C98.9821 35.9281 99.3858 35.7666 99.8702 35.7666C100.274 35.7666 100.678 35.8473 101.001 36.0896C101.323 36.3318 101.566 36.574 101.727 36.9777C101.889 37.3813 101.969 37.9465 101.969 38.6731V41.6604H101.243V38.9153C101.243 38.2695 101.243 37.785 101.162 37.6236C101.081 37.2199 100.92 36.9777 100.678 36.7354C100.435 36.574 100.112 36.4125 99.7087 36.4125C99.2243 36.4125 98.8206 36.574 98.4977 36.8162C98.1747 37.1391 97.9325 37.4621 97.7711 37.9465C97.6903 38.2695 97.6903 38.7539 97.6903 39.4805V41.5797H96.9637V35.9281Z" fill="#797979"/>
<path d="M109.316 33.748V41.741H108.59V40.7722C108.267 41.1759 107.944 41.4181 107.54 41.6603C107.137 41.8218 106.733 41.9832 106.248 41.9832C105.441 41.9832 104.714 41.6603 104.149 41.0951C103.584 40.53 103.261 39.8033 103.261 38.9152C103.261 38.1078 103.584 37.3812 104.149 36.8161C104.714 36.2509 105.441 35.9279 106.248 35.9279C106.733 35.9279 107.137 36.0087 107.54 36.2509C107.944 36.4124 108.267 36.7353 108.509 37.139V33.8288H109.316V33.748ZM106.329 36.4931C105.925 36.4931 105.522 36.5738 105.199 36.8161C104.876 37.0583 104.553 37.3005 104.391 37.7042C104.149 38.1078 104.069 38.4308 104.069 38.8345C104.069 39.2382 104.149 39.6419 104.391 39.9648C104.634 40.3685 104.876 40.6107 105.199 40.8529C105.522 41.0951 105.925 41.1759 106.329 41.1759C106.733 41.1759 107.137 41.0951 107.459 40.8529C107.863 40.6107 108.105 40.3685 108.267 40.0455C108.428 39.7226 108.59 39.3189 108.59 38.8345C108.59 38.1886 108.348 37.6234 107.944 37.139C107.54 36.7353 106.975 36.4931 106.329 36.4931Z" fill="#797979"/>
<path d="M113.273 40.2878L113.918 39.8841C114.403 40.7722 114.887 41.1759 115.533 41.1759C115.775 41.1759 116.018 41.0952 116.26 41.0145C116.502 40.853 116.664 40.6915 116.744 40.53C116.825 40.2878 116.906 40.1263 116.906 39.8841C116.906 39.6419 116.825 39.3997 116.664 39.0768C116.421 38.7538 115.937 38.3501 115.291 37.8657C114.645 37.3813 114.241 37.0583 114.08 36.8161C113.838 36.4124 113.676 36.0895 113.676 35.6051C113.676 35.2821 113.757 34.9592 113.918 34.717C114.08 34.4748 114.322 34.2325 114.564 34.0711C114.887 33.9096 115.21 33.8289 115.533 33.8289C115.937 33.8289 116.26 33.9096 116.583 34.0711C116.906 34.2325 117.229 34.5555 117.632 35.0399L116.986 35.5243C116.664 35.1206 116.421 34.8784 116.26 34.717C116.018 34.5555 115.856 34.5555 115.614 34.5555C115.291 34.5555 115.049 34.6362 114.807 34.8784C114.645 35.0399 114.484 35.2821 114.484 35.6051C114.484 35.7665 114.484 35.928 114.564 36.0895C114.645 36.251 114.726 36.4124 114.968 36.5739C115.049 36.6547 115.372 36.8969 115.937 37.3813C116.583 37.8657 117.067 38.3501 117.309 38.6731C117.552 39.0768 117.713 39.4804 117.713 39.8034C117.713 40.3686 117.471 40.853 117.067 41.2567C116.664 41.6603 116.098 41.9026 115.533 41.9026C115.049 41.9026 114.645 41.7411 114.241 41.4989C113.999 41.2567 113.596 40.853 113.273 40.2878Z" fill="#797979"/>
<path d="M124.253 39.8035L124.899 40.1265C124.656 40.5302 124.495 40.8531 124.172 41.0953C123.93 41.3375 123.607 41.499 123.284 41.6605C122.961 41.822 122.557 41.822 122.154 41.822C121.185 41.822 120.458 41.499 119.974 40.9338C119.409 40.2879 119.166 39.6421 119.166 38.8347C119.166 38.108 119.409 37.4622 119.812 36.897C120.377 36.1704 121.104 35.8474 122.073 35.8474C123.042 35.8474 123.849 36.2511 124.414 36.9777C124.818 37.5429 125.06 38.1888 125.06 38.9154H119.893C119.893 39.5613 120.135 40.1265 120.539 40.5302C120.943 40.9338 121.427 41.1761 122.073 41.1761C122.396 41.1761 122.638 41.0953 122.961 41.0146C123.203 40.9338 123.445 40.7724 123.688 40.6109C123.768 40.4494 124.011 40.1265 124.253 39.8035ZM124.253 38.2695C124.172 37.8658 124.011 37.5429 123.849 37.3007C123.688 37.0585 123.445 36.897 123.122 36.7355C122.8 36.574 122.477 36.4933 122.154 36.4933C121.588 36.4933 121.104 36.6548 120.7 37.0585C120.377 37.3007 120.216 37.7044 120.054 38.2695H124.253Z" fill="#797979"/>
<path d="M126.191 35.9281H126.917V36.7354C127.159 36.4125 127.402 36.1703 127.644 36.0088C127.886 35.8473 128.128 35.7666 128.451 35.7666C128.693 35.7666 128.855 35.8473 129.097 35.9281L128.693 36.574C128.532 36.4932 128.37 36.4932 128.29 36.4932C128.047 36.4932 127.805 36.574 127.563 36.8162C127.321 37.0584 127.159 37.3006 126.998 37.785C126.917 38.108 126.836 38.7539 126.836 39.8035V41.7411H126.11V35.9281H126.191Z" fill="#797979"/>
<path d="M129.178 35.928H129.985L131.842 40.1263L133.78 35.928H134.587L131.923 41.6603H131.842L129.178 35.928Z" fill="#797979"/>
<path d="M135.96 33.5867C136.121 33.5867 136.283 33.6674 136.363 33.7481C136.444 33.8289 136.525 33.9904 136.525 34.1518C136.525 34.3133 136.444 34.4748 136.363 34.5555C136.202 34.6363 136.121 34.717 135.96 34.717C135.798 34.717 135.637 34.6363 135.556 34.5555C135.395 34.4748 135.395 34.3133 135.395 34.1518C135.395 33.9904 135.475 33.8289 135.556 33.7481C135.637 33.6674 135.798 33.5867 135.96 33.5867ZM135.637 35.928H136.363V41.6604H135.637V35.928Z" fill="#797979"/>
<path d="M143.468 37.1391L142.903 37.5428C142.419 36.8969 141.692 36.4932 140.804 36.4932C140.077 36.4932 139.512 36.7354 139.028 37.1391C138.543 37.5428 138.301 38.108 138.301 38.7539C138.301 39.1576 138.382 39.5612 138.624 39.9649C138.866 40.3686 139.108 40.6108 139.512 40.853C139.916 41.0952 140.319 41.176 140.723 41.176C141.531 41.176 142.257 40.853 142.822 40.1264L143.388 40.5301C143.145 40.9338 142.742 41.2567 142.257 41.4989C141.773 41.7411 141.288 41.8219 140.642 41.8219C139.754 41.8219 138.947 41.4989 138.382 40.9338C137.817 40.3686 137.494 39.642 137.494 38.8346C137.494 38.2694 137.655 37.785 137.897 37.3006C138.14 36.8162 138.543 36.4125 139.028 36.1703C139.512 35.9281 140.077 35.7666 140.642 35.7666C141.046 35.7666 141.369 35.8473 141.773 35.9281C142.176 36.0088 142.419 36.1703 142.661 36.4125C143.065 36.574 143.307 36.8162 143.468 37.1391Z" fill="#797979"/>
<path d="M149.766 39.8035L150.412 40.1265C150.169 40.5302 150.008 40.8531 149.685 41.0953C149.443 41.3375 149.12 41.499 148.797 41.6605C148.474 41.822 148.07 41.822 147.667 41.822C146.698 41.822 145.971 41.499 145.487 40.9338C144.922 40.2879 144.679 39.6421 144.679 38.8347C144.679 38.108 144.922 37.4622 145.325 36.897C145.89 36.1704 146.617 35.8474 147.586 35.8474C148.555 35.8474 149.362 36.2511 149.927 36.9777C150.331 37.5429 150.573 38.1888 150.573 38.9154H145.406C145.406 39.5613 145.648 40.1265 146.052 40.5302C146.456 40.9338 146.94 41.1761 147.586 41.1761C147.909 41.1761 148.151 41.0953 148.474 41.0146C148.716 40.9338 148.958 40.7724 149.201 40.6109C149.281 40.4494 149.524 40.1265 149.766 39.8035ZM149.766 38.2695C149.685 37.8658 149.524 37.5429 149.362 37.3007C149.201 37.0585 148.958 36.897 148.635 36.7355C148.312 36.574 147.99 36.4933 147.667 36.4933C147.101 36.4933 146.617 36.6548 146.213 37.0585C145.89 37.3007 145.729 37.7044 145.567 38.2695H149.766Z" fill="#797979"/>
<path d="M154.852 36.574L154.368 37.0584C153.964 36.6547 153.56 36.4932 153.237 36.4932C152.995 36.4932 152.753 36.574 152.592 36.7354C152.43 36.8969 152.349 37.0584 152.349 37.3006C152.349 37.4621 152.43 37.7043 152.592 37.8658C152.753 38.0272 152.995 38.2695 153.48 38.5117C154.045 38.8346 154.368 39.0768 154.61 39.319C154.771 39.5612 154.933 39.8842 154.933 40.2071C154.933 40.6916 154.771 41.0952 154.448 41.4182C154.126 41.7411 153.722 41.9026 153.237 41.9026C152.914 41.9026 152.592 41.8219 152.269 41.6604C151.946 41.4989 151.703 41.3375 151.542 41.0952L152.026 40.5301C152.43 40.9338 152.834 41.176 153.237 41.176C153.56 41.176 153.803 41.0952 153.964 40.853C154.206 40.6916 154.287 40.4494 154.287 40.2071C154.287 39.9649 154.206 39.8035 154.045 39.642C153.883 39.4805 153.56 39.2383 153.076 38.9961C152.592 38.7539 152.188 38.4309 152.026 38.1887C151.865 37.9465 151.784 37.6236 151.784 37.3006C151.784 36.8969 151.946 36.4932 152.269 36.1703C152.592 35.8473 152.914 35.7666 153.399 35.7666C153.803 35.7666 154.287 36.0895 154.852 36.574Z" fill="#797979"/>
<path d="M14.3697 1.85695L3.30871 0C3.30871 0 -1.37404 18.9732 0.402176 45.9394L7.10335 45.6164C7.10335 45.6164 6.61893 27.0469 14.3697 1.85695ZM2.82429 21.5568C5.40787 11.9491 9.36399 6.70118 9.36399 6.70118L10.4943 8.0737C6.13451 15.34 5.40787 22.8486 5.40787 22.8486C5.08492 22.5256 2.82429 21.5568 2.82429 21.5568Z" fill="#797979"/>
</svg>
