<svg width="146" height="46" viewBox="0 0 146 46" fill="none" xmlns="http://www.w3.org/2000/svg">
<path d="M25.4571 8.07373H21.3395V27.7736H25.4571V8.07373Z" fill="#797979"/>
<path d="M35.307 12.6758C34.5803 12.6758 33.8537 12.8373 33.2078 13.0795C32.6427 13.3217 31.9968 13.7254 31.3509 14.2098V12.9987H27.314V27.6929H31.3509V21.7991C31.3509 20.3458 31.4316 19.377 31.5123 18.9733C31.6738 18.1659 32.0775 17.52 32.4812 17.1163C32.9656 16.7126 33.5308 16.4704 34.1767 16.4704C34.6611 16.4704 35.0648 16.6319 35.4685 16.8741C35.7914 17.1163 36.0336 17.52 36.1951 18.0044C36.3566 18.5696 36.4373 19.6192 36.4373 21.3146V27.7736H40.4742V18.0852C40.4742 16.3897 40.0705 15.0979 39.1824 14.2098C38.052 13.2409 36.7602 12.6758 35.307 12.6758Z" fill="#797979"/>
<path d="M48.6286 13.0795H46.4487V7.83154H42.4118V13.0795H40.6356V16.6319H42.4118V27.6929H46.4487V16.6319H48.6286V13.0795Z" fill="#797979"/>
<path d="M55.572 12.6758C53.3921 12.6758 51.6159 13.4024 50.1626 14.8557C48.7093 16.3089 47.9827 18.1659 47.9827 20.4265C47.9827 22.6064 48.7093 24.4634 50.1626 25.8359C51.6159 27.2892 53.4728 28.0158 55.8142 28.0158C57.2675 28.0158 58.5592 27.7736 59.6088 27.2085C60.6584 26.724 61.6273 25.8359 62.3539 24.7863L62.5154 24.5441L59.1244 22.9294L59.0437 23.0101C58.1556 23.8982 57.0252 24.3019 55.8142 24.3019C54.7646 24.3019 53.8765 24.0597 53.2306 23.4945C52.6654 23.0101 52.2618 22.3642 52.0195 21.4761H63.4035V20.588C63.4035 18.1659 62.6768 16.2282 61.2236 14.7749C59.7703 13.4024 57.9134 12.6758 55.572 12.6758ZM52.2618 18.4081C52.5847 17.7622 52.9884 17.2778 53.3113 17.0356C54.038 16.5512 54.8453 16.2282 55.8142 16.2282C56.7023 16.2282 57.4289 16.4704 58.0748 16.9548C58.64 17.3585 59.0437 17.843 59.2859 18.4081H52.2618Z" fill="#797979"/>
<path d="M74.9489 14.2905C74.303 13.8061 73.7378 13.4024 73.0919 13.1602C72.3653 12.8373 71.5579 12.6758 70.6698 12.6758C68.8936 12.6758 67.2788 13.3217 65.987 14.6135C64.5338 15.986 63.8072 17.9237 63.8072 20.1843C63.8072 22.3642 64.453 24.1404 65.8256 25.5937C67.1981 27.047 68.8936 27.6929 70.8313 27.6929C71.7194 27.6929 72.5268 27.5314 73.2534 27.2892C73.8185 27.047 74.3837 26.724 74.8681 26.2396C74.8681 27.047 74.7066 27.6121 74.5452 28.0158C74.303 28.4195 73.98 28.8232 73.4149 29.0654C72.8497 29.3076 72.1231 29.4691 71.235 29.4691C70.5083 29.4691 69.8624 29.3883 69.378 29.1461C68.8936 28.9847 68.4899 28.6617 68.1669 28.3388L68.0862 28.258H63.7264L63.8072 28.581C64.1301 29.5498 64.6145 30.4379 65.3412 31.1646C65.987 31.8912 66.8752 32.3756 67.844 32.7793C68.8128 33.1023 70.0239 33.3445 71.4772 33.3445C74.1415 33.3445 76.1599 32.5371 77.5324 31.0031C78.5013 29.8728 79.0664 28.0158 79.0664 25.513V13.0795H75.0296V14.2905H74.9489ZM74.1415 17.52C74.7874 18.2466 75.1911 19.1347 75.1911 20.2651C75.1911 21.3954 74.8681 22.2835 74.2222 23.0101C73.5763 23.7368 72.6882 24.0597 71.6386 24.0597C70.5891 24.0597 69.701 23.7368 68.9743 23.0101C68.2477 22.2835 67.9247 21.3954 67.9247 20.2651C67.9247 19.2155 68.2477 18.3274 68.9743 17.6007C69.701 16.8741 70.5083 16.5512 71.5579 16.5512C72.6075 16.4704 73.4149 16.8741 74.1415 17.52Z" fill="#797979"/>
<path d="M87.8668 13.0794C86.575 12.4335 85.3639 12.595 84.3951 13.2409C84.0721 13.4831 83.7492 13.806 83.4262 14.129V12.9987H79.8738V27.6928H83.9107V21.7183V20.9916C83.9107 19.0539 84.0721 17.7621 84.4758 17.1162C84.7988 16.5511 85.2025 16.2281 85.6869 16.2281C85.9291 16.2281 86.252 16.3089 86.575 16.5511L86.8172 16.6318L88.109 13.0794H87.8668Z" fill="#797979"/>
<path d="M98.4433 14.2905C97.8782 13.8061 97.313 13.4832 96.7479 13.1602C95.9405 12.8373 95.1331 12.6758 94.245 12.6758C92.3073 12.6758 90.6926 13.4024 89.3201 14.8557C88.0283 16.3089 87.3016 18.1659 87.3016 20.4265C87.3016 22.6064 88.0283 24.4634 89.4008 25.9167C90.7733 27.3699 92.4688 28.0966 94.3258 28.0966C95.1331 28.0966 95.9405 27.9351 96.6671 27.6121C97.2323 27.3699 97.8782 26.9662 98.4433 26.4818V27.6929H102.48V13.0795H98.4433V14.2905ZM97.5552 17.52C98.2819 18.2466 98.6048 19.2155 98.6048 20.3458C98.6048 21.5569 98.2819 22.5257 97.5552 23.2523C96.8286 23.979 96.0212 24.3827 94.9717 24.3827C93.9221 24.3827 93.1147 23.979 92.3881 23.2523C91.6614 22.5257 91.3385 21.5569 91.3385 20.4265C91.3385 19.2962 91.6614 18.3274 92.3881 17.6007C93.1147 16.8741 93.9221 16.4704 94.9717 16.4704C96.0212 16.4704 96.8286 16.7934 97.5552 17.52Z" fill="#797979"/>
<path d="M116.367 20.1035L108.535 8.07373H104.66V27.6928H108.778V15.7438L116.609 27.6928H120.565V8.07373H116.367V20.1035Z" fill="#797979"/>
<path d="M129.608 12.6758C127.428 12.6758 125.652 13.4024 124.198 14.8557C122.745 16.3089 122.019 18.1659 122.019 20.4265C122.019 22.6064 122.745 24.4634 124.198 25.8359C125.652 27.2892 127.509 28.0158 129.85 28.0158C131.303 28.0158 132.595 27.7736 133.645 27.2085C134.694 26.724 135.663 25.8359 136.39 24.7863L136.551 24.5441L133.16 22.9294L133.08 23.0101C132.191 23.8982 131.061 24.3019 129.85 24.3019C128.8 24.3019 127.912 24.0597 127.266 23.4945C126.701 23.0101 126.298 22.3642 126.055 21.4761H137.439V20.588C137.439 18.1659 136.713 16.2282 135.259 14.7749C133.806 13.4024 131.949 12.6758 129.608 12.6758ZM126.298 18.4081C126.621 17.7622 127.024 17.2778 127.347 17.0356C128.074 16.5512 128.881 16.2282 129.85 16.2282C130.738 16.2282 131.465 16.4704 132.111 16.9548C132.676 17.3585 133.08 17.843 133.322 18.4081H126.298Z" fill="#797979"/>
<path d="M142.929 13.0795V7.83154H138.893V13.0795H137.116V16.6319H138.893V27.6929H142.929V16.6319H145.029V13.0795H142.929Z" fill="#797979"/>
<path d="M54.4417 44.0017V35.1206H54.6031L60.5777 41.9025V35.1206H61.4658V44.0017H61.2236L55.3298 37.2198V44.0017H54.4417Z" fill="#797979"/>
<path d="M68.4091 41.8218L69.1358 42.2255C68.8936 42.7099 68.6514 43.0329 68.3284 43.3558C68.0055 43.6788 67.6825 43.8402 67.2788 44.0017C66.8751 44.1632 66.4715 44.2439 65.987 44.2439C64.9375 44.2439 64.0494 43.921 63.4842 43.1943C62.8383 42.4677 62.5961 41.6603 62.5961 40.7722C62.5961 39.9649 62.8383 39.1575 63.4035 38.5116C64.0494 37.7042 64.9375 37.3005 65.987 37.3005C67.1174 37.3005 68.0055 37.7042 68.6514 38.5923C69.1358 39.1575 69.378 39.9649 69.378 40.853H63.4842C63.4842 41.5796 63.7264 42.2255 64.2108 42.7099C64.6952 43.1943 65.2604 43.4366 65.987 43.4366C66.31 43.4366 66.6329 43.3558 66.9559 43.2751C67.2788 43.1943 67.521 43.0329 67.7633 42.7907C67.9247 42.5484 68.1669 42.2255 68.4091 41.8218ZM68.4091 40.0456C68.3284 39.5612 68.1669 39.2382 67.9247 38.996C67.6825 38.7538 67.4403 38.5116 67.0366 38.3501C66.7137 38.1886 66.31 38.1079 65.9063 38.1079C65.2604 38.1079 64.6952 38.3501 64.2108 38.7538C63.8879 39.0768 63.6457 39.4804 63.4035 40.1263H68.4091V40.0456Z" fill="#797979"/>
<path d="M71.0735 34.9592H71.8809V37.3813H73.2534V38.108H71.8809V44.0018H71.0735V38.108H69.8624V37.3813H71.0735V34.9592Z" fill="#797979"/>
<path d="M73.0112 37.3813H73.8993L75.9177 42.2256L78.0169 37.3813H78.1783L80.2775 42.2256L82.2959 37.3813H83.184L80.3582 44.0018H80.1968L78.0976 39.2383L75.9984 44.0018H75.837L73.0112 37.3813Z" fill="#797979"/>
<path d="M86.7365 37.22C87.786 37.22 88.5934 37.6237 89.2393 38.3503C89.8852 38.9962 90.1274 39.8036 90.1274 40.7724C90.1274 41.6605 89.8045 42.4679 89.1586 43.1945C88.5127 43.9211 87.7053 44.2441 86.6557 44.2441C85.6061 44.2441 84.7988 43.9211 84.1529 43.1945C83.507 42.4679 83.184 41.7412 83.184 40.7724C83.184 39.8843 83.507 39.0769 84.0721 38.431C84.8795 37.6237 85.6869 37.22 86.7365 37.22ZM86.7365 38.0273C86.0098 38.0273 85.4447 38.2696 84.8795 38.8347C84.3951 39.3191 84.1529 39.965 84.1529 40.6917C84.1529 41.1761 84.2336 41.5798 84.4758 42.0642C84.718 42.4679 85.041 42.7908 85.4447 43.033C85.8484 43.2752 86.252 43.356 86.7365 43.356C87.2209 43.356 87.6246 43.2752 88.0283 43.033C88.4319 42.7908 88.7549 42.4679 88.9971 42.0642C89.2393 41.6605 89.3201 41.1761 89.3201 40.6917C89.3201 39.965 89.0778 39.3191 88.5934 38.8347C88.0283 38.3503 87.3824 38.0273 86.7365 38.0273Z" fill="#797979"/>
<path d="M90.7733 37.3814H91.6614V38.3503C91.9036 37.9466 92.2266 37.7044 92.4688 37.4622C92.7917 37.3007 93.034 37.22 93.3569 37.22C93.5991 37.22 93.8413 37.3007 94.0835 37.4622L93.6799 38.1888C93.5184 38.1081 93.3569 38.1081 93.1954 38.1081C92.8725 38.1081 92.6303 38.1888 92.3881 38.431C92.1458 38.6732 91.9036 38.9962 91.8229 39.4806C91.7422 39.8843 91.6614 40.6109 91.6614 41.7412V44.0019H90.7733V37.3814Z" fill="#797979"/>
<path d="M94.1643 34.8784H95.0524V40.0456L98.1204 37.3813H99.3314L95.6983 40.53L99.5737 44.0017H98.3626L95.0524 41.0144V44.0017H94.1643V34.8784Z" fill="#797979"/>
<path d="M101.834 42.3064L102.561 41.822C103.126 42.7908 103.691 43.2752 104.418 43.2752C104.741 43.2752 104.983 43.1945 105.225 43.033C105.467 42.8716 105.71 42.7101 105.79 42.4679C105.952 42.2257 106.033 41.9835 106.033 41.7412C106.033 41.4183 105.952 41.1761 105.71 40.8531C105.467 40.4494 104.902 39.965 104.176 39.3999C103.449 38.8347 102.965 38.431 102.803 38.1888C102.48 37.7851 102.319 37.3007 102.319 36.8163C102.319 36.4126 102.399 36.0896 102.561 35.7667C102.722 35.4437 103.045 35.2015 103.368 35.0401C103.691 34.8786 104.095 34.7979 104.499 34.7979C104.902 34.7979 105.306 34.8786 105.71 35.1208C106.113 35.363 106.436 35.686 106.84 36.2511L106.113 36.8163C105.79 36.3319 105.467 36.0896 105.225 35.9282C104.983 35.7667 104.741 35.686 104.418 35.686C104.095 35.686 103.772 35.7667 103.53 36.0089C103.288 36.2511 103.207 36.4933 103.207 36.8163C103.207 36.9778 103.288 37.22 103.368 37.3814C103.449 37.5429 103.611 37.7851 103.772 37.9466C103.853 38.0273 104.256 38.3503 104.902 38.8347C105.71 39.3999 106.194 39.8843 106.517 40.3687C106.84 40.8531 106.921 41.2568 106.921 41.7412C106.921 42.3871 106.679 42.9523 106.194 43.4367C105.71 43.9211 105.145 44.1634 104.418 44.1634C103.853 44.1634 103.368 44.0019 102.965 43.7597C102.642 43.5175 102.238 43.033 101.834 42.3064Z" fill="#797979"/>
<path d="M113.783 41.8218L114.51 42.2255C114.268 42.7099 114.026 43.0329 113.703 43.3558C113.38 43.6788 113.057 43.8402 112.653 44.0017C112.249 44.1632 111.846 44.2439 111.361 44.2439C110.312 44.2439 109.424 43.921 108.858 43.1943C108.213 42.4677 107.97 41.6603 107.97 40.7722C107.97 39.9649 108.213 39.1575 108.778 38.5116C109.424 37.7042 110.312 37.3005 111.361 37.3005C112.492 37.3005 113.38 37.7042 114.026 38.5923C114.51 39.1575 114.752 39.9649 114.752 40.853H108.858C108.858 41.5796 109.101 42.2255 109.585 42.7099C110.069 43.1943 110.635 43.4366 111.361 43.4366C111.684 43.4366 112.007 43.3558 112.33 43.2751C112.653 43.1943 112.895 43.0329 113.137 42.7907C113.218 42.5484 113.46 42.2255 113.783 41.8218ZM113.783 40.0456C113.703 39.5612 113.541 39.2382 113.299 38.996C113.057 38.7538 112.815 38.5116 112.411 38.3501C112.088 38.1886 111.684 38.1079 111.281 38.1079C110.635 38.1079 110.069 38.3501 109.585 38.7538C109.262 39.0768 109.02 39.4804 108.778 40.1263H113.783V40.0456Z" fill="#797979"/>
<path d="M115.317 37.3814H116.205V38.3503C116.448 37.9466 116.771 37.7044 117.013 37.4622C117.336 37.3007 117.578 37.22 117.901 37.22C118.143 37.22 118.385 37.3007 118.628 37.4622L118.224 38.1888C118.062 38.1081 117.901 38.1081 117.74 38.1081C117.417 38.1081 117.174 38.1888 116.932 38.431C116.69 38.6732 116.448 38.9962 116.367 39.4806C116.286 39.8843 116.205 40.6109 116.205 41.7412V44.0019H115.317V37.3814Z" fill="#797979"/>
<path d="M118.143 37.3813H119.031L121.211 42.2256L123.472 37.3813H124.36L121.292 44.0018H121.13L118.143 37.3813Z" fill="#797979"/>
<path d="M125.329 34.717C125.49 34.717 125.652 34.7978 125.813 34.9593C125.975 35.1207 126.055 35.2822 126.055 35.4437C126.055 35.6051 125.975 35.7666 125.813 35.9281C125.652 36.0896 125.49 36.1703 125.329 36.1703C125.167 36.1703 125.006 36.0896 124.844 35.9281C124.683 35.7666 124.602 35.6051 124.602 35.4437C124.602 35.2822 124.683 35.1207 124.844 34.9593C124.925 34.717 125.087 34.717 125.329 34.717ZM124.925 37.3814H125.813V44.0018H124.925V37.3814Z" fill="#797979"/>
<path d="M133.241 38.754L132.595 39.1577C132.03 38.3503 131.223 38.0273 130.254 38.0273C129.446 38.0273 128.8 38.2696 128.235 38.8347C127.67 39.3191 127.428 39.965 127.428 40.6917C127.428 41.1761 127.589 41.6605 127.832 42.0642C128.074 42.4679 128.397 42.7908 128.8 43.033C129.204 43.2752 129.689 43.356 130.254 43.356C131.223 43.356 132.03 42.9523 132.595 42.2257L133.241 42.6294C132.918 43.1138 132.514 43.4367 131.949 43.7597C131.384 44.0019 130.819 44.1634 130.173 44.1634C129.123 44.1634 128.235 43.8404 127.589 43.1945C126.863 42.5486 126.54 41.7412 126.54 40.7724C126.54 40.1265 126.701 39.5613 127.024 38.9962C127.347 38.431 127.751 38.0273 128.316 37.7044C128.881 37.3814 129.527 37.22 130.173 37.22C130.577 37.22 131.061 37.3007 131.465 37.3814C131.868 37.5429 132.191 37.7044 132.514 37.8659C132.837 38.1888 133.08 38.431 133.241 38.754Z" fill="#797979"/>
<path d="M139.861 41.8218L140.588 42.2255C140.346 42.7099 140.104 43.0329 139.781 43.3558C139.458 43.6788 139.135 43.8402 138.731 44.0017C138.327 44.1632 137.924 44.2439 137.439 44.2439C136.39 44.2439 135.502 43.921 134.936 43.1943C134.291 42.4677 134.048 41.6603 134.048 40.7722C134.048 39.9649 134.291 39.1575 134.856 38.5116C135.502 37.7042 136.39 37.3005 137.439 37.3005C138.57 37.3005 139.458 37.7042 140.104 38.5923C140.588 39.1575 140.83 39.9649 140.83 40.853H134.936C134.936 41.5796 135.179 42.2255 135.663 42.7099C136.148 43.1943 136.713 43.4366 137.439 43.4366C137.762 43.4366 138.085 43.3558 138.408 43.2751C138.731 43.1943 138.973 43.0329 139.216 42.7907C139.377 42.5484 139.619 42.2255 139.861 41.8218ZM139.861 40.0456C139.781 39.5612 139.619 39.2382 139.377 38.996C139.135 38.7538 138.893 38.5116 138.489 38.3501C138.166 38.1886 137.762 38.1079 137.359 38.1079C136.713 38.1079 136.148 38.3501 135.663 38.7538C135.34 39.0768 135.098 39.4804 134.856 40.1263H139.861V40.0456Z" fill="#797979"/>
<path d="M145.029 38.108L144.463 38.6731C143.979 38.2695 143.575 38.0272 143.172 38.0272C142.929 38.0272 142.687 38.108 142.445 38.2695C142.284 38.4309 142.122 38.6731 142.122 38.9153C142.122 39.1576 142.203 39.319 142.364 39.5612C142.526 39.7227 142.849 39.9649 143.414 40.2879C144.06 40.6108 144.463 40.9338 144.706 41.2567C144.948 41.5797 145.029 41.9026 145.029 42.3063C145.029 42.8715 144.867 43.2751 144.463 43.6788C144.06 44.0825 143.575 44.244 143.01 44.244C142.606 44.244 142.284 44.1633 141.961 44.0018C141.638 43.8403 141.315 43.5981 141.072 43.3559L141.638 42.71C142.041 43.1944 142.526 43.4366 143.01 43.4366C143.333 43.4366 143.656 43.3559 143.898 43.1137C144.141 42.8715 144.221 42.6293 144.221 42.3063C144.221 42.0641 144.141 41.8219 143.979 41.6604C143.818 41.4989 143.495 41.2567 142.929 40.9338C142.364 40.6108 141.961 40.2879 141.718 40.0457C141.476 39.7227 141.395 39.3998 141.395 38.9961C141.395 38.5117 141.557 38.108 141.88 37.785C142.203 37.4621 142.687 37.3006 143.172 37.3006C143.818 37.2199 144.463 37.5428 145.029 38.108Z" fill="#797979"/>
<path d="M14.5576 1.85695L3.49658 0C3.49658 0 -1.18617 18.9732 0.590042 45.9394L7.29122 45.6164C7.29122 45.6164 6.80679 27.0469 14.5576 1.85695ZM3.01215 21.5568C5.59574 11.9491 9.55186 6.70118 9.55186 6.70118L10.6822 8.0737C6.32237 15.34 5.59574 22.8486 5.59574 22.8486C5.27279 22.5256 3.01215 21.5568 3.01215 21.5568Z" fill="#797979"/>
</svg>
