<svg width="235" height="45" viewBox="0 0 235 45" fill="none" xmlns="http://www.w3.org/2000/svg">
<path d="M66.7839 19.8725L64.1587 20.3836C64.2867 19.8086 64.3508 19.3613 64.3508 18.9779C64.3508 16.6136 62.9421 15.3995 60.1888 15.3995C58.0117 15.3995 56.9232 16.2302 56.9232 17.8916C56.9232 19.1057 58.1398 20.1919 60.573 21.0865C65.3112 22.8118 67.6163 25.3039 67.6163 28.6267C67.6163 30.5436 66.976 32.1411 65.6314 33.2913C64.2867 34.4415 62.5579 35.0805 60.3809 35.0805C55.5146 35.0805 53.0814 33.0996 53.0814 29.2017C53.0814 28.8822 53.0814 28.4989 53.1454 27.9877L55.8987 27.3487C55.7066 28.2433 55.5786 28.9462 55.5786 29.649C55.5786 32.205 56.9873 33.483 59.7406 33.483C61.9816 33.483 63.0702 32.5884 63.0702 30.7353C63.0702 29.3934 61.7255 28.1794 59.0362 27.157C55.1944 25.6873 53.2735 23.323 53.2735 20.0641C53.2735 18.2111 53.9138 16.7414 55.1944 15.5912C56.475 14.441 58.2038 13.9298 60.2528 13.9298C64.6069 13.7381 66.7839 15.7829 66.7839 19.8725Z" fill="#797979"/>
<path d="M78.5016 24.4094V34.6332H72.8028V14.1216H78.5016V22.3646H83.1118V14.1216H88.8105V34.6332H83.1118V24.4094H78.5016Z" fill="#797979"/>
<path d="M103.794 14.1216L109.236 34.6332H103.538L102.385 30.1603H96.4942L95.2135 34.6332H92.9725L98.7993 14.1216H103.794ZM97.0704 28.1155H101.873L99.5676 19.0418L97.0704 28.1155Z" fill="#797979"/>
<path d="M113.526 34.6332V14.1216H121.978C124.155 14.1216 125.948 14.6328 127.229 15.5913C128.509 16.5498 129.214 17.8277 129.214 19.4891C129.214 21.9812 127.805 23.5787 124.988 24.3455C126.46 24.9206 127.357 25.4957 127.805 26.1985C128.253 26.9014 128.509 28.1794 128.702 30.0964C128.894 32.3968 129.278 33.9304 129.79 34.6971H123.579C123.195 33.7387 123.003 32.5885 123.003 31.1188V29.9047V28.3711C123.003 26.0068 122.106 24.7928 120.25 24.7928H119.289V34.6332H113.526ZM119.225 23.0675H120.378C122.555 23.0675 123.579 21.9173 123.579 19.553C123.579 17.1887 122.491 16.0386 120.378 16.0386H119.225V23.0675Z" fill="#797979"/>
<path d="M147.527 14.1216V16.1664H140.483V22.3646H146.374V24.4094H140.483V32.5246H148.679V34.5694H134.784V14.1216H147.527Z" fill="#797979"/>
<path d="M177.749 26.3903L180.182 27.0293C180.246 27.5405 180.246 27.9878 180.246 28.3712C180.246 30.3521 179.542 31.9496 178.197 33.1637C176.789 34.3777 174.996 34.9528 172.627 34.9528C166.8 34.9528 163.918 31.5023 163.918 24.6651C163.918 21.4062 164.751 18.7863 166.48 16.7415C168.144 14.6968 170.386 13.7383 173.075 13.7383C177.301 13.7383 179.414 15.847 179.414 20.1282L176.981 21.2784C176.981 20.7033 177.045 20.1921 177.045 19.8726C177.045 16.8693 175.892 15.3358 173.587 15.3358C171.154 15.3358 169.937 18.5307 169.937 24.9846C169.937 30.4799 171.282 33.2915 174.035 33.2915C175.188 33.2915 176.084 32.8442 176.853 31.8857C177.621 30.9272 178.005 29.777 178.005 28.3712C177.941 27.9239 177.877 27.2849 177.749 26.3903Z" fill="#797979"/>
<path d="M194.013 14.1216L199.455 34.6332H193.757L192.604 30.1603H186.713L185.433 34.6332H183.192L189.018 14.1216H194.013ZM187.29 28.1155H192.092L189.787 19.0418L187.29 28.1155Z" fill="#797979"/>
<path d="M216.552 14.1216V16.1664H209.444V23.0036H215.463V25.0484H209.444V34.6332H203.745V14.1216H216.552Z" fill="#797979"/>
<path d="M233.84 14.1216V16.1664H226.796V22.3646H232.687V24.4094H226.796V32.5246H234.992V34.5694H221.098V14.1216H233.84Z" fill="#797979"/>
<path d="M40.1472 0H2.36913C1.02449 0 0 1.08629 0 2.36427V42.0457C0 43.3876 1.08852 44.41 2.36913 44.41H40.0832C41.4278 44.41 42.4523 43.3237 42.4523 42.0457V2.42817C42.5163 1.08629 41.4278 0 40.1472 0ZM40.1472 2.42817V42.1096H2.43316V2.42817H40.1472Z" fill="#797979"/>
<path d="M9.66865 19.8728C12.3562 19.8728 14.535 17.6986 14.535 15.0165C14.535 12.3344 12.3562 10.1602 9.66865 10.1602C6.98105 10.1602 4.80232 12.3344 4.80232 15.0165C4.80232 17.6986 6.98105 19.8728 9.66865 19.8728Z" fill="#797979"/>
<path d="M14.663 28.4352L11.5255 26.8377V22.3008C11.5255 21.2784 10.6931 20.4478 9.66863 20.4478C8.64414 20.4478 7.87577 21.2784 7.87577 22.3008V28.3713L7.81174 28.563L14.2148 31.7579V36.1031C14.2148 37.1255 15.0472 37.9562 16.0717 37.9562C17.0962 37.9562 17.8646 37.1255 17.8646 36.1031V30.0326L14.663 28.4352Z" fill="#797979"/>
<path d="M32.8477 19.8728C35.5353 19.8728 37.714 17.6986 37.714 15.0165C37.714 12.3344 35.5353 10.1602 32.8477 10.1602C30.1601 10.1602 27.9814 12.3344 27.9814 15.0165C27.9814 17.6986 30.1601 19.8728 32.8477 19.8728Z" fill="#797979"/>
<path d="M34.6406 28.3713V22.3008C34.6406 21.2145 33.8722 20.4478 32.8477 20.4478C31.8232 20.4478 30.9908 21.2784 30.9908 22.3008V26.8377L24.6518 30.0326V36.1031C24.6518 37.1894 25.4202 37.9562 26.4447 37.9562C27.4692 37.9562 28.3016 37.1255 28.3016 36.1031V31.7579L34.7046 28.563L34.6406 28.3713Z" fill="#797979"/>
<path d="M23.2431 18.9782C23.2431 17.8919 22.3467 16.9973 21.2582 16.9973C20.1697 16.9973 19.2732 17.8919 19.2732 18.9782V32.9082C19.2732 33.9945 20.1697 34.8891 21.2582 34.8891C22.3467 34.8891 23.2431 33.9945 23.2431 32.9082V18.9782Z" fill="#797979"/>
<path d="M21.2582 16.4222C23.9458 16.4222 26.1245 14.2479 26.1245 11.5658C26.1245 8.88373 23.9458 6.70947 21.2582 6.70947C18.5706 6.70947 16.3919 8.88373 16.3919 11.5658C16.3919 14.2479 18.5706 16.4222 21.2582 16.4222Z" fill="#797979"/>
</svg>
