<svg width="20" height="19" viewBox="0 0 20 19" fill="none" xmlns="http://www.w3.org/2000/svg">
<g clip-path="url(#clip0_1519_9356)">
<path d="M4.2002 8.59998C2.53353 8.59998 1.2002 7.26664 1.2002 5.59998C1.2002 3.93331 2.53353 2.59998 4.2002 2.59998C5.86686 2.59998 7.2002 3.93331 7.2002 5.59998C7.2002 7.26664 5.86686 8.59998 4.2002 8.59998ZM4.2002 3.93331C3.33353 3.93331 2.6002 4.66664 2.6002 5.53331C2.6002 6.39998 3.33353 7.13331 4.2002 7.13331C5.06686 7.13331 5.8002 6.39998 5.8002 5.53331C5.8002 4.66664 5.06686 3.93331 4.2002 3.93331Z" fill="#797979"/>
<path d="M15.8003 8.59998C14.1336 8.59998 12.8003 7.26664 12.8003 5.59998C12.8003 3.93331 14.1336 2.59998 15.8003 2.59998C17.467 2.59998 18.8003 3.93331 18.8003 5.59998C18.8003 7.26664 17.467 8.59998 15.8003 8.59998ZM15.8003 3.93331C14.9336 3.93331 14.2003 4.66664 14.2003 5.53331C14.2003 6.39998 14.9336 7.13331 15.8003 7.13331C16.667 7.13331 17.4003 6.39998 17.4003 5.53331C17.4003 4.66664 16.667 3.93331 15.8003 3.93331Z" fill="#797979"/>
<path d="M10 6.06667C8.33333 6.06667 7 4.73333 7 3.06667C7 1.4 8.33333 0 10 0C11.6667 0 13 1.33333 13 3C13 4.66667 11.6667 6.06667 10 6.06667ZM10 1.4C9.13333 1.4 8.4 2.13333 8.4 3C8.4 3.86667 9.13333 4.6 10 4.6C10.8667 4.6 11.6 3.86667 11.6 3C11.6 2.13333 10.8667 1.4 10 1.4Z" fill="#797979"/>
<path d="M14.4667 7.40003C13.5333 5.80002 12 5.06669 11 4.80002C10.3333 4.60002 9.66667 4.60002 9 4.80002C8 5.13336 6.46667 5.80002 5.53333 7.40003C5.53333 7.40003 0.333333 6.86669 0 11.8H1.53333C1.53333 11.8 1.73333 9.06669 4 8.93336C6.26667 8.80002 7.2 10.3334 7.2 10.3334C7.2 10.3334 6.4 6.06669 10 6.06669C13.6 6.06669 12.7333 10.4 12.7333 10.4C12.7333 10.4 13.6667 8.86669 15.9333 9.00002C18.2 9.13336 18.4 11.8667 18.4 11.8667H20C19.6667 6.86669 14.4667 7.40003 14.4667 7.40003Z" fill="#797979"/>
<path d="M10.0001 16.4C11.4001 16.4 12.6001 17.4667 12.9335 18.9334H14.5335C14.2668 16.6 12.3335 14.8 10.0001 14.8C7.6668 14.8 5.80013 16.6 5.4668 18.9334H7.0668C7.40013 17.4667 8.60013 16.4 10.0001 16.4Z" fill="#797979"/>
<path d="M10 16C8.33333 16 7 14.6667 7 13C7 11.3333 8.33333 10 10 10C11.6667 10 13 11.3333 13 13C13 14.6667 11.6667 16 10 16ZM10 11.4C9.13333 11.4 8.4 12.1333 8.4 13C8.4 13.8667 9.13333 14.6 10 14.6C10.8667 14.6 11.6 13.8667 11.6 13C11.6 12.0667 10.8667 11.4 10 11.4Z" fill="#797979"/>
</g>
<defs>
<clipPath id="clip0_1519_9356">
<rect width="20" height="18.9333" fill="white"/>
</clipPath>
</defs>
</svg>
