<svg width="20" height="17" viewBox="0 0 20 17" fill="none" xmlns="http://www.w3.org/2000/svg">
<g clip-path="url(#clip0_1519_9367)">
<path d="M18.6669 7.06667V1.66667C18.6669 1.66667 18.8002 0 16.6002 0H10.4002H9.60023H3.40023C1.33356 0 1.33356 1.66667 1.33356 1.66667V7.06667C-0.133107 7.2 0.000226133 8.66667 0.000226133 8.66667V16.5333C0.000226133 16.6667 0.133559 16.8 0.266893 16.8H3.93356C4.06689 16.8 4.20023 16.6667 4.20023 16.5333V15.2667C4.20023 13.9333 4.66689 14 4.66689 14H9.60023H10.4002H15.3336C15.3336 14 15.8002 13.9333 15.8002 15.2667V16.5333C15.8002 16.6667 15.9336 16.8 16.0669 16.8H19.7336C19.8669 16.8 20.0002 16.6667 20.0002 16.5333V8.66667C20.0002 8.66667 20.1336 7.13333 18.6669 7.06667ZM2.93356 2.13333C2.93356 2.13333 3.00023 1.33333 3.93356 1.33333H9.60023H10.4002H16.0669C17.0669 1.33333 17.0669 2.13333 17.0669 2.13333V7H15.8002L15.7336 5.73333C15.5336 4.06667 14.0002 4.2 14.0002 4.2H11.2002C10.4669 4.2 10.1336 4.46667 9.93356 4.66667C9.80023 4.46667 9.40023 4.2 8.66689 4.2H6.00023C6.00023 4.2 4.46689 4.13333 4.20023 5.8L4.13356 7.06667H2.93356V2.13333ZM10.4002 5.6C10.6669 5.4 10.9336 5.46667 10.9336 5.46667H13.6002C14.6002 5.46667 14.5336 6.06667 14.5336 6.06667V7.06667H10.6669C10.5336 7.06667 10.4002 6.93333 10.4002 6.8V5.6ZM6.33356 5.46667H9.00023C9.00023 5.46667 9.33356 5.46667 9.53356 5.6V6.8C9.53356 6.93333 9.40023 7.06667 9.26689 7.06667H5.46689V6C5.46689 6 5.40023 5.46667 6.33356 5.46667ZM18.4002 15.2667H17.0669C17.0669 12.1333 15.4002 12.4 15.4002 12.4H10.3336H9.53356H4.53356C4.53356 12.4 3.00023 12.1333 2.86689 15C2.86689 15.1333 2.73356 15.2667 2.60023 15.2667H1.80023C1.66689 15.2667 1.53356 15.1333 1.53356 15V9C1.53356 9 1.53356 8.26667 2.40023 8.26667H9.53356H10.3336H17.4669C18.3336 8.26667 18.3336 9 18.3336 9V15.2667H18.4002Z" fill="#797979"/>
</g>
<defs>
<clipPath id="clip0_1519_9367">
<rect width="20" height="16.8" fill="white"/>
</clipPath>
</defs>
</svg>
