<svg width="30" height="28" viewBox="0 0 30 28" fill="none" xmlns="http://www.w3.org/2000/svg">
<g clip-path="url(#clip0_945_1058)">
<path d="M30 6C30 5.85 30 5.85 30 5.7C30 5.55 30 5.55 29.85 5.55C29.85 5.4 29.7 5.4 29.7 5.25C29.7 5.25 29.7 5.25 29.7 5.1C29.7 5.1 29.55 5.1 29.55 4.95L29.4 4.8L21.15 0C21 0 20.85 0 20.55 0H1.35C1.2 0 1.05 0 0.9 0.15H0.75C0.6 0.15 0.45 0.3 0.45 0.45C0.3 0.6 0.15 0.6 0.15 0.75V0.9C0 1.05 0 1.2 0 1.35V21.15C0 21.6 0.15 21.9 0.6 22.2L7.35 27.3C7.35 27.3 7.5 27.3 7.5 27.45C7.5 27.45 7.65 27.45 7.65 27.6C7.8 27.6 7.95 27.75 8.1 27.75H28.5C29.25 27.75 29.85 27.15 29.85 26.4L30 6.15C30.15 6.15 30 6 30 6ZM23.7 4.8H8.4L5.4 2.7H20.1L23.7 4.8ZM2.7 4.05L6.75 6.9V23.55L2.7 20.55V4.05ZM27.15 24.9H9.45V7.5H27.45L27.15 24.9Z" fill="white"/>
</g>
<defs>
<clipPath id="clip0_945_1058">
<rect width="30" height="27.6" fill="white"/>
</clipPath>
</defs>
</svg>
