<svg width="30" height="29" viewBox="0 0 30 29" fill="none" xmlns="http://www.w3.org/2000/svg">
<g clip-path="url(#clip0_945_1060)">
<path d="M6.2998 12.9C3.7998 12.9 1.7998 10.9 1.7998 8.4C1.7998 5.9 3.7998 3.9 6.2998 3.9C8.7998 3.9 10.7998 5.9 10.7998 8.4C10.7998 10.9 8.7998 12.9 6.2998 12.9ZM6.2998 5.9C4.9998 5.9 3.8998 7 3.8998 8.3C3.8998 9.6 4.9998 10.7 6.2998 10.7C7.5998 10.7 8.6998 9.6 8.6998 8.3C8.6998 7 7.5998 5.9 6.2998 5.9Z" fill="white"/>
<path d="M23.7002 12.9C21.2002 12.9 19.2002 10.9 19.2002 8.4C19.2002 5.9 21.2002 3.9 23.7002 3.9C26.2002 3.9 28.2002 5.9 28.2002 8.4C28.2002 10.9 26.2002 12.9 23.7002 12.9ZM23.7002 5.9C22.4002 5.9 21.3002 7 21.3002 8.3C21.3002 9.6 22.4002 10.7 23.7002 10.7C25.0002 10.7 26.1002 9.6 26.1002 8.3C26.1002 7 25.0002 5.9 23.7002 5.9Z" fill="white"/>
<path d="M15 9.1C12.5 9.1 10.5 7.1 10.5 4.6C10.5 2.1 12.5 0 15 0C17.5 0 19.5 2 19.5 4.5C19.5 7 17.5 9.1 15 9.1ZM15 2.1C13.7 2.1 12.6 3.2 12.6 4.5C12.6 5.8 13.7 6.9 15 6.9C16.3 6.9 17.4 5.8 17.4 4.5C17.4 3.2 16.3 2.1 15 2.1Z" fill="white"/>
<path d="M21.7 11.1C20.3 8.7 18 7.6 16.5 7.2C15.5 6.9 14.5 6.9 13.5 7.2C12 7.7 9.7 8.7 8.3 11.1C8.3 11.1 0.5 10.3 0 17.7H2.3C2.3 17.7 2.6 13.6 6 13.4C9.4 13.2 10.8 15.5 10.8 15.5C10.8 15.5 9.6 9.1 15 9.1C20.4 9.1 19.1 15.6 19.1 15.6C19.1 15.6 20.5 13.3 23.9 13.5C27.3 13.7 27.6 17.8 27.6 17.8H30C29.5 10.3 21.7 11.1 21.7 11.1Z" fill="white"/>
<path d="M15.0002 24.6C17.1002 24.6 18.9002 26.2 19.4002 28.4H21.8002C21.4002 24.9 18.5002 22.2 15.0002 22.2C11.5002 22.2 8.7002 24.9 8.2002 28.4H10.6002C11.1002 26.2 12.9002 24.6 15.0002 24.6Z" fill="white"/>
<path d="M15 24C12.5 24 10.5 22 10.5 19.5C10.5 17 12.5 15 15 15C17.5 15 19.5 17 19.5 19.5C19.5 22 17.5 24 15 24ZM15 17.1C13.7 17.1 12.6 18.2 12.6 19.5C12.6 20.8 13.7 21.9 15 21.9C16.3 21.9 17.4 20.8 17.4 19.5C17.4 18.1 16.3 17.1 15 17.1Z" fill="white"/>
</g>
<defs>
<clipPath id="clip0_945_1060">
<rect width="30" height="28.4" fill="white"/>
</clipPath>
</defs>
</svg>
