<svg width="20" height="19" viewBox="0 0 20 19" fill="none" xmlns="http://www.w3.org/2000/svg">
<g clip-path="url(#clip0_1519_9354)">
<path d="M20 4C20 3.9 20 3.9 20 3.8C20 3.7 20 3.7 19.9 3.7C19.9 3.6 19.8 3.6 19.8 3.5C19.8 3.5 19.8 3.5 19.8 3.4C19.8 3.4 19.7 3.4 19.7 3.3L19.6 3.2L14.1 0C14 0 13.9 0 13.7 0H0.9C0.8 0 0.7 0 0.6 0.1H0.5C0.4 0.1 0.3 0.2 0.3 0.3C0.2 0.4 0.1 0.4 0.1 0.5V0.6C0 0.7 0 0.8 0 0.9V14.1C0 14.4 0.1 14.6 0.4 14.8L4.9 18.2C4.9 18.2 5 18.2 5 18.3C5 18.3 5.1 18.3 5.1 18.4C5.2 18.4 5.3 18.5 5.4 18.5H19C19.5 18.5 19.9 18.1 19.9 17.6L20 4.1C20.1 4.1 20 4 20 4ZM15.8 3.2H5.6L3.6 1.8H13.4L15.8 3.2ZM1.8 2.7L4.5 4.6V15.7L1.8 13.7V2.7ZM18.1 16.6H6.3V5H18.3L18.1 16.6Z" fill="#797979"/>
</g>
<defs>
<clipPath id="clip0_1519_9354">
<rect width="20" height="18.4" fill="white"/>
</clipPath>
</defs>
</svg>
