<svg width="30" height="26" viewBox="0 0 30 26" fill="none" xmlns="http://www.w3.org/2000/svg">
<g clip-path="url(#clip0_945_1071)">
<path d="M27.9999 10.6V2.5C27.9999 2.5 28.1999 0 24.8999 0H15.5999H14.3999H5.09985C1.99985 0 1.99985 2.5 1.99985 2.5V10.6C-0.200149 10.8 -0.000149082 13 -0.000149082 13V24.8C-0.000149082 25 0.199851 25.2 0.399851 25.2H5.89985C6.09985 25.2 6.29985 25 6.29985 24.8V22.9C6.29985 20.9 6.99985 21 6.99985 21H14.3999H15.5999H22.9999C22.9999 21 23.6999 20.9 23.6999 22.9V24.8C23.6999 25 23.8999 25.2 24.0999 25.2H29.5999C29.7999 25.2 29.9999 25 29.9999 24.8V13C29.9999 13 30.1999 10.7 27.9999 10.6ZM4.39985 3.2C4.39985 3.2 4.49985 2 5.89985 2H14.3999H15.5999H24.0999C25.5999 2 25.5999 3.2 25.5999 3.2V10.5H23.6999L23.5999 8.6C23.2999 6.1 20.9999 6.3 20.9999 6.3H16.7999C15.6999 6.3 15.1999 6.7 14.8999 7C14.6999 6.7 14.0999 6.3 12.9999 6.3H8.99985C8.99985 6.3 6.69985 6.2 6.29985 8.7L6.19985 10.6H4.39985V3.2ZM15.5999 8.4C15.9999 8.1 16.3999 8.2 16.3999 8.2H20.3999C21.8999 8.2 21.7999 9.1 21.7999 9.1V10.6H15.9999C15.7999 10.6 15.5999 10.4 15.5999 10.2V8.4ZM9.49985 8.2H13.4999C13.4999 8.2 13.9999 8.2 14.2999 8.4V10.2C14.2999 10.4 14.0999 10.6 13.8999 10.6H8.19985V9C8.19985 9 8.09985 8.2 9.49985 8.2ZM27.5999 22.9H25.5999C25.5999 18.2 23.0999 18.6 23.0999 18.6H15.4999H14.2999H6.79985C6.79985 18.6 4.49985 18.2 4.29985 22.5C4.29985 22.7 4.09985 22.9 3.89985 22.9H2.69985C2.49985 22.9 2.29985 22.7 2.29985 22.5V13.5C2.29985 13.5 2.29985 12.4 3.59985 12.4H14.2999H15.4999H26.1999C27.4999 12.4 27.4999 13.5 27.4999 13.5V22.9H27.5999Z" fill="white"/>
</g>
<defs>
<clipPath id="clip0_945_1071">
<rect width="30" height="25.2" fill="white"/>
</clipPath>
</defs>
</svg>
