<svg width="37" height="25" viewBox="0 0 37 25" fill="none" xmlns="http://www.w3.org/2000/svg">
<path d="M18.0399 18.5949H10.2717L3.81055 9.14233H11.5051L16.2359 16.0766H11.726L8.61502 11.7153H10.2717L12.2782 14.7263H13.8061L10.916 10.3832H6.38766L10.916 17.3175H17.1195L18.0399 18.5949Z" fill="#AEADAE"/>
<path d="M16.9723 7.8649L15.9782 9.14227L19.9175 14.635L22.421 11.2591L16.8802 3.30286L12.9409 8.97804L19.6046 18.5948H26.6548L33.1897 9.14227H25.1638L20.4882 16.0766H25.2558L28.3852 11.697H26.4708L24.6116 14.7627H23.0653L25.9922 10.4379H30.6494L25.9185 17.4087H20.3409L14.5424 8.9233L16.8986 5.58388L20.8563 11.3321L19.9544 12.3357L16.9723 7.8649Z" fill="#AEADAE"/>
<path d="M17.6167 2.22623L18.4451 1.02185L23.9122 9.01455L23.0654 10.2554L17.6167 2.22623Z" fill="#AEADAE"/>
<path d="M11.0815 19.781L11.9651 21.1861H24.8875L25.8263 19.781H11.0815Z" fill="#AEADAE"/>
</svg>