<svg width="28" height="38" viewBox="0 0 28 38" fill="none" xmlns="http://www.w3.org/2000/svg">
<path d="M3.51074 29.1563C3.51074 29.5838 3.85325 30.0113 4.36701 30.0113H27.1438C27.5719 30.0113 28 29.6693 28 29.1563V23.3422C28 22.9146 27.6575 22.4871 27.1438 22.4871H11.7309V0.855024C11.7309 0.427512 11.3884 0 10.8747 0H4.36701C3.93888 0 3.51074 0.34201 3.51074 0.855024V29.1563Z" fill="white"/>
<path d="M24.4893 8.03721C24.4893 7.6097 24.1468 7.18219 23.633 7.18219H0.856269C0.428135 7.18219 0 7.5242 0 8.03721V13.8514C0 14.2789 0.342508 14.7064 0.856269 14.7064H16.2691V36.3385C16.2691 36.766 16.6116 37.1935 17.1254 37.1935H23.633C24.0612 37.1935 24.4893 36.8515 24.4893 36.3385V8.03721Z" fill="#868686"/>
<path d="M24.9175 7.60972C24.9175 7.18221 24.575 6.7547 24.0613 6.7547H1.28449C0.856357 6.7547 0.428223 7.09671 0.428223 7.60972V13.4239C0.428223 13.8514 0.77073 14.2789 1.28449 14.2789H16.6973V35.911C16.6973 36.3385 17.0398 36.766 17.5536 36.766H24.0613C24.4894 36.766 24.9175 36.424 24.9175 35.911V7.60972Z" fill="white"/>
</svg>
