<svg width="173" height="162" viewBox="0 0 173 162" fill="none" xmlns="http://www.w3.org/2000/svg">
<path d="M61.9727 68.2599C61.9727 69.2692 62.7801 70.2497 63.9625 70.2497H117.227C118.236 70.2497 119.216 69.4422 119.216 68.2599V54.6483C119.216 53.6389 118.409 52.6584 117.227 52.6584H81.1789V1.98983C81.1789 0.980497 80.3714 0 79.189 0H63.9625C62.9532 0 61.9727 0.807468 61.9727 1.98983V68.2599Z" fill="#CC3633"/>
<path d="M111.026 18.8316C111.026 17.8223 110.219 16.8418 109.037 16.8418H55.7437C54.7344 16.8418 53.7539 17.6493 53.7539 18.8316V32.4432C53.7539 33.4526 54.5614 34.4331 55.7437 34.4331H91.7914V85.0728C91.7914 86.0822 92.5989 87.0627 93.7812 87.0627H109.008C110.017 87.0627 110.998 86.2552 110.998 85.0728V18.8316H111.026Z" fill="#333333"/>
<path d="M112.007 17.8219C112.007 16.8125 111.199 15.832 110.017 15.832H56.9547C55.9453 15.832 54.9648 16.6395 54.9648 17.8219V31.2316C54.9648 32.2409 55.7723 33.2214 56.9547 33.2214H93.0023V83.8612C93.0023 84.8705 93.8098 85.851 94.9922 85.851H110.017C111.026 85.851 112.007 85.0436 112.007 83.8612V17.8219Z" fill="#CC3633"/>
<path d="M172.366 135.741H0.605601C0.403734 135.741 0 135.54 0 135.136C0 134.732 0.201867 134.53 0.605601 134.53H172.394C172.596 134.53 173 134.732 173 135.136C173 135.54 172.567 135.741 172.366 135.741Z" fill="#555"/>
<path d="M21.4841 125.417V129.426H5.99805V103.76H10.0354V125.417H21.4841Z" fill="#555"/>
<path d="M23.8203 121.87V108.95H27.973V121.841C27.973 124.09 29.7321 125.705 31.722 125.705C33.7118 125.705 35.4998 124.061 35.4998 121.841V108.95H39.6524V121.87C39.6524 126.513 36.1054 129.887 31.7508 129.887C27.3962 129.887 23.8203 126.484 23.8203 121.87Z" fill="#555"/>
<path d="M53.3494 129.425L47.1204 120.457V129.425H43.0254V108.95H47.1204V117.803L52.888 108.95H57.6463L51.0712 118.986L58.3673 129.454H53.3494V129.425Z" fill="#555"/>
<path d="M59.2617 125.908L62.5493 123.601C63.4432 125.043 64.7698 125.706 66.5289 125.706C68.4611 125.706 69.7588 124.927 69.7588 123.832C69.7588 122.332 67.3076 121.15 65.1447 120.083C62.8376 118.929 60.3287 117.689 60.3287 114.402C60.3287 110.854 63.3279 108.519 67.0769 108.519C69.8742 108.519 72.1812 109.672 73.104 112.152L70.076 114.286C69.4704 113.075 68.2881 112.556 67.1345 112.556C65.6061 112.556 64.4526 113.45 64.4526 114.488C64.4526 115.699 66.0098 116.132 68.3457 117.228C71.7486 118.843 73.8827 120.573 73.8827 123.716C73.8827 127.436 70.8258 129.83 66.4424 129.83C63.126 129.83 60.6459 128.446 59.2617 125.908Z" fill="#555"/>
<path d="M97.8772 124.293V129.426H82.4199V103.76H87.582V124.293H97.8772Z" fill="#555"/>
<path d="M99.4043 119.218C99.4043 113.335 104.191 108.519 110.046 108.519C115.9 108.519 120.716 113.335 120.716 119.218C120.716 125.043 115.9 129.83 110.046 129.83C104.191 129.83 99.4043 125.043 99.4043 119.218ZM116.563 119.189C116.563 115.613 113.65 112.671 110.046 112.671C106.47 112.671 103.557 115.584 103.557 119.189C103.557 122.736 106.47 125.648 110.046 125.648C113.622 125.648 116.563 122.736 116.563 119.189Z" fill="#555"/>
<path d="M127.523 112.988V117.112H134.588V121.207H127.523V129.426H123.428V108.864H135.77V112.988H127.523Z" fill="#555"/>
<path d="M151.053 113.016H146.006V129.425H141.883V113.016H136.836V108.95H151.053V113.016Z" fill="#555"/>
<path d="M152.322 125.908L155.61 123.601C156.504 125.043 157.83 125.706 159.589 125.706C161.522 125.706 162.819 124.927 162.819 123.832C162.819 122.332 160.368 121.15 158.205 120.083C155.898 118.929 153.389 117.689 153.389 114.402C153.389 110.854 156.388 108.519 160.137 108.519C162.935 108.519 165.242 109.672 166.165 112.152L163.137 114.286C162.531 113.075 161.349 112.556 160.195 112.556C158.667 112.556 157.513 113.45 157.513 114.488C157.513 115.699 159.07 116.132 161.406 117.228C164.809 118.843 166.943 120.573 166.943 123.716C166.943 127.436 163.886 129.83 159.503 129.83C156.187 129.83 153.706 128.446 152.322 125.908Z" fill="#555"/>
<path d="M46.1404 139.288V161.349H42.6798V152.035H33.1344V161.349H29.6738V139.288H33.1344V148.603H42.6798V139.288H46.1404Z" fill="#555"/>
<path d="M54.9355 150.362C54.9355 144.075 60.0399 138.913 66.3266 138.913C72.5845 138.913 77.7465 144.046 77.7465 150.362C77.7465 156.591 72.6133 161.724 66.3266 161.724C60.0687 161.724 54.9355 156.591 54.9355 150.362ZM74.2571 150.333C74.2571 145.978 70.6812 142.402 66.3266 142.402C61.9721 142.402 58.425 145.95 58.425 150.333C58.425 154.659 61.9721 158.206 66.3266 158.206C70.6812 158.206 74.2571 154.659 74.2571 150.333Z" fill="#555"/>
<path d="M99.2896 142.748H93.3778V161.378H89.8884V142.748H83.9766V139.316H99.2896V142.748Z" fill="#555"/>
<path d="M111.113 142.72V148.372H119.447V151.833H111.113V157.946H120.803V161.407H107.652V139.346H120.803V142.749H111.113V142.72Z" fill="#555"/>
<path d="M143.326 157.917V161.378H130.031V139.316H133.492V157.917H143.326Z" fill="#555"/>
</svg>
