<svg width="19" height="25" viewBox="0 0 19 25" fill="none" xmlns="http://www.w3.org/2000/svg">
<g clip-path="url(#clip0_1502_3690)">
<path d="M17.8731 14.6437H16.9822V5.51225C16.9822 4.89978 16.4811 4.39866 15.8686 4.39866H8.40757V1.11359C8.40757 0.501113 7.90646 0 7.29399 0H3.11804C2.50557 0 2.00445 0.501113 2.00445 1.11359V4.39866H1.11359C0.501114 4.39866 0 4.89978 0 5.51225V9.29844C0 9.91091 0.501114 10.412 1.11359 10.412H2.00445V19.5434C2.00445 20.1559 2.50557 20.657 3.11804 20.657H10.5791V23.9421C10.5791 24.5546 11.0802 25.0557 11.6926 25.0557H15.9243C16.5367 25.0557 17.0379 24.5546 17.0379 23.9421V20.657H17.9287C18.5412 20.657 19.0423 20.1559 19.0423 19.5434V15.7572C18.9866 15.1448 18.4855 14.6437 17.8731 14.6437ZM1.11359 5.51225H3.11804V1.11359H7.34967V5.51225H15.9243V15.7572H17.9287V19.5434H15.9243V23.9421H11.6926V19.5434H11.4143H3.11804V9.24276H1.11359V5.51225Z" fill="#7A7A7A"/>
<path d="M11.6926 9.2428H7.29395V15.7573H11.6926V9.2428ZM8.40753 10.3564H10.579V14.6437H8.40753V10.3564Z" fill="#7A7A7A"/>
</g>
<defs>
<clipPath id="clip0_1502_3690">
<rect width="18.9866" height="25" fill="white"/>
</clipPath>
</defs>
</svg>
