<svg width="228" height="52" viewBox="0 0 228 52" fill="none" xmlns="http://www.w3.org/2000/svg">
<path d="M227.589 46.6438H53.4536C53.248 46.6438 52.8368 46.4383 52.8368 46.2329C52.8368 46.0274 53.0424 45.8219 53.4536 45.8219H227.589C227.794 45.8219 228.206 46.0274 228.206 46.2329C228.206 46.4383 227.794 46.6438 227.589 46.6438Z" fill="#2D2D2D"/>
<path d="M53.248 18.2877H56.5374V32.8767H61.6772V36.1644H53.4536V18.2877H53.248Z" fill="#2D2D2D"/>
<path d="M63.1163 21.1644H65.9946V30.8219C65.9946 31.6438 65.9946 32.2603 66.2002 32.6712C66.4058 33.0822 66.6114 33.2877 66.817 33.4931C67.2281 33.6986 67.6393 33.9041 68.0505 33.9041C68.4617 33.9041 68.8729 33.6986 69.284 33.4931C69.6952 33.2877 69.9008 32.8767 70.1064 32.6712C70.312 32.2603 70.312 31.6438 70.312 30.6164V21.3698H73.1903V30.2055C73.1903 31.6438 73.1903 32.6712 72.9847 33.2877C72.7791 33.9041 72.5735 34.5205 71.9567 34.9315C71.5455 35.5479 70.9288 35.9589 70.312 36.1644C69.6952 36.3698 69.0785 36.5753 68.2561 36.5753C67.2281 36.5753 66.2002 36.3698 65.3778 35.7534C64.5555 35.3424 63.9387 34.726 63.7331 33.9041C63.3219 33.0822 63.3219 31.8493 63.3219 30.2055V21.1644H63.1163Z" fill="#2D2D2D"/>
<path d="M75.8629 21.1644H78.7412V26.3014L82.853 21.1644H86.1425L81.0027 27.7397L86.7592 35.9589H83.4698L78.9468 29.3835V35.9589H76.0685V21.1644H75.8629Z" fill="#2D2D2D"/>
<path d="M96.0108 23.2192L93.9549 25.0685C93.1326 24.0411 92.5158 23.6301 91.6934 23.6301C91.2822 23.6301 91.0766 23.6301 90.8711 23.8356C90.4599 24.0411 90.4599 24.2466 90.4599 24.452C90.4599 24.6575 90.4599 24.863 90.6655 25.0685C90.8711 25.274 91.4878 26.0959 92.7214 26.9178C93.7493 27.7397 94.3661 28.3562 94.7773 28.5616C95.394 29.1781 95.8052 29.589 96.0108 30.2055C96.2164 30.8219 96.422 31.2329 96.422 31.8493C96.422 33.0822 96.0108 34.1096 95.1885 34.9315C94.3661 35.7534 93.3381 36.1644 91.899 36.1644C90.8711 36.1644 89.8431 35.9589 89.2263 35.3425C88.404 34.726 87.7872 34.1096 87.1704 32.8767L89.6375 31.4384C90.2543 32.6712 91.0766 33.4931 92.1046 33.4931C92.5158 33.4931 92.927 33.2877 93.3381 33.0822C93.7493 32.8767 93.7493 32.4657 93.7493 32.0548C93.7493 31.6438 93.5437 31.4384 93.3381 31.0274C93.1326 30.6164 92.5158 30.2055 91.6934 29.589C90.0487 28.3562 89.0207 27.3288 88.6096 26.5068C88.1984 25.8904 87.9928 25.0685 87.9928 24.452C87.9928 23.4246 88.404 22.6027 89.2263 21.7808C90.0487 20.9589 91.0766 20.7534 92.1046 20.7534C92.927 20.7534 93.5437 20.9589 94.1605 21.1644C94.5717 21.5753 95.1885 22.1918 96.0108 23.2192Z" fill="#2D2D2D"/>
<path d="M105.057 18.2877H108.346V32.8767H113.28V36.1644H105.057V18.2877Z" fill="#2D2D2D"/>
<path d="M121.915 20.7534C123.971 20.7534 125.821 21.5753 127.261 23.0137C128.7 24.452 129.522 26.3014 129.522 28.5616C129.522 30.8219 128.7 32.4657 127.261 34.1096C125.821 35.5479 123.971 36.3699 121.915 36.3699C119.654 36.3699 117.803 35.5479 116.364 34.1096C114.925 32.6712 114.103 30.8219 114.103 28.5616C114.103 27.1233 114.514 25.8904 115.131 24.6575C115.748 23.4247 116.775 22.6027 118.009 21.7808C119.243 21.1644 120.682 20.7534 121.915 20.7534ZM121.915 23.6301C120.476 23.6301 119.448 24.0411 118.42 25.0685C117.392 26.0959 116.981 27.3288 116.981 28.7671C116.981 30.411 117.598 31.6438 118.831 32.6712C119.654 33.4931 120.887 33.6986 121.915 33.6986C123.149 33.6986 124.382 33.2877 125.41 32.2603C126.438 31.2329 126.849 30.2055 126.849 28.7671C126.849 27.3288 126.438 26.0959 125.41 25.274C124.382 24.0411 123.354 23.6301 121.915 23.6301Z" fill="#2D2D2D"/>
<path d="M131.784 21.1644H139.185V23.8356H134.662V26.5068H139.185V29.1781H134.662V35.7534H131.784V21.1644Z" fill="#2D2D2D"/>
<path d="M139.802 21.1644H148.025V24.0411H145.353V36.1644H142.474V24.0411H139.802V21.1644Z" fill="#2D2D2D"/>
<path d="M157.071 23.2192L155.015 25.0685C154.193 24.0411 153.576 23.6301 152.754 23.6301C152.343 23.6301 152.137 23.6301 151.931 23.8356C151.726 24.0411 151.52 24.2466 151.52 24.452C151.52 24.6575 151.52 24.863 151.726 25.0685C151.931 25.274 152.548 26.0959 153.782 26.9178C154.81 27.7397 155.427 28.3562 155.838 28.5616C156.454 29.1781 156.866 29.589 157.071 30.2055C157.277 30.8219 157.482 31.2329 157.482 31.8493C157.482 33.0822 157.071 34.1096 156.249 34.9315C155.427 35.7534 154.399 36.1644 152.959 36.1644C151.931 36.1644 150.904 35.9589 150.287 35.3425C149.464 34.726 148.848 34.1096 148.231 32.8767L150.698 31.4384C151.315 32.6712 152.137 33.4931 153.165 33.4931C153.576 33.4931 153.987 33.2877 154.399 33.0822C154.81 32.8767 154.81 32.4657 154.81 32.0548C154.81 31.6438 154.604 31.4384 154.399 31.0274C154.193 30.6164 153.576 30.2055 152.754 29.589C151.109 28.3562 150.081 27.3288 149.67 26.5068C149.259 25.8904 149.053 25.0685 149.053 24.452C149.053 23.4246 149.464 22.6027 150.287 21.7808C151.109 20.9589 152.137 20.7534 153.165 20.7534C153.987 20.7534 154.604 20.9589 155.221 21.1644C155.632 21.5753 156.249 22.1918 157.071 23.2192Z" fill="#2D2D2D"/>
<path d="M166.117 18.2877H169.612V25.0685H175.574V18.2877H178.864V35.9589H175.369V28.1507H169.407V35.9589H165.912V18.2877H166.117Z" fill="#2D2D2D"/>
<path d="M188.938 20.7534C190.994 20.7534 192.844 21.5753 194.283 23.0137C195.722 24.452 196.545 26.3014 196.545 28.5616C196.545 30.8219 195.722 32.4657 194.283 34.1096C192.844 35.5479 190.994 36.3699 188.938 36.3699C186.676 36.3699 184.826 35.5479 183.387 34.1096C181.948 32.6712 181.125 30.8219 181.125 28.5616C181.125 27.1233 181.537 25.8904 182.153 24.6575C182.77 23.4247 183.798 22.6027 185.032 21.7808C186.265 21.1644 187.704 20.7534 188.938 20.7534ZM188.938 23.6301C187.499 23.6301 186.471 24.0411 185.443 25.0685C184.415 26.0959 184.004 27.3288 184.004 28.7671C184.004 30.411 184.62 31.6438 185.854 32.6712C186.676 33.4931 187.91 33.6986 188.938 33.6986C190.377 33.6986 191.405 33.2877 192.433 32.2603C193.461 31.2329 193.872 30.2055 193.872 28.7671C193.872 27.3288 193.461 26.0959 192.433 25.274C191.405 24.0411 190.377 23.6301 188.938 23.6301Z" fill="#2D2D2D"/>
<path d="M197.367 21.1644H205.591V24.0411H202.918V36.1644H200.04V24.0411H197.367V21.1644Z" fill="#2D2D2D"/>
<path d="M207.03 21.1644H215.048V23.8356H209.702V26.5068H215.048V29.1781H209.702V33.0822H215.048V35.7534H207.03V21.1644Z" fill="#2D2D2D"/>
<path d="M217.104 21.1644H219.982V33.2877H224.094V35.9589H217.104V21.1644Z" fill="#2D2D2D"/>
<path d="M4.80808 40.5808C4.80808 41.2927 5.34232 41.8267 6.05465 41.8267H37.7533C38.4656 41.8267 38.9999 41.2927 38.9999 40.5808V32.5714C38.9999 31.8595 38.4656 31.3255 37.7533 31.3255H16.2053V1.06792C16.2053 0.533958 15.6711 0 15.1368 0H6.05465C5.34232 0 4.80808 0.533958 4.80808 1.2459V40.5808Z" fill="#CC3533"/>
<path d="M34.0137 11.2131C34.0137 10.5012 33.4795 9.96722 32.7671 9.96722H1.24658C0.534247 10.1452 0 10.6792 0 11.2131V19.2225C0 19.9344 0.534247 20.4684 1.24658 20.4684H22.7945V50.726C22.7945 51.4379 23.3288 51.9719 24.0411 51.9719H33.1233C33.8356 51.9719 34.3699 51.4379 34.3699 50.726V11.2131H34.0137Z" fill="#333333"/>
<path d="M34.726 10.5012C34.726 9.78921 34.1917 9.25525 33.4794 9.25525H1.78076C1.06843 9.25525 0.534184 9.78921 0.534184 10.5012V18.5105C0.534184 19.2225 1.06843 19.7564 1.78076 19.7564H23.3287V50.014C23.3287 50.726 23.863 51.2599 24.5753 51.2599H33.6575C34.3698 51.2599 34.904 50.726 34.904 50.014V10.5012H34.726Z" fill="#CC3533"/>
</svg>
