<svg width="115" height="116" viewBox="0 0 115 116" fill="none" xmlns="http://www.w3.org/2000/svg">
<path d="M57.4538 114.46C88.42 114.46 113.523 89.3564 113.523 58.3901C113.523 27.4239 88.42 2.32082 57.4538 2.32082C26.4875 2.32082 1.3844 27.4239 1.3844 58.3901C1.3844 89.3564 26.4875 114.46 57.4538 114.46Z" fill="white"/>
<path d="M57.4538 115.844C25.6119 115.844 0 89.8859 0 58.3901C0 26.8944 25.958 0.93631 57.4538 0.93631C88.9495 0.93631 114.908 26.8944 114.908 58.3901C114.908 89.8859 89.2956 115.844 57.4538 115.844ZM57.4538 3.70523C27.3425 3.70523 2.76886 28.2788 2.76886 58.3901C2.76886 88.5014 27.3425 113.075 57.4538 113.075C87.5651 113.075 112.139 88.5014 112.139 58.3901C112.139 28.2788 87.9112 3.70523 57.4538 3.70523Z" fill="#D4AF35"/>
<path d="M57.7999 98.1924C79.9733 98.1924 97.9483 80.2173 97.9483 58.044C97.9483 35.8706 79.9733 17.8956 57.7999 17.8956C35.6266 17.8956 17.6515 35.8706 17.6515 58.044C17.6515 80.2173 35.6266 98.1924 57.7999 98.1924Z" fill="#D4AF35"/>
<path d="M27.6405 74.7215C27.2811 74.5409 26.9217 74.5409 26.7421 74.7215C26.5624 74.902 26.203 75.0826 26.203 75.4438C26.0233 76.3468 26.5624 77.4303 27.1014 78.1527C27.8202 79.2362 28.7187 80.3197 29.9765 80.8615C31.2344 81.2227 47.7662 83.3898 47.7662 83.3898C47.7662 83.3898 49.3834 83.751 49.2037 82.848C49.024 82.3063 49.024 82.1257 48.4849 81.5839C47.9458 81.0421 34.6486 76.8885 27.6405 74.7215Z" fill="white"/>
<path d="M26.3828 65.1502C25.3046 64.4278 23.328 64.2472 22.4295 65.3308C21.3514 66.4143 21.7108 68.5814 22.6092 69.8455C23.8671 71.832 26.9219 72.1932 28.7188 72.735C37.1644 75.805 45.4303 79.2362 46.3287 79.0556C46.3287 79.0556 47.7663 78.875 47.5866 77.9721C47.4069 77.4303 47.5866 77.0691 46.8678 76.7079C45.4303 76.1662 32.6721 68.5814 26.3828 65.1502Z" fill="white"/>
<path d="M26.5624 51.9671C26.5624 51.9671 24.2264 49.6194 22.7889 50.3418C19.3747 52.5089 20.9919 58.2877 24.2264 60.6354C31.2344 65.6919 40.3988 70.929 46.5084 74.902C47.0474 75.2632 48.1256 74.7214 47.9459 73.8185C47.7662 73.2767 47.5865 72.9155 47.0474 72.3738C46.3287 71.6514 31.4141 56.843 26.5624 51.9671Z" fill="white"/>
<path d="M31.5937 38.784C31.5937 38.784 29.4374 35.1722 26.9217 36.7975C23.8669 39.3258 24.7654 45.2853 27.1014 47.9941C32.6719 54.4954 40.219 62.8025 46.3286 69.6649C46.688 70.0261 47.9458 71.1096 49.024 70.2067C49.7427 69.6649 49.2037 68.0396 48.8443 67.4978C48.4849 66.9561 35.547 44.3823 31.5937 38.784Z" fill="white"/>
<path d="M42.7348 30.2963C42.7348 30.2963 40.9379 24.5174 36.9846 26.1427C33.3908 27.5874 31.5938 32.4634 33.5704 36.0752C37.5237 43.2988 45.4302 59.7325 49.2038 65.6919C49.5631 66.2337 49.9225 67.6784 52.0788 66.5949C53.157 66.2337 53.157 64.789 52.7976 63.886C52.2585 63.1637 44.8911 36.617 42.7348 30.2963Z" fill="white"/>
<path d="M56.7508 26.1428C56.7508 26.1428 55.8524 19.2803 49.7428 20.9057C45.0708 22.1698 44.7114 27.2263 45.2505 29.7546C47.2271 38.6035 51.36 54.676 53.5164 63.1637C53.6961 64.2472 55.493 65.1502 56.3915 64.789C57.6493 64.2472 57.6493 63.3443 57.6493 62.4414C57.1102 50.1612 56.9305 32.4634 56.7508 26.1428Z" fill="white"/>
<path d="M88.5565 74.5409C88.9159 74.3603 89.2753 74.3603 89.455 74.5409C89.6346 74.7214 89.994 74.902 89.994 75.2632C90.1737 76.1662 89.6347 77.2497 89.0956 77.9721C88.3768 79.0556 87.4783 80.1391 86.2205 80.6809C84.9626 81.0421 68.4309 83.2092 68.4309 83.2092C68.4309 83.2092 66.8136 83.5703 66.9933 82.6674C67.173 82.1256 67.173 81.945 67.7121 81.4033C68.2512 80.8615 81.7281 76.8885 88.5565 74.5409Z" fill="white"/>
<path d="M89.8144 64.9696C90.8926 64.2472 92.8692 64.0667 93.7677 65.1502C94.8458 66.2337 94.4865 68.4008 93.588 69.665C92.3301 71.6514 89.2753 72.0126 87.4784 72.5544C79.0328 75.6244 70.767 79.0556 69.8685 78.875C69.8685 78.875 68.4309 78.6945 68.6106 77.7915C68.7903 77.2497 68.6106 76.8885 69.3294 76.5274C70.9467 75.9856 83.7049 68.5814 89.8144 64.9696Z" fill="white"/>
<path d="M89.8143 51.7865C89.8143 51.7865 92.1504 49.4388 93.5879 50.1612C97.0021 52.3283 95.3848 58.1072 92.1504 60.4548C85.1423 65.5113 75.978 70.7484 69.8684 74.7214C69.3293 75.0826 68.2512 74.5408 68.4309 73.6379C68.6105 73.0961 68.7902 72.7349 69.3293 72.1932C70.0481 71.4708 84.9626 56.6624 89.8143 51.7865Z" fill="white"/>
<path d="M84.7829 38.9646C84.7829 38.9646 86.9393 35.3528 89.455 36.9781C92.5097 39.5064 91.6113 45.4658 89.2753 48.1747C83.7048 54.6759 76.1577 62.9831 70.0481 69.8455C69.6887 70.2067 68.4309 71.2902 67.3527 70.3873C66.6339 69.8455 67.173 68.2202 67.5324 67.6784C67.8918 67.3172 80.8297 44.5629 84.7829 38.9646Z" fill="white"/>
<path d="M73.642 30.4769C73.642 30.4769 75.4389 24.698 79.3922 26.3233C82.9861 27.7681 84.783 32.644 82.8064 36.2558C78.8531 43.4794 70.9466 59.9131 67.1731 65.8725C66.8137 66.4143 66.4543 67.859 64.298 66.7755C63.2198 66.4143 63.2198 64.9696 63.5792 64.0666C64.1183 63.3443 71.4857 36.7976 73.642 30.4769Z" fill="white"/>
<path d="M59.626 26.1428C59.626 26.1428 60.5245 19.2803 66.634 20.9057C71.3061 22.1698 71.6655 27.2263 71.1264 29.7546C69.1497 38.6035 65.0168 54.676 62.8605 63.1637C62.6808 64.2472 60.8839 65.1502 59.9854 64.789C58.7275 64.2472 58.7275 63.3443 58.7275 62.4414C59.2666 50.3418 59.4463 32.644 59.626 26.1428Z" fill="white"/>
<path d="M58.1884 80.8615C60.9672 80.8615 63.2198 78.5976 63.2198 75.805C63.2198 73.0124 60.9672 70.7485 58.1884 70.7485C55.4096 70.7485 53.157 73.0124 53.157 75.805C53.157 78.5976 55.4096 80.8615 58.1884 80.8615Z" fill="white"/>
<path d="M30.8751 83.2092C30.8751 83.2092 32.133 83.5703 35.7268 84.2927C39.3207 85.0151 49.0241 85.1957 55.4931 87.3627C56.5712 87.7239 57.4697 88.2657 58.1885 89.3492C58.1885 89.3492 58.7276 88.0851 61.2433 87.3627C68.0716 85.1957 75.7984 85.3762 82.9861 84.1121C83.7049 83.9315 85.3221 83.3897 85.3221 83.3897C85.3221 83.3897 75.6187 95.4893 58.3682 95.4893C40.7582 95.3087 30.8751 83.2092 30.8751 83.2092Z" fill="white"/>
<path d="M10.8124 64.1874C8.65265 64.7274 7.21285 66.5271 7.93275 69.4067C8.11273 69.9467 8.2927 71.0265 8.47268 71.3865C8.65265 71.9264 8.83263 73.0062 9.01261 73.5462H9.19258L9.37256 73.3662C9.19258 72.4663 9.55253 72.1064 10.0925 72.1064L15.1318 71.0265C15.6717 70.8465 16.0317 71.0265 16.3916 71.9264H16.5716L16.7516 71.7464C16.5716 71.2065 16.3916 70.1266 16.2116 69.5867C16.0317 69.0468 15.8517 67.9669 15.8517 67.427C14.9518 64.5474 12.7921 63.6475 10.8124 64.1874ZM11.1723 65.8072C13.152 65.2673 14.7718 65.9872 15.1318 67.787L15.3118 68.5069C15.3118 68.8668 15.3118 69.2268 14.7718 69.2268L9.37256 70.4866C8.83263 70.6666 8.65265 70.3066 8.65265 69.9467L8.2927 69.4067C7.93275 67.607 9.19258 66.3472 11.1723 65.8072Z" fill="#010101"/>
<path d="M12.2522 55.5486C12.2522 55.5486 12.0722 55.7286 12.0722 55.9086V56.0885C13.1521 56.4485 14.0519 57.3484 14.0519 58.4282V59.3281C14.0519 59.6881 13.872 60.048 13.332 60.048H10.6324V59.1481C10.6324 58.4282 10.9924 58.0683 11.8922 57.8883V57.7083C11.8922 57.5283 11.8922 57.5283 11.7123 57.5283C11.1723 57.5283 10.8124 57.5283 10.2725 57.7083C9.73253 57.7083 9.37258 57.7083 8.83265 57.7083V57.8883C8.83265 57.8883 8.83265 58.0683 9.01262 58.0683C9.9125 58.0683 10.2725 58.6082 10.2725 59.1481V60.048H7.75279C7.21287 60.048 7.03289 59.6881 7.03289 59.3281V58.4282C7.03289 57.5283 7.57282 56.6285 8.65267 56.4485C8.65267 56.4485 8.65267 56.4485 8.65267 56.2685C8.65267 56.0885 8.65267 55.9086 8.4727 56.0885C7.75279 56.2685 7.03289 56.2685 6.31299 56.4485C6.31299 57.1684 6.49296 58.9681 6.49296 59.688C6.49296 60.4079 6.49296 62.2077 6.49296 62.9276H6.67294C6.85292 62.9276 6.85292 62.9276 6.85292 62.7476C6.85292 61.8477 7.21287 61.6678 7.75279 61.4878L12.9721 61.3078C13.512 61.3078 13.872 61.4878 14.0519 62.3877H14.2319C14.4119 62.3877 14.4119 62.3877 14.4119 62.2077C14.4119 61.4878 14.2319 59.5081 14.2319 58.7882C14.2319 58.0683 14.2319 56.2685 14.2319 55.5486C13.692 55.9086 12.7921 55.7286 12.2522 55.5486Z" fill="#010101"/>
<path d="M9.91246 47.4497C8.47265 47.2697 7.3928 47.9896 7.03285 50.3293C6.85287 51.0492 6.85287 51.4091 6.85287 52.129C6.6729 52.8489 6.6729 53.3889 6.49292 54.1088L6.6729 54.2887C6.85287 54.2887 6.85287 54.2887 6.85287 54.2887C7.03285 53.3889 7.3928 53.2089 7.93273 53.2089L13.152 53.9288C13.6919 53.9288 14.0519 54.2887 13.8719 55.1886L14.0519 55.3686C14.2319 55.3686 14.2319 55.3686 14.2319 55.3686C14.4119 54.6487 14.4119 54.1088 14.4119 53.3889C14.5918 52.669 14.5918 52.129 14.7718 51.4091L14.5918 51.2292H14.4119C14.2319 52.129 13.8719 52.309 13.332 52.309L11.5322 52.129C11.8922 51.4091 11.8922 51.2292 11.8922 50.6892C12.2521 48.8895 11.3523 47.6296 9.91246 47.4497ZM9.73248 49.2494C10.9923 49.4294 11.7122 49.9693 11.5322 51.2292C11.5322 51.5891 11.3523 51.9491 10.9923 51.7691L8.29268 51.4091C7.75275 51.4091 7.57277 51.2292 7.57277 50.3293C7.75275 49.6094 8.29268 49.0694 9.73248 49.2494Z" fill="#010101"/>
<path d="M17.6513 40.6106H17.4714C17.1114 41.3305 16.7515 41.5105 16.0315 41.6905L9.0125 42.0504L8.83252 42.2304C8.83252 42.4104 8.83252 42.4104 8.83252 42.4104L14.2318 47.0897C14.7717 47.6297 15.1317 47.9896 14.9517 48.7095C14.9517 48.7095 14.9517 48.8895 15.1317 48.8895H15.3116C15.4916 48.3496 15.4916 48.1696 15.6716 47.6297C15.8516 47.0897 16.0315 46.9098 16.2115 46.1899C16.2115 46.1899 16.2115 46.0099 16.0315 46.0099H15.8516C15.6716 46.7298 15.3116 46.7298 15.1317 46.7298C14.9517 46.7298 14.7717 46.5498 14.5917 46.3698L13.5119 45.6499L14.2318 43.3103H15.6716C15.8516 43.3103 16.0315 43.3103 16.2115 43.3103C16.5715 43.3103 16.5715 43.6702 16.3915 44.3901L16.5715 44.5701H16.7514C16.9314 43.8502 17.1114 43.3103 17.2914 42.5903C17.4714 41.8704 17.6513 41.5105 17.6513 40.6106C17.8313 40.6106 17.8313 40.6106 17.6513 40.6106ZM13.6919 43.3103L13.1519 45.29L10.8123 43.4902L13.6919 43.3103Z" fill="#010101"/>
<path d="M21.7909 33.0516H21.6109C21.071 33.7716 20.711 33.9515 20.1711 33.9515L16.9316 34.1315C17.1115 33.0517 16.9316 32.1518 16.0317 31.6119C14.9518 31.0719 13.692 31.4319 12.7921 33.4116C12.4322 34.1315 12.2522 34.4915 11.8922 35.0314C11.5323 35.5713 11.1723 36.1112 10.8124 36.8311C10.8124 36.8311 10.8124 37.0111 10.9924 37.0111H11.1723C11.7123 36.2912 12.0722 36.1112 12.6121 36.4712L17.1115 38.9909C17.6515 39.3508 17.8314 39.5308 17.4715 40.4307C17.4715 40.4307 17.4715 40.6106 17.6515 40.6106H17.8314C18.1914 39.8907 18.3714 39.5308 18.7313 38.8109C19.0913 38.271 19.2712 37.731 19.6312 37.1911C19.6312 37.1911 19.6312 37.0111 19.4512 37.0111H19.2712C18.7313 37.911 18.3714 37.731 17.8314 37.551L16.2116 36.2912C16.5716 35.7513 16.7516 35.5713 17.4715 35.5713H20.711C20.891 35.2114 21.071 34.6714 21.251 34.4915C21.4309 34.3115 21.7909 33.5916 21.9709 33.2316C21.9709 33.2316 21.9709 33.0516 21.7909 33.0516ZM15.3118 33.2316C16.3916 33.7716 16.5716 34.4915 16.0317 35.5713C15.8517 35.7513 15.8517 35.9313 15.6717 36.1112L13.332 34.8514C12.7921 34.6714 12.6121 34.4915 12.9721 33.5916C13.692 32.8717 14.4119 32.8717 15.3118 33.2316Z" fill="#010101"/>
<path d="M22.3308 23.8729C21.6109 23.5129 20.891 22.973 20.351 22.6131C20.1711 22.973 19.4512 24.0529 18.0114 25.6726C16.7515 27.2924 15.8517 28.1923 15.4917 28.5522C16.0316 29.0922 16.5716 29.8121 17.1115 30.532C17.1115 30.532 17.2915 30.532 17.2915 30.352V30.172C16.7515 29.2721 16.7515 28.0123 17.2915 27.2924L17.4714 27.1124C17.6514 26.7525 17.8314 26.7525 18.1913 26.9325L22.5108 30.532C23.0507 30.8919 23.0507 31.2519 22.5108 31.9718C22.5108 31.9718 22.5108 32.1518 22.6907 32.1518C22.6907 32.1518 22.8707 32.3317 22.8707 32.1518C23.4106 31.6118 23.5906 31.0719 24.1305 30.532C24.4905 29.9921 25.0304 29.6321 25.3904 29.0922C25.3904 29.0922 25.3904 28.9122 25.2104 28.9122H25.0304C24.4905 29.4521 24.1305 29.4521 23.7706 29.0922L19.4512 25.4927C19.2712 25.3127 19.2712 25.1327 19.4512 24.7728L19.6311 24.4128C20.1711 23.6929 21.2509 23.6929 22.3308 24.0528C22.3308 24.0528 22.5108 24.0529 22.5108 23.8729C22.5108 24.0529 22.5108 23.8729 22.3308 23.8729Z" fill="#010101"/>
<path d="M35.2891 20.2733L35.1091 20.0934C34.2092 20.6333 34.0292 20.4533 33.6693 20.0934L30.2497 16.1339C29.8898 15.594 29.8898 15.414 30.4297 14.6941V14.5141L30.2497 14.3342C29.8898 14.6941 29.5298 14.8741 29.1699 15.234C28.8099 15.414 28.45 15.774 28.09 16.1339L29.8898 22.0731L24.4905 19.0135C24.1306 19.3735 23.7706 19.7334 23.4107 19.9134C23.2307 20.0934 22.6908 20.4533 22.3308 20.6333V20.8133L22.5108 20.9932C23.4107 20.4533 23.7706 20.4533 23.9506 20.9932L26.8302 25.3127C27.1902 25.8526 27.1902 26.2125 26.4703 26.9325V27.1124L26.6502 27.2924C27.0102 26.9324 27.3701 26.5725 27.7301 26.3925C28.09 26.0326 28.45 25.8526 28.9899 25.4926V25.3127L28.8099 25.1327C27.9101 25.6726 27.7301 25.6726 27.3701 25.1327L24.4905 20.9932L30.4297 24.4128H30.6097C30.7897 24.4128 30.7897 24.2328 30.7897 24.2328L28.63 17.3937L32.0495 21.3532C32.4094 21.8931 32.4095 22.0731 31.8695 22.793V22.973L32.0495 23.153C32.5894 22.613 32.9494 22.2531 33.4893 21.8931C34.0292 21.5332 34.5692 21.1732 35.1091 20.6333C35.2891 20.4533 35.2891 20.4533 35.2891 20.2733Z" fill="#010101"/>
<path d="M41.2282 15.234C41.2282 15.234 41.0483 15.234 40.8683 15.234C40.8683 15.234 40.6883 15.234 40.6883 15.414C40.8683 16.4939 40.3284 17.7537 39.4285 18.1137L38.5286 18.4736C38.3486 18.6536 37.8087 18.6536 37.6287 18.1137L36.5489 15.774L37.4487 15.414C37.9887 15.0541 38.5286 15.234 39.0685 15.9539H39.2485L39.4285 15.774C39.2485 15.234 38.8885 15.0541 38.7086 14.5141C38.5286 13.9742 38.3486 13.6143 38.1686 13.0743H37.9887L37.8087 13.2543C38.1686 14.1542 37.8087 14.5141 37.2688 14.8741L36.3689 15.234L35.289 13.2543C35.1091 12.7144 35.289 12.5344 35.649 12.3544L36.5489 11.9945C37.4487 11.6345 38.3486 11.8145 39.0685 12.7144H39.2485C39.4285 12.7144 39.4285 12.5344 39.4285 12.5344C39.0685 11.9945 38.5286 11.2746 38.3486 10.7346C37.6287 11.0946 36.1889 11.8145 35.469 12.1744C34.7491 12.5344 33.1293 13.2543 32.4094 13.6143V13.7942L32.5894 13.9742C33.4893 13.6143 33.8492 13.7942 34.0292 14.3342L36.3689 19.0135C36.5489 19.5535 36.5489 19.9134 35.829 20.4533V20.6333L36.0089 20.8133C36.7288 20.4533 38.3486 19.5535 39.0685 19.1935C39.7884 18.8336 41.4082 18.1136 42.1281 17.7537C41.5882 16.8538 41.4082 15.9539 41.2282 15.234Z" fill="#010101"/>
<path d="M49.6871 7.13515C49.6871 6.95517 49.6871 6.95516 49.5072 6.95516C48.9672 7.13514 48.6073 7.31512 48.0674 7.49509C47.5274 7.67507 47.1675 7.67506 46.6276 7.85504V8.03503C46.6276 8.03503 46.6276 8.215 46.8075 8.215C47.7074 8.03502 48.0674 8.21499 48.2473 8.75492L49.3272 12.8944L42.8481 8.75492C42.3081 8.93489 42.1282 8.9349 41.7682 9.11488C41.4083 9.11488 41.0483 9.29485 40.6884 9.29485V9.47482C40.6884 9.47482 40.6884 9.6548 40.8683 9.6548C41.9482 9.47482 42.1282 9.83478 42.3081 10.3747L43.388 15.2341C43.568 15.774 43.388 16.1339 42.4881 16.4939V16.6739C42.4881 16.8538 42.6681 16.8538 42.6681 16.8538C43.208 16.6739 43.568 16.4939 44.1079 16.4939C44.6478 16.3139 45.0078 16.3139 45.7277 16.1339V15.9539C45.7277 15.9539 45.7277 15.774 45.5477 15.774C44.6478 15.954 44.2879 15.774 44.1079 15.2341L43.028 10.7347L50.2271 15.2341C50.2271 15.2341 50.407 15.2341 50.587 15.2341C50.767 15.2341 50.767 15.0541 50.767 15.0541L49.1472 8.57495C48.9672 8.03502 49.1472 7.67507 50.0471 7.31512C49.6871 7.4951 49.6871 7.31512 49.6871 7.13515Z" fill="#010101"/>
<path d="M59.4058 8.75491C59.2259 8.035 59.0459 7.13513 59.0459 6.41523C58.6859 6.59521 57.4261 6.5952 55.2664 6.77518C53.1067 6.95515 52.0268 6.95515 51.4869 6.77518C51.4869 7.49508 51.3069 8.39496 51.127 9.11487L51.3069 9.29484H51.4869C51.6669 8.39496 52.7467 7.31511 53.6466 7.31511H53.8266C54.1865 7.31511 54.3665 7.3151 54.3665 7.67505L54.7265 13.2543C54.7265 13.7942 54.5465 14.1542 53.6466 14.3342V14.5141C53.6466 14.6941 53.6466 14.6941 53.8266 14.6941C54.5465 14.6941 55.0864 14.5141 55.8063 14.5141C56.5262 14.5141 57.0662 14.5141 57.7861 14.5141V14.3342C57.7861 14.3342 57.7861 14.1542 57.6061 14.1542C56.5262 14.1542 56.5262 13.7942 56.3463 13.2543L55.9863 7.49508C55.9863 7.13513 56.1663 6.95515 56.5262 6.95515H56.8862C57.7861 6.95515 58.6859 7.67505 59.0459 8.57493H59.2259C59.2259 8.75491 59.4058 8.75491 59.4058 8.75491Z" fill="#010101"/>
<path d="M72.364 12.7144C72.9039 10.5547 71.6441 8.21498 68.9444 7.67506C66.2448 7.13513 64.2651 8.57494 63.7251 10.9146C63.1852 13.0743 64.445 15.234 67.1447 15.9539C70.0243 16.3139 72.004 14.8741 72.364 12.7144ZM70.7442 12.3544C70.2043 14.5141 69.1244 15.774 67.5046 15.414C65.8849 15.0541 65.3449 13.4343 65.8849 11.2746C66.4248 9.29484 67.5046 7.85504 69.1244 8.21499C70.7442 8.57494 71.1041 10.1947 70.7442 12.3544Z" fill="#010101"/>
<path d="M80.6429 14.1542C80.8228 13.4343 81.0028 12.7144 81.1828 11.9945C80.4629 11.8145 78.8431 11.0946 78.1232 10.7346C77.4033 10.3747 75.7835 9.65477 75.0636 9.29482C75.0636 9.29482 74.8836 9.29482 74.8836 9.4748V9.65477C75.7835 10.1947 75.7835 10.3747 75.6035 10.9146L73.6238 15.7739C73.4438 16.3139 73.0839 16.4939 72.184 16.1339C72.184 16.1339 72.004 16.1339 72.004 16.3139V16.4939C72.7239 16.8538 73.2639 17.0338 73.8038 17.2138C74.5237 17.5737 74.8836 17.7537 75.6035 18.1136C75.6035 18.1136 75.7835 18.1136 75.7835 17.9337V17.7537C74.8836 17.2137 74.8836 17.0338 75.0636 16.3139L75.9635 14.1542L76.8634 14.5141C77.5833 14.8741 77.7633 15.234 77.4033 16.1339C77.4033 16.1339 77.4033 16.3139 77.5833 16.3139H77.7632C77.9432 15.774 78.1232 15.414 78.3032 14.8741C78.4832 14.3341 78.6631 13.9742 79.0231 13.6142C79.0231 13.6142 79.0231 13.4343 78.8431 13.4343H78.6631C78.1232 14.1542 77.7633 14.3341 77.0433 14.1542L76.1435 13.7942L77.0433 11.4545C77.2233 10.9146 77.5833 10.9146 77.9432 11.0946L78.6631 11.4545C79.563 11.8145 80.1029 12.8943 79.923 13.7942C79.923 13.7942 79.923 13.9742 80.1029 13.9742C80.4629 14.3341 80.6429 14.3341 80.6429 14.1542Z" fill="#010101"/>
<path d="M91.2615 21.7132C91.6214 20.9933 92.1614 20.2734 92.5213 19.7335C92.1614 19.5535 91.0815 18.8336 89.4617 17.5737C87.8419 16.3139 86.9421 15.594 86.5821 15.2341C86.0422 15.774 85.3223 16.3139 84.7824 16.8538C84.7824 16.8538 84.7824 17.0338 84.9623 17.0338H85.1423C86.0422 16.4939 87.302 16.4939 88.0219 17.0338L88.2019 17.2138C88.5619 17.3938 88.5619 17.5737 88.3819 17.9337L84.9623 22.4331C84.6024 22.973 84.2424 22.973 83.5225 22.4331C83.5225 22.4331 83.3426 22.4331 83.3426 22.6131C83.3426 22.6131 83.1626 22.793 83.3426 22.793C83.8825 23.333 84.4224 23.5129 84.9623 24.0529C85.5023 24.4128 85.8622 24.7728 86.5821 25.3127C86.5821 25.3127 86.7621 25.3127 86.7621 25.1327V24.9527C86.0422 24.2328 86.0422 24.0529 86.4021 23.5129L89.8217 19.0135C90.0017 18.8336 90.1816 18.6536 90.5416 19.0135L90.9015 19.1935C91.6214 19.7334 91.8014 20.8133 91.2615 21.8932C91.2615 21.8932 91.2615 22.0731 91.4415 22.0731C91.0815 21.7132 91.2615 21.7132 91.2615 21.7132Z" fill="#010101"/>
<path d="M96.6608 30.352C98.4605 28.9122 98.8205 26.3926 97.0207 24.2328C95.221 22.0731 92.7013 22.2531 90.9016 23.6929C89.1018 25.1327 88.9218 27.6524 90.7216 29.6321C92.5213 31.6119 94.861 31.7918 96.6608 30.352ZM95.4009 28.9122C93.7812 30.352 92.1614 30.712 90.9016 29.4521C89.8217 28.1923 90.3616 26.5725 91.9814 25.1327C93.6012 23.6929 95.4009 23.333 96.4808 24.5928C97.7406 25.8526 97.0207 27.4724 95.4009 28.9122Z" fill="#010101"/>
<path d="M104.94 37.1911C104.94 37.1911 105.12 37.0111 104.94 37.1911C104.76 36.4712 104.58 36.2912 104.4 35.7512C104.22 35.2113 104.04 34.8514 103.68 34.4914H103.5L103.32 34.6714C103.68 35.5713 103.5 35.9312 102.96 36.1112L99.9003 37.731C98.4605 38.6309 97.2007 38.2709 96.4808 37.1911C95.7609 35.9312 95.9409 35.0314 97.5607 34.1315L100.8 32.3317C101.34 31.9718 101.7 31.9718 102.24 32.8716H102.42L102.6 32.6917C102.24 31.9718 101.88 31.6118 101.52 30.8919C101.16 30.352 100.98 29.8121 100.62 29.0921H100.44L100.26 29.2721C100.62 30.172 100.44 30.532 99.9003 30.7119L97.0207 32.6917C95.221 33.5915 94.681 35.3913 95.9409 37.371C97.0207 39.1708 98.6405 39.3508 100.08 38.4509L103.14 36.6511C103.68 36.2912 104.04 36.4712 104.58 37.1911C104.76 37.1911 104.76 37.1911 104.94 37.1911Z" fill="#010101"/>
<path d="M100.8 49.0695C100.98 49.0695 100.98 48.8895 100.8 49.0695C100.8 48.1696 100.98 47.8096 101.34 47.4497L103.32 44.93C104.04 45.8299 104.76 46.1899 105.66 46.0099C106.739 45.6499 107.279 44.3901 106.739 42.4104C106.559 41.6905 106.379 41.3305 106.199 40.6106C106.02 39.8907 105.84 39.3508 105.66 38.6309H105.48L105.3 38.8109C105.48 39.7107 105.3 40.0707 104.76 40.2507L99.7204 41.8704C99.1804 42.0504 98.8205 42.0504 98.4605 41.1505H98.2806L98.1006 41.3305C98.2806 42.0504 98.4605 42.5904 98.8205 43.1303C99.0005 43.8502 99.1804 44.2101 99.3604 44.93H99.5404L99.7204 44.7501C99.5404 43.8502 99.7204 43.6702 100.26 43.4902L102.42 42.7703C102.6 43.4902 102.6 43.6702 102.06 44.2101L99.7204 46.5498C99.9003 46.9098 100.08 47.4497 100.08 47.6297C100.08 47.8097 100.26 48.5295 100.44 48.8895C100.62 49.0695 100.8 49.0695 100.8 49.0695ZM105.12 44.2101C104.04 44.5701 103.32 44.2101 102.96 43.1303C102.96 42.9503 102.78 42.7703 102.78 42.5903L105.3 41.8704C105.84 41.6905 106.02 41.6905 106.379 42.4104C106.739 43.3103 106.199 43.8502 105.12 44.2101Z" fill="#010101"/>
<path d="M101.34 53.9288C101.34 53.9288 101.52 53.9288 101.52 53.7488C101.52 52.669 101.7 52.489 102.24 52.489L107.459 51.7691C107.999 51.7691 108.359 51.7691 108.539 52.669H108.719C108.719 52.669 108.899 52.669 108.899 52.489C108.719 51.7691 108.719 51.2292 108.539 50.5093C108.359 49.7894 108.359 49.2494 108.359 48.5295H108.179C107.999 48.5295 107.999 48.5295 107.999 48.7095C107.999 49.7894 107.819 49.9693 107.279 49.9693L102.06 50.6892C101.52 50.6892 101.16 50.6892 100.98 49.6094H100.8C100.62 49.6094 100.62 49.6094 100.62 49.7894C100.8 50.5093 100.8 51.0492 100.98 51.7691C101.16 52.489 101.16 53.0289 101.16 53.7488C101.16 53.9288 101.34 53.9288 101.34 53.9288Z" fill="#010101"/>
<path d="M103.68 60.5879C105.84 60.5879 106.2 56.8084 107.819 56.8084C108.539 56.8084 109.079 57.3484 109.079 58.0683C109.079 58.9681 108.539 59.5081 107.279 59.6881L107.099 59.868C107.099 59.868 107.099 60.048 107.279 60.048C107.819 60.048 108.539 59.868 109.259 59.868C109.259 58.9681 109.619 58.7882 109.619 57.8883C109.619 56.2685 108.539 55.1887 107.279 55.1887C105.12 55.1887 104.94 58.9681 103.14 58.9681C102.42 58.9681 101.88 58.6082 101.88 57.7083C101.88 56.6285 102.6 55.9086 104.04 55.5486L104.22 55.3686C104.22 55.1887 104.22 55.1887 104.04 55.1887C103.5 55.1887 102.6 55.1887 101.88 55.3686C101.88 56.2685 101.34 56.8084 101.34 57.8883C101.16 59.5081 102.06 60.5879 103.68 60.5879Z" fill="#010101"/>
<path d="M99.3604 72.4663H99.5404C99.9004 71.5664 100.08 71.3864 100.8 71.5664L106.02 72.4663C106.559 72.6463 106.739 72.8263 106.739 73.7261L106.919 73.9061H107.099C107.279 73.3662 107.279 73.0062 107.279 72.4663C107.279 72.1063 107.459 71.5664 107.639 71.0265L102.42 67.607L108.539 66.5271C108.719 66.1671 108.719 65.4472 108.719 65.0873C108.719 64.7273 108.899 64.1874 109.079 63.8275L108.899 63.6475H108.719C108.359 64.5474 108.179 64.7273 107.459 64.5474L102.42 62.9276C101.88 62.7476 101.7 62.5676 101.7 61.4878C101.7 61.4878 101.7 61.3078 101.52 61.3078H101.34C101.16 61.8477 101.16 62.2077 101.16 62.7476C100.98 63.2875 100.98 63.6475 100.8 64.1874L100.98 64.3674H101.16C101.52 63.4675 101.7 63.2875 102.42 63.4675L107.279 64.9073L100.44 65.9872C100.44 65.9872 100.26 65.9872 100.26 66.1671C100.26 66.3471 100.26 66.3471 100.26 66.3471L106.2 70.3066L100.98 69.4067C100.44 69.2267 100.08 69.0467 100.26 68.1469L100.08 67.9669H99.9004C99.7204 68.6868 99.7204 69.2267 99.5404 69.9466C99.3604 70.6665 99.1805 71.2065 99.0005 71.9264C99.1805 72.2863 99.3604 72.4663 99.3604 72.4663Z" fill="#010101"/>
<path d="M26.4701 92.4436C27.55 91.3638 27.55 90.1039 26.1102 88.4842C25.5702 87.9442 25.3903 87.7643 24.8503 87.2243C24.3104 86.6844 23.9505 86.3244 23.4105 85.6045H23.2306C23.2306 85.6045 23.0506 85.7845 23.2306 85.7845C23.7705 86.5044 23.7705 86.8644 23.4105 87.2243L19.631 90.8238C19.2711 91.1838 18.9111 91.3638 18.1912 90.6439H18.0113C18.0113 90.6439 17.8313 90.8238 18.0113 90.8238C18.5512 91.3638 18.9111 91.7237 19.4511 92.2637C19.991 92.8036 20.171 93.1635 20.7109 93.7034H20.8909C20.8909 93.7034 21.0708 93.5235 20.8909 93.5235C20.3509 92.8036 20.3509 92.4436 20.8909 92.0837L22.3307 90.8238C22.5107 91.1838 22.6906 91.3638 23.0506 91.7237C23.9505 93.1635 25.5702 93.3435 26.4701 92.4436ZM25.3903 91.0038C24.4904 91.9037 23.5905 92.0837 22.8706 91.1838C22.6906 90.8238 22.5107 90.6439 22.6906 90.4639L24.6704 88.6641C25.0303 88.3042 25.3903 88.1242 25.9302 88.8441C26.2901 89.384 26.2901 90.1039 25.3903 91.0038Z" fill="#010101"/>
<path d="M31.6894 102.882V102.702C30.9695 101.982 30.9695 101.802 31.3295 101.262L34.3891 96.943C34.749 96.403 34.929 96.4031 35.8289 96.763C35.8289 96.763 36.0089 96.763 36.0089 96.583V96.403C35.4689 96.0431 34.929 95.6832 34.3891 95.3232C33.8491 94.9633 33.4892 94.6033 32.9493 94.2433C32.9493 94.2433 32.7693 94.2433 32.7693 94.4233C32.7693 94.4233 32.5893 94.6033 32.7693 94.6033C33.4892 95.3232 33.4892 95.5032 33.1292 96.0431L31.6894 98.0228L28.6299 95.8631L29.8897 93.8834C30.2496 93.3435 30.4296 93.1635 31.3295 93.7034C31.3295 93.7034 31.5095 93.7034 31.5095 93.5234C31.5095 93.5234 31.6894 93.3435 31.5095 93.3435C30.9695 92.9835 30.4296 92.6236 29.8897 92.2636C29.3498 91.9037 28.9898 91.5437 28.2699 91.0038C28.2699 91.0038 28.0899 91.0038 28.0899 91.1838V91.3637C28.8098 92.0836 28.8098 92.2636 28.4499 92.8035L25.3903 97.123C25.0303 97.6629 24.8504 97.6629 23.9505 97.3029C23.9505 97.3029 23.7705 97.3029 23.7705 97.4829V97.6629C24.3104 98.0228 24.8504 98.3828 25.3903 98.7427C25.9302 99.1027 26.2902 99.4626 26.8301 99.8226C26.8301 99.8226 27.0101 99.8226 27.0101 99.6426V99.4626C26.2902 98.7427 26.2902 98.5628 26.6501 98.0228L28.0899 96.0431L31.1495 98.2028L29.7097 100.183C29.3498 100.722 29.1698 100.902 28.2699 100.363C28.2699 100.363 28.0899 100.363 28.0899 100.542C28.0899 100.542 27.9099 100.722 28.0899 100.722C28.6299 101.082 29.1698 101.442 29.7097 101.802C30.2496 102.162 30.6096 102.522 31.3295 103.062C31.5095 103.062 31.6894 102.882 31.6894 102.882Z" fill="#010101"/>
<path d="M37.0887 105.402V105.222C36.1888 104.682 36.1888 104.322 36.5488 103.782L38.8885 99.2827C39.0684 98.7428 39.4284 98.5628 40.3283 98.9228C40.3283 98.9228 40.5082 98.9228 40.5082 98.7428V98.5628C39.7883 98.2029 39.2484 98.0229 38.7085 97.6629C37.9886 97.303 37.6286 97.123 36.9087 96.7631C36.9087 96.7631 36.7287 96.763 36.7287 96.943V97.123C37.6286 97.6629 37.6286 98.0229 37.2687 98.5628L34.929 103.242C34.749 103.782 34.3891 103.962 33.4892 103.602C33.4892 103.602 33.3092 103.602 33.3092 103.782V103.962C34.0291 104.322 34.569 104.502 35.109 104.862C35.8289 105.042 36.3688 105.222 37.0887 105.402C37.0887 105.582 37.0887 105.582 37.0887 105.402Z" fill="#010101"/>
<path d="M46.4475 106.122C46.4475 106.122 46.4475 105.942 46.2675 105.942H46.0875C45.3676 106.842 44.4677 107.562 43.3879 107.382L42.488 107.202C42.128 107.202 41.9481 106.842 42.128 106.302L43.7478 101.262C43.9278 100.722 44.1078 100.542 45.1876 100.722C45.1876 100.722 45.3676 100.722 45.3676 100.542V100.363C44.6477 100.183 44.1078 100.003 43.3879 99.8226C42.668 99.6426 42.128 99.4626 41.4081 99.1027L41.2282 99.2827V99.4626C42.128 99.8226 42.128 100.183 41.9481 100.722L40.3283 105.762C40.1483 106.302 39.9683 106.482 38.8885 106.302L38.7085 106.482V106.662C39.4284 106.842 41.2282 107.382 41.9481 107.562C42.668 107.742 44.4677 108.461 45.1876 108.641C45.5476 107.742 46.0875 106.842 46.4475 106.122Z" fill="#010101"/>
<path d="M51.4867 109.361V109.181C50.5869 109.001 50.4069 108.641 50.5869 108.101L51.4867 102.882C51.6667 102.342 51.8467 101.982 52.7466 102.162L52.9265 101.982V101.802C52.2066 101.622 51.6667 101.622 50.9468 101.622C50.2269 101.442 49.687 101.442 48.9671 101.262L48.7871 101.442C48.7871 101.622 48.7871 101.622 48.7871 101.622C49.687 101.982 49.8669 102.162 49.687 102.702L48.7871 107.922C48.6071 108.461 48.4271 108.821 47.5273 108.641L47.3473 108.821C47.3473 109.001 47.3473 109.001 47.3473 109.001C48.0672 109.181 48.6071 109.181 49.327 109.181C50.0469 109.361 50.5869 109.361 51.3068 109.541L51.4867 109.361Z" fill="#010101"/>
<path d="M60.4855 104.322C60.4855 102.882 59.5856 101.982 57.4259 101.802C56.706 101.802 56.3461 101.802 55.6262 101.802C54.9063 101.802 54.3664 101.802 53.6465 101.802L53.4665 101.982C53.4665 102.162 53.4665 102.162 53.4665 102.162C54.3664 102.342 54.5463 102.522 54.5463 103.062V108.281C54.5463 108.821 54.3664 109.181 53.4665 109.181L53.2865 109.361C53.2865 109.541 53.2865 109.541 53.2865 109.541C54.0064 109.541 54.5463 109.541 55.2662 109.541C55.9861 109.541 56.5261 109.541 57.246 109.541L57.4259 109.361V109.181C56.5261 109.001 56.3461 108.821 56.3461 108.281V106.482C56.706 106.482 56.886 106.482 57.4259 106.662C59.2257 106.662 60.4855 105.762 60.4855 104.322ZM58.6858 104.322C58.6858 105.582 58.1458 106.302 57.066 106.302C56.706 106.302 56.3461 106.302 56.3461 105.942V103.242C56.3461 102.702 56.5261 102.522 57.246 102.522C58.1458 102.342 58.6858 102.882 58.6858 104.322Z" fill="#010101"/>
<path d="M68.2244 103.242C68.0444 101.802 66.9646 101.082 64.8049 101.262C64.085 101.442 63.725 101.442 63.0051 101.622C62.2852 101.802 61.7453 101.802 61.0254 101.802V101.982C61.0254 102.162 61.0254 102.162 61.2054 102.162C62.2852 102.162 62.4652 102.342 62.4652 102.882L63.3651 108.101C63.5451 108.641 63.3651 109.001 62.4652 109.181V109.361C62.4652 109.541 62.4652 109.541 62.6452 109.541C63.3651 109.361 63.905 109.361 64.6249 109.181C65.3448 109.001 65.8847 109.001 66.6046 109.001V108.821C66.6046 108.821 66.6046 108.641 66.4247 108.641C65.5248 108.641 65.1648 108.461 65.1648 107.922L64.8049 106.122C65.1648 106.122 65.3448 106.122 65.8847 106.122C67.5045 105.762 68.5844 104.502 68.2244 103.242ZM66.4247 103.422C66.6046 104.682 66.2447 105.402 65.1648 105.582C64.8049 105.582 64.4449 105.582 64.4449 105.222L64.085 102.702C64.085 102.162 64.085 101.982 64.8049 101.802C65.5248 101.622 66.2447 101.982 66.4247 103.422Z" fill="#010101"/>
<path d="M74.8836 106.662C74.8836 106.662 74.8836 106.482 74.8836 106.662C73.8038 106.662 73.6238 106.482 73.4438 105.942L71.824 100.902C71.6441 100.363 71.6441 100.003 72.5439 99.6426V99.4627L72.364 99.2827C71.6441 99.4627 71.1041 99.6426 70.5642 100.003C69.8443 100.183 69.3044 100.363 68.5845 100.543V100.723L68.7644 100.902C69.6643 100.722 70.0243 100.902 70.2043 101.442L71.824 106.482C72.004 107.022 72.004 107.382 71.1041 107.742V107.922L71.2841 108.102C72.004 107.922 72.5439 107.742 73.2638 107.382C73.9837 107.202 74.5237 107.022 75.2436 106.842C74.8836 106.842 74.8836 106.842 74.8836 106.662Z" fill="#010101"/>
<path d="M81.9027 95.1432C81.9027 94.9633 81.7227 94.9633 81.7227 94.9633C81.1828 95.1432 80.8228 95.5032 80.4629 95.6832C79.9229 95.8631 79.563 96.0431 79.023 96.2231V96.4031L79.203 96.583C80.1029 96.2231 80.4629 96.4031 80.8228 96.943L82.8025 100.722L75.6035 98.0229C75.0636 98.2028 75.0636 98.3828 74.7036 98.5628C74.3437 98.7428 73.9837 98.9227 73.6238 99.1027V99.2827L73.8038 99.4627C74.7036 99.1027 75.0636 99.2827 75.4235 100.003L77.5832 104.502C77.7632 105.042 77.7632 105.402 76.8633 105.942V106.122C76.8633 106.302 77.0433 106.302 77.0433 106.302C77.5832 106.122 77.9432 105.762 78.3032 105.582C78.8431 105.402 79.203 105.222 79.743 104.862V104.682L79.563 104.502C78.6631 104.862 78.3031 104.682 78.1232 104.142L76.1434 100.003L84.0624 102.882C84.0624 102.882 84.2423 102.882 84.4223 102.882C84.6023 102.882 84.6023 102.702 84.6023 102.702L81.7227 96.763C81.5427 96.2231 81.5427 95.8631 82.4426 95.3232C81.9027 95.3232 81.9027 95.1432 81.9027 95.1432Z" fill="#010101"/>
<path d="M91.4414 94.2433C91.4414 94.2433 91.2614 94.2433 91.0815 94.2433C91.0815 94.2433 90.9015 94.2434 91.0815 94.4233C91.4414 95.5032 91.2614 96.763 90.3616 97.3029L89.6417 97.8429C89.4617 98.0228 89.1017 98.2028 88.7418 97.6629L87.122 95.6832L87.8419 95.1432C88.3818 94.7833 88.9218 94.7833 89.6417 95.3232H89.8216L90.0016 95.1432C89.6417 94.7833 89.4617 94.4233 89.1017 94.0634C88.7418 93.7034 88.5618 93.3435 88.2019 92.8035H88.0219L87.8419 92.9835C88.3818 93.7034 88.2018 94.2433 87.6619 94.6033L86.942 95.1432L85.3222 93.1635C84.9623 92.8036 85.1423 92.4436 85.3222 92.2636L86.0421 91.7237C86.762 91.1838 87.8419 91.1838 88.5618 91.9037H88.7418C88.9218 91.7237 88.9218 91.7237 88.9218 91.5437C88.3818 91.1838 87.8419 90.4638 87.4819 90.1039C86.942 90.6438 85.5022 91.7237 84.9623 92.2636C84.4224 92.8036 82.9826 93.8834 82.4426 94.2433V94.4233L82.6226 94.6033C83.5225 94.0634 83.7025 94.2433 84.0624 94.6033L87.302 98.5628C87.6619 99.1027 87.6619 99.2827 86.942 100.003V100.183L87.122 100.363C87.6619 99.8226 89.1017 98.5628 89.6417 98.2028C90.1816 97.6629 91.6214 96.583 92.3413 96.2231C92.1613 95.6832 91.6214 94.9632 91.4414 94.2433Z" fill="#010101"/>
<path d="M95.9407 89.204C94.321 87.7642 91.6213 90.2839 90.3615 89.204C89.8216 88.6641 89.8216 88.1242 90.3615 87.4043C90.9014 86.6844 91.8013 86.6844 92.7012 87.4043C92.7012 87.4043 92.8812 87.4043 92.8812 87.2243C92.8812 87.2243 93.0611 87.0443 92.8812 87.0443C92.3412 86.6844 91.8013 86.3245 91.4413 85.9645C90.9014 86.5044 90.5415 86.5044 90.0015 87.2243C88.9217 88.4842 88.9217 89.924 90.0015 90.8238C91.6213 92.2637 94.321 89.564 95.5808 90.8238C96.1207 91.3638 96.3007 91.9037 95.5808 92.6236C94.8609 93.3435 93.781 93.5235 92.5212 92.8036H92.3412C92.3412 92.8036 92.1612 92.9835 92.3412 92.9835C92.7012 93.3435 93.6011 93.8834 93.961 94.4234C94.6809 93.8834 95.2208 93.7034 95.9407 92.8036C97.0206 91.7237 97.2006 90.2839 95.9407 89.204Z" fill="#010101"/>
<path d="M19.0359 82.2715L16.267 81.5793L14.5365 83.656L14.1904 80.8871L11.4215 80.1949L13.8443 79.1565V76.3877L15.5748 78.4644L18.3437 77.426L16.9592 79.8488L19.0359 82.2715Z" fill="#010101"/>
<path d="M96.2178 82.9638L98.9866 82.2715L100.717 84.3482L101.063 81.5793L103.832 80.8871L101.409 79.8488V77.0799L98.9866 79.5027L96.2178 78.4644L97.6022 80.8871L96.2178 82.9638Z" fill="#010101"/>
</svg>
