<svg width="105" height="141" viewBox="0 0 105 141" fill="none" xmlns="http://www.w3.org/2000/svg">
<circle cx="53" cy="62" r="37" fill="#E5E5E5"/>
<path d="M97.8598 0H6.37523C2.86885 0 0 2.87702 0 6.39339V134.261C0 137.777 2.86885 140.655 6.37523 140.655H98.1786C101.685 140.655 104.554 137.777 104.554 134.261V6.39339C104.235 2.87702 101.366 0 97.8598 0ZM51.9581 97.4992C32.8324 97.4992 17.5319 82.155 17.5319 62.9749C17.5319 43.7947 32.8324 28.4506 51.9581 28.4506C71.0838 28.4506 86.3844 43.7947 86.3844 62.9749C86.3844 81.8354 71.0838 97.4992 51.9581 97.4992Z" fill="#542972"/>
<path d="M17.2131 18.2212C17.2131 17.9015 17.2131 17.5818 16.8943 17.2622C16.5755 16.9425 16.2568 16.9425 15.6193 16.9425C14.9817 16.6228 14.663 16.3031 14.0254 16.3031C13.0692 15.6638 12.7504 15.0245 12.7504 14.0655C12.7504 13.4261 12.7504 13.1064 13.0692 12.7868C13.3879 12.4671 13.7067 12.1474 14.3442 11.8278C14.9817 11.5081 15.3005 11.5081 15.938 11.5081C16.5755 11.5081 17.2131 11.5081 17.5318 11.8278C18.1694 12.1474 18.4881 12.4671 18.8069 12.7868C19.1256 13.1064 19.1256 13.7458 19.1256 14.3851H17.2131C17.2131 14.0655 17.2131 13.7458 16.8943 13.4261C16.5755 13.1064 16.2568 12.7868 15.938 12.7868C15.6193 12.7868 14.9817 12.7868 14.9817 13.1064C14.663 13.4261 14.3442 13.7458 14.3442 14.0655C14.3442 14.3851 14.3442 14.7048 14.663 14.7048C14.9817 15.0245 15.3005 15.0245 15.938 15.3441C17.2131 15.6638 17.8506 15.9835 18.4881 16.3031C18.8069 16.9425 19.1256 17.5818 19.1256 18.2212C19.1256 18.8605 18.8069 19.4998 18.1693 20.1392C17.8506 20.4588 16.8943 20.7785 15.938 20.7785C15.3005 20.7785 14.663 20.7785 14.0254 20.4588C13.3879 20.1392 13.0692 19.8195 12.7504 19.1802C12.4316 18.5408 12.4316 18.2212 12.4316 17.5818H14.3442C14.3442 18.8605 14.663 19.1802 15.938 19.1802C16.2568 19.1802 16.5755 19.1802 16.8943 18.8605C17.2131 18.8605 17.2131 18.5408 17.2131 18.2212Z" fill="white"/>
<path d="M25.5014 18.5408H22.3138L21.6762 20.4588H19.7637L22.9513 11.5081H24.5451L27.7327 20.4588H26.1389L25.5014 18.5408ZM22.9513 17.2622H25.1826L23.9076 14.0655L22.9513 17.2622Z" fill="white"/>
<path d="M34.4268 16.9425H30.9204V20.4588H29.0078V11.5081H35.0643V13.1064H30.9204V15.3441H34.4268V16.9425Z" fill="white"/>
<path d="M41.4385 16.6228H37.9321V19.1802H42.076V20.7785H36.0195V11.5081H42.076V13.1064H37.9321V15.3441H41.4385V16.6228Z" fill="white"/>
<path d="M50.0464 13.1064H47.1775V20.4588H45.2649V13.1064H42.7148V11.5081H50.0464V13.1064Z" fill="white"/>
<path d="M54.5087 15.6638L56.4213 11.5081H58.3339L55.465 17.2622V20.4588H53.5524V17.2622L50.6836 11.5081H52.5962L54.5087 15.6638Z" fill="white"/>
<path d="M67.2584 18.2212C67.2584 17.9015 67.2584 17.5818 66.9396 17.2621C66.6209 16.9425 66.3021 16.9425 65.6646 16.6228C65.0271 16.3031 64.3895 16.3031 64.0708 15.9835C63.1145 15.3441 62.477 14.7048 62.477 13.7458C62.477 13.1064 62.477 12.7868 62.7957 12.4671C63.1145 12.1474 63.4333 11.8278 64.0708 11.5081C64.7083 11.1884 65.0271 11.1884 65.6646 11.1884C66.3021 11.1884 66.9396 11.1884 67.2584 11.5081C67.8959 11.8278 68.2147 12.1474 68.5334 12.4671C68.8522 12.7868 68.8522 13.4261 68.8522 13.7458H66.9396C66.9396 13.4261 66.9396 13.1064 66.6209 12.7868C66.6209 13.1064 66.3021 12.7868 65.6646 12.7868C65.3458 12.7868 64.7083 12.7868 64.7083 13.1064C64.3895 13.4261 64.3895 13.4261 64.3895 13.7458C64.3895 14.0655 64.3895 14.3851 64.7083 14.3851C65.0271 14.7048 65.3458 14.7048 65.9833 15.0245C66.9396 15.6638 67.8959 15.9835 68.2147 16.3031C68.5334 16.6228 68.8522 17.2621 68.8522 17.9015C68.8522 18.5408 68.5334 19.1802 67.8959 19.8195C67.2584 20.1392 66.6209 20.4588 65.6646 20.4588C65.0271 20.4588 64.3895 20.4588 63.752 20.1392C63.1145 19.8195 62.7957 19.8195 62.477 19.1802C62.1582 18.8605 62.1582 18.2212 62.1582 17.5818H64.0708C64.0708 18.5408 64.7083 19.1802 65.9833 19.1802C66.3021 19.1802 66.6209 19.1802 66.9396 18.8605C66.9396 18.8605 67.2584 18.5408 67.2584 18.2212Z" fill="white"/>
<path d="M75.8643 16.6228H72.3579V19.1802H76.5018V20.7785H70.4453V11.5081H76.5018V13.1064H72.3579V15.3441H75.8643V16.6228Z" fill="white"/>
<path d="M82.56 18.5408H79.3724L78.7348 20.4588H76.8223L80.0099 11.5081H81.6037L84.7913 20.4588H82.8787L82.56 18.5408ZM80.0099 17.2622H82.2412L80.9662 14.0655L80.0099 17.2622Z" fill="white"/>
<path d="M87.977 19.1802H91.8022V20.7785H86.0645V11.5081H87.977V19.1802Z" fill="white"/>
<path d="M22.9506 106.45L23.9069 101.655H25.1819L23.5881 108.368H22.3131L21.3568 103.893L20.4005 108.368H18.8067L17.2129 101.655H18.4879L19.4442 106.45L20.4005 101.655H21.6756L22.9506 106.45Z" fill="#4FBCC6"/>
<path d="M28.0501 108.368C27.4126 108.368 26.775 108.048 26.1375 107.729C25.8188 107.409 25.5 106.77 25.5 105.811C25.5 105.171 25.5 104.852 25.8188 104.532C26.1375 104.212 26.1375 103.893 26.775 103.573C27.0938 103.253 27.4126 103.253 28.0501 103.253C28.6876 103.253 29.3251 103.573 29.6439 103.893C29.9627 104.212 30.2814 104.852 30.2814 105.811V106.45H27.0938C27.0938 106.77 27.4126 107.089 27.4126 107.089C27.7313 107.409 28.0501 107.409 28.3689 107.409C29.0064 107.409 29.3251 107.089 29.6439 106.77L30.2814 107.409C29.9627 107.729 29.9627 108.048 29.3251 108.048C28.6876 108.368 28.3689 108.368 28.0501 108.368ZM27.7313 104.212C27.4126 104.212 27.4126 104.212 27.0938 104.532C26.775 104.852 26.775 104.852 26.775 105.171H28.6876C28.6876 104.852 28.6876 104.532 28.3689 104.532C28.3689 104.212 28.0501 104.212 27.7313 104.212Z" fill="#4FBCC6"/>
<path d="M33.4696 108.368V104.212H32.832V103.253H33.4696V102.934C33.4696 102.294 33.7883 101.975 34.1071 101.655C34.4258 101.335 34.7446 101.335 35.3821 101.335C35.7009 101.335 35.7009 101.335 36.0196 101.335V102.294H35.7009C35.0634 102.294 35.0634 102.614 35.0634 102.934V103.253H36.0196V104.212H35.0634V108.368H33.4696Z" fill="#4FBCC6"/>
<path d="M36.3379 105.811C36.3379 105.171 36.3379 104.852 36.6567 104.532C36.9754 104.212 36.9754 103.893 37.6129 103.573C37.9317 103.253 38.2505 103.253 38.888 103.253C39.5255 103.253 40.163 103.573 40.4818 103.893C40.8006 104.212 41.1193 104.852 41.1193 105.491V105.811C41.1193 106.45 40.8006 107.089 40.4818 107.729C40.163 108.048 39.5255 108.368 38.888 108.368C38.2505 108.368 37.6129 108.048 37.2942 107.729C36.6567 107.089 36.3379 106.45 36.3379 105.811ZM37.6129 105.811C37.6129 106.13 37.6129 106.77 37.9317 106.77C38.2505 107.089 38.2505 107.089 38.5692 107.089C38.888 107.089 39.2067 107.089 39.2067 106.77C39.5255 106.45 39.5255 106.13 39.5255 105.491C39.5255 105.171 39.5255 104.532 39.2067 104.532C38.888 104.212 38.888 104.212 38.5692 104.212C38.2505 104.212 37.9317 104.212 37.9317 104.532C37.6129 104.852 37.6129 105.171 37.6129 105.811Z" fill="#4FBCC6"/>
<path d="M43.3512 108.368H42.0762V101.335H43.3512V108.368Z" fill="#4FBCC6"/>
<path d="M45.902 108.368H44.627V101.335H45.902V108.368Z" fill="#4FBCC6"/>
<path d="M46.5391 105.811C46.5391 105.171 46.5391 104.852 46.8578 104.532C47.1766 104.212 47.1766 103.893 47.8141 103.573C48.1329 103.253 48.4516 103.253 49.0892 103.253C49.7267 103.253 50.3642 103.573 50.683 103.893C51.0017 104.212 51.3205 104.852 51.3205 105.491V105.811C51.3205 106.45 51.0017 107.089 50.683 107.729C50.3642 108.368 49.7267 108.368 49.0892 108.368C48.4516 108.368 47.8141 108.048 47.4953 107.729C46.8578 107.089 46.5391 106.45 46.5391 105.811ZM48.1329 105.811C48.1329 106.13 48.1329 106.77 48.4516 106.77C48.7704 107.089 48.7704 107.089 49.0892 107.089C49.4079 107.089 49.7267 107.089 49.7267 106.77C50.0454 106.45 50.0454 106.13 50.0454 105.491C50.0454 105.171 50.0454 104.532 49.7267 104.532C49.4079 104.212 49.4079 104.212 49.0892 104.212C48.7704 104.212 48.4516 104.212 48.4516 104.532C48.1329 104.852 48.1329 105.171 48.1329 105.811Z" fill="#4FBCC6"/>
<path d="M56.4216 106.45L57.0592 103.253H58.3342L57.0592 108.368H56.1029L55.1466 105.171L54.1903 108.368H53.234L51.959 103.253H53.234L53.8716 106.45L54.8278 103.253H55.7841L56.4216 106.45Z" fill="#4FBCC6"/>
<path d="M64.07 106.77C64.07 106.45 64.07 106.45 63.7513 106.45C63.4325 106.45 63.4325 106.13 63.1137 106.13C61.8387 105.811 61.2012 105.491 61.2012 104.532C61.2012 104.212 61.5199 103.573 61.8387 103.573C62.1575 103.253 62.795 103.253 63.4325 103.253C64.07 103.253 64.7075 103.253 65.0263 103.573C65.3451 103.893 65.6638 104.212 65.6638 104.852H64.3888C64.3888 104.532 64.3888 104.532 64.07 104.532C64.07 104.532 63.7513 104.212 63.4325 104.212C63.1137 104.212 63.1137 104.212 62.795 104.212C62.4762 104.212 62.4762 104.532 62.4762 104.532C62.4762 104.532 62.4762 104.852 62.795 104.852C62.795 104.852 63.1137 105.171 63.4325 105.171C63.7513 105.171 64.07 105.171 64.3888 105.491C65.0263 105.811 65.3451 106.13 65.3451 106.77C65.3451 107.089 65.0263 107.729 64.7075 107.729C64.3888 108.048 63.7513 108.048 63.1137 108.048C62.795 108.048 62.4762 108.048 62.1575 107.729C61.8387 107.729 61.5199 107.409 61.5199 107.089C61.2012 106.77 61.2012 106.45 61.2012 106.13H62.4762C62.4762 106.45 62.4762 106.45 62.795 106.77C63.1137 106.77 63.1137 107.089 63.4325 107.089C63.7513 107.089 63.7513 107.089 64.07 107.089C64.07 107.089 64.07 107.089 64.07 106.77Z" fill="#4FBCC6"/>
<path d="M69.1704 108.368V108.048C68.8517 108.368 68.5329 108.688 67.8954 108.688C67.2579 108.688 66.9391 108.688 66.6203 108.368C66.3016 108.048 65.9828 107.729 65.9828 107.409C65.9828 106.77 66.3016 106.45 66.6203 106.13C66.9391 105.811 67.5766 105.811 68.2142 105.811H68.8517V105.491C68.8517 105.171 68.8517 105.171 68.5329 104.852C68.2142 104.532 68.2142 104.532 67.8954 104.532C67.5766 104.532 67.5766 104.532 67.2579 104.852L66.9391 105.171H65.6641C65.6641 104.852 65.6641 104.532 65.9828 104.212C66.3016 103.893 66.3016 103.893 66.6203 103.573C66.9391 103.573 67.2579 103.253 67.5766 103.253C68.2142 103.253 68.5329 103.253 69.1704 103.573C69.4892 103.893 69.808 104.212 69.808 104.852V107.089C69.808 107.409 69.808 108.048 70.1267 108.048H69.1704V108.368ZM68.2142 107.409C68.5329 107.409 68.5329 107.409 68.8517 107.409C69.1704 107.409 69.1704 107.089 69.1704 107.089V106.13H68.5329C67.8954 106.13 67.5766 106.45 67.5766 106.77C67.5766 107.089 67.5766 107.089 67.8954 107.089C67.5766 107.409 67.8954 107.409 68.2142 107.409Z" fill="#4FBCC6"/>
<path d="M71.7215 108.368V104.212H71.084V103.253H71.7215V102.934C71.7215 102.294 72.0403 101.975 72.359 101.655C72.6778 101.335 72.9966 101.335 73.6341 101.335C73.9528 101.335 73.9528 101.335 74.2716 101.335V102.294H73.9528C73.3153 102.294 73.3153 102.614 73.3153 102.934V103.253H74.2716V104.212H73.3153V108.368H71.7215Z" fill="#4FBCC6"/>
<path d="M76.8216 108.368C76.1841 108.368 75.5465 108.048 74.909 107.729C74.5902 107.409 74.2715 106.77 74.2715 105.811C74.2715 105.171 74.2715 104.852 74.5902 104.532C74.909 104.212 74.909 103.893 75.5465 103.573C75.8653 103.253 76.1841 103.253 76.8216 103.253C77.4591 103.253 78.0966 103.573 78.4154 103.893C78.7341 104.212 79.0529 104.852 79.0529 105.811V106.45H75.8653C75.8653 106.77 76.1841 107.089 76.1841 107.089C76.5028 107.409 76.8216 107.409 77.1403 107.409C77.7779 107.409 78.0966 107.089 78.4154 106.77L79.0529 107.409C78.7341 107.729 78.7341 108.048 78.0966 108.048C77.7779 108.368 77.1403 108.368 76.8216 108.368ZM76.8216 104.212C76.5028 104.212 76.5028 104.212 76.1841 104.532C75.8653 104.852 75.8653 104.852 75.8653 105.171H77.7779C77.7779 104.852 77.7779 104.532 77.4591 104.532C77.1403 104.212 77.1403 104.212 76.8216 104.212Z" fill="#4FBCC6"/>
<path d="M81.2841 101.975V103.253H82.2404V104.212H81.2841V106.77C81.2841 107.089 81.2841 107.089 81.2841 107.089H81.6028H81.9216V108.048C81.6028 108.048 81.2841 108.048 80.9653 108.048C80.009 108.048 79.6903 107.729 79.6903 106.77V104.212H79.0527V103.253H79.6903V101.975H81.2841Z" fill="#4FBCC6"/>
<path d="M84.7919 106.45L85.7482 103.253H87.0232L85.1106 109.007V109.327C84.7919 109.966 84.4731 110.286 83.5168 110.286C83.1981 110.286 83.1981 110.286 82.8793 110.286V109.327H83.1981C83.5168 109.327 83.5168 109.327 83.8356 109.327C84.1544 109.327 84.1544 109.007 84.1544 109.007V108.688L82.5605 103.573H83.8356L84.7919 106.45Z" fill="#4FBCC6"/>
<path d="M14.0254 117.958C14.0254 117.638 14.0254 117.319 14.3442 116.999C14.6629 116.679 14.9817 116.36 15.3004 116.04C14.9817 115.72 14.9817 115.401 14.9817 115.401C14.9817 115.081 14.6629 114.761 14.6629 114.761C14.6629 114.122 14.9817 113.802 15.3004 113.483C15.6192 113.163 15.938 112.843 16.5755 112.843C17.213 112.843 17.5318 112.843 17.8505 113.163C18.1693 113.483 18.4881 113.802 18.4881 114.122C18.4881 114.761 18.1693 115.081 17.5318 115.401L16.8942 115.72L18.1693 116.999C18.4881 116.679 18.4881 116.36 18.4881 115.72H19.1256C19.1256 116.679 18.8068 117.319 18.4881 117.958L19.4443 119.237H18.1693L17.8505 118.917C17.213 119.237 16.8942 119.556 16.2567 119.556C15.6192 119.556 14.9817 119.237 14.6629 118.917C14.0254 118.917 14.0254 118.278 14.0254 117.958ZM16.2567 118.597C16.5755 118.597 16.8942 118.597 17.213 118.278L15.938 116.679C15.6192 116.999 15.6192 117.319 15.6192 117.638C15.6192 117.958 15.6192 118.278 15.938 118.278C16.2567 118.278 15.938 118.597 16.2567 118.597ZM15.6192 114.442C15.6192 114.761 15.6192 115.081 15.938 115.401L16.5755 115.081C16.8942 115.081 16.8942 114.761 16.8942 114.761V114.442C16.8942 114.442 16.8942 114.122 16.5755 114.122L16.2567 113.802C15.938 113.802 15.938 113.802 15.938 114.122C15.6192 114.122 15.6192 114.442 15.6192 114.442Z" fill="#4FBCC6"/>
<path d="M23.9079 115.081C24.2266 114.761 24.5454 114.442 25.1829 114.442C26.1392 114.442 26.7767 115.081 26.7767 116.36V119.556H25.5017V116.36C25.5017 116.04 25.5017 115.72 25.1829 115.72C25.1829 115.72 24.8641 115.401 24.5454 115.401C24.2266 115.401 23.9079 115.401 23.5891 115.72V119.237H22.6328V112.204H23.9079V115.081Z" fill="#4FBCC6"/>
<path d="M30.2825 119.556C29.645 119.556 29.0075 119.237 28.3699 118.917C27.7324 118.597 27.7324 117.958 27.7324 116.999C27.7324 116.36 27.7324 116.04 28.0512 115.72C28.0512 115.401 28.3699 115.081 28.6887 114.761C29.0075 114.442 29.3262 114.442 29.9638 114.442C30.6013 114.442 31.2388 114.761 31.5576 115.081C31.8763 115.401 32.1951 116.04 32.1951 116.999V117.638H29.0075C29.0075 117.958 29.3262 118.278 29.3262 118.278C29.645 118.597 29.9638 118.597 30.2825 118.597C30.92 118.597 31.2388 118.278 31.5576 117.958L32.1951 118.597C31.8763 118.917 31.8763 119.237 31.2388 119.237C30.92 119.556 30.6013 119.556 30.2825 119.556ZM29.9638 115.72C29.645 115.72 29.645 115.72 29.3262 116.04C29.0075 116.36 29.0075 116.36 29.0075 116.679H30.92C30.92 116.36 30.92 116.04 30.6013 116.04C30.6013 115.72 30.2825 115.72 29.9638 115.72Z" fill="#4FBCC6"/>
<path d="M35.7017 119.556V119.237C35.3829 119.556 35.0642 119.876 34.4266 119.876C33.7891 119.876 33.4704 119.876 33.1516 119.556C32.8328 119.237 32.5141 118.917 32.5141 118.597C32.5141 117.958 32.8328 117.638 33.1516 117.319C33.4704 116.999 34.1079 116.999 34.7454 116.999H35.3829V116.679C35.3829 116.36 35.3829 116.36 35.0642 116.04C35.0642 116.04 34.7454 115.72 34.4266 115.72C34.1079 115.72 34.1079 115.72 33.7891 116.04L33.4704 116.36H32.1953C32.1953 116.04 32.1953 115.72 32.5141 115.401C32.8328 115.081 32.8328 115.081 33.1516 114.761C33.4704 114.442 33.7891 114.442 34.1079 114.442C34.7454 114.442 35.0642 114.442 35.7017 114.761C36.0205 115.081 36.3392 115.401 36.3392 116.04V118.278C36.3392 118.597 36.3392 119.237 36.658 119.237H35.7017V119.556ZM34.7454 118.597C35.0642 118.597 35.0642 118.597 35.3829 118.597C35.7017 118.597 35.7017 118.278 35.7017 118.278V117.319H35.0642C34.4266 117.319 34.1079 117.638 34.1079 117.958C34.1079 118.278 34.1079 118.278 34.4266 118.278C34.7454 118.278 34.4266 118.597 34.7454 118.597Z" fill="#4FBCC6"/>
<path d="M39.525 119.556H38.25V112.524H39.525V119.556Z" fill="#4FBCC6"/>
<path d="M42.077 113.483V114.761H43.0333V115.72H42.077V118.278C42.077 118.597 42.077 118.597 42.077 118.597H42.3958H42.7146V119.556C42.3958 119.556 42.077 119.556 41.7583 119.556C40.802 119.556 40.4832 119.237 40.4832 118.278V115.72H39.8457V114.761H40.4832V113.483H42.077Z" fill="#4FBCC6"/>
<path d="M44.9454 115.081C45.2641 114.761 45.5829 114.442 46.2204 114.442C47.1767 114.442 47.8142 115.081 47.8142 116.36V119.556H46.5392V116.36C46.5392 116.04 46.5392 115.72 46.2204 115.72C46.2204 115.72 45.9017 115.401 45.5829 115.401C45.2641 115.401 44.9454 115.401 44.6266 115.72V119.237H43.3516V112.204H44.6266V115.081H44.9454Z" fill="#4FBCC6"/>
<path d="M55.783 117.319C55.783 117.958 55.4642 118.597 55.1454 119.237C54.8267 119.556 54.1892 119.876 53.8704 119.876C53.2329 119.876 52.9141 119.556 52.5954 119.237V121.474H51.3203V114.442H52.5954V115.081C52.9141 114.761 53.2329 114.442 53.8704 114.442C54.5079 114.442 54.8267 114.761 55.1454 115.081C55.4642 115.72 55.783 116.36 55.783 117.319ZM54.5079 116.999C54.5079 116.679 54.5079 116.04 54.1892 116.04C53.8704 115.72 53.8704 115.72 53.5516 115.72C53.2329 115.72 52.9141 115.72 52.5954 116.04V118.278C52.9141 118.597 52.9141 118.917 53.5516 118.917C54.1892 118.597 54.5079 117.958 54.5079 116.999Z" fill="#4FBCC6"/>
<path d="M59.2903 115.72C58.9716 115.72 58.9716 115.72 58.9716 115.72C58.334 115.72 58.0153 116.04 58.0153 116.36V119.556H56.7402V114.442H58.0153V115.081C58.334 114.761 58.6528 114.442 58.9716 114.442H59.2903V115.72Z" fill="#4FBCC6"/>
<path d="M59.6094 116.999C59.6094 116.36 59.6094 116.04 59.9281 115.72C60.2469 115.401 60.2469 115.081 60.8844 114.761C61.2032 114.442 61.5219 114.442 62.1595 114.442C62.797 114.442 63.4345 114.761 63.7533 115.081C64.072 115.401 64.3908 116.04 64.3908 116.679V116.999C64.3908 117.638 64.072 118.278 63.7533 118.917C63.4345 119.237 62.797 119.556 62.1595 119.556C61.5219 119.556 60.8844 119.237 60.5657 118.917C59.9281 118.597 59.6094 117.958 59.6094 116.999ZM60.8844 117.319C60.8844 117.638 60.8844 118.278 61.2032 118.278C61.5219 118.597 61.5219 118.597 61.8407 118.597C62.1595 118.597 62.4782 118.597 62.4782 118.278C62.797 117.958 62.797 117.638 62.797 116.999C62.797 116.679 62.797 116.04 62.4782 116.04C62.1595 115.72 62.1595 115.72 61.8407 115.72C61.5219 115.72 61.2032 115.72 61.2032 116.04C61.2032 116.36 60.8844 116.679 60.8844 117.319Z" fill="#4FBCC6"/>
<path d="M66.9403 113.483V114.761H67.8966V115.72H66.9403V118.278C66.9403 118.597 66.9403 118.597 66.9403 118.597H67.2591H67.5778V119.556C67.2591 119.556 66.9403 119.556 66.6216 119.556C65.6653 119.556 65.3465 119.237 65.3465 118.278V115.72H64.709V114.761H65.3465V113.483H66.9403Z" fill="#4FBCC6"/>
<path d="M67.8965 116.999C67.8965 116.36 67.8965 116.04 68.2152 115.72C68.534 115.401 68.534 115.081 69.1715 114.761C69.4903 114.442 69.8091 114.442 70.4466 114.442C71.0841 114.442 71.7216 114.761 72.0404 115.081C72.3591 115.401 72.6779 116.04 72.6779 116.679V116.999C72.6779 117.638 72.3591 118.278 72.0404 118.917C71.7216 119.237 71.0841 119.556 70.4466 119.556C69.8091 119.556 69.1715 119.237 68.8528 118.917C68.2152 118.597 67.8965 117.958 67.8965 116.999ZM69.4903 117.319C69.4903 117.638 69.4903 118.278 69.8091 118.278C70.1278 118.597 70.1278 118.597 70.4466 118.597C70.7653 118.597 71.0841 118.597 71.0841 118.278C71.4029 117.958 71.4029 117.638 71.4029 116.999C71.4029 116.679 71.4029 116.04 71.0841 116.04C70.7653 115.72 70.7653 115.72 70.4466 115.72C70.1278 115.72 69.8091 115.72 69.8091 116.04C69.4903 116.36 69.4903 116.679 69.4903 117.319Z" fill="#4FBCC6"/>
<path d="M75.5473 118.597C75.8661 118.597 75.8661 118.597 76.1849 118.278C76.1849 118.278 76.5036 117.958 76.5036 117.638H77.7787C77.7787 117.958 77.7787 118.278 77.4599 118.597C77.1411 118.917 77.1411 119.237 76.8224 119.237C76.5036 119.237 76.1849 119.556 75.8661 119.556C75.2286 119.556 74.591 119.237 74.2723 118.917C73.9535 118.597 73.6348 117.958 73.6348 116.999C73.6348 116.36 73.9535 115.72 74.2723 115.081C74.591 114.761 75.2286 114.442 75.8661 114.442C76.5036 114.442 77.1411 114.761 77.4599 115.081C77.7787 115.401 78.0974 116.04 78.0974 116.36H76.5036C76.5036 116.04 76.5036 116.04 76.1849 115.72C76.1849 115.401 75.8661 115.401 75.5473 115.401C75.2286 115.401 74.9098 115.401 74.9098 115.72C74.9098 116.04 74.591 116.36 74.591 116.679C74.591 117.319 74.591 117.638 74.9098 117.638C74.9098 118.597 75.2286 118.597 75.5473 118.597Z" fill="#4FBCC6"/>
<path d="M78.416 116.999C78.416 116.36 78.416 116.04 78.7348 115.72C79.0535 115.401 79.0535 115.081 79.6911 114.761C80.0098 114.442 80.3286 114.442 80.9661 114.442C81.6036 114.442 82.2411 114.761 82.5599 115.081C82.8787 115.401 83.1974 116.04 83.1974 116.679V116.999C83.1974 117.638 82.8787 118.278 82.5599 118.917C82.2411 119.237 81.6036 119.556 80.9661 119.556C80.3286 119.556 79.6911 119.237 79.3723 118.917C78.416 118.597 78.416 117.958 78.416 116.999ZM79.6911 117.319C79.6911 117.638 79.6911 118.278 80.0098 118.278C80.3286 118.597 80.3286 118.597 80.6473 118.597C80.9661 118.597 81.2849 118.597 81.2849 118.278C81.6036 117.958 81.6036 117.638 81.6036 116.999C81.6036 116.679 81.6036 116.04 81.2849 116.04C80.9661 115.72 80.9661 115.72 80.6473 115.72C80.3286 115.72 80.0098 115.72 80.0098 116.04C79.6911 116.36 79.6911 116.679 79.6911 117.319Z" fill="#4FBCC6"/>
<path d="M85.109 119.556H83.834V112.524H85.109V119.556Z" fill="#4FBCC6"/>
<path d="M88.9353 118.278C88.9353 117.958 88.9353 117.958 88.6165 117.958C88.2977 117.958 88.2977 117.638 87.979 117.638C86.7039 117.319 86.0664 116.999 86.0664 116.04C86.0664 115.72 86.3852 115.081 86.7039 115.081C87.0227 114.761 87.6602 114.761 88.2977 114.761C88.9353 114.761 89.5728 114.761 89.8915 115.081C90.2103 115.401 90.5291 115.72 90.5291 116.36H89.254C89.254 116.04 89.254 116.04 88.9353 116.04C88.9353 116.04 88.6165 115.72 88.2977 115.72C87.979 115.72 87.979 115.72 87.6602 115.72L87.3415 116.04C87.3415 116.04 87.3415 116.36 87.6602 116.36C87.6602 116.36 87.979 116.679 88.2977 116.679C88.6165 116.679 88.9353 116.679 89.254 116.999C89.8915 117.319 90.2103 117.638 90.2103 118.278C90.2103 118.597 89.8915 119.237 89.5728 119.237C89.254 119.556 88.6165 119.556 87.979 119.556C87.6602 119.556 87.3414 119.556 87.0227 119.237C86.7039 119.237 86.3852 118.917 86.3852 118.597C86.0664 118.597 86.0664 118.278 86.0664 117.958H87.3415C87.3415 118.278 87.3415 118.278 87.6602 118.597C87.979 118.917 87.979 118.917 88.2977 118.917C88.6165 118.917 88.6165 118.917 88.9353 118.917C88.9353 118.597 88.9353 118.278 88.9353 118.278Z" fill="#4FBCC6"/>
<path d="M19.4435 131.064V130.745C19.1247 130.745 18.4872 131.064 18.1684 131.064C17.5309 131.064 17.2121 131.064 16.8934 130.745C16.5746 130.425 16.2559 130.105 16.2559 129.786C16.2559 129.146 16.5746 128.827 16.8934 128.507C17.2121 128.187 17.8497 127.868 18.806 127.868H19.4435V127.548C19.4435 127.228 19.4435 127.228 19.1247 126.909C18.806 126.589 18.806 126.589 18.4872 126.589C18.1684 126.589 18.1684 126.589 17.8497 126.909L17.5309 127.228H16.5746C16.5746 126.909 16.5746 126.589 16.8934 126.269C17.2121 125.95 17.2121 125.95 17.5309 125.63C17.8497 125.63 18.1684 125.31 18.4872 125.31C19.1247 125.31 19.4435 125.31 20.081 125.63C20.3998 125.95 20.7185 126.269 20.7185 126.909V129.146C20.7185 129.466 20.7185 130.105 21.0373 130.105H19.4435V131.064ZM18.4872 130.105C18.806 130.105 18.806 130.105 19.1247 130.105C19.4435 130.105 19.4435 129.786 19.4435 129.786V128.827H18.806C18.1684 128.827 17.8497 129.146 17.8497 129.466C17.8497 129.786 17.8497 129.786 18.1684 129.786C18.1684 130.105 18.1684 130.105 18.4872 130.105Z" fill="#4FBCC6"/>
<path d="M21.3574 128.507C21.3574 127.868 21.6762 127.228 21.9949 126.589C22.3137 126.269 22.9512 125.95 23.5888 125.95C24.2263 125.95 24.545 126.269 24.8638 126.589V126.269H26.1388V131.064C26.1388 131.384 26.1388 132.023 25.8201 132.343C25.5013 132.663 25.5013 132.982 24.8638 132.982C24.545 133.302 24.2263 133.302 23.5888 133.302C23.27 133.302 22.9512 133.302 22.6325 132.982C22.3137 132.982 21.9949 132.663 21.9949 132.343L22.3137 131.384C22.6325 131.704 22.9512 132.023 23.5888 132.023C23.9075 132.023 24.2263 132.023 24.545 131.704C24.8638 131.384 24.8638 131.384 24.8638 130.745V130.425C24.2263 130.745 23.9075 131.064 23.5888 131.064C22.9512 131.064 22.6325 130.745 21.9949 130.425C21.3574 130.105 21.3574 129.146 21.3574 128.507ZM22.6325 128.507C22.6325 128.827 22.6325 129.466 22.9512 129.466C23.27 129.786 23.27 129.786 23.5888 129.786C23.9075 129.786 24.2263 129.786 24.545 129.466V127.228C24.2263 126.909 24.2263 126.909 23.5888 126.909C23.27 126.909 22.9512 126.909 22.9512 127.228C22.9512 127.548 22.6325 127.868 22.6325 128.507Z" fill="#4FBCC6"/>
<path d="M29.9634 131.064V130.745C29.3259 130.745 29.0071 131.064 28.3696 131.064C27.7321 131.064 27.4133 131.064 27.0946 130.745C26.7758 130.425 26.457 130.105 26.457 129.786C26.457 129.146 26.7758 128.827 27.0946 128.507C27.4133 128.187 28.3696 127.868 29.0071 127.868H29.6446V127.548C29.6446 127.228 29.6446 127.228 29.3259 126.909C29.0071 126.589 29.0071 126.589 28.6884 126.589C28.3696 126.589 28.3696 126.589 28.0508 126.909C27.7321 127.228 27.7321 127.228 27.7321 127.228H27.0946C27.0946 126.909 27.0946 126.589 27.4133 126.269C27.7321 125.95 27.7321 125.95 28.0508 125.63C28.3696 125.63 28.6884 125.31 29.0071 125.31C29.6446 125.31 29.9634 125.31 30.6009 125.63C30.9197 125.95 31.2385 126.269 31.2385 126.909V129.146C31.2385 129.466 31.2385 130.105 31.5572 130.105H29.9634V131.064ZM28.6884 130.105C29.0071 130.105 29.0071 130.105 29.3259 130.105C29.6446 130.105 29.6446 129.786 29.6446 129.786V128.827H29.3259C28.6884 128.827 28.3696 129.146 28.3696 129.466C28.3696 129.786 28.3696 129.786 28.6884 129.786C28.3696 130.105 28.6884 130.105 28.6884 130.105Z" fill="#4FBCC6"/>
<path d="M32.1953 124.671C32.1953 124.351 32.1953 124.351 32.5141 124.032C32.5141 124.032 32.8328 123.712 33.1516 123.712C33.4704 123.712 33.4704 123.712 33.7891 124.032C33.7891 124.032 34.1079 124.351 34.1079 124.671C34.1079 124.991 34.1079 124.991 33.7891 125.31C33.7891 125.31 33.4704 125.63 33.1516 125.63C32.8328 125.63 32.8328 125.63 32.5141 125.31C32.1953 124.991 32.1953 124.991 32.1953 124.671ZM33.4704 131.064H32.1953V125.95H33.4704V131.064Z" fill="#4FBCC6"/>
<path d="M35.7012 125.95V126.589C36.02 126.269 36.6575 125.95 36.9763 125.95C37.6138 125.95 37.9326 125.95 38.2513 126.269C38.5701 126.589 38.5701 126.909 38.5701 127.548V130.745H37.295V127.548C37.295 127.228 37.295 126.909 36.9763 126.909C36.9763 126.909 36.6575 126.589 36.3388 126.589C36.02 126.589 35.7012 126.589 35.3825 126.909V131.064H34.1074V125.95H35.7012Z" fill="#4FBCC6"/>
<path d="M42.3942 129.466C42.3942 129.146 42.3942 129.146 42.0755 129.146C41.7567 129.146 41.7567 128.827 41.438 128.827C40.1629 128.507 39.5254 128.187 39.5254 127.228C39.5254 126.909 39.8442 126.269 40.1629 126.269C40.4817 125.95 41.1192 125.95 41.7567 125.95C42.3942 125.95 43.0318 125.95 43.3505 126.269C43.6693 126.589 43.9881 126.909 43.9881 127.548H42.713C42.713 127.228 42.713 127.228 42.3942 127.228C42.3942 127.228 42.0755 126.909 41.7567 126.909C41.438 126.909 41.438 126.909 41.1192 126.909C40.8004 126.909 40.8004 127.228 40.8004 127.228C40.8004 127.228 40.8004 127.548 41.1192 127.548C41.1192 127.548 41.438 127.868 41.7567 127.868C42.0755 127.868 42.3942 127.868 42.713 128.187C43.3505 128.507 43.6693 128.827 43.6693 129.466C43.6693 129.786 43.3505 130.425 43.0318 130.425C42.713 130.745 42.0755 130.745 41.438 130.745C41.1192 130.745 40.8004 130.745 40.4817 130.425C40.1629 130.425 39.8442 130.105 39.8442 129.786C39.5254 129.466 39.5254 129.146 39.5254 128.827H40.8004C40.8004 129.146 40.8004 129.146 41.1192 129.466C41.438 129.466 41.438 129.786 41.7567 129.786C42.0755 129.786 42.0755 129.786 42.3942 129.786C42.3942 129.786 42.3942 129.786 42.3942 129.466Z" fill="#4FBCC6"/>
<path d="M46.2196 124.671V125.95H47.1759V126.909H46.2196V129.466C46.2196 129.786 46.2196 129.786 46.2196 129.786H46.5384H46.8571V131.064C46.5384 131.064 46.2196 131.064 45.9009 131.064C44.9446 131.064 44.6258 130.745 44.6258 129.786V127.228H43.9883V126.269H44.6258V124.671H46.2196Z" fill="#4FBCC6"/>
<path d="M55.4635 128.827C55.4635 129.466 55.1447 130.105 54.5072 130.425C54.1884 130.745 53.5509 131.064 52.9134 131.064C51.9571 131.064 51.3196 130.745 51.0008 130.105C50.3633 129.466 50.3633 128.827 50.3633 127.868V127.548C50.3633 126.909 50.3633 126.269 50.682 125.95C51.0008 125.31 51.3196 124.991 51.6383 124.671C51.9571 124.351 52.5946 124.351 53.2321 124.351C53.8697 124.351 54.5072 124.671 55.1447 124.991C55.7822 125.31 55.7822 125.95 56.101 126.589H54.1884C54.1884 126.269 54.1884 125.95 53.8697 125.63C53.5509 125.31 53.2321 125.31 52.9134 125.31C52.5946 125.31 51.9571 125.63 51.9571 125.95C51.9571 126.269 51.6383 126.909 51.6383 127.548V127.868C51.6383 128.507 51.6383 129.146 51.9571 129.466C52.2758 129.786 52.5946 130.105 52.9134 130.105C53.2321 130.105 53.5509 130.105 53.8697 129.786C54.1884 129.466 54.1884 129.146 54.1884 128.827H55.4635Z" fill="#4FBCC6"/>
<path d="M56.1016 128.507C56.1016 127.868 56.1016 127.548 56.4203 127.228C56.7391 126.909 56.7391 126.589 57.3766 126.269C57.6954 125.95 58.0141 125.95 58.6517 125.95C59.2892 125.95 59.9267 126.269 60.2455 126.589C60.5642 126.909 60.883 127.548 60.883 128.187V128.507C60.883 129.146 60.5642 129.786 60.2455 130.425C59.9267 131.064 59.2892 131.064 58.6517 131.064C58.0141 131.064 57.3766 130.745 57.0578 130.425C56.7391 130.105 56.1016 129.146 56.1016 128.507ZM57.3766 128.507C57.3766 128.827 57.3766 129.466 57.6954 129.466C58.0141 129.786 58.0141 129.786 58.3329 129.786C58.6517 129.786 58.9704 129.786 58.9704 129.466C59.2892 129.146 59.2892 128.827 59.2892 128.187C59.2892 127.868 59.2892 127.228 58.9704 127.228C58.6517 126.909 58.6517 126.909 58.3329 126.909C58.0141 126.909 57.6954 126.909 57.6954 127.228C57.6954 127.548 57.3766 127.868 57.3766 128.507Z" fill="#4FBCC6"/>
<path d="M63.4325 129.466L64.3888 125.95H65.6638L64.07 131.064H62.795L61.2012 125.95H62.4762L63.4325 129.466Z" fill="#4FBCC6"/>
<path d="M66.3027 124.671C66.3027 124.351 66.3027 124.351 66.6215 124.032C66.6215 124.032 66.9403 123.712 67.259 123.712C67.5778 123.712 67.5778 123.712 67.8965 124.032C67.8965 124.032 68.2153 124.351 68.2153 124.671C68.2153 124.991 68.2153 124.991 67.8965 125.31C67.8965 125.31 67.5778 125.63 67.259 125.63C66.9403 125.63 66.9403 125.63 66.6215 125.31C66.3027 124.991 66.3027 124.991 66.3027 124.671ZM67.8965 131.064H66.6215V125.95H67.8965V131.064Z" fill="#4FBCC6"/>
<path d="M68.5332 128.507C68.5332 127.868 68.852 127.228 69.1707 126.589C69.4895 126.269 70.127 125.95 70.4458 125.95C71.0833 125.95 71.4021 126.269 71.7208 126.589V124.032H72.9959V131.064H71.7208V130.425C71.4021 130.745 71.0833 131.064 70.4458 131.064C69.8083 131.064 69.4895 130.745 69.1707 130.425C68.852 130.105 68.5332 129.146 68.5332 128.507ZM70.127 128.507C70.127 128.827 70.127 129.466 70.4458 129.466C70.7645 129.466 70.7645 129.786 71.0833 129.786C71.4021 129.786 71.7208 129.466 72.0396 129.146V127.228C71.7208 126.909 71.7208 126.589 71.0833 126.589C70.4458 126.909 70.127 127.548 70.127 128.507Z" fill="#4FBCC6"/>
<path d="M76.8216 128.507H74.2715V127.548H76.8216V128.507Z" fill="#4FBCC6"/>
<path d="M80.9665 131.064H79.6915V125.95L78.0977 126.589V125.63L80.9665 124.671V131.064Z" fill="#4FBCC6"/>
<path d="M86.3829 128.187C86.0642 128.507 85.7454 128.827 85.1079 128.827C84.4704 128.827 84.1516 128.507 83.8328 128.187C83.5141 127.868 83.1953 127.228 83.1953 126.589C83.1953 126.269 83.1953 125.63 83.5141 125.31C83.8328 124.991 83.8328 124.671 84.4704 124.351C84.7891 124.032 85.1079 124.032 85.7454 124.032C86.0642 124.032 86.7017 124.032 87.0205 124.351C87.3392 124.671 87.658 124.991 87.9767 125.31C88.2955 125.63 88.2955 126.269 88.2955 126.589V127.228C88.2955 128.187 87.9767 129.146 87.3392 129.786C86.0642 130.745 85.4266 131.064 84.4704 131.064H84.1516V130.105H84.4704C85.4266 129.786 86.0642 129.146 86.3829 128.187ZM85.4266 127.868C85.7454 127.868 85.7454 127.868 86.0642 127.548L86.3829 127.228V126.589C86.3829 126.269 86.3829 125.63 86.0642 125.63C85.7454 125.31 85.7454 125.31 85.4266 125.31C85.1079 125.31 84.7891 125.31 84.7891 125.63C84.4704 125.95 84.4704 126.269 84.4704 126.589C84.4704 126.909 84.4704 127.228 84.7891 127.548C84.7891 127.548 85.1079 127.868 85.4266 127.868Z" fill="#4FBCC6"/>
<path d="M29.3262 59.1388L43.3517 85.6714L72.0402 57.2208L74.9091 59.7782V44.4341H59.2898L62.1586 47.3111L43.3517 65.5322L29.3262 59.1388Z" fill="#77C043"/>
</svg>
