<svg width="87" height="117" viewBox="0 0 87 117" fill="none" xmlns="http://www.w3.org/2000/svg">
<path d="M80.8714 0.416992H5.2685C2.37082 0.416992 0 2.79457 0 5.70049V111.37C0 114.276 2.37082 116.654 5.2685 116.654H81.1349C84.0325 116.654 86.4034 114.276 86.4034 111.37V5.70049C86.1399 2.79457 83.7691 0.416992 80.8714 0.416992ZM42.9383 80.9904C27.1328 80.9904 14.4884 68.31 14.4884 52.4595C14.4884 36.609 27.1328 23.9286 42.9383 23.9286C58.7437 23.9286 71.3881 36.609 71.3881 52.4595C71.3881 68.0458 58.7437 80.9904 42.9383 80.9904Z" fill="#542972"/>
<path d="M14.2249 15.475C14.2249 15.2108 14.2249 14.9466 13.9615 14.6825C13.6981 14.4183 13.4347 14.4183 12.9078 14.4183C12.381 14.1541 12.1175 13.8899 11.5907 13.8899C10.8004 13.3616 10.537 12.8332 10.537 12.0407C10.537 11.5124 10.537 11.2482 10.8004 10.984C11.0638 10.7198 11.3273 10.4556 11.8541 10.1915C12.381 9.9273 12.6444 9.9273 13.1712 9.9273C13.6981 9.9273 14.2249 9.9273 14.4884 10.1915C15.0152 10.4556 15.2786 10.7198 15.5421 10.984C15.8055 11.2482 15.8055 11.7765 15.8055 12.3049H14.2249C14.2249 12.0407 14.2249 11.7765 13.9615 11.5123C13.6981 11.2482 13.4347 10.984 13.1712 10.984C12.9078 10.984 12.381 10.984 12.381 11.2482C12.1175 11.5123 11.8541 11.7765 11.8541 12.0407C11.8541 12.3049 11.8541 12.569 12.1175 12.569C12.381 12.8332 12.6444 12.8332 13.1712 13.0974C14.2249 13.3616 14.7518 13.6258 15.2786 13.8899C15.5421 14.4183 15.8055 14.9466 15.8055 15.475C15.8055 16.0033 15.5421 16.5317 15.0152 17.06C14.7518 17.3242 13.9615 17.5884 13.1712 17.5884C12.6444 17.5884 12.1175 17.5884 11.5907 17.3242C11.0638 17.06 10.8004 16.7959 10.537 16.2675C10.2736 15.7392 10.2736 15.475 10.2736 14.9466H11.8541C11.8541 16.0033 12.1175 16.2675 13.1712 16.2675C13.4347 16.2675 13.6981 16.2675 13.9615 16.0033C14.2249 16.0033 14.2249 15.7392 14.2249 15.475Z" fill="white"/>
<path d="M21.074 15.7392H18.4398L17.9129 17.3242H16.3324L18.9666 9.9273H20.2838L22.918 17.3242H21.6009L21.074 15.7392ZM18.9666 14.6825H20.8106L19.7569 12.0407L18.9666 14.6825Z" fill="white"/>
<path d="M28.4499 14.4183H25.5522V17.3242H23.9717V9.9273H28.9768V11.2482H25.5522V13.0974H28.4499V14.4183Z" fill="white"/>
<path d="M34.2453 14.1541H31.3476V16.2675H34.7722V17.5884H29.7671V9.9273H34.7722V11.2482H31.3476V13.0974H34.2453V14.1541Z" fill="white"/>
<path d="M41.3578 11.2482H38.987V17.3242H37.4065V11.2482H35.2991V9.9273H41.3578V11.2482Z" fill="white"/>
<path d="M45.0456 13.3616L46.6262 9.9273H48.2067L45.8359 14.6825V17.3242H44.2553V14.6825L41.8845 9.9273H43.4651L45.0456 13.3616Z" fill="white"/>
<path d="M55.5827 15.475C55.5827 15.2108 55.5827 14.9466 55.3193 14.6824C55.0559 14.4183 54.7924 14.4183 54.2656 14.1541C53.7387 13.8899 53.2119 13.8899 52.9485 13.6257C52.1582 13.0974 51.6313 12.569 51.6313 11.7765C51.6313 11.2482 51.6313 10.984 51.8948 10.7198C52.1582 10.4556 52.4216 10.1915 52.9485 9.92728C53.4753 9.66311 53.7387 9.66311 54.2656 9.66311C54.7924 9.66311 55.3193 9.66311 55.5827 9.92728C56.1096 10.1915 56.373 10.4556 56.6364 10.7198C56.8998 10.984 56.8998 11.5123 56.8998 11.7765H55.3193C55.3193 11.5123 55.3193 11.2482 55.0559 10.984C55.0559 11.2482 54.7924 10.984 54.2656 10.984C54.0022 10.984 53.4753 10.984 53.4753 11.2482C53.2119 11.5123 53.2119 11.5123 53.2119 11.7765C53.2119 12.0407 53.2119 12.3049 53.4753 12.3049C53.7387 12.569 54.0022 12.569 54.529 12.8332C55.3193 13.3616 56.1096 13.6257 56.373 13.8899C56.6364 14.1541 56.8998 14.6824 56.8998 15.2108C56.8998 15.7391 56.6364 16.2675 56.1096 16.7958C55.5827 17.06 55.0559 17.3242 54.2656 17.3242C53.7387 17.3242 53.2119 17.3242 52.685 17.06C52.1582 16.7958 51.8948 16.7958 51.6313 16.2675C51.3679 16.0033 51.3679 15.475 51.3679 14.9466H52.9485C52.9485 15.7391 53.4753 16.2675 54.529 16.2675C54.7924 16.2675 55.0559 16.2675 55.3193 16.0033C55.3193 16.0033 55.5827 15.7391 55.5827 15.475Z" fill="white"/>
<path d="M62.6951 14.1541H59.7975V16.2675H63.222V17.5884H58.2169V9.9273H63.222V11.2482H59.7975V13.0974H62.6951V14.1541Z" fill="white"/>
<path d="M68.2271 15.7392H65.5929L65.066 17.3242H63.4855L66.1197 9.9273H67.4368L70.0711 17.3242H68.4905L68.2271 15.7392ZM66.1197 14.6825H67.9637L66.91 12.0407L66.1197 14.6825Z" fill="white"/>
<path d="M72.7053 16.2675H75.8664V17.5884H71.1248V9.9273H72.7053V16.2675Z" fill="white"/>
<path d="M18.9666 88.3873L19.7569 84.4247H20.8106L19.4935 89.9724H18.4398L17.6495 86.2739L16.8592 89.9724H15.5421L14.225 84.4247H15.2787L16.0689 88.3873L16.8592 84.4247H17.9129L18.9666 88.3873Z" fill="#4FBCC6"/>
<path d="M23.1814 89.9724C22.6545 89.9724 22.1277 89.7082 21.6008 89.444C21.3374 89.1798 21.074 88.6515 21.074 87.859C21.074 87.3306 21.074 87.0664 21.3374 86.8023C21.6008 86.5381 21.6008 86.2739 22.1277 86.0097C22.3911 85.7456 22.6545 85.7456 23.1814 85.7456C23.7082 85.7456 24.2351 86.0097 24.4985 86.2739C24.7619 86.5381 25.0253 87.0664 25.0253 87.859V88.3873H22.3911C22.3911 88.6515 22.6545 88.9157 22.6545 88.9157C22.9179 89.1798 23.1814 89.1798 23.4448 89.1798C23.9716 89.1798 24.2351 88.9157 24.4985 88.6515L25.0253 89.1798C24.7619 89.444 24.7619 89.7082 24.2351 89.7082C23.7082 89.9724 23.4448 89.9724 23.1814 89.9724ZM22.9179 86.5381C22.6545 86.5381 22.6545 86.5381 22.3911 86.8023C22.1277 87.0664 22.1277 87.0664 22.1277 87.3306H23.7082C23.7082 87.0664 23.7082 86.8023 23.4448 86.8023C23.4448 86.5381 23.1814 86.5381 22.9179 86.5381Z" fill="#4FBCC6"/>
<path d="M27.6595 89.9724V86.5381H27.1327V85.7456H27.6595V85.4814C27.6595 84.9531 27.923 84.6889 28.1864 84.4247C28.4498 84.1605 28.7132 84.1605 29.2401 84.1605C29.5035 84.1605 29.5035 84.1605 29.7669 84.1605V84.9531H29.5035C28.9767 84.9531 28.9767 85.2172 28.9767 85.4814V85.7456H29.7669V86.5381H28.9767V89.9724H27.6595Z" fill="#4FBCC6"/>
<path d="M30.0304 87.859C30.0304 87.3306 30.0304 87.0664 30.2938 86.8023C30.5572 86.5381 30.5572 86.2739 31.0841 86.0097C31.3475 85.7456 31.6109 85.7456 32.1378 85.7456C32.6646 85.7456 33.1915 86.0097 33.4549 86.2739C33.7183 86.5381 33.9818 87.0664 33.9818 87.5948V87.859C33.9818 88.3873 33.7183 88.9157 33.4549 89.444C33.1915 89.7082 32.6646 89.9724 32.1378 89.9724C31.6109 89.9724 31.0841 89.7082 30.8207 89.444C30.2938 88.9157 30.0304 88.3873 30.0304 87.859ZM31.0841 87.859C31.0841 88.1231 31.0841 88.6515 31.3475 88.6515C31.6109 88.9157 31.6109 88.9157 31.8744 88.9157C32.1378 88.9157 32.4012 88.9157 32.4012 88.6515C32.6646 88.3873 32.6646 88.1231 32.6646 87.5948C32.6646 87.3306 32.6646 86.8023 32.4012 86.8023C32.1378 86.5381 32.1378 86.5381 31.8744 86.5381C31.6109 86.5381 31.3475 86.5381 31.3475 86.8023C31.0841 87.0664 31.0841 87.3306 31.0841 87.859Z" fill="#4FBCC6"/>
<path d="M35.8258 89.9724H34.7721V84.1605H35.8258V89.9724Z" fill="#4FBCC6"/>
<path d="M37.9332 89.9724H36.8795V84.1605H37.9332V89.9724Z" fill="#4FBCC6"/>
<path d="M38.4601 87.859C38.4601 87.3306 38.4601 87.0664 38.7235 86.8023C38.9869 86.5381 38.9869 86.2739 39.5138 86.0097C39.7772 85.7456 40.0406 85.7456 40.5675 85.7456C41.0943 85.7456 41.6212 86.0097 41.8846 86.2739C42.148 86.5381 42.4115 87.0664 42.4115 87.5948V87.859C42.4115 88.3873 42.148 88.9157 41.8846 89.444C41.6212 89.9724 41.0943 89.9724 40.5675 89.9724C40.0406 89.9724 39.5138 89.7082 39.2504 89.444C38.7235 88.9157 38.4601 88.3873 38.4601 87.859ZM39.7772 87.859C39.7772 88.1231 39.7772 88.6515 40.0406 88.6515C40.3041 88.9157 40.3041 88.9157 40.5675 88.9157C40.8309 88.9157 41.0943 88.9157 41.0943 88.6515C41.3578 88.3873 41.3578 88.1231 41.3578 87.5948C41.3578 87.3306 41.3578 86.8023 41.0943 86.8023C40.8309 86.5381 40.8309 86.5381 40.5675 86.5381C40.3041 86.5381 40.0406 86.5381 40.0406 86.8023C39.7772 87.0664 39.7772 87.3306 39.7772 87.859Z" fill="#4FBCC6"/>
<path d="M46.6262 88.3873L47.153 85.7456H48.2067L47.153 89.9724H46.3628L45.5725 87.3306L44.7822 89.9724H43.9919L42.9382 85.7456H43.9919L44.5188 88.3873L45.3091 85.7456H46.0993L46.6262 88.3873Z" fill="#4FBCC6"/>
<path d="M52.9485 88.6515C52.9485 88.3873 52.9485 88.3873 52.685 88.3873C52.4216 88.3873 52.4216 88.1231 52.1582 88.1231C51.1045 87.859 50.5776 87.5948 50.5776 86.8023C50.5776 86.5381 50.8411 86.0097 51.1045 86.0097C51.3679 85.7456 51.8948 85.7456 52.4216 85.7456C52.9485 85.7456 53.4753 85.7456 53.7387 86.0097C54.0022 86.2739 54.2656 86.5381 54.2656 87.0664H53.2119C53.2119 86.8023 53.2119 86.8023 52.9485 86.8023C52.9485 86.8023 52.685 86.5381 52.4216 86.5381C52.1582 86.5381 52.1582 86.5381 51.8948 86.5381C51.6313 86.5381 51.6313 86.8023 51.6313 86.8023C51.6313 86.8023 51.6313 87.0664 51.8948 87.0664C51.8948 87.0664 52.1582 87.3306 52.4216 87.3306C52.685 87.3306 52.9485 87.3306 53.2119 87.5948C53.7387 87.859 54.0022 88.1231 54.0022 88.6515C54.0022 88.9157 53.7387 89.444 53.4753 89.444C53.2119 89.7082 52.685 89.7082 52.1582 89.7082C51.8948 89.7082 51.6313 89.7082 51.3679 89.444C51.1045 89.444 50.8411 89.1798 50.8411 88.9157C50.5776 88.6515 50.5776 88.3873 50.5776 88.1231H51.6313C51.6313 88.3873 51.6313 88.3873 51.8948 88.6515C52.1582 88.6515 52.1582 88.9157 52.4216 88.9157C52.685 88.9157 52.685 88.9157 52.9485 88.9157C52.9485 88.9157 52.9485 88.9157 52.9485 88.6515Z" fill="#4FBCC6"/>
<path d="M57.1633 89.9724V89.7082C56.8999 89.9724 56.6364 90.2365 56.1096 90.2365C55.5827 90.2365 55.3193 90.2365 55.0559 89.9724C54.7925 89.7082 54.5291 89.444 54.5291 89.1798C54.5291 88.6515 54.7925 88.3873 55.0559 88.1231C55.3193 87.859 55.8462 87.859 56.373 87.859H56.8999V87.5948C56.8999 87.3306 56.8999 87.3306 56.6365 87.0664C56.373 86.8023 56.373 86.8023 56.1096 86.8023C55.8462 86.8023 55.8462 86.8023 55.5828 87.0664L55.3193 87.3306H54.2656C54.2656 87.0664 54.2656 86.8023 54.5291 86.5381C54.7925 86.2739 54.7925 86.2739 55.0559 86.0097C55.3193 86.0097 55.5828 85.7456 55.8462 85.7456C56.373 85.7456 56.6365 85.7456 57.1633 86.0097C57.4267 86.2739 57.6902 86.5381 57.6902 87.0664V88.9157C57.6902 89.1798 57.6902 89.7082 57.9536 89.7082H57.1633V89.9724ZM56.373 89.1798C56.6364 89.1798 56.6365 89.1798 56.8999 89.1798C57.1633 89.1798 57.1633 88.9157 57.1633 88.9157V88.1231H56.6365C56.1096 88.1231 55.8462 88.3873 55.8462 88.6515C55.8462 88.9157 55.8462 88.9157 56.1096 88.9157C55.8462 89.1798 56.1096 89.1798 56.373 89.1798Z" fill="#4FBCC6"/>
<path d="M59.2705 89.9724V86.5381H58.7437V85.7456H59.2705V85.4814C59.2705 84.9531 59.5339 84.6889 59.7974 84.4247C60.0608 84.1605 60.3242 84.1605 60.8511 84.1605C61.1145 84.1605 61.1145 84.1605 61.3779 84.1605V84.9531H61.1145C60.5876 84.9531 60.5876 85.2172 60.5876 85.4814V85.7456H61.3779V86.5381H60.5876V89.9724H59.2705Z" fill="#4FBCC6"/>
<path d="M63.4855 89.9724C62.9586 89.9724 62.4318 89.7082 61.9049 89.444C61.6415 89.1798 61.3781 88.6515 61.3781 87.859C61.3781 87.3306 61.3781 87.0664 61.6415 86.8023C61.9049 86.5381 61.9049 86.2739 62.4318 86.0097C62.6952 85.7456 62.9586 85.7456 63.4855 85.7456C64.0123 85.7456 64.5392 86.0097 64.8026 86.2739C65.066 86.5381 65.3294 87.0664 65.3294 87.859V88.3873H62.6952C62.6952 88.6515 62.9586 88.9157 62.9586 88.9157C63.222 89.1798 63.4855 89.1798 63.7489 89.1798C64.2757 89.1798 64.5392 88.9157 64.8026 88.6515L65.3294 89.1798C65.066 89.444 65.066 89.7082 64.5392 89.7082C64.2757 89.9724 63.7489 89.9724 63.4855 89.9724ZM63.4855 86.5381C63.222 86.5381 63.222 86.5381 62.9586 86.8023C62.6952 87.0664 62.6952 87.0664 62.6952 87.3306H64.2757C64.2757 87.0664 64.2757 86.8023 64.0123 86.8023C63.7489 86.5381 63.7489 86.5381 63.4855 86.5381Z" fill="#4FBCC6"/>
<path d="M67.1733 84.6889V85.7456H67.9636V86.5381H67.1733V88.6515C67.1733 88.9157 67.1733 88.9157 67.1733 88.9157H67.4367H67.7002V89.7082C67.4367 89.7082 67.1733 89.7082 66.9099 89.7082C66.1196 89.7082 65.8562 89.444 65.8562 88.6515V86.5381H65.3293V85.7456H65.8562V84.6889H67.1733Z" fill="#4FBCC6"/>
<path d="M70.071 88.3873L70.8613 85.7456H71.915L70.3345 90.5007V90.7649C70.071 91.2932 69.8076 91.5574 69.0173 91.5574C68.7539 91.5574 68.7539 91.5574 68.4905 91.5574V90.7649H68.7539C69.0173 90.7649 69.0173 90.7649 69.2807 90.7649C69.5442 90.7649 69.5442 90.5007 69.5442 90.5007V90.2365L68.2271 86.0097H69.2807L70.071 88.3873Z" fill="#4FBCC6"/>
<path d="M11.5907 97.8976C11.5907 97.6335 11.5907 97.3693 11.8541 97.1051C12.1175 96.8409 12.381 96.5768 12.6444 96.3126C12.381 96.0484 12.381 95.7842 12.381 95.7842C12.381 95.5201 12.1175 95.2559 12.1175 95.2559C12.1175 94.7275 12.381 94.4634 12.6444 94.1992C12.9078 93.935 13.1712 93.6708 13.6981 93.6708C14.2249 93.6708 14.4884 93.6708 14.7518 93.935C15.0152 94.1992 15.2786 94.4634 15.2786 94.7275C15.2786 95.2559 15.0152 95.5201 14.4884 95.7842L13.9615 96.0484L15.0152 97.1051C15.2786 96.8409 15.2786 96.5768 15.2786 96.0484H15.8055C15.8055 96.8409 15.5421 97.3693 15.2786 97.8976L16.0689 98.9543H15.0152L14.7518 98.6902C14.2249 98.9543 13.9615 99.2185 13.4347 99.2185C12.9078 99.2185 12.381 98.9543 12.1175 98.6902C11.5907 98.6902 11.5907 98.1618 11.5907 97.8976ZM13.4347 98.426C13.6981 98.426 13.9615 98.426 14.2249 98.1618L13.1712 96.8409C12.9078 97.1051 12.9078 97.3693 12.9078 97.6335C12.9078 97.8976 12.9078 98.1618 13.1712 98.1618C13.4347 98.1618 13.1712 98.426 13.4347 98.426ZM12.9078 94.9917C12.9078 95.2559 12.9078 95.5201 13.1712 95.7842L13.6981 95.5201C13.9615 95.5201 13.9615 95.2559 13.9615 95.2559V94.9917C13.9615 94.9917 13.9615 94.7275 13.6981 94.7275L13.4347 94.4634C13.1712 94.4634 13.1712 94.4634 13.1712 94.7275C12.9078 94.7275 12.9078 94.9917 12.9078 94.9917Z" fill="#4FBCC6"/>
<path d="M19.7568 95.52C20.0202 95.2559 20.2837 94.9917 20.8105 94.9917C21.6008 94.9917 22.1276 95.52 22.1276 96.5767V99.2185H21.0739V96.5767C21.0739 96.3126 21.0739 96.0484 20.8105 96.0484C20.8105 96.0484 20.5471 95.7842 20.2837 95.7842C20.0202 95.7842 19.7568 95.7842 19.4934 96.0484V98.9543H18.7031V93.1425H19.7568V95.52Z" fill="#4FBCC6"/>
<path d="M25.0254 99.2185C24.4985 99.2185 23.9717 98.9543 23.4448 98.6901C22.918 98.426 22.918 97.8976 22.918 97.1051C22.918 96.5767 22.918 96.3126 23.1814 96.0484C23.1814 95.7842 23.4448 95.52 23.7082 95.2559C23.9717 94.9917 24.2351 94.9917 24.7619 94.9917C25.2888 94.9917 25.8156 95.2559 26.0791 95.52C26.3425 95.7842 26.6059 96.3126 26.6059 97.1051V97.6334H23.9717C23.9717 97.8976 24.2351 98.1618 24.2351 98.1618C24.4985 98.426 24.7619 98.426 25.0254 98.426C25.5522 98.426 25.8156 98.1618 26.0791 97.8976L26.6059 98.426C26.3425 98.6901 26.3425 98.9543 25.8156 98.9543C25.5522 99.2185 25.2888 99.2185 25.0254 99.2185ZM24.7619 96.0484C24.4985 96.0484 24.4985 96.0484 24.2351 96.3126C23.9717 96.5767 23.9717 96.5767 23.9717 96.8409H25.5522C25.5522 96.5767 25.5522 96.3126 25.2888 96.3126C25.2888 96.0484 25.0254 96.0484 24.7619 96.0484Z" fill="#4FBCC6"/>
<path d="M29.5036 99.2185V98.9543C29.2402 99.2185 28.9768 99.4827 28.4499 99.4827C27.9231 99.4827 27.6597 99.4827 27.3962 99.2185C27.1328 98.9543 26.8694 98.6901 26.8694 98.426C26.8694 97.8976 27.1328 97.6334 27.3962 97.3693C27.6597 97.1051 28.1865 97.1051 28.7134 97.1051H29.2402V96.8409C29.2402 96.5767 29.2402 96.5767 28.9768 96.3126C28.9768 96.3126 28.7134 96.0484 28.4499 96.0484C28.1865 96.0484 28.1865 96.0484 27.9231 96.3126L27.6597 96.5767H26.606C26.606 96.3126 26.606 96.0484 26.8694 95.7842C27.1328 95.52 27.1328 95.52 27.3962 95.2559C27.6597 94.9917 27.9231 94.9917 28.1865 94.9917C28.7134 94.9917 28.9768 94.9917 29.5036 95.2559C29.7671 95.52 30.0305 95.7842 30.0305 96.3126V98.1618C30.0305 98.426 30.0305 98.9543 30.2939 98.9543H29.5036V99.2185ZM28.7134 98.426C28.9768 98.426 28.9768 98.426 29.2402 98.426C29.5036 98.426 29.5036 98.1618 29.5036 98.1618V97.3693H28.9768C28.4499 97.3693 28.1865 97.6334 28.1865 97.8976C28.1865 98.1618 28.1865 98.1618 28.4499 98.1618C28.7134 98.1618 28.4499 98.426 28.7134 98.426Z" fill="#4FBCC6"/>
<path d="M32.6647 99.2185H31.611V93.4066H32.6647V99.2185Z" fill="#4FBCC6"/>
<path d="M34.7721 94.1992V95.2559H35.5624V96.0484H34.7721V98.1618C34.7721 98.426 34.7721 98.426 34.7721 98.426H35.0355H35.2989V99.2185C35.0355 99.2185 34.7721 99.2185 34.5087 99.2185C33.7184 99.2185 33.455 98.9543 33.455 98.1618V96.0484H32.9281V95.2559H33.455V94.1992H34.7721Z" fill="#4FBCC6"/>
<path d="M37.1429 95.52C37.4064 95.2559 37.6698 94.9917 38.1966 94.9917C38.9869 94.9917 39.5138 95.52 39.5138 96.5767V99.2185H38.4601V96.5767C38.4601 96.3126 38.4601 96.0484 38.1966 96.0484C38.1966 96.0484 37.9332 95.7842 37.6698 95.7842C37.4064 95.7842 37.1429 95.7842 36.8795 96.0484V98.9543H35.8258V93.1425H36.8795V95.52H37.1429Z" fill="#4FBCC6"/>
<path d="M46.0993 97.3693C46.0993 97.8976 45.8359 98.426 45.5725 98.9543C45.309 99.2185 44.7822 99.4827 44.5188 99.4827C43.9919 99.4827 43.7285 99.2185 43.4651 98.9543V100.804H42.4114V94.9917H43.4651V95.52C43.7285 95.2559 43.9919 94.9917 44.5188 94.9917C45.0456 94.9917 45.309 95.2559 45.5725 95.52C45.8359 96.0484 46.0993 96.5767 46.0993 97.3693ZM45.0456 97.1051C45.0456 96.8409 45.0456 96.3126 44.7822 96.3126C44.5188 96.0484 44.5188 96.0484 44.2553 96.0484C43.9919 96.0484 43.7285 96.0484 43.4651 96.3126V98.1618C43.7285 98.426 43.7285 98.6901 44.2553 98.6901C44.7822 98.426 45.0456 97.8976 45.0456 97.1051Z" fill="#4FBCC6"/>
<path d="M48.9971 96.0484C48.7336 96.0484 48.7336 96.0484 48.7336 96.0484C48.2068 96.0484 47.9434 96.3126 47.9434 96.5767V99.2185H46.8896V94.9917H47.9434V95.52C48.2068 95.2559 48.4702 94.9917 48.7336 94.9917H48.9971V96.0484Z" fill="#4FBCC6"/>
<path d="M49.2605 97.1051C49.2605 96.5767 49.2605 96.3126 49.5239 96.0484C49.7873 95.7842 49.7873 95.52 50.3142 95.2559C50.5776 94.9917 50.841 94.9917 51.3679 94.9917C51.8947 94.9917 52.4216 95.2559 52.685 95.52C52.9484 95.7842 53.2119 96.3126 53.2119 96.8409V97.1051C53.2119 97.6334 52.9484 98.1618 52.685 98.6901C52.4216 98.9543 51.8947 99.2185 51.3679 99.2185C50.841 99.2185 50.3142 98.9543 50.0508 98.6901C49.5239 98.426 49.2605 97.8976 49.2605 97.1051ZM50.3142 97.3693C50.3142 97.6334 50.3142 98.1618 50.5776 98.1618C50.841 98.426 50.841 98.426 51.1045 98.426C51.3679 98.426 51.6313 98.426 51.6313 98.1618C51.8947 97.8976 51.8947 97.6334 51.8947 97.1051C51.8947 96.8409 51.8947 96.3126 51.6313 96.3126C51.3679 96.0484 51.3679 96.0484 51.1045 96.0484C50.841 96.0484 50.5776 96.0484 50.5776 96.3126C50.5776 96.5767 50.3142 96.8409 50.3142 97.3693Z" fill="#4FBCC6"/>
<path d="M55.3193 94.1992V95.2559H56.1096V96.0484H55.3193V98.1618C55.3193 98.426 55.3193 98.426 55.3193 98.426H55.5827H55.8462V99.2185C55.5827 99.2185 55.3193 99.2185 55.0559 99.2185C54.2656 99.2185 54.0022 98.9543 54.0022 98.1618V96.0484H53.4753V95.2559H54.0022V94.1992H55.3193Z" fill="#4FBCC6"/>
<path d="M56.1095 97.1051C56.1095 96.5767 56.1095 96.3126 56.3729 96.0484C56.6363 95.7842 56.6364 95.52 57.1632 95.2559C57.4266 94.9917 57.69 94.9917 58.2169 94.9917C58.7437 94.9917 59.2706 95.2559 59.534 95.52C59.7974 95.7842 60.0609 96.3126 60.0609 96.8409V97.1051C60.0609 97.6334 59.7974 98.1618 59.534 98.6901C59.2706 98.9543 58.7437 99.2185 58.2169 99.2185C57.69 99.2185 57.1632 98.9543 56.8998 98.6901C56.3729 98.426 56.1095 97.8976 56.1095 97.1051ZM57.4266 97.3693C57.4266 97.6334 57.4266 98.1618 57.69 98.1618C57.9535 98.426 57.9535 98.426 58.2169 98.426C58.4803 98.426 58.7437 98.426 58.7437 98.1618C59.0072 97.8976 59.0072 97.6334 59.0072 97.1051C59.0072 96.8409 59.0072 96.3126 58.7437 96.3126C58.4803 96.0484 58.4803 96.0484 58.2169 96.0484C57.9535 96.0484 57.69 96.0484 57.69 96.3126C57.4266 96.5767 57.4266 96.8409 57.4266 97.3693Z" fill="#4FBCC6"/>
<path d="M62.4316 98.426C62.695 98.426 62.695 98.426 62.9585 98.1618C62.9585 98.1618 63.2219 97.8976 63.2219 97.6334H64.2756C64.2756 97.8976 64.2756 98.1618 64.0122 98.426C63.7487 98.6901 63.7487 98.9543 63.4853 98.9543C63.2219 98.9543 62.9585 99.2185 62.695 99.2185C62.1682 99.2185 61.6413 98.9543 61.3779 98.6901C61.1145 98.426 60.8511 97.8976 60.8511 97.1051C60.8511 96.5767 61.1145 96.0484 61.3779 95.52C61.6413 95.2559 62.1682 94.9917 62.695 94.9917C63.2219 94.9917 63.7487 95.2559 64.0122 95.52C64.2756 95.7842 64.539 96.3126 64.539 96.5767H63.2219C63.2219 96.3126 63.2219 96.3126 62.9585 96.0484C62.9585 95.7842 62.695 95.7842 62.4316 95.7842C62.1682 95.7842 61.9048 95.7842 61.9048 96.0484C61.9048 96.3126 61.6413 96.5767 61.6413 96.8409C61.6413 97.3693 61.6413 97.6334 61.9048 97.6334C61.9048 98.426 62.1682 98.426 62.4316 98.426Z" fill="#4FBCC6"/>
<path d="M64.8025 97.1051C64.8025 96.5767 64.8025 96.3126 65.0659 96.0484C65.3293 95.7842 65.3293 95.52 65.8562 95.2559C66.1196 94.9917 66.383 94.9917 66.9099 94.9917C67.4367 94.9917 67.9636 95.2559 68.227 95.52C68.4904 95.7842 68.7539 96.3126 68.7539 96.8409V97.1051C68.7539 97.6334 68.4904 98.1618 68.227 98.6901C67.9636 98.9543 67.4367 99.2185 66.9099 99.2185C66.383 99.2185 65.8562 98.9543 65.5928 98.6901C64.8025 98.426 64.8025 97.8976 64.8025 97.1051ZM65.8562 97.3693C65.8562 97.6334 65.8562 98.1618 66.1196 98.1618C66.383 98.426 66.383 98.426 66.6465 98.426C66.9099 98.426 67.1733 98.426 67.1733 98.1618C67.4367 97.8976 67.4367 97.6334 67.4367 97.1051C67.4367 96.8409 67.4367 96.3126 67.1733 96.3126C66.9099 96.0484 66.9099 96.0484 66.6465 96.0484C66.383 96.0484 66.1196 96.0484 66.1196 96.3126C65.8562 96.5767 65.8562 96.8409 65.8562 97.3693Z" fill="#4FBCC6"/>
<path d="M70.3345 99.2185H69.2808V93.4066H70.3345V99.2185Z" fill="#4FBCC6"/>
<path d="M73.4956 98.1618C73.4956 97.8976 73.4956 97.8976 73.2322 97.8976C72.9687 97.8976 72.9687 97.6334 72.7053 97.6334C71.6516 97.3693 71.1248 97.1051 71.1248 96.3126C71.1248 96.0484 71.3882 95.52 71.6516 95.52C71.915 95.2559 72.4419 95.2559 72.9687 95.2559C73.4956 95.2559 74.0224 95.2559 74.2859 95.52C74.5493 95.7842 74.8127 96.0484 74.8127 96.5768H73.759C73.759 96.3126 73.759 96.3126 73.4956 96.3126C73.4956 96.3126 73.2322 96.0484 72.9687 96.0484C72.7053 96.0484 72.7053 96.0484 72.4419 96.0484L72.1785 96.3126C72.1785 96.3126 72.1785 96.5768 72.4419 96.5768C72.4419 96.5768 72.7053 96.8409 72.9687 96.8409C73.2322 96.8409 73.4956 96.8409 73.759 97.1051C74.2859 97.3693 74.5493 97.6334 74.5493 98.1618C74.5493 98.426 74.2859 98.9543 74.0224 98.9543C73.759 99.2185 73.2322 99.2185 72.7053 99.2185C72.4419 99.2185 72.1785 99.2185 71.915 98.9543C71.6516 98.9543 71.3882 98.6901 71.3882 98.426C71.1248 98.426 71.1248 98.1618 71.1248 97.8976H72.1785C72.1785 98.1618 72.1785 98.1618 72.4419 98.426C72.7053 98.6901 72.7053 98.6902 72.9687 98.6902C73.2322 98.6902 73.2322 98.6902 73.4956 98.6902C73.4956 98.426 73.4956 98.1618 73.4956 98.1618Z" fill="#4FBCC6"/>
<path d="M16.0689 108.729V108.465C15.8055 108.465 15.2787 108.729 15.0152 108.729C14.4884 108.729 14.225 108.729 13.9615 108.465C13.6981 108.2 13.4347 107.936 13.4347 107.672C13.4347 107.144 13.6981 106.88 13.9615 106.615C14.225 106.351 14.7518 106.087 15.5421 106.087H16.0689V105.823C16.0689 105.559 16.0689 105.559 15.8055 105.295C15.5421 105.03 15.5421 105.03 15.2787 105.03C15.0152 105.03 15.0152 105.03 14.7518 105.295L14.4884 105.559H13.6981C13.6981 105.295 13.6981 105.03 13.9615 104.766C14.225 104.502 14.225 104.502 14.4884 104.238C14.7518 104.238 15.0152 103.974 15.2787 103.974C15.8055 103.974 16.0689 103.974 16.5958 104.238C16.8592 104.502 17.1226 104.766 17.1226 105.295V107.144C17.1226 107.408 17.1226 107.936 17.3861 107.936H16.0689V108.729ZM15.2787 107.936C15.5421 107.936 15.5421 107.936 15.8055 107.936C16.0689 107.936 16.0689 107.672 16.0689 107.672V106.88H15.5421C15.0152 106.88 14.7518 107.144 14.7518 107.408C14.7518 107.672 14.7518 107.672 15.0152 107.672C15.0152 107.936 15.0152 107.936 15.2787 107.936Z" fill="#4FBCC6"/>
<path d="M17.6494 106.615C17.6494 106.087 17.9128 105.559 18.1763 105.03C18.4397 104.766 18.9665 104.502 19.4934 104.502C20.0202 104.502 20.2837 104.766 20.5471 105.03V104.766H21.6008V108.729C21.6008 108.993 21.6008 109.521 21.3374 109.785C21.0739 110.05 21.0739 110.314 20.5471 110.314C20.2837 110.578 20.0202 110.578 19.4934 110.578C19.23 110.578 18.9665 110.578 18.7031 110.314C18.4397 110.314 18.1763 110.05 18.1763 109.785L18.4397 108.993C18.7031 109.257 18.9665 109.521 19.4934 109.521C19.7568 109.521 20.0202 109.521 20.2837 109.257C20.5471 108.993 20.5471 108.993 20.5471 108.465V108.2C20.0202 108.465 19.7568 108.729 19.4934 108.729C18.9665 108.729 18.7031 108.465 18.1763 108.2C17.6494 107.936 17.6494 107.144 17.6494 106.615ZM18.7031 106.615C18.7031 106.88 18.7031 107.408 18.9665 107.408C19.23 107.672 19.23 107.672 19.4934 107.672C19.7568 107.672 20.0202 107.672 20.2837 107.408V105.559C20.0202 105.295 20.0202 105.295 19.4934 105.295C19.23 105.295 18.9665 105.295 18.9665 105.559C18.9665 105.823 18.7031 106.087 18.7031 106.615Z" fill="#4FBCC6"/>
<path d="M24.7619 108.729V108.465C24.2351 108.465 23.9717 108.729 23.4448 108.729C22.918 108.729 22.6545 108.729 22.3911 108.465C22.1277 108.2 21.8643 107.936 21.8643 107.672C21.8643 107.144 22.1277 106.88 22.3911 106.615C22.6545 106.351 23.4448 106.087 23.9717 106.087H24.4985V105.823C24.4985 105.559 24.4985 105.559 24.2351 105.295C23.9717 105.03 23.9717 105.03 23.7082 105.03C23.4448 105.03 23.4448 105.03 23.1814 105.295C22.918 105.559 22.918 105.559 22.918 105.559H22.3911C22.3911 105.295 22.3911 105.03 22.6545 104.766C22.918 104.502 22.918 104.502 23.1814 104.238C23.4448 104.238 23.7082 103.974 23.9717 103.974C24.4985 103.974 24.7619 103.974 25.2888 104.238C25.5522 104.502 25.8156 104.766 25.8156 105.295V107.144C25.8156 107.408 25.8156 107.936 26.0791 107.936H24.7619V108.729ZM23.7082 107.936C23.9717 107.936 23.9717 107.936 24.2351 107.936C24.4985 107.936 24.4985 107.672 24.4985 107.672V106.88H24.2351C23.7082 106.88 23.4448 107.144 23.4448 107.408C23.4448 107.672 23.4448 107.672 23.7082 107.672C23.4448 107.936 23.7082 107.936 23.7082 107.936Z" fill="#4FBCC6"/>
<path d="M26.606 103.445C26.606 103.181 26.606 103.181 26.8694 102.917C26.8694 102.917 27.1328 102.653 27.3962 102.653C27.6597 102.653 27.6597 102.653 27.9231 102.917C27.9231 102.917 28.1865 103.181 28.1865 103.445C28.1865 103.709 28.1865 103.709 27.9231 103.974C27.9231 103.974 27.6597 104.238 27.3962 104.238C27.1328 104.238 27.1328 104.238 26.8694 103.974C26.606 103.709 26.606 103.709 26.606 103.445ZM27.6597 108.729H26.606V104.502H27.6597V108.729Z" fill="#4FBCC6"/>
<path d="M29.5036 104.502V105.03C29.7671 104.766 30.2939 104.502 30.5573 104.502C31.0842 104.502 31.3476 104.502 31.611 104.766C31.8745 105.03 31.8745 105.295 31.8745 105.823V108.465H30.8208V105.823C30.8208 105.559 30.8208 105.295 30.5573 105.295C30.5573 105.295 30.2939 105.03 30.0305 105.03C29.7671 105.03 29.5036 105.03 29.2402 105.295V108.729H28.1865V104.502H29.5036Z" fill="#4FBCC6"/>
<path d="M35.0355 107.408C35.0355 107.144 35.0355 107.144 34.7721 107.144C34.5086 107.144 34.5086 106.88 34.2452 106.88C33.1915 106.615 32.6647 106.351 32.6647 105.559C32.6647 105.295 32.9281 104.766 33.1915 104.766C33.4549 104.502 33.9818 104.502 34.5086 104.502C35.0355 104.502 35.5623 104.502 35.8258 104.766C36.0892 105.03 36.3526 105.295 36.3526 105.823H35.2989C35.2989 105.559 35.2989 105.559 35.0355 105.559C35.0355 105.559 34.7721 105.295 34.5086 105.295C34.2452 105.295 34.2452 105.295 33.9818 105.295C33.7184 105.295 33.7184 105.559 33.7184 105.559C33.7184 105.559 33.7184 105.823 33.9818 105.823C33.9818 105.823 34.2452 106.087 34.5086 106.087C34.7721 106.087 35.0355 106.087 35.2989 106.351C35.8258 106.615 36.0892 106.88 36.0892 107.408C36.0892 107.672 35.8258 108.2 35.5623 108.2C35.2989 108.465 34.7721 108.465 34.2452 108.465C33.9818 108.465 33.7184 108.465 33.4549 108.2C33.1915 108.2 32.9281 107.936 32.9281 107.672C32.6647 107.408 32.6647 107.144 32.6647 106.88H33.7184C33.7184 107.144 33.7184 107.144 33.9818 107.408C34.2452 107.408 34.2452 107.672 34.5086 107.672C34.7721 107.672 34.7721 107.672 35.0355 107.672C35.0355 107.672 35.0355 107.672 35.0355 107.408Z" fill="#4FBCC6"/>
<path d="M38.1966 103.445V104.502H38.9869V105.295H38.1966V107.408C38.1966 107.672 38.1966 107.672 38.1966 107.672H38.4601H38.7235V108.729C38.4601 108.729 38.1966 108.729 37.9332 108.729C37.1429 108.729 36.8795 108.465 36.8795 107.672V105.559H36.3527V104.766H36.8795V103.445H38.1966Z" fill="#4FBCC6"/>
<path d="M45.8359 106.88C45.8359 107.408 45.5725 107.936 45.0456 108.2C44.7822 108.465 44.2553 108.729 43.7285 108.729C42.9382 108.729 42.4114 108.465 42.1479 107.936C41.6211 107.408 41.6211 106.88 41.6211 106.087V105.823C41.6211 105.295 41.6211 104.766 41.8845 104.502C42.1479 103.974 42.4114 103.709 42.6748 103.445C42.9382 103.181 43.4651 103.181 43.9919 103.181C44.5188 103.181 45.0456 103.445 45.5725 103.709C46.0993 103.974 46.0993 104.502 46.3627 105.03H44.7822C44.7822 104.766 44.7822 104.502 44.5188 104.238C44.2553 103.974 43.9919 103.974 43.7285 103.974C43.4651 103.974 42.9382 104.238 42.9382 104.502C42.9382 104.766 42.6748 105.295 42.6748 105.823V106.087C42.6748 106.615 42.6748 107.144 42.9382 107.408C43.2016 107.672 43.4651 107.936 43.7285 107.936C43.9919 107.936 44.2553 107.936 44.5188 107.672C44.7822 107.408 44.7822 107.144 44.7822 106.88H45.8359Z" fill="#4FBCC6"/>
<path d="M46.3628 106.615C46.3628 106.087 46.3628 105.823 46.6262 105.559C46.8896 105.295 46.8896 105.03 47.4165 104.766C47.6799 104.502 47.9433 104.502 48.4702 104.502C48.997 104.502 49.5239 104.766 49.7873 105.03C50.0507 105.295 50.3142 105.823 50.3142 106.351V106.615C50.3142 107.144 50.0507 107.672 49.7873 108.2C49.5239 108.729 48.997 108.729 48.4702 108.729C47.9433 108.729 47.4165 108.465 47.1531 108.2C46.8896 107.936 46.3628 107.144 46.3628 106.615ZM47.4165 106.615C47.4165 106.88 47.4165 107.408 47.6799 107.408C47.9433 107.672 47.9433 107.672 48.2068 107.672C48.4702 107.672 48.7336 107.672 48.7336 107.408C48.997 107.144 48.997 106.88 48.997 106.351C48.997 106.087 48.997 105.559 48.7336 105.559C48.4702 105.295 48.4702 105.295 48.2068 105.295C47.9433 105.295 47.6799 105.295 47.6799 105.559C47.6799 105.823 47.4165 106.087 47.4165 106.615Z" fill="#4FBCC6"/>
<path d="M52.4216 107.408L53.2119 104.502H54.2656L52.9485 108.729H51.8948L50.5776 104.502H51.6313L52.4216 107.408Z" fill="#4FBCC6"/>
<path d="M54.7924 103.445C54.7924 103.181 54.7924 103.181 55.0558 102.917C55.0558 102.917 55.3192 102.653 55.5826 102.653C55.8461 102.653 55.8461 102.653 56.1095 102.917C56.1095 102.917 56.3729 103.181 56.3729 103.445C56.3729 103.709 56.3729 103.709 56.1095 103.974C56.1095 103.974 55.8461 104.238 55.5826 104.238C55.3192 104.238 55.3192 104.238 55.0558 103.974C54.7924 103.709 54.7924 103.709 54.7924 103.445ZM56.1095 108.729H55.0558V104.502H56.1095V108.729Z" fill="#4FBCC6"/>
<path d="M56.6364 106.615C56.6364 106.087 56.8998 105.559 57.1632 105.03C57.4266 104.766 57.9535 104.502 58.2169 104.502C58.7438 104.502 59.0072 104.766 59.2706 105.03V102.917H60.3243V108.729H59.2706V108.2C59.0072 108.465 58.7438 108.729 58.2169 108.729C57.6901 108.729 57.4266 108.465 57.1632 108.2C56.8998 107.936 56.6364 107.144 56.6364 106.615ZM57.9535 106.615C57.9535 106.88 57.9535 107.408 58.2169 107.408C58.4803 107.408 58.4803 107.672 58.7437 107.672C59.0072 107.672 59.2706 107.408 59.534 107.144V105.559C59.2706 105.295 59.2706 105.03 58.7437 105.03C58.2169 105.295 57.9535 105.823 57.9535 106.615Z" fill="#4FBCC6"/>
<path d="M63.4855 106.615H61.3781V105.823H63.4855V106.615Z" fill="#4FBCC6"/>
<path d="M66.9099 108.729H65.8562V104.502L64.5391 105.03V104.238L66.9099 103.445V108.729Z" fill="#4FBCC6"/>
<path d="M71.3882 106.351C71.1247 106.615 70.8613 106.88 70.3345 106.88C69.8076 106.88 69.5442 106.615 69.2808 106.351C69.0173 106.087 68.7539 105.559 68.7539 105.03C68.7539 104.766 68.7539 104.238 69.0173 103.974C69.2808 103.709 69.2808 103.445 69.8076 103.181C70.071 102.917 70.3345 102.917 70.8613 102.917C71.1247 102.917 71.6516 102.917 71.915 103.181C72.1784 103.445 72.4419 103.709 72.7053 103.974C72.9687 104.238 72.9687 104.766 72.9687 105.03V105.559C72.9687 106.351 72.7053 107.144 72.1784 107.672C71.1247 108.465 70.5979 108.729 69.8076 108.729H69.5442V107.936H69.8076C70.5979 107.672 71.1247 107.144 71.3882 106.351ZM70.5979 106.087C70.8613 106.087 70.8613 106.087 71.1247 105.823L71.3882 105.559V105.03C71.3882 104.766 71.3882 104.238 71.1247 104.238C70.8613 103.974 70.8613 103.974 70.5979 103.974C70.3345 103.974 70.071 103.974 70.071 104.238C69.8076 104.502 69.8076 104.766 69.8076 105.03C69.8076 105.295 69.8076 105.559 70.071 105.823C70.071 105.823 70.3345 106.087 70.5979 106.087Z" fill="#4FBCC6"/>
<path d="M24.2351 49.2894L35.8258 71.2159L59.534 47.7043L61.9049 49.8177V37.1373H48.997L51.3679 39.5149L35.8258 54.5729L24.2351 49.2894Z" fill="#77C043"/>
</svg>
