<svg width="27" height="26" viewBox="0 0 27 26" fill="none" xmlns="http://www.w3.org/2000/svg">
<path d="M13.919 26C21.1425 26 26.9982 20.1797 26.9982 13C26.9982 5.8203 21.1425 0 13.919 0C6.6956 0 0.839844 5.8203 0.839844 13C0.839844 20.1797 6.6956 26 13.919 26Z" fill="#797979"/>
<path d="M11.2856 20.4918C17.6799 20.4918 21.1677 15.234 21.1677 10.6696C21.1677 10.5155 21.1676 10.3807 21.1483 10.2266C21.8265 9.74516 22.4077 9.12886 22.8728 8.43553C22.2527 8.70516 21.5746 8.89775 20.877 8.97479C21.5939 8.55108 22.1365 7.87701 22.4078 7.06812C21.7296 7.47256 20.9933 7.74219 20.1988 7.91553C19.5594 7.24145 18.6681 6.81775 17.6605 6.81775C15.7422 6.81775 14.1921 8.35849 14.1921 10.2652C14.1921 10.5348 14.2308 10.8044 14.289 11.0548C11.4019 10.92 8.84414 9.5333 7.139 7.4533C6.84835 7.95405 6.67396 8.55108 6.67396 9.18664C6.67396 10.3807 7.29401 11.44 8.22409 12.0563C7.66217 12.037 7.11962 11.8829 6.65458 11.6326C6.65458 11.6518 6.65458 11.6518 6.65458 11.6711C6.65458 13.3466 7.85594 14.7333 9.44482 15.0607C9.15417 15.1377 8.84414 15.1763 8.53411 15.1763C8.3016 15.1763 8.08845 15.157 7.87531 15.1185C8.32097 16.4859 9.59982 17.4874 11.1112 17.5066C9.92923 18.4311 8.41786 18.9896 6.79022 18.9896C6.51895 18.9896 6.2283 18.9703 5.95703 18.9511C7.48778 19.914 9.32856 20.4918 11.2856 20.4918Z" fill="white"/>
</svg>
