<svg width="27" height="26" viewBox="0 0 27 26" fill="none" xmlns="http://www.w3.org/2000/svg">
<path d="M26.1584 13C26.1584 5.8163 20.3067 0 13.0792 0C5.85173 0 0 5.8163 0 13C0 19.4904 4.78602 24.8637 11.0447 25.8459V16.7556H7.71188V13H11.0447V10.1304C11.0447 6.87556 12.9823 5.08444 15.9663 5.08444C17.4002 5.08444 18.8922 5.33482 18.8922 5.33482V8.53185H17.2452C15.6175 8.53185 15.1137 9.53333 15.1137 10.5541V13H18.7372L18.1559 16.7556H15.1137V25.8459C21.3724 24.8637 26.1584 19.4904 26.1584 13Z" fill="#797979"/>
<path d="M18.1743 16.7556L18.7556 13H15.1128V10.5541C15.1128 9.53336 15.6166 8.53188 17.2442 8.53188H18.8912V5.33484C18.8912 5.33484 17.3992 5.08447 15.9654 5.08447C12.9814 5.08447 11.0437 6.87558 11.0437 10.1304V13H7.71094V16.7556H11.0437V25.846C11.7025 25.9422 12.4001 26 13.0783 26C13.7758 26 14.454 25.9422 15.1128 25.846V16.7556H18.1743Z" fill="white"/>
</svg>
