<svg width="28" height="26" viewBox="0 0 28 26" fill="none" xmlns="http://www.w3.org/2000/svg">
<path d="M14.0011 26C21.2245 26 27.0803 20.1797 27.0803 13C27.0803 5.8203 21.2245 0 14.0011 0C6.77763 0 0.921875 5.8203 0.921875 13C0.921875 20.1797 6.77763 26 14.0011 26Z" fill="#797979"/>
<path d="M14.0007 6.29778C16.1902 6.29778 16.4615 6.29778 17.3334 6.3363C18.1279 6.37482 18.5735 6.50963 18.8642 6.62519C19.2517 6.77926 19.523 6.9526 19.8136 7.24149C20.1043 7.53037 20.2787 7.8 20.4337 8.18519C20.55 8.47408 20.6856 8.89778 20.7243 9.70667C20.7631 10.5733 20.7631 10.8237 20.7631 13.0193C20.7631 15.2148 20.7631 15.4652 20.7243 16.3319C20.6856 17.1215 20.55 17.5644 20.4337 17.8533C20.2787 18.2385 20.1043 18.5082 19.8136 18.797C19.523 19.0859 19.2517 19.2593 18.8642 19.4133C18.5735 19.5289 18.1473 19.6637 17.3334 19.7022C16.4615 19.7407 16.2096 19.7407 14.0007 19.7407C11.8111 19.7407 11.5398 19.7407 10.6679 19.7022C9.87346 19.6637 9.4278 19.5289 9.13715 19.4133C8.74962 19.2593 8.47835 19.0859 8.1877 18.797C7.89705 18.5082 7.72266 18.2385 7.56765 17.8533C7.45139 17.5644 7.31575 17.1407 7.277 16.3319C7.23825 15.4652 7.23825 15.2148 7.23825 13.0193C7.23825 10.8237 7.23825 10.5733 7.277 9.70667C7.31575 8.91704 7.45139 8.47408 7.56765 8.18519C7.72266 7.8 7.89705 7.53037 8.1877 7.24149C8.47835 6.9526 8.74962 6.77926 9.13715 6.62519C9.4278 6.50963 9.85408 6.37482 10.6679 6.3363C11.5398 6.29778 11.8111 6.29778 14.0007 6.29778ZM14.0007 4.81482C11.7724 4.81482 11.4817 4.81482 10.6098 4.8726C9.73782 4.91112 9.13715 5.04593 8.61398 5.25778C8.07144 5.46963 7.6064 5.73926 7.16074 6.20149C6.6957 6.66371 6.42443 7.10667 6.21129 7.64593C5.99814 8.16593 5.86251 8.76297 5.82376 9.62963C5.785 10.4963 5.76562 10.7852 5.76562 13C5.76562 15.2148 5.76563 15.5037 5.82376 16.3704C5.86251 17.237 5.99814 17.8341 6.21129 18.3541C6.42443 18.8933 6.6957 19.3556 7.16074 19.7985C7.62578 20.2607 8.07144 20.5304 8.61398 20.7422C9.13715 20.9541 9.73782 21.0889 10.6098 21.1274C11.4817 21.1659 11.7724 21.1852 14.0007 21.1852C16.229 21.1852 16.5196 21.1852 17.3916 21.1274C18.2635 21.0889 18.8642 20.9541 19.3874 20.7422C19.9299 20.5304 20.3949 20.2607 20.8406 19.7985C21.3056 19.3363 21.5769 18.8933 21.7901 18.3541C22.0032 17.8341 22.1388 17.237 22.1776 16.3704C22.2163 15.5037 22.2357 15.2148 22.2357 13C22.2357 10.7852 22.2357 10.4963 22.1776 9.62963C22.1388 8.76297 22.0032 8.16593 21.7901 7.64593C21.5769 7.10667 21.3056 6.64445 20.8406 6.20149C20.3756 5.73926 19.9299 5.46963 19.3874 5.25778C18.8642 5.04593 18.2635 4.91112 17.3916 4.8726C16.5196 4.81482 16.2484 4.81482 14.0007 4.81482Z" fill="white"/>
<path d="M14.0014 8.80151C11.6569 8.80151 9.77734 10.6889 9.77734 13C9.77734 15.3111 11.6762 17.1986 14.0014 17.1986C16.346 17.1986 18.2255 15.3111 18.2255 13C18.2255 10.6889 16.346 8.80151 14.0014 8.80151ZM14.0014 15.7348C12.4901 15.7348 11.25 14.5215 11.25 13C11.25 11.4786 12.4707 10.2652 14.0014 10.2652C15.5322 10.2652 16.7529 11.4786 16.7529 13C16.7529 14.5215 15.5128 15.7348 14.0014 15.7348Z" fill="white"/>
<path d="M18.3984 9.61032C18.9441 9.61032 19.3866 9.17056 19.3866 8.6281C19.3866 8.08563 18.9441 7.64587 18.3984 7.64587C17.8526 7.64587 17.4102 8.08563 17.4102 8.6281C17.4102 9.17056 17.8526 9.61032 18.3984 9.61032Z" fill="white"/>
</svg>
