<svg width="38" height="44" viewBox="0 0 38 44" fill="none" xmlns="http://www.w3.org/2000/svg">
<path d="M27.5 27.9C29.4 27 30.6 25.7 30.6 23.6C30.6 20.8 28.7 18.6 25.5 17.1C27.9 16.5 29.5 15.3 29.5 13C29.5 10.6 27.1 8.3 22.6 7.4C23.3 6.7 23.6 5.8 23.6 4.7C23.6 1.4 19.5 0 15.4 0C11.3 0 7.1 1.6 7.1 4.8C7.1 6.9 8.4 8.3 11 9C9.2 10.1 8.3 11.6 8.3 13C8.3 14.2 8.8 15.2 9.6 15.8C3.6 17 0 19.8 0 23.6C0 26.7 2.7 28.2 6.5 28.9C2.3 30.5 0 33.1 0 36.6C0 43.1 8.9 43.7 18.8 43.7C28.7 43.7 37.6 43.2 37.6 36.6C37.6 32.2 34 29.2 27.5 27.9ZM9.4 4.8C9.4 3.5 12 2.4 15.3 2.4C18.6 2.4 21.2 3.5 21.2 4.8C21.2 6.4 19.2 7.2 15.3 7.2C11.4 7.2 9.4 6.4 9.4 4.8ZM18.8 9.5C24.2 9.5 27 11.5 27 13C27 13.6 27 15.4 18.8 15.4C10.6 15.4 10.6 13.7 10.6 13C10.6 11.6 13.5 9.5 18.8 9.5ZM2.4 23.6C2.4 19.5 8.9 17.7 15.3 17.7C21.7 17.7 28.2 19.5 28.2 23.6C28.2 26 24.2 27.1 15.3 27.1C6.3 27.2 2.4 26.1 2.4 23.6ZM18.8 41.3C6.8 41.3 2.3 40 2.3 36.6C2.3 30.1 14.9 29.5 18.8 29.5C22.7 29.5 35.3 30 35.3 36.6C35.3 40 30.8 41.3 18.8 41.3Z" fill="#7A7A7A"/>
</svg>
