<svg width="55" height="37" viewBox="0 0 55 37" fill="none" xmlns="http://www.w3.org/2000/svg">
<path d="M54.3126 14.9687C54.2126 14.7687 54.1126 14.4687 53.9126 14.4687L48.8126 11.4687C47.8126 10.8687 46.6126 10.4688 45.4126 10.2688C46.0126 9.36875 46.4126 8.46875 46.7126 7.46875C47.3126 5.06875 47.0126 2.56875 45.8126 0.46875C45.5126 -0.0312499 45.0126 -0.13125 44.6126 0.16875L39.5126 3.06875C38.5126 3.66875 37.6126 4.46875 36.8126 5.36875C35.3126 2.26875 32.2126 0.16875 28.5126 0.16875C28.0126 0.16875 27.6126 0.56875 27.6126 1.06875V6.96875C27.6126 8.16875 27.9126 9.36875 28.3126 10.4687C27.3126 10.3687 26.3126 10.4688 25.2126 10.7688C23.0126 11.3688 21.2126 12.6687 20.0126 14.4687H18.5126C18.2126 14.1687 17.8126 13.8687 17.5126 13.5687C14.4126 10.4688 8.71256 3.46875 8.61256 3.36875C7.71256 2.36875 6.61256 1.66875 5.21256 1.66875C3.91256 1.56875 2.61256 2.16875 1.71256 3.06875L1.41256 3.36875C0.41256 4.36875 -0.0874415 5.56875 0.0125585 6.86875C0.112558 8.16875 0.612563 9.36875 1.71256 10.2688C1.81256 10.3688 4.11256 12.2687 6.81256 14.5687H1.11256C0.612565 14.5687 0.212563 14.9687 0.212563 15.4687C0.212563 16.9688 1.01256 23.8688 1.01256 24.2688C1.61256 28.2688 4.71256 31.7687 8.71256 32.9688V33.9688C8.71256 35.4688 9.91256 36.6688 11.4126 36.6688H33.4126C34.9126 36.6688 36.1126 35.4688 36.1126 33.9688V32.9688C38.0126 32.3688 39.8126 31.1688 41.2126 29.6688C42.4126 30.2688 43.8126 30.6688 45.2126 30.6688C45.7126 30.6688 46.1126 30.2687 46.1126 29.7687V23.6688C46.1126 22.4688 45.8126 21.2688 45.4126 20.1688C45.6126 20.1688 45.9126 20.2688 46.1126 20.2688C49.3126 20.2688 52.4126 18.5688 54.1126 15.6687C54.3126 15.5687 54.4126 15.2687 54.3126 14.9687ZM37.0126 9.26875C37.5126 7.36875 38.8126 5.76875 40.5126 4.66875L44.8126 2.26875C45.5126 3.76875 45.6126 5.46875 45.1126 7.26875C44.8126 8.56875 44.1126 9.56875 43.3126 10.4687C42.8126 10.5687 42.3126 10.5688 41.8126 10.7688C39.9126 11.2688 38.3126 12.2688 37.1126 13.7688C36.6126 12.2688 36.6126 10.7688 37.0126 9.26875ZM36.8126 17.0688C38.0126 20.4688 36.6126 24.1688 33.4126 25.9688L29.1126 28.3688C27.9126 25.5688 28.5126 22.3688 30.6126 20.1688C33.1126 20.1688 35.3126 18.9688 36.8126 17.0688ZM29.5126 2.06875C32.5126 2.36875 35.0126 4.56875 35.8126 7.46875C35.6126 7.96875 35.4126 8.36875 35.3126 8.86875C34.8126 10.7687 34.9126 12.6687 35.6126 14.4687C32.1126 13.8687 29.6126 10.7687 29.6126 7.16875L29.5126 2.06875ZM25.8126 12.4687C27.1126 12.1687 28.3126 12.1688 29.5126 12.3688C30.9126 14.2688 33.0126 15.5688 35.4126 16.0688C33.1126 18.7688 29.2126 19.4688 26.0126 17.6688L21.7126 15.2688C22.7126 13.8688 24.2126 12.8687 25.8126 12.4687ZM3.11256 8.86875C2.51256 8.26875 2.11256 7.56875 2.01256 6.76875C1.91256 5.96875 2.31256 5.16875 2.91256 4.56875L3.21256 4.26875C3.81256 3.66875 4.61256 3.36875 5.41256 3.36875C6.21256 3.46875 6.91256 3.86875 7.41256 4.46875C7.61256 4.76875 12.9126 11.2687 16.1126 14.4687H9.71256C6.61256 11.7687 3.11256 8.86875 3.11256 8.86875ZM35.2126 31.3688C34.8126 31.4688 34.6126 31.8687 34.6126 32.2687V33.8688C34.6126 34.3688 34.1126 34.8688 33.6126 34.8688H11.8126C11.3126 34.8688 10.8126 34.3688 10.8126 33.8688V33.0688H19.3126C19.8126 33.0688 20.2126 32.6688 20.2126 32.1688C20.2126 31.6688 19.8126 31.2687 19.3126 31.2687H10.0126C6.41256 30.3687 3.61256 27.3687 3.11256 23.9688C2.91256 21.9688 2.51256 18.1688 2.31256 16.2688H20.1126L25.2126 19.2688C26.3126 19.8688 27.4126 20.2687 28.6126 20.4688C26.7126 23.2687 26.3126 27.1687 28.2126 30.2687C28.3126 30.4688 28.5126 30.5688 28.7126 30.6688C28.8126 30.6688 28.8126 30.7687 28.9126 30.7687C29.0126 30.7687 29.2126 30.6688 29.4126 30.6688L34.5126 27.6688C35.6126 27.0688 36.4126 26.2688 37.2126 25.3688C37.8126 26.7688 38.8126 27.8687 40.0126 28.7687C38.6126 29.9688 37.0126 30.8688 35.2126 31.3688ZM44.5126 28.7687C41.5126 28.4688 39.0126 26.2688 38.2126 23.3688C39.2126 21.1688 39.3126 18.7687 38.5126 16.4688C42.0126 17.0688 44.5126 20.1688 44.5126 23.7688V28.7687ZM44.4126 18.2688C43.0126 16.3688 40.9126 15.0687 38.5126 14.5687C39.5126 13.4687 40.8126 12.6687 42.2126 12.2688C44.1126 11.7688 46.1126 11.9687 47.9126 12.9687L52.2126 15.3688C50.4126 17.9688 47.3126 19.0688 44.4126 18.2688Z" fill="#7A7A7A"/>
</svg>
