<svg width="186" height="46" viewBox="0 0 186 46" fill="none" xmlns="http://www.w3.org/2000/svg">
<g clip-path="url(#clip0_863_4019)">
<path d="M118.5 21.3C118.4 21.1 118.3 20.8 118.1 20.8L113 17.8C112 17.2 110.8 16.8 109.6 16.6C110.2 15.7 110.6 14.8 110.9 13.8C111.5 11.4 111.2 8.90005 110 6.80005C109.7 6.30005 109.2 6.20005 108.8 6.50005L103.7 9.40005C102.7 10 101.8 10.8 101 11.7C99.5001 8.60005 96.4001 6.50005 92.7001 6.50005C92.2001 6.50005 91.8001 6.90005 91.8001 7.40005V13.3C91.8001 14.5 92.1001 15.7 92.5001 16.8C91.5001 16.7 90.5001 16.8 89.4001 17.1C87.2001 17.7 85.4001 19 84.2001 20.8H82.7001C82.4001 20.5 82.0001 20.2 81.7001 19.9C78.6001 16.8 72.9001 9.80005 72.8001 9.70005C71.9001 8.70005 70.8001 8.00005 69.4001 8.00005C68.1001 7.90005 66.8001 8.50005 65.9001 9.40005L65.6001 9.70005C64.6001 10.7 64.1001 11.9 64.2001 13.2C64.3001 14.5 64.8001 15.7 65.9001 16.6C66.0001 16.7 68.3001 18.6 71.0001 20.9H65.3001C64.8001 20.9 64.4001 21.3 64.4001 21.8C64.4001 23.3 65.2001 30.2001 65.2001 30.6C65.8001 34.6 68.9001 38.1 72.9001 39.3V40.3C72.9001 41.8 74.1001 43 75.6001 43H97.6001C99.1001 43 100.3 41.8 100.3 40.3V39.3C102.2 38.7001 104 37.5 105.4 36C106.6 36.6 108 37 109.4 37C109.9 37 110.3 36.6 110.3 36.1V30C110.3 28.8 110 27.6 109.6 26.5C109.8 26.5 110.1 26.6 110.3 26.6C113.5 26.6 116.6 24.9 118.3 22C118.5 21.9 118.6 21.6 118.5 21.3ZM101.2 15.6C101.7 13.7 103 12.1 104.7 11L109 8.60005C109.7 10.1 109.8 11.8 109.3 13.6C109 14.9 108.3 15.9 107.5 16.8C107 16.9 106.5 16.9 106 17.1C104.1 17.6 102.5 18.6 101.3 20.1C100.8 18.6 100.8 17.1 101.2 15.6ZM101 23.4C102.2 26.8 100.8 30.5 97.6001 32.3L93.3001 34.7001C92.1001 31.9001 92.7001 28.7001 94.8001 26.5C97.3001 26.5 99.5001 25.3 101 23.4ZM93.7001 8.40005C96.7001 8.70005 99.2001 10.9 100 13.8C99.8001 14.3 99.6001 14.7 99.5001 15.2C99.0001 17.1 99.1001 19 99.8001 20.8C96.3001 20.2 93.8001 17.1 93.8001 13.5L93.7001 8.40005ZM90.0001 18.8C91.3001 18.5 92.5001 18.5 93.7001 18.7C95.1001 20.6 97.2001 21.9 99.6001 22.4C97.3001 25.1 93.4001 25.8 90.2001 24L85.9001 21.6C86.9001 20.2 88.4001 19.2 90.0001 18.8ZM67.3001 15.2C66.7001 14.6 66.3001 13.9 66.2001 13.1C66.1001 12.3 66.5001 11.5 67.1001 10.9L67.4001 10.6C68.0001 10 68.8001 9.70005 69.6001 9.70005C70.4001 9.80005 71.1001 10.2 71.6001 10.8C71.8001 11.1 77.1001 17.6 80.3001 20.8H73.9001C70.8001 18.1 67.3001 15.2 67.3001 15.2ZM99.4001 37.7001C99.0001 37.8001 98.8001 38.2 98.8001 38.6V40.2001C98.8001 40.7001 98.3001 41.2001 97.8001 41.2001H76.0001C75.5001 41.2001 75.0001 40.7001 75.0001 40.2001V39.4001H83.5001C84.0001 39.4001 84.4001 39 84.4001 38.5C84.4001 38 84.0001 37.6 83.5001 37.6H74.2001C70.6001 36.7 67.8001 33.7 67.3001 30.3C67.1001 28.3 66.7001 24.5 66.5001 22.6H84.3001L89.4001 25.6C90.5001 26.2001 91.6001 26.6 92.8001 26.8C90.9001 29.6 90.5001 33.5 92.4001 36.6C92.5001 36.8 92.7001 36.9 92.9001 37C93.0001 37 93.0001 37.1 93.1001 37.1C93.2001 37.1 93.4001 37 93.6001 37L98.7001 34C99.8001 33.4 100.6 32.6 101.4 31.7001C102 33.1 103 34.2 104.2 35.1C102.8 36.3 101.2 37.2001 99.4001 37.7001ZM108.7 35.1C105.7 34.8 103.2 32.6 102.4 29.7001C103.4 27.5 103.5 25.1 102.7 22.8C106.2 23.4 108.7 26.5 108.7 30.1V35.1ZM108.6 24.6C107.2 22.7001 105.1 21.4 102.7 20.9C103.7 19.8 105 19 106.4 18.6C108.3 18.1 110.3 18.3 112.1 19.3L116.4 21.7C114.6 24.3 111.5 25.4 108.6 24.6Z" fill="#7A7A7A"/>
<path d="M27.5 27.8C29.4 26.9 30.6 25.6 30.6 23.5C30.6 20.7 28.7 18.5 25.5 17C27.9 16.4 29.5 15.2 29.5 12.9C29.5 10.5 27.1 8.20002 22.6 7.30002C23.3 6.60002 23.6 5.70002 23.6 4.60002C23.6 1.30002 19.5 -0.0999756 15.4 -0.0999756C11.3 -0.0999756 7.1 1.50002 7.1 4.70002C7.1 6.80002 8.4 8.20002 11 8.90002C9.2 10 8.3 11.5 8.3 12.9C8.3 14.1 8.8 15.1 9.6 15.7C3.6 16.9 0 19.7 0 23.5C0 26.6 2.7 28.1 6.5 28.8C2.3 30.4 0 33 0 36.5C0 43 8.9 43.6 18.8 43.6C28.7 43.6 37.6 43.1 37.6 36.5C37.6 32.1 34 29.1 27.5 27.8ZM9.4 4.70002C9.4 3.40002 12 2.30002 15.3 2.30002C18.6 2.30002 21.2 3.40002 21.2 4.70002C21.2 6.30002 19.2 7.10002 15.3 7.10002C11.4 7.10002 9.4 6.30002 9.4 4.70002ZM18.8 9.40002C24.2 9.40002 27 11.4 27 12.9C27 13.5 27 15.3 18.8 15.3C10.6 15.3 10.6 13.6 10.6 12.9C10.6 11.5 13.5 9.40002 18.8 9.40002ZM2.4 23.5C2.4 19.4 8.9 17.6 15.3 17.6C21.7 17.6 28.2 19.4 28.2 23.5C28.2 25.9 24.2 27 15.3 27C6.3 27.1 2.4 26 2.4 23.5ZM18.8 41.2C6.8 41.2 2.3 39.9 2.3 36.5C2.3 30 14.9 29.4 18.8 29.4C22.7 29.4 35.3 29.9 35.3 36.5C35.3 39.9 30.8 41.2 18.8 41.2Z" fill="#7A7A7A"/>
<path d="M162 1.69995C162 1.69995 165.1 9.99995 158.5 21C151.8 32.1 151.2 37.6 155.2 45.2C155.2 45.2 154.6 37.8999 161.8 28.7999C168.9 19.5999 169.8 11.6 162 1.69995Z" fill="#7A7A7A"/>
<path d="M181.9 1.69995C181.9 1.69995 184 7.29995 179.5 14.8C175.1 22.3 174.6 26.1 177.3 31.2C177.3 31.2 176.9 26.2999 181.7 20C186.5 13.9 187.1 8.39995 181.9 1.69995Z" fill="#7A7A7A"/>
<path d="M145.8 1.69995C145.8 1.69995 147.9 7.29995 143.4 14.8C139 22.3 138.5 26.1 141.2 31.2C141.2 31.2 140.8 26.2999 145.6 20C150.4 13.9 150.9 8.39995 145.8 1.69995Z" fill="#7A7A7A"/>
</g>
<defs>
<clipPath id="clip0_863_4019">
<rect width="185.5" height="45.2" fill="white"/>
</clipPath>
</defs>
</svg>
