<svg width="49" height="49" viewBox="0 0 49 49" fill="none" xmlns="http://www.w3.org/2000/svg">
<path d="M24.2822 48.2931C11.1504 48.2931 0.501465 37.6114 0.501465 24.439C0.501465 11.2667 11.1504 0.584961 24.2822 0.584961C37.4141 0.584961 48.063 11.2667 48.063 24.439C48.063 37.6114 37.4141 48.2931 24.2822 48.2931ZM24.2822 2.46672C12.1987 2.46672 2.37745 12.3183 2.37745 24.439C2.37745 36.5598 12.1987 46.4114 24.2822 46.4114C36.3657 46.4114 46.187 36.5598 46.187 24.439C46.187 12.3183 36.3657 2.46672 24.2822 2.46672Z" fill="#C6C6C5"/>
<path d="M30.3516 14.5874C28.586 14.5874 27.2617 16.1371 27.2065 17.7421L27.0962 24.2176C27.0962 25.3245 28.0893 25.7119 28.0893 25.7119L28.0342 33.1283C28.0342 33.7924 28.586 34.3459 29.2481 34.3459C29.855 34.3459 30.4067 33.8478 30.4067 33.1283L30.3516 14.5874Z" fill="#7A7A7A"/>
<path d="M21.1924 34.2904H20.4751C19.9785 34.2904 19.4267 33.7923 19.4267 33.1835L19.813 22.5017C17.9922 22.225 18.2129 20.454 18.2129 19.0703L19.0405 14.9194L19.5923 14.864L19.813 19.2363H20.1992L20.4199 14.864H21.1372L21.3579 19.2363H21.7441L21.9648 14.864L22.5166 14.9194L23.3442 19.0703C23.3442 20.454 23.5649 22.225 21.7441 22.5017L22.1304 33.1835C22.2407 33.7923 21.6889 34.2904 21.1924 34.2904Z" fill="#7A7A7A"/>
</svg>
