<svg width="49" height="48" viewBox="0 0 49 48" fill="none" xmlns="http://www.w3.org/2000/svg">
<path d="M24.5215 47.8466C11.3897 47.8466 0.740723 37.1648 0.740723 23.9925C0.740723 10.8202 11.3897 0.138428 24.5215 0.138428C37.6533 0.138428 48.3022 10.8202 48.3022 23.9925C48.3022 37.1648 37.6533 47.8466 24.5215 47.8466ZM24.5215 2.07553C12.438 2.07553 2.61671 11.9271 2.61671 24.0479C2.61671 36.1686 12.438 46.0202 24.5215 46.0202C36.6049 46.0202 46.4262 36.1686 46.4262 24.0479C46.4262 11.9271 36.6049 2.07553 24.5215 2.07553Z" fill="#C6C6C5"/>
<path d="M32.191 15.3032L16.7969 17.0743C15.252 17.0743 13.9829 18.3472 13.9829 19.8969V27.0919C13.9829 28.6416 15.1968 29.8592 16.7417 29.9145V32.7925L20.8799 29.9145L32.191 30.9661C33.7359 30.9661 35.0049 29.6932 35.0049 28.1435V18.0705C35.0049 16.5762 33.7359 15.3032 32.191 15.3032Z" fill="#7A7A7A"/>
</svg>
