<svg width="49" height="48" viewBox="0 0 49 48" fill="none" xmlns="http://www.w3.org/2000/svg">
<path d="M24.5645 47.7358C11.4326 47.7358 0.783691 37.054 0.783691 23.8817C0.783691 10.7094 11.4326 0.0275879 24.5645 0.0275879C37.6963 0.0275879 48.3452 10.7094 48.3452 23.8817C48.3452 37.054 37.6411 47.7358 24.5645 47.7358ZM24.5645 1.90935C12.481 1.90935 2.65966 11.7609 2.65966 23.8817C2.65966 36.0024 12.481 45.854 24.5645 45.854C36.6479 45.854 46.4692 36.0024 46.4692 23.8817C46.4692 11.7609 36.6479 1.90935 24.5645 1.90935Z" fill="#C6C6C5"/>
<path d="M29.2544 20.2841C29.8334 20.2841 30.3027 19.8132 30.3027 19.2325C30.3027 18.6517 29.8334 18.1809 29.2544 18.1809C28.6754 18.1809 28.2061 18.6517 28.2061 19.2325C28.2061 19.8132 28.6754 20.2841 29.2544 20.2841Z" fill="#7A7A7A"/>
<path d="M24.6196 19.5093C22.1919 19.5093 20.2607 21.4464 20.2607 23.8816C20.2607 26.3168 22.1919 28.2539 24.6196 28.2539C27.0474 28.2539 28.9785 26.3168 28.9785 23.8816C28.9785 21.4464 27.0474 19.5093 24.6196 19.5093ZM24.6196 26.7042C23.0747 26.7042 21.8057 25.4313 21.8057 23.8816C21.8057 22.3319 23.0747 21.059 24.6196 21.059C26.1646 21.059 27.4336 22.3319 27.4336 23.8816C27.4336 25.4313 26.1646 26.7042 24.6196 26.7042Z" fill="#7A7A7A"/>
<path d="M28.0957 32.7923H21.0332C18.1089 32.7923 15.6812 30.4125 15.6812 27.4238V20.3395C15.6812 17.4062 18.0537 14.9709 21.0332 14.9709H28.0957C31.02 14.9709 33.4478 17.3508 33.4478 20.3395V27.4238C33.3926 30.3571 31.02 32.7923 28.0957 32.7923ZM21.0332 16.6867C18.9917 16.6867 17.3916 18.347 17.3916 20.3395V27.4238C17.3916 29.4716 19.0469 31.0766 21.0332 31.0766H28.0957C30.1372 31.0766 31.7373 29.4162 31.7373 27.4238V20.3395C31.7373 18.2917 30.082 16.6867 28.0957 16.6867H21.0332Z" fill="#7A7A7A"/>
</svg>
