<svg width="48" height="48" viewBox="0 0 48 48" fill="none" xmlns="http://www.w3.org/2000/svg">
<path d="M24.043 47.9018C10.9111 47.9018 0.262207 37.22 0.262207 24.0477C0.262207 10.8754 10.9111 0.193604 24.043 0.193604C37.1748 0.193604 47.8237 10.8754 47.8237 24.0477C47.8237 37.22 37.1748 47.9018 24.043 47.9018ZM24.043 2.13071C11.9595 2.13071 2.1382 11.9823 2.1382 24.103C2.1382 36.2238 11.9595 46.0754 24.043 46.0754C36.1264 46.0754 45.9477 36.2238 45.9477 24.103C45.9477 11.9823 36.1264 2.13071 24.043 2.13071Z" fill="#C6C6C5"/>
<path d="M30.5537 15.137H17.5322C16.8701 15.137 16.2632 15.4137 15.8218 15.8565C15.3804 16.2992 15.1045 16.9634 15.1045 17.5722V30.5785C15.1045 31.2426 15.3804 31.8514 15.8218 32.2942C16.2632 32.737 16.9253 33.0137 17.5322 33.0137H30.5537C31.2158 33.0137 31.8228 32.737 32.2642 32.2942C32.7056 31.8514 32.9814 31.1873 32.9814 30.5785V17.5722C32.9814 16.908 32.7056 16.2992 32.2642 15.8565C31.8228 15.3583 31.1607 15.137 30.5537 15.137ZM31.3262 30.5785C31.3262 30.7999 31.2158 31.0212 31.1055 31.1319C30.94 31.298 30.7193 31.3533 30.5537 31.3533H17.5322C17.3115 31.3533 17.0908 31.2426 16.9805 31.1319C16.8149 30.9659 16.7598 30.7445 16.7598 30.5785V17.5722C16.7598 17.3508 16.8701 17.1294 16.9805 17.0187C17.146 16.8527 17.3667 16.7973 17.5322 16.7973H30.5537C30.7744 16.7973 30.9951 16.908 31.1055 17.0187C31.271 17.1848 31.3262 17.4061 31.3262 17.5722V30.5785Z" fill="#7A7A7A"/>
<path d="M28.126 22.6641H20.0151C19.7393 22.6641 19.4634 22.8301 19.2979 23.0515C19.1323 23.3282 19.1323 23.6049 19.2979 23.8817C19.4634 24.1584 19.6841 24.2691 20.0151 24.2691H28.126C28.4019 24.2691 28.6777 24.1031 28.8433 23.8817C29.0088 23.6049 29.0088 23.3282 28.8433 23.0515C28.6777 22.8301 28.4019 22.6641 28.126 22.6641Z" fill="#7A7A7A"/>
<path d="M28.126 19.3433H20.0151C19.7393 19.3433 19.4634 19.5093 19.2979 19.7307C19.1323 20.0074 19.1323 20.2841 19.2979 20.5609C19.4634 20.8376 19.6841 20.9483 20.0151 20.9483H28.126C28.4019 20.9483 28.6777 20.7823 28.8433 20.5609C29.0088 20.2841 29.0088 20.0074 28.8433 19.7307C28.6777 19.5093 28.4019 19.3433 28.126 19.3433Z" fill="#7A7A7A"/>
<path d="M24.8706 25.9294H20.0151C19.7393 25.9294 19.4634 26.0955 19.2979 26.3169C19.1323 26.5936 19.1323 26.8703 19.2979 27.1471C19.4634 27.4238 19.6841 27.5345 20.0151 27.5345H24.8706C25.1465 27.5345 25.4224 27.3684 25.5879 27.1471C25.7534 26.8703 25.7534 26.5936 25.5879 26.3169C25.4224 26.0955 25.1465 25.9294 24.8706 25.9294Z" fill="#7A7A7A"/>
</svg>
