<svg width="48" height="49" viewBox="0 0 48 49" fill="none" xmlns="http://www.w3.org/2000/svg">
<path d="M24.0859 48.5146C10.9541 48.5146 0.305176 37.8328 0.305176 24.6605C0.305176 11.4882 10.9541 0.806396 24.0859 0.806396C37.2178 0.806396 47.8667 11.4882 47.8667 24.6605C47.8667 37.8328 37.1626 48.5146 24.0859 48.5146ZM24.0859 2.68816C12.0024 2.68816 2.18115 12.5397 2.18115 24.6605C2.18115 36.7812 12.0024 46.6328 24.0859 46.6328C36.1694 46.6328 45.9907 36.7812 45.9907 24.6605C45.9907 12.5397 36.1694 2.68816 24.0859 2.68816Z" fill="#C6C6C5"/>
<path d="M28.6103 25.7675L29.1621 22.2254H25.7412V19.9562C25.7412 18.96 26.2378 18.0191 27.7275 18.0191H29.2725V14.975C29.2725 14.975 27.8931 14.7537 26.5137 14.7537C23.6997 14.7537 21.8789 16.4694 21.8789 19.5134V22.2254H18.7891V25.7675H21.8789V34.3461C22.4858 34.4568 23.1479 34.5122 23.8101 34.5122C24.4722 34.5122 25.0791 34.4568 25.7412 34.3461V25.7675H28.6103Z" fill="#7A7A7A"/>
</svg>
