<svg width="48" height="49" viewBox="0 0 48 49" fill="none" xmlns="http://www.w3.org/2000/svg">
<path d="M23.8037 48.068C10.6719 48.068 0.0229492 37.3863 0.0229492 24.2139C0.0229492 11.0416 10.6719 0.359863 23.8037 0.359863C36.9355 0.359863 47.5845 11.0416 47.5845 24.2139C47.5845 37.3863 36.8804 48.068 23.8037 48.068ZM23.8037 2.24162C11.7202 2.24162 1.89892 12.0932 1.89892 24.2139C1.89892 36.3347 11.7202 46.1863 23.8037 46.1863C35.8872 46.1863 45.7085 36.3347 45.7085 24.2139C45.7085 12.0932 35.8872 2.24162 23.8037 2.24162Z" fill="#C6C6C5"/>
<path d="M23.6382 33.7334C23.4727 33.6228 23.3071 33.5121 23.1968 33.346C21.4312 30.8555 19.6655 28.3649 17.8999 25.819C17.2378 24.8781 16.8516 23.7158 16.7412 22.5536C16.4653 19.5095 18.0654 16.5762 20.8794 15.3586C23.583 14.1963 26.1211 14.5284 28.4385 16.4102C29.1006 16.9636 29.7075 17.6831 30.1489 18.458C30.5903 19.2328 30.8111 20.1184 30.9214 21.0039C31.1421 22.775 30.7007 24.6014 29.5972 26.0404C27.8867 28.4756 26.1763 30.8555 24.4658 33.2907C24.3555 33.5121 24.1899 33.6228 23.9692 33.7334H23.6382ZM26.1763 21.8341C26.1763 21.2253 25.9556 20.6165 25.5142 20.1737C25.0728 19.7309 24.4658 19.4542 23.8589 19.4542C23.252 19.4542 22.645 19.6756 22.2036 20.1184C21.7622 20.5611 21.4863 21.1699 21.4863 21.7787C21.4863 22.3875 21.707 22.9963 22.1484 23.4391C22.5898 23.8819 23.1968 24.1586 23.8037 24.1586C24.4106 24.1586 25.0728 23.9372 25.5142 23.4945C25.9004 23.107 26.1763 22.4982 26.1763 21.8341Z" fill="#7A7A7A"/>
</svg>
