<svg width="49" height="49" viewBox="0 0 49 49" fill="none" xmlns="http://www.w3.org/2000/svg">
<path d="M24.3252 48.5146C11.1934 48.5146 0.544434 37.8328 0.544434 24.6605C0.544434 11.4882 11.1934 0.806396 24.3252 0.806396C37.457 0.806396 48.106 11.4882 48.106 24.6605C48.106 37.8328 37.4019 48.5146 24.3252 48.5146ZM24.3252 2.68816C12.2417 2.68816 2.42041 12.5397 2.42041 24.6605C2.42041 36.7812 12.2417 46.6328 24.3252 46.6328C36.4087 46.6328 46.23 36.7812 46.23 24.6605C46.23 12.5397 36.4087 2.68816 24.3252 2.68816Z" fill="#C6C6C5"/>
<path d="M34.4223 19.2365C33.7602 19.5133 33.043 19.7347 32.3808 19.8453C32.7119 19.79 33.2085 19.1812 33.374 18.9598C33.6499 18.5724 33.9258 18.185 34.0361 17.6869C34.0361 17.6315 34.0913 17.6315 34.0361 17.5762C33.9809 17.5762 33.9809 17.5762 33.9258 17.5762C33.1533 18.0189 32.3257 18.2957 31.498 18.517C31.4429 18.517 31.3877 18.517 31.3325 18.4617C31.2773 18.4064 31.2222 18.2957 31.1118 18.2403C30.7256 17.9082 30.3393 17.6869 29.9531 17.5208C29.4014 17.2994 28.7392 17.1887 28.1323 17.2441C27.5254 17.2994 26.9184 17.4655 26.4219 17.7422C25.8701 18.0189 25.4287 18.4063 25.0425 18.9045C24.6562 19.4026 24.3804 19.956 24.2148 20.5648C24.0493 21.1736 24.1045 21.7271 24.1597 22.3359C24.1597 22.4466 24.1597 22.4466 24.0493 22.4466C20.6836 21.9485 17.9248 20.7309 15.6626 18.185C15.5522 18.0743 15.4971 18.0743 15.4419 18.185C14.4487 19.6793 14.9453 22.0592 16.1592 23.2214C16.3247 23.3875 16.4902 23.5535 16.6558 23.6642C16.6006 23.6642 15.7729 23.6089 15.0557 23.2214C14.9453 23.1661 14.8901 23.2214 14.8901 23.3321C14.8901 23.4982 14.8901 23.6642 14.8901 23.8302C15.0557 25.3246 16.104 26.7082 17.5386 27.2617C17.7041 27.317 17.8696 27.3724 18.0903 27.4277C17.7593 27.4831 17.4282 27.5384 16.4902 27.4831C16.3799 27.4831 16.3247 27.5384 16.3799 27.6491C17.0972 29.5862 18.5869 30.1397 19.6904 30.4718C19.856 30.4718 19.9663 30.4718 20.1318 30.5271C19.7456 31.0806 18.4766 31.5233 17.8696 31.7447C16.7661 32.1321 15.5522 32.2982 14.3936 32.1875C14.228 32.1875 14.1728 32.1875 14.1177 32.1875C14.0625 32.2428 14.1177 32.2428 14.1729 32.2982C14.3936 32.4642 14.6694 32.5749 14.8901 32.7409C15.6074 33.1284 16.3799 33.4604 17.2075 33.6818C21.3457 34.8441 26.0356 34.0139 29.1807 30.8592C31.6084 28.424 32.4912 25.0479 32.4912 21.6718C32.4912 21.5611 32.6567 21.4504 32.7119 21.395C33.374 20.8969 33.8706 20.3435 34.3672 19.6793C34.4775 19.5133 34.4775 19.4026 34.4775 19.3472C34.4775 19.1812 34.4775 19.1812 34.4223 19.2365Z" fill="#7A7A7A"/>
</svg>
