<svg width="23" height="25" viewBox="0 0 23 25" fill="none" xmlns="http://www.w3.org/2000/svg">
<g clip-path="url(#clip0_1307_990)">
<path d="M22.1992 0.399946C22.0992 -5.3972e-05 21.5992 -0.100054 21.2992 0.199946L9.79922 11.4999L9.59922 11.2999C9.39922 11.0999 9.09922 11.0999 8.89922 11.2999C8.69922 11.4999 8.69922 11.7999 8.89922 11.9999L8.99922 12.0999L0.399219 20.4999C-0.200781 21.0999 -0.200781 22.0999 0.399219 22.6999C0.699219 22.9999 1.09922 23.1999 1.49922 23.1999C1.59922 23.1999 1.59922 23.1999 1.69922 23.1999C1.69922 23.2999 1.69922 23.2999 1.69922 23.3999C1.69922 23.7999 1.89922 24.1999 2.09922 24.4999C2.39922 24.7999 2.79922 24.9999 3.19922 24.9999C3.59922 24.9999 3.99922 24.7999 4.29922 24.5999L12.8992 16.1999L12.9992 16.2999C13.0992 16.3999 13.1992 16.3999 13.3992 16.3999C13.4992 16.3999 13.6992 16.3999 13.7992 16.2999C13.9992 16.0999 13.9992 15.7999 13.7992 15.5999L13.4992 15.2999L20.4992 8.29995C21.0992 7.69995 23.3992 4.79995 22.1992 0.399946ZM9.59922 12.6999L10.6992 13.7999L8.49922 15.9999L7.39922 14.8999L9.59922 12.6999ZM5.69922 22.1999L4.59922 20.9999L8.39922 17.2999L9.49922 18.3999L5.69922 22.1999ZM3.99922 20.3999L2.89922 19.2999L6.69922 15.5999L7.79922 16.6999L3.99922 20.3999ZM2.09922 22.2999C1.89922 22.3999 1.79922 22.4999 1.49922 22.4999C1.29922 22.4999 1.09922 22.3999 0.899219 22.2999C0.599219 21.9999 0.599219 21.4999 0.899219 21.1999L2.19922 19.9999L3.29922 21.0999L2.09922 22.2999ZM3.79922 23.9999C3.69922 24.0999 3.49922 24.1999 3.19922 24.1999C2.99922 24.1999 2.79922 24.0999 2.59922 23.9999C2.49922 23.7999 2.39922 23.6999 2.39922 23.3999C2.39922 23.1999 2.49922 22.9999 2.59922 22.7999L3.79922 21.6999L4.99922 22.8999L3.79922 23.9999ZM12.4992 15.5999L10.2992 17.7999L9.19922 16.6999L11.4992 14.4999L12.4992 15.5999ZM12.8992 14.4999L10.5992 12.1999L12.0992 10.6999L12.6992 10.7999L17.3992 6.09995V5.49995L21.3992 1.49995C21.3992 1.49995 22.2992 4.99995 19.3992 7.89995C16.4992 10.7999 12.8992 14.4999 12.8992 14.4999Z" fill="#7B7B7B"/>
<path d="M12.5 13C12.7761 13 13 12.7761 13 12.5C13 12.2239 12.7761 12 12.5 12C12.2239 12 12 12.2239 12 12.5C12 12.7761 12.2239 13 12.5 13Z" fill="#7B7B7B"/>
<path d="M6.59961 17.5C6.87575 17.5 7.09961 17.2761 7.09961 17C7.09961 16.7239 6.87575 16.5 6.59961 16.5C6.32347 16.5 6.09961 16.7239 6.09961 17C6.09961 17.2761 6.32347 17.5 6.59961 17.5Z" fill="#7B7B7B"/>
<path d="M8 19C8.27614 19 8.5 18.7761 8.5 18.5C8.5 18.2239 8.27614 18 8 18C7.72386 18 7.5 18.2239 7.5 18.5C7.5 18.7761 7.72386 19 8 19Z" fill="#7B7B7B"/>
<path d="M4.29883 19.7999C4.57497 19.7999 4.79883 19.5761 4.79883 19.2999C4.79883 19.0238 4.57497 18.7999 4.29883 18.7999C4.02269 18.7999 3.79883 19.0238 3.79883 19.2999C3.79883 19.5761 4.02269 19.7999 4.29883 19.7999Z" fill="#7B7B7B"/>
<path d="M5.79883 21.2999C6.07497 21.2999 6.29883 21.0761 6.29883 20.7999C6.29883 20.5238 6.07497 20.2999 5.79883 20.2999C5.52269 20.2999 5.29883 20.5238 5.29883 20.7999C5.29883 21.0761 5.52269 21.2999 5.79883 21.2999Z" fill="#7B7B7B"/>
</g>
<defs>
<clipPath id="clip0_1307_990">
<rect width="22.5" height="25" fill="white"/>
</clipPath>
</defs>
</svg>
