<svg width="22" height="25" viewBox="0 0 22 25" fill="none" xmlns="http://www.w3.org/2000/svg">
<g clip-path="url(#clip0_1307_959)">
<path d="M16.0012 15.4H15.9012C15.4012 15.3 15.1012 14.9 15.2012 14.5C15.3012 13.7 15.4012 12.4 15.4012 11.6C15.4012 5.8 13.0012 1.7 10.9012 1.7C8.80117 1.7 6.40117 5.8 6.40117 11.6V12.1C6.40117 12.8 6.40117 14 6.50117 14.5C6.60117 15 6.20117 15.4 5.80117 15.4C5.30117 15.5 4.90117 15.1 4.90117 14.7C4.70117 14 4.70117 12.9 4.70117 12V11.5C4.70117 5.1 7.40117 0 10.9012 0C14.4012 0 17.1012 5.1 17.1012 11.6C17.1012 12.6 17.0012 14 16.9012 14.7C16.8012 15.1 16.5012 15.4 16.0012 15.4Z" fill="#7B7B7B"/>
<path d="M9.40117 3.9C9.78777 3.9 10.1012 3.5866 10.1012 3.2C10.1012 2.8134 9.78777 2.5 9.40117 2.5C9.01457 2.5 8.70117 2.8134 8.70117 3.2C8.70117 3.5866 9.01457 3.9 9.40117 3.9Z" fill="#7B7B7B"/>
<path d="M12.6004 3.9C12.987 3.9 13.3004 3.5866 13.3004 3.2C13.3004 2.8134 12.987 2.5 12.6004 2.5C12.2138 2.5 11.9004 2.8134 11.9004 3.2C11.9004 3.5866 12.2138 3.9 12.6004 3.9Z" fill="#7B7B7B"/>
<path d="M9.40117 7.4C9.78777 7.4 10.1012 7.0866 10.1012 6.7C10.1012 6.3134 9.78777 6 9.40117 6C9.01457 6 8.70117 6.3134 8.70117 6.7C8.70117 7.0866 9.01457 7.4 9.40117 7.4Z" fill="#7B7B7B"/>
<path d="M7.00078 9.30002C7.38738 9.30002 7.70078 8.98662 7.70078 8.60002C7.70078 8.21343 7.38738 7.90002 7.00078 7.90002C6.61418 7.90002 6.30078 8.21343 6.30078 8.60002C6.30078 8.98662 6.61418 9.30002 7.00078 9.30002Z" fill="#7B7B7B"/>
<path d="M14.7996 9.30002C15.1862 9.30002 15.4996 8.98662 15.4996 8.60002C15.4996 8.21343 15.1862 7.90002 14.7996 7.90002C14.413 7.90002 14.0996 8.21343 14.0996 8.60002C14.0996 8.98662 14.413 9.30002 14.7996 9.30002Z" fill="#7B7B7B"/>
<path d="M7.60039 5.99998C7.98699 5.99998 8.30039 5.68658 8.30039 5.29998C8.30039 4.91338 7.98699 4.59998 7.60039 4.59998C7.21379 4.59998 6.90039 4.91338 6.90039 5.29998C6.90039 5.68658 7.21379 5.99998 7.60039 5.99998Z" fill="#7B7B7B"/>
<path d="M14.5008 5.99998C14.8874 5.99998 15.2008 5.68658 15.2008 5.29998C15.2008 4.91338 14.8874 4.59998 14.5008 4.59998C14.1142 4.59998 13.8008 4.91338 13.8008 5.29998C13.8008 5.68658 14.1142 5.99998 14.5008 5.99998Z" fill="#7B7B7B"/>
<path d="M12.6004 7.4C12.987 7.4 13.3004 7.0866 13.3004 6.7C13.3004 6.3134 12.987 6 12.6004 6C12.2138 6 11.9004 6.3134 11.9004 6.7C11.9004 7.0866 12.2138 7.4 12.6004 7.4Z" fill="#7B7B7B"/>
<path d="M9.40117 11C9.78777 11 10.1012 10.6866 10.1012 10.3C10.1012 9.91338 9.78777 9.59998 9.40117 9.59998C9.01457 9.59998 8.70117 9.91338 8.70117 10.3C8.70117 10.6866 9.01457 11 9.40117 11Z" fill="#7B7B7B"/>
<path d="M12.6004 11C12.987 11 13.3004 10.6866 13.3004 10.3C13.3004 9.91338 12.987 9.59998 12.6004 9.59998C12.2138 9.59998 11.9004 9.91338 11.9004 10.3C11.9004 10.6866 12.2138 11 12.6004 11Z" fill="#7B7B7B"/>
<path d="M9.40117 14.6C9.78777 14.6 10.1012 14.2866 10.1012 13.9C10.1012 13.5134 9.78777 13.2 9.40117 13.2C9.01457 13.2 8.70117 13.5134 8.70117 13.9C8.70117 14.2866 9.01457 14.6 9.40117 14.6Z" fill="#7B7B7B"/>
<path d="M12.6004 14.6C12.987 14.6 13.3004 14.2866 13.3004 13.9C13.3004 13.5134 12.987 13.2 12.6004 13.2C12.2138 13.2 11.9004 13.5134 11.9004 13.9C11.9004 14.2866 12.2138 14.6 12.6004 14.6Z" fill="#7B7B7B"/>
<path d="M11.0008 5.99998C11.3874 5.99998 11.7008 5.68658 11.7008 5.29998C11.7008 4.91338 11.3874 4.59998 11.0008 4.59998C10.6142 4.59998 10.3008 4.91338 10.3008 5.29998C10.3008 5.68658 10.6142 5.99998 11.0008 5.99998Z" fill="#7B7B7B"/>
<path d="M11.0008 9.30002C11.3874 9.30002 11.7008 8.98662 11.7008 8.60002C11.7008 8.21343 11.3874 7.90002 11.0008 7.90002C10.6142 7.90002 10.3008 8.21343 10.3008 8.60002C10.3008 8.98662 10.6142 9.30002 11.0008 9.30002Z" fill="#7B7B7B"/>
<path d="M7.29961 12.7C7.68621 12.7 7.99961 12.3866 7.99961 12C7.99961 11.6134 7.68621 11.3 7.29961 11.3C6.91301 11.3 6.59961 11.6134 6.59961 12C6.59961 12.3866 6.91301 12.7 7.29961 12.7Z" fill="#7B7B7B"/>
<path d="M14.7996 12.7C15.1862 12.7 15.4996 12.3866 15.4996 12C15.4996 11.6134 15.1862 11.3 14.7996 11.3C14.413 11.3 14.0996 11.6134 14.0996 12C14.0996 12.3866 14.413 12.7 14.7996 12.7Z" fill="#7B7B7B"/>
<path d="M11.0008 12.7C11.3874 12.7 11.7008 12.3866 11.7008 12C11.7008 11.6134 11.3874 11.3 11.0008 11.3C10.6142 11.3 10.3008 11.6134 10.3008 12C10.3008 12.3866 10.6142 12.7 11.0008 12.7Z" fill="#7B7B7B"/>
<path d="M11.0008 16.3C11.3874 16.3 11.7008 15.9866 11.7008 15.6C11.7008 15.2134 11.3874 14.9 11.0008 14.9C10.6142 14.9 10.3008 15.2134 10.3008 15.6C10.3008 15.9866 10.6142 16.3 11.0008 16.3Z" fill="#7B7B7B"/>
<path d="M14.5008 16.4C14.8874 16.4 15.2008 16.0866 15.2008 15.7C15.2008 15.3134 14.8874 15 14.5008 15C14.1142 15 13.8008 15.3134 13.8008 15.7C13.8008 16.0866 14.1142 16.4 14.5008 16.4Z" fill="#7B7B7B"/>
<path d="M12.7996 18.1C13.1862 18.1 13.4996 17.7865 13.4996 17.4C13.4996 17.0134 13.1862 16.7 12.7996 16.7C12.413 16.7 12.0996 17.0134 12.0996 17.4C12.0996 17.7865 12.413 18.1 12.7996 18.1Z" fill="#7B7B7B"/>
<path d="M7.60039 16.4C7.98699 16.4 8.30039 16.0866 8.30039 15.7C8.30039 15.3134 7.98699 15 7.60039 15C7.21379 15 6.90039 15.3134 6.90039 15.7C6.90039 16.0866 7.21379 16.4 7.60039 16.4Z" fill="#7B7B7B"/>
<path d="M9.2 18C9.5866 18 9.9 17.6866 9.9 17.3C9.9 16.9134 9.5866 16.6 9.2 16.6C8.8134 16.6 8.5 16.9134 8.5 17.3C8.5 17.6866 8.8134 18 9.2 18Z" fill="#7B7B7B"/>
<path d="M11.0008 19.8C11.3874 19.8 11.7008 19.4866 11.7008 19.1C11.7008 18.7134 11.3874 18.4 11.0008 18.4C10.6142 18.4 10.3008 18.7134 10.3008 19.1C10.3008 19.4866 10.6142 19.8 11.0008 19.8Z" fill="#7B7B7B"/>
<path d="M11.0005 25H10.7005C6.20054 25 4.30054 21.3 3.10054 18C2.10054 15.2 0.800536 15.5 0.800536 15.5C0.500536 15.6 0.200536 15.5 0.000536211 15.2C-0.199464 14.9 -0.0994638 14.6 0.200536 14.3C0.300536 14.2 1.90054 12.8 4.30054 13.4C6.80054 14 9.00054 16.7 10.9005 21.4C12.0005 18.8 14.2005 14.3 17.4005 13.4C18.8005 13 20.2005 13.3 21.6005 14.4C21.9005 14.6 21.9005 15 21.8005 15.3C21.6005 15.6 21.3005 15.7 21.0005 15.7C20.9005 15.7 19.7005 15.5 18.7005 18.2C17.5005 21.3 15.5005 25 11.0005 25ZM18.6005 14.6C18.3005 14.6 18.1005 14.6 17.8005 14.7C14.8005 15.6 12.3005 21.4 11.6005 23.6C14.2005 23.4 15.9005 21.5 17.3005 17.6C17.9005 16 18.6005 15.2 19.2005 14.7C19.0005 14.6 18.8005 14.6 18.6005 14.6ZM2.70054 14.7C3.30054 15.2 4.00054 16 4.60054 17.5C6.00054 21.5 7.80054 23.3 10.3005 23.5C8.00054 17 5.60054 15.2 4.00054 14.8C3.50054 14.6 3.00054 14.6 2.70054 14.7Z" fill="#7B7B7B"/>
</g>
<defs>
<clipPath id="clip0_1307_959">
<rect width="21.8" height="25" fill="white"/>
</clipPath>
</defs>
</svg>
