<svg width="34" height="25" viewBox="0 0 34 25" fill="none" xmlns="http://www.w3.org/2000/svg">
<g clip-path="url(#clip0_1307_923)">
<path d="M32.2 21C32.2 22.3 31.2 23.3 29.9 23.3C28.6 23.3 27.6 22.3 27.6 21H27.5H26.2H26.1C26.1 22.3 24.7 23.3 23.5 23.3C22.3 23.3 21.2 22.3 21.2 21H20.9H19.5H19.2C19.2 22.3 18.2 23.3 16.9 23.3C15.6 23.3 14.6 22.3 14.6 21H14.3H12.8H12.5C12.5 22.3 11.5 23.3 10.2 23.3C8.9 23.3 7.7 22.3 7.7 21H6.5C6.5 22.3 5.3 23.3 4 23.3C2.7 23.3 1.7 22.3 1.7 21H0C0 23.2 1.8 25 4 25C5.3 25 6.4 24.4 7.2 23.5C7.9 24.4 9 25 10.3 25C11.7 25 12.9 24.3 13.6 23.3C14.3 24.3 15.5 25 16.9 25C18.3 25 19.5 24.3 20.2 23.3C20.9 24.4 22.1 25 23.5 25C24.8 25 26 24.4 26.7 23.4C27.4 24.4 28.6 25 29.9 25C32.1 25 33.9 23.2 33.9 21H32.2Z" fill="#7B7B7B"/>
<path d="M7.4 23.1001C6.9 23.1001 6.5 22.7001 6.5 22.2001V17.6001C6.5 17.1001 6.9 16.7001 7.4 16.7001H28.9C29.2 16.7001 29.4 16.8001 29.6 17.0001C29.8 17.2001 29.8 17.5001 29.8 17.7001C29.8 17.8001 29.2 20.3001 28 22.2001C27.7 22.6001 27.2 22.7001 26.8 22.4001C26.4 22.1001 26.3 21.6001 26.6 21.2001C27.2 20.3001 27.6 19.1001 27.9 18.3001H8.2V22.0001C8.2 22.7001 7.8 23.1001 7.4 23.1001Z" fill="#7B7B7B"/>
<path d="M14.3004 14.5C9.80039 14.5 6.80039 12.2 6.70039 12.1C6.50039 12 6.40039 11.8 6.40039 11.5C6.40039 11.3 6.40039 11 6.60039 10.9L15.0004 0.300024C15.3004 2.44081e-05 15.6004 -0.0999756 16.0004 2.44156e-05C16.3004 0.100024 16.6004 0.400024 16.6004 0.800024V13.5C16.6004 13.9 16.3004 14.3 15.8004 14.3C15.3004 14.4 14.8004 14.5 14.3004 14.5ZM8.40039 11.2C9.50039 11.8 11.8004 12.9 14.8004 12.8V3.30002L8.40039 11.2Z" fill="#7B7B7B"/>
<path d="M28.2992 14.5C28.1992 14.5 28.0992 14.5 27.9992 14.4L21.8992 12.2C21.5992 12.1 21.2992 11.7 21.2992 11.4C21.3992 7.90005 19.3992 1.20005 19.2992 1.10005C19.1992 0.800049 19.2992 0.400049 19.5992 0.200049C19.8992 4.88311e-05 20.2992 4.88311e-05 20.5992 0.200049C29.8992 6.60005 29.0992 13.5 28.9992 13.8C28.9992 14.1 28.7992 14.3 28.5992 14.4C28.5992 14.4 28.3992 14.5 28.2992 14.5ZM22.9992 10.8L27.3992 12.4C27.1992 10.6 26.2992 6.90005 21.6992 3.00005C22.1992 5.20005 22.8992 8.40005 22.9992 10.8Z" fill="#7B7B7B"/>
</g>
<defs>
<clipPath id="clip0_1307_923">
<rect width="34" height="25" fill="white"/>
</clipPath>
</defs>
</svg>
