<svg width="34" height="25" viewBox="0 0 34 25" fill="none" xmlns="http://www.w3.org/2000/svg">
<g clip-path="url(#clip0_1307_949)">
<path d="M31.7 21.1C31.7 22.3 30.7 23.4 29.4 23.4C28.1 23.4 27.1 22.4 27.1 21.1H27H25.8H25.7C25.7 22.3 24.4 23.4 23.1 23.4C21.8 23.4 20.8 22.4 20.8 21.1H20.5H19.1H18.8C18.8 22.3 17.8 23.4 16.5 23.4C15.2 23.4 14.2 22.4 14.2 21.1H13.9H12.5H12.2C12.2 22.3 11.2 23.4 9.9 23.4C8.6 23.4 7.5 22.4 7.5 21.1H6.4C6.4 22.3 5.2 23.4 3.9 23.4C2.6 23.4 1.6 22.4 1.6 21.1H0C0 23.2 1.8 25 3.9 25C5.2 25 6.3 24.4 7 23.5C7.7 24.4 8.8 25 10.1 25C11.4 25 12.6 24.3 13.3 23.3C14 24.3 15.2 25 16.5 25C17.8 25 19 24.3 19.8 23.3C20.5 24.3 21.7 25 23.1 25C24.4 25 25.5 24.4 26.3 23.4C27 24.4 28.2 25 29.5 25C31.7 25 33.4 23.2 33.4 21.1H31.7Z" fill="#7B7B7B"/>
<path d="M2.80078 10.7L7.00078 23.5H9.70078L5.20078 10.7H2.80078Z" fill="#7B7B7B"/>
<path d="M15.4004 10.7L19.6004 23.5H22.3004L17.7004 10.7H15.4004Z" fill="#7B7B7B"/>
<path d="M31.3992 16.7H2.19922C1.59922 16.7 1.19922 16.2 1.19922 15.7C1.19922 15.1 1.69922 14.7 2.19922 14.7H31.3992C31.9992 14.7 32.3992 15.2 32.3992 15.7C32.3992 16.2 31.9992 16.7 31.3992 16.7Z" fill="#7B7B7B"/>
<path d="M14.7992 16.7C14.3992 16.7 13.9992 16.5 13.8992 16.1L10.8992 8.30005H2.19922C1.59922 8.30005 1.19922 7.80005 1.19922 7.30005C1.19922 6.80005 1.69922 6.30005 2.19922 6.30005H11.4992C11.8992 6.30005 12.2992 6.60005 12.3992 6.90005L15.5992 15.3C15.7992 15.8 15.4992 16.4 14.9992 16.6C14.9992 16.7 14.8992 16.7 14.7992 16.7Z" fill="#7B7B7B"/>
<path d="M27.9004 16.7C27.5004 16.7 27.1004 16.5 27.0004 16.1L24.0004 8.30005H15.4004C14.8004 8.30005 14.4004 7.80005 14.4004 7.30005C14.4004 6.80005 14.9004 6.30005 15.4004 6.30005H24.7004C25.1004 6.30005 25.5004 6.60005 25.6004 6.90005L28.8004 15.3C29.0004 15.8 28.7004 16.4 28.2004 16.6C28.2004 16.7 28.0004 16.7 27.9004 16.7Z" fill="#7B7B7B"/>
<path d="M9.29922 6.2C7.59922 6.2 6.19922 4.8 6.19922 3.1C6.19922 1.4 7.59922 0 9.29922 0C10.9992 0 12.3992 1.4 12.3992 3.1C12.3992 4.8 11.0992 6.2 9.29922 6.2ZM9.29922 2C8.69922 2 8.29922 2.5 8.29922 3.1C8.29922 3.7 8.79922 4.2 9.39922 4.2C9.99922 4.2 10.4992 3.7 10.4992 3.1C10.4992 2.5 9.89922 2 9.29922 2Z" fill="#7B7B7B"/>
<path d="M22.0004 6.2C20.3004 6.2 18.9004 4.8 18.9004 3.1C18.9004 1.4 20.3004 0 22.0004 0C23.7004 0 25.1004 1.4 25.1004 3.1C25.1004 4.8 23.7004 6.2 22.0004 6.2ZM22.0004 2C21.4004 2 20.9004 2.5 20.9004 3.1C20.9004 3.7 21.4004 4.2 22.0004 4.2C22.6004 4.2 23.1004 3.7 23.1004 3.1C23.1004 2.5 22.6004 2 22.0004 2Z" fill="#7B7B7B"/>
</g>
<defs>
<clipPath id="clip0_1307_949">
<rect width="33.4" height="25" fill="white"/>
</clipPath>
</defs>
</svg>
