<svg width="26" height="25" viewBox="0 0 26 25" fill="none" xmlns="http://www.w3.org/2000/svg">
<g clip-path="url(#clip0_1307_986)">
<path d="M24.8008 2.29998C24.6008 1.99998 24.4008 1.69998 24.2008 1.39998C22.0008 -1.50002 16.4008 0.999977 16.4008 0.999977C16.4008 0.999977 7.50084 5.39998 4.60084 7.49998C3.20084 8.49998 -2.29916 14.1 1.00084 21C1.20084 21.5 1.50084 21.9 1.90084 22.3C3.30084 23.6 7.00084 26.2 13.7008 24.5C20.9008 22.6 21.7008 15.5 21.7008 13.3C21.7008 12.8 21.9008 12.4 22.2008 12L24.2008 9.39998C25.8008 7.29998 26.0008 4.59998 24.8008 2.29998ZM7.60084 22.9C7.60084 22.9 15.0008 22.7 19.3008 12.1C19.3008 12.2 19.3008 24.7 7.60084 22.9ZM22.7008 5.49998L19.8008 8.69998L18.8008 9.99998C17.9008 11.1 17.2008 12.6 16.7008 13.7L16.4008 14.5C13.5008 20.5 9.10084 21.4 6.30084 21.2C4.50084 21.1 3.00084 19.8 2.50084 18C1.20084 12.8 5.00084 9.89998 5.70084 9.39998C6.50084 8.89998 12.0008 5.29998 17.5008 2.89998C19.6008 1.99998 20.5008 1.09998 22.2008 2.49998C22.9008 3.09998 23.1008 3.79998 23.1008 4.29998C23.2008 4.69998 23.0008 5.09998 22.7008 5.49998Z" fill="#7B7B7B"/>
<path d="M14.1 9C4.80004 11.4 6.80004 16.8 6.80004 16.8C13.2 16.7 14.1 9 14.1 9Z" fill="#7B7B7B"/>
</g>
<defs>
<clipPath id="clip0_1307_986">
<rect width="25.6" height="25" fill="white"/>
</clipPath>
</defs>
</svg>
