<svg width="27" height="25" viewBox="0 0 27 25" fill="none" xmlns="http://www.w3.org/2000/svg">
<path d="M10.6992 13.6C11.2515 13.6 11.6992 13.1523 11.6992 12.6C11.6992 12.0477 11.2515 11.6 10.6992 11.6C10.1469 11.6 9.69922 12.0477 9.69922 12.6C9.69922 13.1523 10.1469 13.6 10.6992 13.6Z" fill="#7B7B7B"/>
<path d="M16.1992 13.6C16.7515 13.6 17.1992 13.1523 17.1992 12.6C17.1992 12.0477 16.7515 11.6 16.1992 11.6C15.6469 11.6 15.1992 12.0477 15.1992 12.6C15.1992 13.1523 15.6469 13.6 16.1992 13.6Z" fill="#7B7B7B"/>
<path d="M26.8998 6.5C26.6998 5.1 26.0998 3.8 25.1998 2.7C24.0998 1.4 22.2998 0.1 19.4998 0C19.4998 0 15.8998 0.0999999 14.4998 2.6C13.8998 2.4 13.1998 2.4 12.5998 2.6C11.1998 0.2 7.59983 0 7.59983 0C4.69983 0.1 2.89983 1.4 1.79983 2.7C0.899832 3.8 0.299832 5.1 0.099832 6.5C-0.400168 10.7 1.09983 13.9 1.89983 14.8C2.09983 15.1 2.49983 15.1 2.79983 14.9L3.09983 14.7C3.29983 14.5 3.39983 14.2 3.29983 13.9C2.59983 12.3 0.499832 7.2 3.49983 4.8C6.29983 2.6 7.99983 4.2 8.69983 5C8.59983 5.1 8.49983 5.1 8.49983 5.2C7.29983 5.8 5.39983 6.1 4.69983 6.2C4.49983 6.2 4.29983 6.4 4.19983 6.6C3.79983 8 5.89983 9.1 6.39983 9.3C6.29983 9.6 6.29983 9.8 6.29983 10.1C6.29983 10.4 6.29983 10.6 6.29983 10.9C6.39983 11.8 6.69983 13.6 7.79983 15C8.69983 16.2 9.59983 19.1 9.99983 21.8C10.1998 23.6 11.6998 25 13.4998 25H13.6998H13.7998C15.5998 25 17.0998 23.6 17.2998 21.8C17.5998 19.1 18.4998 16.2 19.4998 15C20.5998 13.6 20.8998 11.9 20.9998 10.9C20.9998 10.6 20.9998 10.3 20.9998 10.1C20.9998 9.8 20.8998 9.5 20.8998 9.3C21.3998 9 23.2998 8 22.9998 6.6C22.9998 6.4 22.6998 6.2 22.4998 6.2C21.7998 6.1 19.9998 5.9 18.6998 5.3C18.5998 5.2 18.4998 5 18.2998 4.9C18.9998 4.1 20.6998 2.7 23.3998 4.8C26.3998 7.2 24.3998 12.3 23.5998 13.9C23.4998 14.2 23.5998 14.5 23.7998 14.7L24.0998 14.9C24.3998 15.1 24.7998 15.1 24.9998 14.8C25.8998 13.9 27.3998 10.7 26.8998 6.5ZM19.3998 10.8C19.2998 11.4 19.0998 12.9 18.2998 14.1C16.9998 15.8 16.0998 19.1 15.7998 21.6C15.6998 22.7 14.7998 23.4 13.7998 23.5H13.6998H13.4998C12.4998 23.5 11.5998 22.7 11.4998 21.6C11.1998 19.1 10.2998 15.8 8.99983 14.1C8.09983 13 7.89983 11.4 7.89983 10.8C7.89983 10.6 7.89983 10.5 7.89983 10.3C8.39983 6.1 11.2998 4.6 12.9998 4C13.1998 4 13.3998 4 13.5998 4C13.7998 4 13.9998 4 14.1998 4C15.8998 4.5 18.7998 6 19.3998 10.3C19.3998 10.5 19.3998 10.7 19.3998 10.8Z" fill="#7B7B7B"/>
</svg>
