<svg width="32" height="25" viewBox="0 0 32 25" fill="none" xmlns="http://www.w3.org/2000/svg">
<g clip-path="url(#clip0_1307_936)">
<path d="M31.4008 12C30.6008 10.6 28.8008 7.9 25.3008 6.2C24.2008 1.7 20.6008 0.2 20.5008 0.1C20.4008 0 20.3008 0 20.2008 0H9.90084C9.50084 0 9.20084 0.3 9.20084 0.7C9.20084 1.1 9.40084 1.4 9.80084 1.5C10.7008 1.7 11.2008 3.3 11.3008 3.8L11.5008 6.4C10.4008 7.1 9.10084 8 7.80084 9.2C6.70084 7.8 4.00084 4.9 0.700842 5C0.400842 5 0.200842 5.2 0.100842 5.5C0.000841677 5.7 0.000841677 6 0.200842 6.3C0.400842 6.5 4.40084 11.7 0.100842 20C0.000841677 20.3 0.000841677 20.6 0.200842 20.8C0.300842 20.9 0.500842 21 0.800842 21C0.900842 21 0.900842 21 1.00084 21C1.20084 21 5.10084 20.1 7.80084 16.3C8.90084 17.2 11.0008 18.8 13.9008 19.8C13.6008 21.1 13.1008 22.9 12.4008 23.6C12.2008 23.8 12.1008 24.1 12.2008 24.4C12.3008 24.7 12.6008 24.9 12.9008 24.9H17.0008C17.1008 24.9 17.1008 24.9 17.2008 24.9C17.3008 24.9 20.2008 24.2 22.0008 20.3C25.3008 19.5 28.4008 17.4 31.2008 14C31.7008 13.5 31.8008 12.6 31.4008 12ZM12.9008 3.7C12.8008 3.7 12.8008 3.6 12.9008 3.7C12.9008 3.4 12.6008 2.4 12.1008 1.5H20.0008C20.5008 1.8 22.4008 2.9 23.5008 5.4C22.2008 4.9 20.6008 4.6 18.9008 4.5C18.6008 4.5 16.3008 4.3 13.1008 5.7L12.9008 3.7ZM16.9008 23.5H14.2008C14.7008 22.4 15.1008 21.2 15.2008 20.3C16.3008 20.6 17.4008 20.7 18.6008 20.7C18.8008 20.7 19.0008 20.7 19.2008 20.7C19.4008 20.7 19.7008 20.7 19.9008 20.6C18.8008 22.8 17.3008 23.4 16.9008 23.5ZM30.0008 13.1C26.7008 17 23.1008 19 19.2008 19.2C13.0008 19.5 8.10084 14.7 8.10084 14.7C8.00084 14.6 7.80084 14.5 7.60084 14.5H7.50084C7.30084 14.5 7.10084 14.7 6.90084 14.9C5.60084 17.1 3.60084 18.4 2.20084 19C4.60084 13.2 3.30084 8.9 2.20084 6.8C4.90084 7.6 7.00084 10.8 7.10084 10.8C7.20084 11 7.40084 11.1 7.60084 11.1C7.80084 11.1 8.00084 11.1 8.20084 10.9C13.7008 5.7 18.6008 6.1 18.6008 6.1C25.7008 6.5 28.9008 10.9 30.0008 12.7C30.1008 12.8 30.1008 13 30.0008 13.1Z" fill="#7B7B7B"/>
<path d="M24.3016 11.7C24.9643 11.7 25.5016 11.1628 25.5016 10.5C25.5016 9.83731 24.9643 9.30005 24.3016 9.30005C23.6388 9.30005 23.1016 9.83731 23.1016 10.5C23.1016 11.1628 23.6388 11.7 24.3016 11.7Z" fill="#7B7B7B"/>
</g>
<defs>
<clipPath id="clip0_1307_936">
<rect width="31.6" height="25" fill="white"/>
</clipPath>
</defs>
</svg>
