<svg width="36" height="25" viewBox="0 0 36 25" fill="none" xmlns="http://www.w3.org/2000/svg">
<g clip-path="url(#clip0_1307_945)">
<path d="M35.3 25H33.3V2H2V25H0V0H35.3V25Z" fill="#7B7B7B"/>
<path d="M29.0008 14L26.9008 11.9L29.1008 9.70002L30.4008 11V5.40002L29.1008 6.70002L26.8008 4.40002H23.8008L21.6008 6.60002L19.5008 4.50002L19.6008 4.40002H16.4008L16.5008 4.50002L13.9008 7.00002L11.5008 4.80002L11.9008 4.40002H7.90078L8.40078 4.90002L6.70078 6.70002L4.80078 4.80002V7.80002L5.10078 8.10002L4.80078 8.50002V11.5L6.60078 9.70002L9.00078 12L6.80078 14.2L4.90078 12.3V15.3L5.30078 15.7L4.90078 16.1V19.1L6.80078 17.2L8.90078 19.3L4.80078 23.4V24.4H6.80078L10.3008 20.9L12.6008 23.2L11.4008 24.4H16.8008L15.6008 23.2L17.8008 21L20.0008 23L18.7008 24.3H24.4008L23.0008 23L25.6008 20.4L30.0008 24.3H30.5008V21.9L27.2008 18.9L29.0008 17L30.5008 18.5V12.6L29.0008 14ZM25.3008 5.90002L27.6008 8.20002L25.4008 10.4L23.1008 8.10002L25.3008 5.90002ZM23.9008 11.9L21.8008 14L19.3008 11.8L21.5008 9.60002L23.9008 11.9ZM17.9008 6.00002L20.0008 8.10002L17.7008 10.4L15.5008 8.40002L17.9008 6.00002ZM14.0008 9.90002L16.2008 11.9L14.0008 14.1L12.0008 12L14.0008 9.90002ZM8.20078 8.20002L10.0008 6.30002L12.4008 8.50002L10.4008 10.5L8.20078 8.20002ZM8.30078 15.7L10.5008 13.5L12.6008 15.6L10.4008 17.8L8.30078 15.7ZM14.2008 21.6L11.9008 19.3L14.1008 17.1L16.4008 19.4L14.2008 21.6ZM15.6008 15.6L17.8008 13.4L20.3008 15.6L17.9008 18L15.6008 15.6ZM21.5008 21.5L19.4008 19.4L21.8008 17L24.0008 19L21.5008 21.5ZM25.5008 17.5L23.3008 15.5L25.3008 13.5L27.4008 15.6L25.5008 17.5Z" fill="#7B7B7B"/>
</g>
<defs>
<clipPath id="clip0_1307_945">
<rect width="35.3" height="25" fill="white"/>
</clipPath>
</defs>
</svg>
