<svg width="29" height="25" viewBox="0 0 29 25" fill="none" xmlns="http://www.w3.org/2000/svg">
<g clip-path="url(#clip0_1307_917)">
<path d="M14.1 5.70002V0.400024H12.5V5.00002L8.9 8.80002H5.3L1.7 5.20002V0.400024H0V5.90002L4 9.90002L2 15.9V25H3.6V16.1L5.5 10.5H8.1L6.3 15.3L8.6 20.2V25H10.3V19.8L8.1 15.3L10.1 9.90002L14.1 5.70002Z" fill="#7B7B7B"/>
<path d="M7.19961 6.2C5.49961 6.2 4.09961 4.8 4.09961 3.1C4.09961 1.4 5.49961 0 7.19961 0C8.89961 0 10.2996 1.4 10.2996 3.1C10.2996 4.8 8.79961 6.2 7.19961 6.2ZM7.19961 2C6.59961 2 6.09961 2.5 6.09961 3.1C6.09961 3.7 6.59961 4.2 7.19961 4.2C7.79961 4.2 8.29961 3.7 8.29961 3.1C8.29961 2.5 7.69961 2 7.19961 2Z" fill="#7B7B7B"/>
<path d="M21.9008 6.2C20.2008 6.2 18.8008 4.8 18.8008 3.1C18.8008 1.4 20.2008 0 21.9008 0C23.6008 0 25.0008 1.4 25.0008 3.1C25.0008 4.8 23.6008 6.2 21.9008 6.2ZM21.9008 2C21.3008 2 20.8008 2.5 20.8008 3.1C20.8008 3.7 21.3008 4.2 21.9008 4.2C22.5008 4.2 23.0008 3.7 23.0008 3.1C23.0008 2.5 22.5008 2 21.9008 2Z" fill="#7B7B7B"/>
<path d="M28.4992 5.80002V0.400024H26.7992V5.10002L23.3992 8.50002H18.3992L14.4992 11.6L12.6992 15.5L14.2992 16.2L15.7992 12.6L18.5992 10.5V16.1L16.5992 20.3V25H18.2992V20.6L20.2992 16.5V10.2H22.6992V16.3L25.0992 20.8V25H26.7992V20.3L24.2992 15.9V9.90002L28.4992 5.80002Z" fill="#7B7B7B"/>
</g>
<defs>
<clipPath id="clip0_1307_917">
<rect width="28.5" height="25" fill="white"/>
</clipPath>
</defs>
</svg>
