<svg width="25" height="25" viewBox="0 0 25 25" fill="none" xmlns="http://www.w3.org/2000/svg">
<g clip-path="url(#clip0_1307_929)">
<path d="M21.9 25H2.7C1.2 25 0 23.8 0 22.3V2.7C0 1.2 1.2 0 2.7 0H21.9C23.4 0 24.6 1.2 24.6 2.7V22.3C24.6 23.8 23.4 25 21.9 25ZM2.7 1.5C2.1 1.5 1.5 2 1.5 2.7V22.3C1.5 22.9 2 23.5 2.7 23.5H21.9C22.5 23.5 23.1 23 23.1 22.3V2.7C23.1 2.1 22.6 1.5 21.9 1.5H2.7Z" fill="#7B7B7B"/>
<path d="M12.3 15.3001C13.8464 15.3001 15.1 14.0465 15.1 12.5001C15.1 10.9537 13.8464 9.70007 12.3 9.70007C10.7536 9.70007 9.5 10.9537 9.5 12.5001C9.5 14.0465 10.7536 15.3001 12.3 15.3001Z" fill="#7B7B7B"/>
<path d="M20.9996 11.5C20.9996 9.00005 19.1996 7.10005 16.8996 7.10005C16.7996 7.10005 16.6996 7.10005 16.5996 7.10005C16.1996 5.20005 14.3996 3.80005 12.2996 3.80005C10.1996 3.80005 8.39961 5.20005 7.99961 7.10005C7.89961 7.10005 7.79961 7.10005 7.69961 7.10005C5.39961 7.10005 3.59961 9.10005 3.59961 11.5C3.59961 13.1 4.39961 14.5 5.59961 15.3C4.99961 16.8 5.39961 18.7 6.59961 19.9C8.19961 21.5 10.6996 21.6 12.3996 20.3C14.0996 21.7 16.5996 21.6 18.1996 19.9C19.4996 18.6 19.7996 16.7 19.1996 15.1C20.2996 14.4 20.9996 13.1 20.9996 11.5ZM17.5996 14.6C18.0996 15.8 17.7996 17.2 16.7996 18.2C15.5996 19.4 13.5996 19.5 12.3996 18.5C11.0996 19.6 9.19961 19.5 7.99961 18.2C6.99961 17.2 6.79961 15.8 7.19961 14.7C6.29961 14.1 5.69961 13 5.69961 11.8C5.69961 9.90005 7.09961 8.40005 8.79961 8.40005C8.89961 8.40005 8.99961 8.40005 8.99961 8.40005C9.29961 6.90005 10.6996 5.80005 12.2996 5.80005C13.8996 5.80005 15.2996 6.90005 15.5996 8.40005C15.6996 8.40005 15.7996 8.40005 15.7996 8.40005C17.4996 8.40005 18.8996 9.90005 18.8996 11.8C18.9996 12.9 18.3996 14 17.5996 14.6Z" fill="#7B7B7B"/>
</g>
<defs>
<clipPath id="clip0_1307_929">
<rect width="24.6" height="25" fill="white"/>
</clipPath>
</defs>
</svg>
